<svg width="27" height="26" viewBox="0 0 27 26" fill="none" xmlns="http://www.w3.org/2000/svg">
<path d="M7.66683 13L12.0418 17.375L19.3335 8.62498M1.8335 20.0003V6.00026C1.8335 4.36678 1.8335 3.54943 2.15139 2.92552C2.43102 2.37671 2.87689 1.93084 3.4257 1.65121C4.04961 1.33331 4.86696 1.33331 6.50045 1.33331H20.5004C22.1339 1.33331 22.9495 1.33331 23.5734 1.65121C24.1223 1.93084 24.5696 2.37671 24.8492 2.92552C25.1668 3.54882 25.1668 4.36518 25.1668 5.99547V20.0052C25.1668 21.6355 25.1668 22.4507 24.8492 23.074C24.5696 23.6228 24.1223 24.0694 23.5734 24.3491C22.9501 24.6666 22.135 24.6666 20.5047 24.6666H6.49566C4.86536 24.6666 4.049 24.6666 3.4257 24.3491C2.87689 24.0694 2.43102 23.6228 2.15139 23.074C1.8335 22.4501 1.8335 21.6338 1.8335 20.0003Z" stroke="#A3A3A3" stroke-width="2" stroke-linecap="round" stroke-linejoin="round"/>
</svg>
