<svg width="20" height="20" viewBox="0 0 20 20" fill="none" xmlns="http://www.w3.org/2000/svg">
<path d="M18.1592 4.40518C17.5112 4.00283 16.7649 3.93955 15.8709 4.11377C15.2942 4.22627 14.6672 4.45752 13.9952 4.80986C14.0049 4.56533 14.0102 4.32314 14.0102 4.08486H14.0027C14.0229 3.97549 14.0334 3.86455 14.0334 3.75283C14.0334 1.86143 11.0649 0.328613 7.40344 0.328613C3.74194 0.328613 0.773438 1.86221 0.773438 3.75283C0.773438 3.86455 0.783938 3.97549 0.804188 4.08486H0.800438C0.774938 8.06143 1.56094 12.0458 1.50019 16.0185C1.47094 17.9083 3.72694 19.4114 7.38619 19.4114C11.0454 19.4114 12.8612 17.8724 12.8612 16.0185C12.8612 15.7661 12.8657 15.5138 12.8739 15.2599C14.7947 15.3677 16.4042 14.4536 17.5329 13.17C18.7059 11.8372 19.4244 10.1169 19.6089 8.50361C19.7934 6.89033 19.4522 5.20908 18.1569 4.40439L18.1592 4.40518ZM7.42894 2.25908C10.2227 2.25908 12.4869 3.05752 12.4869 4.04189C12.4869 4.05596 12.4862 4.0708 12.4854 4.08486C12.4847 4.09971 12.4832 4.11455 12.4809 4.12939C12.4787 4.14346 12.4764 4.15674 12.4734 4.1708C12.4734 4.17236 12.4727 4.17314 12.4727 4.17471C12.4697 4.18799 12.4667 4.20049 12.4629 4.21299C12.4622 4.21533 12.4622 4.21689 12.4614 4.21924C12.4577 4.23174 12.4539 4.24346 12.4502 4.25596C12.4494 4.2583 12.4487 4.26143 12.4479 4.26377C12.4434 4.27549 12.4389 4.28721 12.4344 4.29893C12.4329 4.30205 12.4322 4.30518 12.4307 4.3083C12.4262 4.31924 12.4209 4.33096 12.4149 4.34189C12.4134 4.34502 12.4119 4.34893 12.4104 4.35205C12.4052 4.36299 12.3992 4.37393 12.3932 4.38408C12.3909 4.38799 12.3894 4.39111 12.3872 4.39502C12.3812 4.40518 12.3744 4.41611 12.3684 4.42627C12.3662 4.43018 12.3639 4.43408 12.3609 4.43799C12.3542 4.44814 12.3474 4.4583 12.3399 4.46846C12.3369 4.47236 12.3347 4.47627 12.3317 4.48096C12.3242 4.49111 12.3167 4.50049 12.3092 4.51064C12.3062 4.51455 12.3032 4.51924 12.2994 4.52314C12.2919 4.53252 12.2837 4.54268 12.2754 4.55205C12.2717 4.55596 12.2687 4.56064 12.2649 4.56455C12.2567 4.57393 12.2477 4.5833 12.2394 4.59268C12.2357 4.59736 12.2312 4.60127 12.2274 4.60596C12.2184 4.61533 12.2094 4.62471 12.2004 4.6333C12.1959 4.63799 12.1914 4.64189 12.1869 4.64658C12.1779 4.65596 12.1682 4.66455 12.1584 4.67314C12.1532 4.67783 12.1487 4.68252 12.1434 4.68643C12.1337 4.69502 12.1239 4.70439 12.1134 4.71299C12.1082 4.71768 12.1029 4.72236 12.0977 4.72705C12.0872 4.73564 12.0767 4.74424 12.0662 4.75283C12.0602 4.75752 12.0549 4.76221 12.0489 4.76689C12.0384 4.77549 12.0272 4.78408 12.0159 4.79189C12.0099 4.79658 12.0039 4.80127 11.9979 4.80596C11.9867 4.81455 11.9754 4.82236 11.9642 4.83018C11.9574 4.83486 11.9514 4.83955 11.9447 4.84424C11.9334 4.85205 11.9214 4.85986 11.9094 4.86846C11.9027 4.87314 11.8952 4.87783 11.8884 4.88252C11.8764 4.89033 11.8644 4.89814 11.8524 4.90596C11.8449 4.91064 11.8374 4.91533 11.8299 4.92002C11.8179 4.92783 11.8052 4.93564 11.7924 4.94268C11.7849 4.94736 11.7767 4.95205 11.7692 4.95674C11.7564 4.96455 11.7437 4.97158 11.7302 4.97939C11.7219 4.98408 11.7137 4.98877 11.7054 4.99346C11.6927 5.00049 11.6792 5.0083 11.6657 5.01533C11.6567 5.02002 11.6484 5.02471 11.6394 5.02939C11.6259 5.03643 11.6124 5.04346 11.5982 5.05049C11.5892 5.05518 11.5802 5.05986 11.5712 5.06455C11.5569 5.07158 11.5434 5.07861 11.5292 5.08564C11.5194 5.09033 11.5104 5.09502 11.5007 5.09971C11.4864 5.10674 11.4722 5.11299 11.4572 5.12002C11.4474 5.12471 11.4377 5.12939 11.4272 5.1333C11.4129 5.13955 11.3979 5.14658 11.3829 5.15283C11.3724 5.15752 11.3619 5.16221 11.3522 5.16611C11.3372 5.17236 11.3222 5.17861 11.3072 5.18564C11.2967 5.19033 11.2854 5.19424 11.2749 5.19893C11.2599 5.20518 11.2442 5.21143 11.2284 5.21768C11.2172 5.22236 11.2067 5.22627 11.1954 5.23096C11.1797 5.23721 11.1639 5.24346 11.1482 5.24893C11.1369 5.25361 11.1249 5.25752 11.1137 5.26221C11.0979 5.26846 11.0822 5.27393 11.0657 5.28018C11.0537 5.28486 11.0417 5.28877 11.0297 5.29346C11.0139 5.29893 10.9974 5.30518 10.9809 5.31064C10.9689 5.31455 10.9562 5.31924 10.9442 5.32314C10.9277 5.32861 10.9112 5.33408 10.8947 5.33955C10.8819 5.34346 10.8692 5.34815 10.8564 5.35205C10.8399 5.35752 10.8234 5.36299 10.8062 5.36846C10.7927 5.37236 10.7799 5.37705 10.7664 5.38096C10.7499 5.38643 10.7327 5.39111 10.7154 5.39658C10.7019 5.40049 10.6884 5.40439 10.6749 5.4083C10.6577 5.41299 10.6404 5.41846 10.6232 5.42314C10.6089 5.42705 10.5954 5.43096 10.5812 5.43486C10.5639 5.43955 10.5467 5.44424 10.5294 5.44893C10.5152 5.45283 10.5009 5.45674 10.4859 5.46064C10.4687 5.46533 10.4507 5.47002 10.4327 5.47471C10.4184 5.47861 10.4034 5.48252 10.3884 5.48564C10.3704 5.49033 10.3524 5.49502 10.3344 5.49893C10.3194 5.50283 10.3044 5.50596 10.2894 5.50986C10.2714 5.51455 10.2534 5.51846 10.2354 5.52314C10.2204 5.52705 10.2047 5.53018 10.1889 5.53408C10.1709 5.53799 10.1529 5.54268 10.1342 5.54658C10.1184 5.55049 10.1027 5.55361 10.0869 5.55674C10.0682 5.56064 10.0502 5.56455 10.0314 5.56846C10.0157 5.57158 9.99919 5.57549 9.98344 5.57861C9.96469 5.58252 9.94594 5.58643 9.92719 5.59033C9.91069 5.59346 9.89419 5.59658 9.87844 5.59971C9.85969 5.60361 9.84094 5.60674 9.82144 5.61064C9.80494 5.61377 9.78769 5.61689 9.77119 5.62002C9.75244 5.62393 9.73294 5.62705 9.71419 5.63018C9.69694 5.6333 9.67969 5.63643 9.66244 5.63955C9.64369 5.64268 9.62419 5.6458 9.60469 5.64971C9.58744 5.65283 9.56944 5.65518 9.55219 5.6583C9.53269 5.66143 9.51319 5.66455 9.49369 5.66768C9.47569 5.6708 9.45844 5.67314 9.44044 5.67627C9.42094 5.67939 9.40144 5.68252 9.38194 5.68486C9.36394 5.68721 9.34519 5.69033 9.32719 5.69268C9.30769 5.6958 9.28819 5.69814 9.26869 5.70127C9.24994 5.70361 9.23119 5.70596 9.21244 5.70908C9.19294 5.71143 9.17344 5.71455 9.15319 5.71689C9.13444 5.71924 9.11569 5.72158 9.09694 5.72393C9.07744 5.72627 9.05719 5.72861 9.03769 5.73096C9.01894 5.7333 8.99944 5.73564 8.98069 5.73721C8.96044 5.73955 8.94094 5.74189 8.92069 5.74424C8.90119 5.74658 8.88169 5.74815 8.86294 5.75049C8.84269 5.75283 8.82244 5.75439 8.80219 5.75674C8.78269 5.7583 8.76319 5.76064 8.74369 5.76221C8.72344 5.76377 8.70319 5.76611 8.68219 5.76768C8.66119 5.76924 8.64169 5.7708 8.62144 5.77314C8.60119 5.77471 8.58169 5.77627 8.56144 5.77861C8.54119 5.78096 8.51944 5.78174 8.49844 5.7833C8.47894 5.78486 8.45944 5.78643 8.43919 5.78799C8.41819 5.78955 8.39644 5.79111 8.37544 5.79268C8.35594 5.79424 8.33569 5.79502 8.31619 5.79658C8.29444 5.79814 8.27269 5.79893 8.25019 5.80049C8.23069 5.80127 8.21119 5.80283 8.19169 5.80361C8.16919 5.80518 8.14669 5.80596 8.12419 5.80674C8.10469 5.80752 8.08594 5.8083 8.06644 5.80986C8.04394 5.81064 8.02069 5.81143 7.99819 5.81299C7.97869 5.81377 7.95994 5.81455 7.94044 5.81533C7.91719 5.81611 7.89394 5.81689 7.87069 5.81768C7.85119 5.81846 7.83244 5.81924 7.81294 5.81924C7.78894 5.82002 7.76494 5.82002 7.74019 5.8208C7.72144 5.82158 7.70344 5.82158 7.68469 5.82236C7.65619 5.82314 7.62844 5.82314 7.59994 5.82314C7.58494 5.82314 7.57069 5.82393 7.55569 5.82393C7.51369 5.82393 7.47094 5.82471 7.42894 5.82471H7.42669C7.38319 5.82471 7.34044 5.82471 7.29694 5.82393C7.28419 5.82393 7.27144 5.82393 7.25869 5.82314C7.22869 5.82314 7.19794 5.82236 7.16794 5.82158C7.15144 5.82158 7.13494 5.8208 7.11844 5.8208C7.09219 5.82002 7.06594 5.82002 7.04044 5.81924C7.02319 5.81846 7.00594 5.81846 6.98794 5.81768C6.96319 5.81689 6.93769 5.81611 6.91294 5.81533C6.89569 5.81455 6.87844 5.81377 6.86119 5.81299C6.83644 5.81221 6.81169 5.81143 6.78694 5.80986C6.76969 5.80908 6.75244 5.8083 6.73519 5.80752C6.71044 5.80596 6.68644 5.80518 6.66169 5.80361C6.64444 5.80283 6.62719 5.80127 6.60919 5.80049C6.58519 5.79893 6.56119 5.79814 6.53719 5.79658C6.51919 5.7958 6.50194 5.79424 6.48394 5.79268C6.46069 5.79111 6.43744 5.78955 6.41419 5.78799C6.39619 5.78643 6.37894 5.78564 6.36094 5.78408C6.33769 5.78252 6.31444 5.78096 6.29194 5.77861C6.27394 5.77705 6.25594 5.77549 6.23794 5.77393C6.21544 5.77236 6.19369 5.77002 6.17119 5.76846C6.15244 5.76689 6.13444 5.76533 6.11644 5.76299C6.09469 5.76064 6.07294 5.75908 6.05119 5.75674C6.03319 5.75518 6.01519 5.75283 5.99719 5.75127C5.97544 5.74893 5.95444 5.74658 5.93269 5.74424C5.91469 5.74268 5.89669 5.74033 5.87869 5.73799C5.85769 5.73564 5.83594 5.7333 5.81494 5.73096C5.79694 5.72861 5.77969 5.72627 5.76169 5.72471C5.74069 5.72236 5.71969 5.71924 5.69869 5.71689C5.68144 5.71455 5.66344 5.71221 5.64619 5.70986C5.62519 5.70674 5.60419 5.70439 5.58394 5.70127C5.56669 5.69893 5.54944 5.69658 5.53219 5.69424C5.51194 5.69111 5.49094 5.68877 5.47069 5.68564C5.45344 5.6833 5.43619 5.68018 5.41894 5.67783C5.39869 5.67471 5.37919 5.67158 5.35894 5.66846C5.34169 5.66533 5.32444 5.66299 5.30719 5.65986C5.28769 5.65674 5.26744 5.65361 5.24794 5.65049C5.23069 5.64736 5.21419 5.64502 5.19694 5.64189C5.17744 5.63877 5.15794 5.63486 5.13844 5.63174C5.12119 5.62861 5.10469 5.62549 5.08819 5.62236C5.06869 5.61846 5.04994 5.61533 5.03119 5.61143C5.01469 5.6083 4.99744 5.60518 4.98094 5.60205C4.96219 5.59814 4.94344 5.59502 4.92544 5.59111C4.90894 5.58799 4.89244 5.58408 4.87594 5.58096C4.85719 5.57705 4.83919 5.57314 4.82119 5.56924C4.80469 5.56611 4.78894 5.56221 4.77244 5.55908C4.75444 5.55518 4.73569 5.55127 4.71844 5.54736C4.70269 5.54346 4.68619 5.54033 4.67044 5.53643C4.65244 5.53252 4.63519 5.52861 4.61719 5.52393C4.60144 5.52002 4.58569 5.51611 4.56919 5.51221C4.55194 5.5083 4.53469 5.50361 4.51744 5.49971C4.50169 5.4958 4.48594 5.49189 4.47019 5.48799C4.45294 5.4833 4.43644 5.47939 4.41919 5.47471C4.40344 5.4708 4.38844 5.46689 4.37344 5.46221C4.35694 5.45752 4.33969 5.45283 4.32319 5.44893C4.30819 5.44502 4.29319 5.44033 4.27819 5.43643C4.26169 5.43174 4.24519 5.42705 4.22944 5.42236C4.21444 5.41768 4.19944 5.41377 4.18444 5.40908C4.16869 5.40439 4.15294 5.39971 4.13719 5.39502C4.12219 5.39033 4.10794 5.38643 4.09294 5.38174C4.07719 5.37705 4.06144 5.37236 4.04644 5.36689C4.03219 5.36221 4.01794 5.35752 4.00294 5.35283C3.98794 5.34814 3.97294 5.34268 3.95794 5.33799C3.94294 5.3333 3.92944 5.32861 3.91519 5.32393C3.90019 5.31924 3.88594 5.31377 3.87094 5.30908C3.85594 5.30439 3.84319 5.29893 3.82894 5.29424C3.81469 5.28877 3.80044 5.28408 3.78619 5.27861C3.77194 5.27314 3.75919 5.26846 3.74494 5.26377C3.73069 5.2583 3.71719 5.25361 3.70369 5.24814C3.69019 5.24268 3.67669 5.23799 3.66319 5.23252C3.64969 5.22705 3.63619 5.22158 3.62344 5.21689C3.61069 5.21221 3.59719 5.20596 3.58369 5.20049C3.57019 5.19502 3.55744 5.18955 3.54469 5.18408C3.53194 5.17861 3.51919 5.17314 3.50644 5.16768C3.49369 5.16221 3.48094 5.15674 3.46894 5.15127C3.45694 5.1458 3.44344 5.14033 3.43144 5.13486C3.41944 5.1294 3.40744 5.12393 3.39469 5.11846C3.38194 5.11299 3.36994 5.10674 3.35794 5.10127C3.34594 5.0958 3.33469 5.09033 3.32269 5.08408C3.31069 5.07783 3.29869 5.07236 3.28669 5.06611C3.27544 5.06064 3.26419 5.05439 3.25294 5.04893C3.24169 5.04346 3.22969 5.03721 3.21844 5.03096C3.20719 5.02549 3.19669 5.01924 3.18544 5.01377C3.17419 5.0083 3.16294 5.00205 3.15244 4.9958C3.14194 4.98955 3.13144 4.98408 3.12094 4.97783C3.11044 4.97158 3.09919 4.96533 3.08869 4.95908C3.07894 4.95283 3.06844 4.94736 3.05869 4.94111C3.04894 4.93486 3.03769 4.92861 3.02719 4.92236C3.01744 4.91611 3.00769 4.91065 2.99869 4.90439C2.98969 4.89814 2.97844 4.89189 2.96869 4.88486C2.95969 4.87861 2.95069 4.87236 2.94094 4.86689C2.93119 4.86143 2.92144 4.85361 2.91169 4.84736C2.90269 4.84111 2.89444 4.83486 2.88544 4.82861C2.87569 4.82158 2.86669 4.81533 2.85769 4.8083C2.84944 4.80205 2.84119 4.7958 2.83369 4.78955C2.82469 4.78252 2.81569 4.77549 2.80669 4.76924C2.79919 4.76299 2.79094 4.75674 2.78344 4.75049C2.77519 4.74346 2.76619 4.73643 2.75794 4.72939C2.75044 4.72315 2.74369 4.71689 2.73619 4.71064C2.72794 4.70361 2.71969 4.69658 2.71219 4.68955C2.70544 4.6833 2.69869 4.67705 2.69194 4.6708C2.68444 4.66377 2.67619 4.65674 2.66944 4.64893C2.66269 4.64268 2.65669 4.63643 2.65069 4.63018C2.64319 4.62315 2.63644 4.61533 2.62894 4.6083C2.62294 4.60205 2.61694 4.5958 2.61169 4.58955C2.60494 4.58174 2.59819 4.57471 2.59144 4.56689C2.58619 4.56064 2.58094 4.55439 2.57569 4.54814C2.56969 4.54033 2.56294 4.5333 2.55694 4.52549C2.55169 4.51924 2.54719 4.51299 2.54194 4.50674C2.53594 4.49893 2.52994 4.49111 2.52469 4.4833C2.52019 4.47705 2.51569 4.47002 2.51119 4.46377C2.50594 4.45596 2.50069 4.44814 2.49544 4.44033C2.49094 4.43408 2.48719 4.42705 2.48344 4.4208C2.47894 4.41299 2.47369 4.40518 2.46919 4.39736C2.46544 4.39111 2.46244 4.38486 2.45869 4.37783C2.45419 4.37002 2.44969 4.36143 2.44594 4.35361C2.44294 4.34736 2.43994 4.34111 2.43694 4.33408C2.43319 4.32549 2.42944 4.31768 2.42569 4.30908C2.42269 4.30283 2.42044 4.29658 2.41819 4.29033C2.41519 4.28174 2.41144 4.27393 2.40844 4.26533C2.40619 4.25908 2.40469 4.25283 2.40244 4.24658C2.39944 4.23799 2.39719 4.22939 2.39419 4.22158C2.39269 4.21533 2.39119 4.20908 2.38969 4.20283C2.38744 4.19424 2.38519 4.18564 2.38369 4.17705C2.38219 4.1708 2.38144 4.16455 2.38069 4.1583C2.37919 4.14971 2.37694 4.14033 2.37619 4.13174C2.37544 4.12549 2.37469 4.12002 2.37394 4.11377C2.37319 4.10439 2.37169 4.09502 2.37094 4.08643C2.37019 4.07158 2.36944 4.05674 2.36944 4.04268C2.36944 3.0583 4.63369 2.26064 7.42744 2.26064L7.42894 2.25908ZM17.9432 8.33174C17.8029 9.55752 17.2337 10.9771 16.3299 12.0044C15.4614 12.9919 14.3642 13.5981 12.9849 13.5185C13.1859 11.2692 13.5872 9.01846 13.8242 6.92236C15.7712 5.62627 16.8564 5.61533 17.3312 5.91065C17.8119 6.20908 18.0827 7.10674 17.9424 8.33252L17.9432 8.33174Z" fill="black"/>
</svg>
