<svg width="23" height="22" viewBox="0 0 23 22" fill="none" xmlns="http://www.w3.org/2000/svg">
<path fill-rule="evenodd" clip-rule="evenodd" d="M11.5 2.13542C6.39137 2.13542 2.25 6.10423 2.25 11C2.25 15.8957 6.39137 19.8646 11.5 19.8646C16.6086 19.8646 20.75 15.8957 20.75 11C20.75 6.10423 16.6086 2.13542 11.5 2.13542ZM0.75 11C0.75 5.31032 5.56294 0.697922 11.5 0.697922C17.4371 0.697922 22.25 5.31032 22.25 11C22.25 16.6897 17.4371 21.3021 11.5 21.3021C5.56294 21.3021 0.75 16.6897 0.75 11ZM11.5 4.53126C11.9142 4.53126 12.25 4.85305 12.25 5.25V5.55354C13.8804 5.83331 15.25 7.00721 15.25 8.60417C15.25 9.00112 14.9142 9.32292 14.5 9.32292C14.0858 9.32292 13.75 9.00112 13.75 8.60417C13.75 7.95398 13.1859 7.26575 12.25 7.02051V10.3452C13.8804 10.625 15.25 11.7989 15.25 13.3958C15.25 14.9928 13.8804 16.1667 12.25 16.4465V16.75C12.25 17.1469 11.9142 17.4688 11.5 17.4688C11.0858 17.4688 10.75 17.1469 10.75 16.75V16.4465C9.11957 16.1667 7.75 14.9928 7.75 13.3958C7.75 12.9989 8.08579 12.6771 8.5 12.6771C8.91421 12.6771 9.25 12.9989 9.25 13.3958C9.25 14.0461 9.8141 14.7342 10.75 14.9795V11.6548C9.11957 11.375 7.75 10.2011 7.75 8.60417C7.75 7.00721 9.11957 5.83331 10.75 5.55354V5.25C10.75 4.85305 11.0858 4.53126 11.5 4.53126ZM10.75 7.02051C9.8141 7.26575 9.25 7.95398 9.25 8.60417C9.25 9.2544 9.8141 9.94258 10.75 10.1878V7.02051ZM12.25 11.8122V14.9795C13.1859 14.7342 13.75 14.0461 13.75 13.3958C13.75 12.7456 13.1859 12.0574 12.25 11.8122Z" fill="#1C274C"/>
</svg>
