<svg width="22" height="24" viewBox="0 0 22 24" fill="none" xmlns="http://www.w3.org/2000/svg">
<path d="M11.2657 6.3317L1 17.1106V22.5L6.13286 22.5L16.3986 11.7211M11.2657 6.3317L14.9468 2.4666L14.949 2.4643C15.4557 1.93225 15.7095 1.66576 16.0021 1.56594C16.2598 1.47802 16.5375 1.47802 16.7952 1.56594C17.0876 1.66569 17.3411 1.93188 17.8471 2.46318L20.0796 4.80731C20.5878 5.34088 20.842 5.60779 20.9372 5.91543C21.0209 6.18604 21.0209 6.47754 20.9372 6.74814C20.842 7.05556 20.5882 7.32207 20.0808 7.85489L20.0797 7.85603L16.3986 11.7211M11.2657 6.3317L16.3986 11.7211" stroke="black" stroke-width="2" stroke-linecap="round" stroke-linejoin="round"/>
</svg>
