<svg width="47" height="47" viewBox="0 0 47 47" fill="none" xmlns="http://www.w3.org/2000/svg">
<path fill-rule="evenodd" clip-rule="evenodd" d="M46.4166 23.5C46.4166 36.1564 36.1563 46.4167 23.4999 46.4167C10.8434 46.4167 0.583252 36.1564 0.583252 23.5C0.583252 10.8435 10.8434 0.583344 23.4999 0.583344C36.1563 0.583344 46.4166 10.8435 46.4166 23.5ZM23.4999 36.6771C24.4491 36.6771 25.2187 35.9076 25.2187 34.9583V21.2083C25.2187 20.2591 24.4491 19.4896 23.4999 19.4896C22.5507 19.4896 21.7812 20.2591 21.7812 21.2083V34.9583C21.7812 35.9076 22.5507 36.6771 23.4999 36.6771ZM23.4999 12.0417C24.7656 12.0417 25.7916 13.0677 25.7916 14.3333C25.7916 15.599 24.7656 16.625 23.4999 16.625C22.2342 16.625 21.2083 15.599 21.2083 14.3333C21.2083 13.0677 22.2342 12.0417 23.4999 12.0417Z" fill="#402A1F"/>
</svg>
