<svg width="15" height="18" viewBox="0 0 15 18" fill="none" xmlns="http://www.w3.org/2000/svg">
<path d="M1.95825 7.1825C1.95825 11.4278 5.31846 14.9386 6.80578 16.2846C7.01864 16.4772 7.12634 16.5747 7.28515 16.6241C7.4088 16.6626 7.5908 16.6626 7.71446 16.6241C7.87356 16.5746 7.98051 16.4781 8.19417 16.2847C9.68149 14.9387 13.0415 11.4282 13.0415 7.18288C13.0415 5.57628 12.4577 4.03529 11.4184 2.89926C10.3792 1.76322 8.96972 1.125 7.49998 1.125C6.03024 1.125 4.62063 1.76332 3.58137 2.89935C2.5421 4.03539 1.95825 5.5759 1.95825 7.1825Z" stroke="black" stroke-width="2" stroke-linecap="round" stroke-linejoin="round"/>
<path d="M5.91659 6.375C5.91659 7.3415 6.62547 8.125 7.49992 8.125C8.37437 8.125 9.08325 7.3415 9.08325 6.375C9.08325 5.4085 8.37437 4.625 7.49992 4.625C6.62547 4.625 5.91659 5.4085 5.91659 6.375Z" stroke="black" stroke-width="2" stroke-linecap="round" stroke-linejoin="round"/>
</svg>
