<svg width="50" height="50" viewBox="0 0 50 50" fill="none" xmlns="http://www.w3.org/2000/svg">
<path d="M0 25C0 11.1929 11.1929 0 25 0C38.8071 0 50 11.1929 50 25C50 38.8071 38.8071 50 25 50C11.1929 50 0 38.8071 0 25Z" fill="#E3DAC9"/>
<path d="M24.9999 37.0834C24.7277 37.0834 24.4944 37.0029 24.2999 36.8417C24.1055 36.6806 23.9596 36.4692 23.8624 36.2074C23.493 35.0796 23.0263 34.0223 22.4624 33.0355C21.918 32.0487 21.1499 30.8907 20.1583 29.5615C19.1666 28.2324 18.3596 26.9636 17.7374 25.7553C17.1346 24.547 16.8333 23.0869 16.8333 21.3751C16.8333 19.0188 17.6208 17.0251 19.1958 15.3938C20.7902 13.7424 22.7249 12.9167 24.9999 12.9167C27.2749 12.9167 29.1999 13.7424 30.7749 15.3938C32.3694 17.0251 33.1666 19.0188 33.1666 21.3751C33.1666 23.2077 32.8263 24.7383 32.1458 25.9667C31.4846 27.1751 30.7166 28.3733 29.8416 29.5615C28.7916 31.0115 27.9944 32.2199 27.4499 33.1865C26.9249 34.1331 26.4874 35.14 26.1374 36.2074C26.0402 36.4893 25.8846 36.7108 25.6708 36.872C25.4763 37.0129 25.2527 37.0834 24.9999 37.0834ZM24.9999 32.7636C25.3305 32.0789 25.6999 31.4042 26.1083 30.7397C26.536 30.0751 27.1583 29.189 27.9749 28.0813C28.811 26.9536 29.4916 25.9164 30.0166 24.9699C30.561 24.0032 30.8333 22.8049 30.8333 21.3751C30.8333 19.7036 30.2596 18.2838 29.1124 17.1157C27.9846 15.9275 26.6138 15.3334 24.9999 15.3334C23.386 15.3334 22.0055 15.9275 20.8583 17.1157C19.7305 18.2838 19.1666 19.7036 19.1666 21.3751C19.1666 22.8049 19.4291 24.0032 19.9541 24.9699C20.4985 25.9164 21.1888 26.9536 22.0249 28.0813C22.8416 29.189 23.4541 30.0751 23.8624 30.7397C24.2902 31.4042 24.6694 32.0789 24.9999 32.7636ZM24.9999 24.3959C25.8166 24.3959 26.5069 24.1039 27.0708 23.5199C27.6346 22.9358 27.9166 22.2209 27.9166 21.3751C27.9166 20.5292 27.6346 19.8143 27.0708 19.2303C26.5069 18.6463 25.8166 18.3542 24.9999 18.3542C24.1833 18.3542 23.493 18.6463 22.9291 19.2303C22.3652 19.8143 22.0833 20.5292 22.0833 21.3751C22.0833 22.2209 22.3652 22.9358 22.9291 23.5199C23.493 24.1039 24.1833 24.3959 24.9999 24.3959Z" fill="black"/>
</svg>
