<svg width="50" height="50" viewBox="0 0 50 50" fill="none" xmlns="http://www.w3.org/2000/svg">
<path d="M0 25C0 11.1929 11.1929 0 25 0C38.8071 0 50 11.1929 50 25C50 38.8071 38.8071 50 25 50C11.1929 50 0 38.8071 0 25Z" fill="#E3DAC9"/>
<path d="M38.3334 18.4999C38.3334 17.3083 37.1334 16.3333 35.6667 16.3333H14.3334C12.8667 16.3333 11.6667 17.3083 11.6667 18.4999M38.3334 18.4999V31.4999C38.3334 32.6916 37.1334 33.6666 35.6667 33.6666H14.3334C12.8667 33.6666 11.6667 32.6916 11.6667 31.4999V18.4999M38.3334 18.4999L25.0001 26.0833L11.6667 18.4999" stroke="black" stroke-width="2" stroke-linecap="round" stroke-linejoin="round"/>
</svg>
