<svg width="62" height="58" viewBox="0 0 62 58" fill="none" xmlns="http://www.w3.org/2000/svg">
<path d="M25.8334 48H36.1667C36.1667 49.2598 35.6224 50.468 34.6534 51.3588C33.6845 52.2495 32.3703 52.75 31 52.75C29.6298 52.75 28.3156 52.2495 27.3467 51.3588C26.3777 50.468 25.8334 49.2598 25.8334 48ZM46.5 38.5V24.25C46.4963 20.8849 45.1974 17.6296 42.8333 15.0606C40.4692 12.4916 37.1924 10.7746 33.5834 10.2137V7.625C33.5834 6.99511 33.3112 6.39102 32.8267 5.94562C32.3423 5.50022 31.6852 5.25 31 5.25C30.3149 5.25 29.6578 5.50022 29.1733 5.94562C28.6889 6.39102 28.4167 6.99511 28.4167 7.625V10.2137C24.8076 10.7746 21.5309 12.4916 19.1668 15.0606C16.8027 17.6296 15.5037 20.8849 15.5 24.25V38.5L10.3334 43.25H51.6667L46.5 38.5Z" fill="#463426"/>
</svg>
