<svg width="50" height="50" viewBox="0 0 50 50" fill="none" xmlns="http://www.w3.org/2000/svg">
<path d="M0 25C0 11.1929 11.1929 0 25 0C38.8071 0 50 11.1929 50 25C50 38.8071 38.8071 50 25 50C11.1929 50 0 38.8071 0 25Z" fill="#E3DAC9"/>
<path d="M21.3922 14.2461C20.9535 13.1915 19.8913 12.5 18.71 12.5H14.7368C13.2253 12.5 12 13.6779 12 15.1313C12 27.485 22.4153 37.5 35.2629 37.5C36.7743 37.5 37.9993 36.3217 37.9993 34.8683L38 31.0472C38 29.9113 37.281 28.8901 36.1843 28.4682L32.3761 27.0041C31.391 26.6252 30.2693 26.7957 29.4541 27.4489L28.4713 28.2371C27.3235 29.1568 25.6347 29.0837 24.5782 28.0678L21.8107 25.4043C20.7542 24.3884 20.6762 22.7658 21.6327 21.6621L22.4522 20.7171C23.1315 19.9333 23.3104 18.8544 22.9163 17.9071L21.3922 14.2461Z" stroke="black" stroke-width="2" stroke-linecap="round" stroke-linejoin="round"/>
</svg>
