<svg xmlns="http://www.w3.org/2000/svg" viewBox="0 0 500 500"><g id="freepik--Floor--inject-1270"><path id="freepik--floor--inject-1270" d="M87.8,262.88c-89.59,51.72-89.59,135.57,0,187.3s234.83,51.72,324.41,0,89.59-135.58,0-187.3S177.38,211.16,87.8,262.88Z" style="fill:#f5f5f5"></path></g><g id="freepik--Shadows--inject-1270"><ellipse id="freepik--Shadow--inject-1270" cx="132.45" cy="396.56" rx="71.69" ry="41.39" style="fill:#e0e0e0"></ellipse><ellipse id="freepik--shadow--inject-1270" cx="301.31" cy="326.1" rx="71.69" ry="41.39" style="fill:#e0e0e0"></ellipse><ellipse id="freepik--shadow--inject-1270" cx="359.8" cy="392.92" rx="89.23" ry="51.52" style="fill:#e0e0e0"></ellipse></g><g id="freepik--leaves-2--inject-1270"><g id="freepik--Leaf--inject-1270"><path d="M360.24,289.5a11.48,11.48,0,0,1,.51-4.64c.44-1.11,1.17-2.07,1.66-3.14.8-1.73.94-3.68,1.56-5.48a11,11,0,0,1,2.79-4.32,18.76,18.76,0,0,0,1.76-1.69,9.74,9.74,0,0,0,1.23-2.15c1.17-2.46,2.51-5,4.8-6.47,1.78-1.13,3.89-1.46,5.83-2.2s2.29-2.41,3.75-3.53c2.9-2.21,6.9.45,10.09-1.22,1.62-.85,2.73-1.64,4.66-1.71,1.59-.06,3.19.42,4.75.22s2.59-1.11,4-1.61c2.07-.76,4.26-.21,6.37,0s4.33-.65,6.51-.38a1.05,1.05,0,0,1,.49.16.76.76,0,0,1,.23.76c-.29,1.38-1.61,2.35-2.41,3.43-3.43,4.63-1.51,11.25-4.79,15.83a18.5,18.5,0,0,0-2.17,2.91,7.71,7.71,0,0,0-.55,2.62c-.27,3-.48,6.3-2.35,8.72-1.68,2.17-4.46,3.32-6,5.59-1.29,1.88-1.83,4.58-4,5.4-1,.38-2.08.25-3,.64-1.68.67-2.43,2.67-4,3.63-1.86,1.15-4.35.51-6.34,1.41-1.59.71-2.63,2.29-4.15,3.12-1.91,1-4,.48-5.95,1s-3.54,1.77-5.45,2.31c-1.11.31-2.28.36-3.41.6a14.4,14.4,0,0,0-4.42,1.93c-.42.25-1,.51-1.35.18a1,1,0,0,1-.25-.45,21.23,21.23,0,0,1-1.66-6c-.12-2-.83-4-.45-6.06.29-1.56,1.14-3,1.52-4.49A17.51,17.51,0,0,0,360.24,289.5Z" style="fill:#9C4F06"></path><path d="M397.89,257.7a5.09,5.09,0,0,1-.31.45.44.44,0,0,1-.27.2.32.32,0,0,1-.3-.25.94.94,0,0,1,0-.41c.08-.62.12-1.65-.49-2a1.87,1.87,0,0,0-1.8.33,5.35,5.35,0,0,0-1.41,2.39,34.58,34.58,0,0,1-1.5,3.35c-.2.38-.56.83-1,.67s-.38-.62-.42-1-.31-.86-.67-.73a.73.73,0,0,0-.33.32,22.57,22.57,0,0,0-1.58,3,2.67,2.67,0,0,1-.53.89.84.84,0,0,1-.95.2,1,1,0,0,1-.36-.4,7.4,7.4,0,0,1-.58-2.9,3.11,3.11,0,0,0-1.31-2.55c-1.67.42-2.57,2.26-2.83,4s-.1,3.49-.71,5.1a1.17,1.17,0,0,1-.33.53,1,1,0,0,1-1.35-.34c-.49-.65-.65-2.47-1.89-1.83-1,.54-.8,2.32-1.39,3.2a.33.33,0,0,1-.17.16c-.19.07-.36-.15-.45-.33-.36-.75-.77-2.36-1.5-2.81s-1.59.63-1.77,1.34c-.89,3.41.53,7.28-1.05,10.42a1.08,1.08,0,0,1-.26.37c-.8.67-1.74-.78-1.91-1.39a8.39,8.39,0,0,1-.33-3.94,10.18,10.18,0,0,1,.69-1.94l1.45-3.28a11.9,11.9,0,0,1,1.4-3,12.89,12.89,0,0,1,4.44-3.52c1.44-.63,3.05-.89,4.37-1.74,1.74-1.11,2.84-3.16,4.77-3.9a10.41,10.41,0,0,1,3.35-.4,21.15,21.15,0,0,0,5.42-.92,20.9,20.9,0,0,1,5.26-1.31c.58,0,2.4-.09,2.66.59s-1,2-1.41,2.34a1.26,1.26,0,0,1-.51.32.53.53,0,0,1-.55-.16c-.18-.23-.08-.61-.3-.81a.49.49,0,0,0-.68.12,1.82,1.82,0,0,0-.29.72A4.22,4.22,0,0,1,397.89,257.7Z" style="fill:#fff;opacity:0.1"></path><path d="M407.49,252.78a2.19,2.19,0,0,1,1-.19,6.58,6.58,0,0,1,1.11.31,5.29,5.29,0,0,0,1.82,0q1.73-.18,3.42-.51a4,4,0,0,1,1.87-.07,4.86,4.86,0,0,1-2.89,2,2.13,2.13,0,0,1-1.09,0,5.25,5.25,0,0,0-.63-.22,1.7,1.7,0,0,0-1.33.49,5.52,5.52,0,0,1-1.17.88,1.07,1.07,0,0,1-1.32-.26,1.76,1.76,0,0,0-.23-.37.59.59,0,0,0-.66,0,2.59,2.59,0,0,0-.48.51,3.92,3.92,0,0,1-1.26,1c-1.17.6-.65-1.22-.36-1.68A4.69,4.69,0,0,1,407.49,252.78Z" style="fill:#fff;opacity:0.1"></path><path d="M365.18,279.7a2,2,0,0,1,.32.67l1.4,4.05a1.76,1.76,0,0,1,.14.75.61.61,0,0,1-.45.55c-.14,0-.29,0-.43,0a.61.61,0,0,0-.45.49,1.84,1.84,0,0,0,0,.7,16,16,0,0,1,.2,2.29c0,.18,0,.41-.21.46a.38.38,0,0,1-.23,0,3.19,3.19,0,0,1-1.28-1,1.52,1.52,0,0,0-.45-.46.83.83,0,0,0-1,.42,4.58,4.58,0,0,0-.07,2.18,13.7,13.7,0,0,0,.39,2.39,5.8,5.8,0,0,1,.33,3,1,1,0,0,1-.54.7c-.1,0-.21.05-.31.1-.37.16-.43.65-.36,1,.11.59.39,1.13.54,1.71a1.75,1.75,0,0,1-.31,1.69.36.36,0,0,1-.29.12c-.1,0-.17-.1-.26-.14a.45.45,0,0,0-.55.16,1.22,1.22,0,0,0-.2.59c-.11,1,0,2.09-.56,2.9,0,0-.06.09-.11.1a.28.28,0,0,1-.13,0,1.46,1.46,0,0,1-.49-.89,13.35,13.35,0,0,1-.61-4.85c.25-2.26,1.53-4.3,1.81-6.56a36.62,36.62,0,0,0,0-4.19,7.76,7.76,0,0,1,1.11-4c.3-.51.64-1,.93-1.5a8.5,8.5,0,0,0,1-2.52C364.12,280,364.44,278.81,365.18,279.7Z" style="fill:#fff;opacity:0.1"></path><path d="M407,259.19c6.48-3.91,11.33-6.83,14.23-7.48a.92.92,0,0,1,0,.37c-.29,1.38-1.61,2.35-2.41,3.43-3.43,4.63-1.51,11.25-4.79,15.83a18.5,18.5,0,0,0-2.17,2.91,7.71,7.71,0,0,0-.55,2.62c-.27,3-.48,6.3-2.35,8.72-1.68,2.17-4.46,3.32-6,5.59-1.29,1.88-1.83,4.58-4,5.4-1,.38-2.08.25-3,.64-1.68.67-2.43,2.67-4,3.63-1.86,1.15-4.35.51-6.34,1.41-1.59.71-2.63,2.29-4.15,3.12-1.91,1-4,.48-5.95,1s-3.54,1.77-5.45,2.31c-1.11.31-2.28.36-3.41.6a14.4,14.4,0,0,0-4.42,1.93,2.27,2.27,0,0,1-.75.32A108.78,108.78,0,0,1,368,297.25C379.29,276.55,398.4,264.36,407,259.19Z" style="opacity:0.1"></path><path d="M401,280.54l.83.12c1.65.23,1.86-.8.33-1.31-1-.33-2.06-.39-3.08-.66l-4.84-1.3c-1-.26-2.34-.89-2.63-2a2.7,2.7,0,0,1,1.35-2.64c2.09-1.5,4.81-1.78,7.38-1.8a29.59,29.59,0,0,0,6.52-.28c.61-.15,1.49-.74.61-1.24-.52-.29-1.72,0-2.3,0a21.61,21.61,0,0,1-6.46-.64c-.33-.09-.72-.24-.79-.58a.81.81,0,0,1,.1-.5,5.54,5.54,0,0,1,3.21-2.42,29.94,29.94,0,0,1,8.6-2c.36,0,1.74-.1,1.45-.82-.21-.53-1.82-.19-2.27-.17a5.57,5.57,0,0,1-3.09-.76c.39-.95,1.91-1.8,2.71-2.41,1.1-.82,2.24-1.59,3.42-2.3a2.69,2.69,0,0,0,.93-.65c.73-1.11-1.36-.44-1.77-.36-1.37.29-8.66,4.57-7.55.32a13.65,13.65,0,0,1,.68-1.95c-.31-.31-.84,0-1.13.34a16.56,16.56,0,0,0-1.61,2.57,25.55,25.55,0,0,1-2.11,3.16,8.07,8.07,0,0,1-3.3,2.76,1.38,1.38,0,0,1-1.55-.17,1.56,1.56,0,0,1-.09-1.29c.28-1.13.66-2.2.88-3.32.1-.48.84-2.1.33-2.5-.73-.57-1.66,2.51-1.83,3a38.83,38.83,0,0,1-1.42,4,13.66,13.66,0,0,1-1.82,2.87,16,16,0,0,1-2,2.33,3.89,3.89,0,0,1-1.83.9,2.84,2.84,0,0,1-1.53-.16,1.89,1.89,0,0,1-.57-.33,1.61,1.61,0,0,1-.54-1.09c-.12-1.33-.23-2.66-.35-4,0-.39,0-2.64-.92-2.25-.39.16-.39,1.75-.39,2.1a21.56,21.56,0,0,0,.13,2.26,20.51,20.51,0,0,1-.59,7.36,6.4,6.4,0,0,1-1.76,3.11,3,3,0,0,1-3.36.5,4.53,4.53,0,0,1-1.54-1.91,21.22,21.22,0,0,1-1.94-4.29c-.15-.52-.15-1.36-.55-1.78-.7-.72-.7.33-.64.85a15,15,0,0,0,1,4c.87,2.18,2.28,4.27,2.19,6.61a6.86,6.86,0,0,1-1,3.11,4.38,4.38,0,0,1-1.82,1.89c-1.44.7-2.38-.26-3.18-1.4a23.05,23.05,0,0,1-2.48-4.58.45.45,0,0,0-.2-.28.34.34,0,0,0-.43.19.84.84,0,0,0,0,.52c.51,3.21,3.24,5.85,3.29,9.1a10.39,10.39,0,0,1-1.73,5.19c-.28.5-.7,1.06-1.27,1a1.35,1.35,0,0,1-.9-.64c-1.05-1.43-1.34-3.27-2.12-4.87a.44.44,0,0,0-.25-.28c-.25-.07-.42.25-.45.51a7.46,7.46,0,0,0,.79,3.62,20.39,20.39,0,0,1,1.25,3.62c.93,4.51-2,8.38-2.4,12.75,1-2.17,2-4.38,4.18-5.55a9,9,0,0,1,6-.85c1.33.29,3,1.28,4.43,1,1.83-.34-1.74-1.42-2.22-1.63-.93-.41-1.85-.85-2.75-1.33a3.18,3.18,0,0,1-1.22-.95,2.76,2.76,0,0,1,.36-2.91,8.09,8.09,0,0,1,5.2-3.56c4.06-.79,8.09,1.61,12.22,1.58.3,0,.68-.1.7-.39s-.26-.42-.5-.51c-2.81-1.09-5.79-1.65-8.62-2.68-.91-.33-2.89-1-2.82-2.19a2.43,2.43,0,0,1,.86-1.61,5.51,5.51,0,0,1,3.4-1.34,15.33,15.33,0,0,1,3.69.34c2.86.51,5.71,1.11,8.53,1.8.71.17,3.35.3,1.65-.69a17.26,17.26,0,0,0-2.7-1,39.27,39.27,0,0,1-5.55-2.66c-1-.6-2.18-1.53-2-2.71.15-1,1.21-1.61,2.19-1.89a17.76,17.76,0,0,1,7.26,0Z" style="opacity:0.1"></path><path d="M357,320.57c5.78-21.67,19-42.09,37.51-55a67.47,67.47,0,0,1,17-9c.07,0,.29,0,.16.13-4.52,3.12-9.2,6-13.55,9.33a116.56,116.56,0,0,0-12.85,11.47,107.17,107.17,0,0,0-18.93,26.7,96.4,96.4,0,0,0-6.58,17.48C359.13,323.72,356.46,322.4,357,320.57Z" style="fill:#9C4F06"></path><path d="M357,320.57c5.78-21.67,19-42.09,37.51-55a67.47,67.47,0,0,1,17-9c.07,0,.29,0,.16.13-4.52,3.12-9.2,6-13.55,9.33a116.56,116.56,0,0,0-12.85,11.47,107.17,107.17,0,0,0-18.93,26.7,96.4,96.4,0,0,0-6.58,17.48C359.13,323.72,356.46,322.4,357,320.57Z" style="fill:#fff;opacity:0.30000000000000004"></path></g><g id="freepik--leaf--inject-1270"><path d="M367.54,313.78c4.86-1.37,9.72-2.77,14.64-3.95,2.75-.66,5.48-1.4,8.28-1.84a45.14,45.14,0,0,1,7.89-.26,70.76,70.76,0,0,1,16.09,1.95c7.82,2,15.31,5.1,22.94,7.7a22.36,22.36,0,0,0,3.29.93,18.88,18.88,0,0,1-3.84-5,24.1,24.1,0,0,0-2.75-4.86c-1.46-1.66-3.56-2.54-5.56-3.44a6.1,6.1,0,0,1-2.38-1.58c-1.41-1.73-1.74-3.61-4-4.62-1.91-.87-4.24-.77-5.87-2.1-.76-.62-1.28-1.49-2-2.18-2-2-4.43-1.49-6.93-1.83-1.78-.24-3.39-1.39-5.2-1.36-1.11,0-2.2.49-3.31.44-1.43-.07-2.72-1-4.15-1-2.26,0-4.18,2.15-6.44,2.06-.78,0-1.52-.34-2.3-.36-2.1,0-3.73,2-5.77,2.53-1.25.36-2.64.16-3.81.75-1.47.74-2.16,2.48-3.29,3.71-.94,1-2.2,1.7-3,2.8C367.67,305.42,369.74,310.45,367.54,313.78Z" style="fill:#9C4F06"></path><path d="M367.54,313.78c4.86-1.37,9.72-2.77,14.64-3.95,2.75-.66,5.48-1.4,8.28-1.84a45.14,45.14,0,0,1,7.89-.26,70.76,70.76,0,0,1,16.09,1.95c7.82,2,15.31,5.1,22.94,7.7a22.36,22.36,0,0,0,3.29.93,18.88,18.88,0,0,1-3.84-5,24.1,24.1,0,0,0-2.75-4.86c-1.46-1.66-3.56-2.54-5.56-3.44a6.1,6.1,0,0,1-2.38-1.58c-1.41-1.73-1.74-3.61-4-4.62-1.91-.87-4.24-.77-5.87-2.1-.76-.62-1.28-1.49-2-2.18-2-2-4.43-1.49-6.93-1.83-1.78-.24-3.39-1.39-5.2-1.36-1.11,0-2.2.49-3.31.44-1.43-.07-2.72-1-4.15-1-2.26,0-4.18,2.15-6.44,2.06-.78,0-1.52-.34-2.3-.36-2.1,0-3.73,2-5.77,2.53-1.25.36-2.64.16-3.81.75-1.47.74-2.16,2.48-3.29,3.71-.94,1-2.2,1.7-3,2.8C367.67,305.42,369.74,310.45,367.54,313.78Z" style="opacity:0.1"></path><path d="M382.18,309.83c-4.92,1.18-9.78,2.58-14.64,3.95,2-3,.48-7.46,2-10.63a15.38,15.38,0,0,0,.33,3.08c.05.24.29.46.52.39a.69.69,0,0,0,.33-.28,18.15,18.15,0,0,1,3-3.26c1.36-1.06,3.28-1.14,4.65-2.3,1-.88,1.73-2.12,2.7-3.09a7,7,0,0,1,5.51-2c2,.17,4.09,1.26,6,.58,1.19-.42,2.12-1.44,3.32-1.81,2.47-.74,4.77,1.5,7.29,1.92,1.65.28,3.34-.24,5-.2a7.53,7.53,0,0,1,4.35,1.51,15.49,15.49,0,0,0,2.89,2.19c1.86.82,4.18.09,6,1.08s2.42,3.25,4.13,4.25c1.2.7,2.71.63,4,1.24a8.32,8.32,0,0,1,2.85,2.81,48.85,48.85,0,0,1,5.29,8.28l-.35-.12c-7.63-2.6-15.12-5.7-22.94-7.7a70.76,70.76,0,0,0-16.09-1.95,45.14,45.14,0,0,0-7.89.26C387.66,308.43,384.93,309.17,382.18,309.83Z" style="opacity:0.1"></path><path d="M441.81,319.57c.59.05,1.92.1,1.45-.93a1.67,1.67,0,0,0-.6-.64c-1.78-1.29-3.87-1.42-5.52-3.05-2-1.95-3-4.94-5.39-6.34s-5.5-.95-7.41-2.86c-.81-.81-1.27-1.95-2.14-2.7-1.77-1.53-4.47-.93-6.68-1.64-2-.65-3.6-2.42-5.62-3.17-2.49-.94-5.33-.22-7.89-.93-1.83-.51-3.64-1.74-5.48-1.19-1.21.36-2.15,1.46-3.38,1.74s-2.41-.27-3.61-.53a8.06,8.06,0,0,0-7.13,2,38.22,38.22,0,0,1-2.87,3,20.11,20.11,0,0,1-3.5,1.76c-4.51,2.17-7.51,8.37-10.17,12.71,2.35-1.36,10.73-3.79,13.38-4.22,18.46-3,32.1-2.78,49.69,3.33C433.17,317.35,437.35,319.19,441.81,319.57Z" style="fill:#9C4F06"></path><path d="M366.14,316.63c2.71-3.07,6.79-4.95,10.76-6.09.93-.27,1.83-.6,2.77-.84a4.85,4.85,0,0,0,2.38-1.24,1.85,1.85,0,0,0,.5-.85,2.62,2.62,0,0,0-.12-1.27c-.2-.69-.42-1.38-.67-2-.15-.42-.36-1.54.43-1.46a1.2,1.2,0,0,1,.6.31c1.08.91,2,2,3.06,2.94a5.44,5.44,0,0,0,3.41,1.45,4.9,4.9,0,0,0,3.09-1.75c1-1.07,1.73-2.38,2.63-3.54a3.17,3.17,0,0,1,2.1-1.44.59.59,0,0,1,.43.11.62.62,0,0,1,.13.48,4.72,4.72,0,0,1-.9,1.94,7.25,7.25,0,0,0-.69,1.53,2.67,2.67,0,0,0-.09,1.78,1.93,1.93,0,0,0,1.29,1.12c1.21.36,2.6-.32,3.77-.66,1.84-.52,3.66-1.11,5.46-1.75a17.9,17.9,0,0,1,4.88-1.46c.43,0,1,.14,1,.57s-.29.53-.55.7l-2.14,1.34a1.89,1.89,0,0,0-1,1.1,1.41,1.41,0,0,0,.4,1.14,4.16,4.16,0,0,0,2.71,1.11,14.32,14.32,0,0,0,5-.28c.72-.18,1.33-.57,2.05-.78.89-.26,1.79-.54,2.69-.77a3.14,3.14,0,0,1,1.62-.22c2.08.72-4.26,3.25-2.18,4.3s5,0,7.24-.31c.42-.05,3.3-.3,2.47,1a1.22,1.22,0,0,1-.39.32,10.15,10.15,0,0,1-1,.51.7.7,0,0,0-.43.34.45.45,0,0,0,.13.46,1.16,1.16,0,0,0,.43.25c2.3.94,4.73,1.58,7.09,2.32a34.22,34.22,0,0,0,6.62,1.47,1.59,1.59,0,0,1,.13.22c.47,1-.86,1-1.45.93-4.46-.38-8.64-2.22-12.87-3.69-17.59-6.11-31.23-6.35-49.69-3.33C376.69,313,368.79,315.25,366.14,316.63Z" style="opacity:0.1"></path><path d="M354.45,323.84a21,21,0,0,1,6.64-6,41.89,41.89,0,0,1,7.31-3.57,73.1,73.1,0,0,1,16.79-3.94,85,85,0,0,1,18.24-.41,90,90,0,0,1,18.45,3.66c3.79,1.14,7.54,2.41,11.35,3.51,1.91.56,3.82,1.09,5.74,1.63a8,8,0,0,0,4.2.29c.22-.06.17.31,0,.39a5.67,5.67,0,0,1-3.95.44c-1.68-.22-3.34-.57-5-.92-3.19-.69-6.34-1.64-9.5-2.49a118.19,118.19,0,0,0-18.91-3.9c-11.57-1.18-23.72-.25-34.84,3.69a43.45,43.45,0,0,0-8,3.71,41.48,41.48,0,0,0-3.67,2.55c-1.08.82-2,1.79-3.15,2.57a1.17,1.17,0,0,1-1.43,0A1,1,0,0,1,354.45,323.84Z" style="fill:#9C4F06"></path><path d="M354.45,323.84a21,21,0,0,1,6.64-6,41.89,41.89,0,0,1,7.31-3.57,73.1,73.1,0,0,1,16.79-3.94,85,85,0,0,1,18.24-.41,90,90,0,0,1,18.45,3.66c3.79,1.14,7.54,2.41,11.35,3.51,1.91.56,3.82,1.09,5.74,1.63a8,8,0,0,0,4.2.29c.22-.06.17.31,0,.39a5.67,5.67,0,0,1-3.95.44c-1.68-.22-3.34-.57-5-.92-3.19-.69-6.34-1.64-9.5-2.49a118.19,118.19,0,0,0-18.91-3.9c-11.57-1.18-23.72-.25-34.84,3.69a43.45,43.45,0,0,0-8,3.71,41.48,41.48,0,0,0-3.67,2.55c-1.08.82-2,1.79-3.15,2.57a1.17,1.17,0,0,1-1.43,0A1,1,0,0,1,354.45,323.84Z" style="fill:#fff;opacity:0.30000000000000004"></path><path d="M435.21,314.86c-.34.7-1.63.06-2.09-.12s-.78-.37-.85-.78a5.14,5.14,0,0,1,.09-.87c0-.3-.29-.63-.53-.47a1.73,1.73,0,0,0-1.34-1.76,4.79,4.79,0,0,0-2.37.14,5,5,0,0,1-2.38.15.69.69,0,0,1-.32-.16c-.24-.24-.07-.68.19-.91s.59-.4.76-.7c-.32-.39-.94-.25-1.38,0a2.29,2.29,0,0,1-1.38.5c-.26-.67.93-1.25.73-1.94a.94.94,0,0,0-.79-.53c-2.64-.54-5.33,1.07-8,.85a.78.78,0,0,1-.33-.09c-.38-.22-.17-.85.17-1.15s.79-.55.86-1c-1.17-.81-2.79,1.15-4.07.52,0-.41.35-.73.69-1a12.33,12.33,0,0,1,5.35-1.89,3.44,3.44,0,0,1,1.91.21,4.59,4.59,0,0,1,1.1.87,15.62,15.62,0,0,0,6,3.52,17.13,17.13,0,0,1,4.45,1.6,8.68,8.68,0,0,1,2.21,2.27c.4.54,1.61,1.85,1.37,2.62Z" style="fill:#fff;opacity:0.1"></path><path d="M411.92,300.81a.75.75,0,0,1,.23.57.76.76,0,0,1-.45.46,22.56,22.56,0,0,1-4.13,1.62c-.42.13-1,.2-1.18-.21s.58-1,.67-1.59c-.76-.4-1.63.21-2.33.72a14.86,14.86,0,0,1-3.42,1.89c-.28.11-.63.2-.83,0a.73.73,0,0,1-.1-.6,3.51,3.51,0,0,1,1.47-2.35c-.25-.34-.77-.12-1.11.13s-.85.49-1.12.18.08-.87.09-1.32a1.06,1.06,0,0,0-.65-.94,2.33,2.33,0,0,0-1.17-.12,7.28,7.28,0,0,0-3.35,1.22c-1.22.82-2.18,2-3.45,2.78-.23.14-.53.26-.74.09s0-.8-.21-1.18-.8-.4-1.16-.11a9,9,0,0,0-.87,1.07,2.49,2.49,0,0,1-3.42-.13,1.89,1.89,0,0,1-.63-1.13,2.35,2.35,0,0,1,1.44-2.07,7,7,0,0,1,3.71-.91c1.37,0,2.78.51,4.1.09s2.56-1.91,4.07-2.15c1.74-.29,3.24,1.11,4.88,1.76,1.85.73,3.6.27,5.49.26A5.65,5.65,0,0,1,411.92,300.81Z" style="fill:#fff;opacity:0.1"></path></g></g><g id="freepik--coffee-cup-2--inject-1270"><g id="freepik--coffee-cup--inject-1270"><ellipse cx="303.67" cy="183.23" rx="69.76" ry="40.28" style="fill:#9C4F06"></ellipse><path d="M354,111.16c-27.8-16-72.86-16-100.65,0-14.87,8.59-21.77,20-20.73,31.27h0l15.12,177.05h0c.65,7.74,6.1,15.38,16.34,21.3,21.87,12.62,57.33,12.62,79.21,0,10.24-5.92,15.69-13.56,16.33-21.3h0l15.13-177.07h0C375.77,131.19,368.87,119.75,354,111.16Z" style="fill:#f0f0f0"></path><path d="M232.61,142.43l15.12,177.05v0a21.82,21.82,0,0,0,4.57,11.33,38.81,38.81,0,0,0,11.77,10c8.3,4.79,18.56,7.76,29.29,8.91-9.19-4.19-16.16-11-16.52-22-.24-7.32-.69-20.73-1.24-36.5,23.83,6.73,53.4,4.39,73.21-7,6.92-4,11.91-8.69,15-13.69l5.83-68.3c-3.33,5.62-8.87,10.89-16.63,15.37-21.55,12.44-53.69,15-79.68,7.78-.38-10.92-1.22-33.53-1.77-48.4a82.93,82.93,0,0,1-18.2-7.63C240.43,161.8,233.52,152.19,232.61,142.43Z" style="opacity:0.1"></path><ellipse cx="303.67" cy="140.22" rx="71.17" ry="41.09" style="fill:#fafafa"></ellipse><path d="M303.67,181.65c-18.29,0-36.58-4-50.51-12.06-13.56-7.83-21-18.26-21-29.38s7.47-21.54,21-29.37c27.86-16.08,73.17-16.08,101,0,13.57,7.83,21,18.26,21,29.37s-7.46,21.55-21,29.38C340.26,177.63,322,181.65,303.67,181.65Zm0-82.13c-18.15,0-36.31,4-50.13,12-13.32,7.69-20.66,17.89-20.66,28.72s7.34,21,20.66,28.73c27.64,16,72.62,16,100.27,0,13.32-7.69,20.65-17.89,20.65-28.73s-7.33-21-20.65-28.72C340,103.51,321.83,99.52,303.67,99.52Z" style="fill:#e0e0e0"></path><ellipse cx="303.67" cy="140.22" rx="67.56" ry="37.39" style="fill:#e0e0e0"></ellipse><path d="M373.34,185.31l-5.9,68.7c-.72,8.84-6.93,17.56-18.63,24.32-24.93,14.39-65.35,14.39-90.28,0-12.5-7.22-18.73-16.68-18.7-26.14l-5.8-66.6c1,9.51,7.73,18.86,20.31,26.12,27.25,15.72,71.42,15.72,98.66,0,12.7-7.33,19.48-16.79,20.33-26.4Z" style="fill:#9C4F06"></path><path d="M373.34,185.31l-5.9,68.7c-.72,8.84-6.93,17.56-18.63,24.32-24.93,14.39-65.35,14.39-90.28,0-12.5-7.22-18.73-16.68-18.7-26.14l-5.8-66.6c1,9.51,7.73,18.86,20.31,26.12,27.25,15.72,71.42,15.72,98.66,0,12.7-7.33,19.48-16.79,20.33-26.4Z" style="fill:#fff;opacity:0.2"></path><path d="M276.59,220.34a84.6,84.6,0,0,1-22.25-8.63C241.76,204.45,235,195.1,234,185.59l5.8,66.6c0,9.46,6.2,18.92,18.7,26.14a77.33,77.33,0,0,0,20.39,7.91Z" style="fill:#9C4F06;opacity:0.8"></path><path d="M280.15,244.26a30.12,30.12,0,0,1,8.78-5.68,1.71,1.71,0,0,0,.14-3.09c-6.37-3.15-15.34-1.06-21.67,5.56-6.68,7-8.07,16.6-3.75,22.73a1.74,1.74,0,0,0,2.45.31c3.41-2.67,5.59-5.82,7.83-10.89A26.91,26.91,0,0,1,280.15,244.26Zm14.43-3.34a1.77,1.77,0,0,0-2.22-.73,27.17,27.17,0,0,0-13.81,12.74c-1.59,3-2.64,6.43-4.63,9.24a17.71,17.71,0,0,1-5.23,4.94c-.28.17-.17.86.19,1,6.33,2.76,14.95.59,21.09-5.83S297.82,247.06,294.58,240.92Z" style="fill:#fff"></path><path d="M266.1,264.09c3.41-2.67,5.59-5.82,7.83-10.89a29.45,29.45,0,0,1,3.61-6.09l-.43-12.18a23,23,0,0,0-9.71,6.12c-6.68,7-8.07,16.6-3.75,22.73A1.74,1.74,0,0,0,266.1,264.09Z" style="fill:#e6e6e6;opacity:0.8"></path><path d="M277.8,254.46a48.38,48.38,0,0,1-3.88,7.71,17.71,17.71,0,0,1-5.23,4.94c-.28.17-.17.86.19,1a15.71,15.71,0,0,0,9.43.8Z" style="fill:#e6e6e6;opacity:0.8"></path><path d="M255,114.48c12.92-7.52,30.21-11.65,48.66-11.65s35.75,4.13,48.68,11.65c12.17,7.07,18.88,16.21,18.88,25.74a21.17,21.17,0,0,1-1.59,8c-2.65-6.58-8.57-12.71-17.29-17.78-12.93-7.51-30.22-11.65-48.68-11.65S267.92,122.89,255,130.4c-8.73,5.07-14.64,11.2-17.3,17.78a21.17,21.17,0,0,1-1.59-8C236.11,130.7,242.82,121.55,255,114.48Z" style="fill:#ebebeb"></path><path d="M303.66,102.83c18.46,0,35.75,4.13,48.68,11.65,12.17,7.07,18.88,16.21,18.88,25.74a21.17,21.17,0,0,1-1.59,8c-2.65-6.58-8.57-12.71-17.29-17.78-12.93-7.51-30.22-11.65-48.68-11.65-1.15,0-2.3,0-3.44,0,4.44,0,13.8-2.3,10.65-8.41-3.29-6.39-11.63-7.5-17.75-7.1C296.57,103,300.1,102.83,303.66,102.83Z" style="fill:#e0e0e0"></path><path d="M236.11,140.22c0-8.41,5.24-16.53,14.86-23.18-4.51,5.26-2,14.68,7.77,11.34l.08,0c-1.31.65-2.59,1.33-3.82,2-8.73,5.07-14.64,11.2-17.3,17.78A21.17,21.17,0,0,1,236.11,140.22Z" style="fill:#e0e0e0"></path><path d="M255,130.4c12.92-7.51,30.21-11.65,48.66-11.65s35.75,4.14,48.68,11.65c8.72,5.07,14.64,11.2,17.29,17.78-2.66,6.57-8.57,12.71-17.3,17.77-12.92,7.52-30.21,11.65-48.67,11.65S267.92,173.47,255,166c-8.73-5.06-14.64-11.2-17.3-17.77C240.36,141.6,246.27,135.47,255,130.4Z" style="fill:#37474f"></path><path d="M312.07,119.05a6,6,0,0,1,2.17,2.16c.91,1.59-.09,3.56.84,5.14a6.48,6.48,0,0,0,4.27,3.14c2.43.56,6.09,1,8.93,3.38a4.17,4.17,0,0,1,1.33,2.23,5,5,0,0,1-1.16,3.9c-.84,1.11-1.91,2-2.72,3.18a4.65,4.65,0,0,0-1,3.93,5.43,5.43,0,0,0,2.48,2.79c4.16,2.68,9.2,3.79,13.17,6.73a7.6,7.6,0,0,1,2.7,3.15,6.23,6.23,0,0,1-1.24,6.08c-.82,1-2.12,2.38-6.24,3.55-1.45.42-2.88.87-4.36,1.18-4.28.9-9.41,5.07-13.29,7.15,13-1.56,24.85-5.26,34.36-10.79,8.73-5.06,14.64-11.2,17.3-17.77-2.65-6.58-8.57-12.71-17.29-17.78C341.39,124,327.32,120.11,312.07,119.05Zm41,32a1.19,1.19,0,0,1,1.07,0,.33.33,0,0,1,0,.62,1.13,1.13,0,0,1-1.07,0A.33.33,0,0,1,353.09,151.06Zm-6.77,8.51a3.71,3.71,0,0,1,3.34,0,1,1,0,0,1,0,1.94,3.65,3.65,0,0,1-3.34,0A1,1,0,0,1,346.32,159.57Zm-1.44-3.06a1.13,1.13,0,0,1,1.07,0,.33.33,0,0,1,0,.62,1.19,1.19,0,0,1-1.07,0A.33.33,0,0,1,344.88,156.51Zm-.69-9.59a5.79,5.79,0,0,1,5.28,0c1.46.85,1.46,2.22,0,3.06a5.79,5.79,0,0,1-5.28,0C342.74,149.14,342.74,147.77,344.19,146.92ZM333,133.57a1.89,1.89,0,0,1-1.7,0,.52.52,0,0,1,0-1,1.89,1.89,0,0,1,1.7,0A.52.52,0,0,1,333,133.57Zm2.46,5.16c-1.46-.85-1.46-2.22,0-3.07a5.79,5.79,0,0,1,5.28,0c1.46.85,1.46,2.22,0,3.07A5.79,5.79,0,0,1,335.48,138.73Zm1.79,10.61a1.89,1.89,0,0,1,1.7,0c.47.27.47.71,0,1a1.89,1.89,0,0,1-1.7,0C336.8,150.05,336.8,149.61,337.27,149.34Zm-1.6-6.6c1.66,1,1.66,2.53,0,3.5a6.61,6.61,0,0,1-6,0c-1.67-1-1.67-2.54,0-3.5A6.61,6.61,0,0,1,335.67,142.74Zm-11.56-15a1.19,1.19,0,0,1,1.07,0c.3.17.3.45,0,.63a1.19,1.19,0,0,1-1.07,0C323.81,128.16,323.81,127.88,324.11,127.71Z" style="fill:#455a64"></path><path d="M237.7,148.18c2.66,6.57,8.57,12.71,17.3,17.77,11.32,6.59,26,10.58,41.88,11.46l-1.68-.86c-3.46-1.74-7.09-3.39-11-3.6-3-.17-6.56.34-8.52-2-.86-1-1.19-2.39-2-3.45a7.26,7.26,0,0,0-3.83-2.27c-3.82-1.11-7.9-.85-11.84-1.4-1.06-.15-2.27-.47-2.7-1.46s.17-2.12.86-2.94A6.37,6.37,0,0,0,258,156.8c.26-1.39-.7-2.71-1.74-3.65a10.53,10.53,0,0,1-2.88-3,5.26,5.26,0,0,1,1-5.37,17,17,0,0,1,4.54-3.48,47.24,47.24,0,0,0,8.62-6.51c1.71-1.7,3.29-4.34,2-6.38a4.92,4.92,0,0,0-2.4-1.74,16,16,0,0,0-2.63-.82A73.15,73.15,0,0,0,255,130.4C246.27,135.47,240.36,141.6,237.7,148.18Zm22.77-18.59a5.79,5.79,0,0,1,5.28,0c1.45.84,1.46,2.22,0,3.06a5.79,5.79,0,0,1-5.28,0C259,131.81,259,130.43,260.47,129.59Zm-4.41,5.74a3.18,3.18,0,0,1,2.88,0,.88.88,0,0,1,0,1.67,3.12,3.12,0,0,1-2.88,0A.88.88,0,0,1,256.06,135.33Zm10.83,32.24a3.54,3.54,0,0,1,3.26,0,1,1,0,0,1,0,1.89,3.6,3.6,0,0,1-3.26,0A1,1,0,0,1,266.89,167.57Zm-3.94-.94a2.08,2.08,0,0,1,1.88,0,.58.58,0,0,1,0,1.09,2.08,2.08,0,0,1-1.88,0A.58.58,0,0,1,263,166.63Zm-13.63-16.1a1.65,1.65,0,0,1-1.53,0c-.43-.25-.43-.65,0-.89a1.65,1.65,0,0,1,1.53,0C249.75,149.88,249.75,150.28,249.32,150.53Zm-2.25,3.84a7.61,7.61,0,0,1,6.89,0c1.91,1.11,1.91,2.9,0,4a7.61,7.61,0,0,1-6.89,0C245.17,157.27,245.17,155.48,247.07,154.37Zm-2.45-11a4.15,4.15,0,0,1,3.79,0,1.16,1.16,0,0,1,0,2.2,4.15,4.15,0,0,1-3.79,0A1.17,1.17,0,0,1,244.62,143.35Zm-3.94,2.43a1.72,1.72,0,0,1,1.53,0,.48.48,0,0,1,0,.9,1.72,1.72,0,0,1-1.53,0A.48.48,0,0,1,240.68,145.78Z" style="fill:#455a64"></path><path d="M313.17,119.13c14.83,1.17,28.49,5.07,39.17,11.27,8.72,5.07,14.64,11.2,17.29,17.78-2.66,6.57-8.57,12.71-17.3,17.77a73.59,73.59,0,0,1-10.41,5c7.14-4.12,14.34-10.33,14.37-18.62C356.34,135.88,336.56,121.71,313.17,119.13Z" style="opacity:0.1"></path></g></g><g id="freepik--Lid--inject-1270"><g id="freepik--lid--inject-1270"><path d="M302.94,338.56c31-17.91,81.32-17.91,112.35,0,15.5,8.95,23.25,20.68,23.26,32.41,0,2.32,0,11.62,0,14-.05,11.7-7.8,23.39-23.26,32.32-31,17.91-81.33,17.91-112.35,0-15.52-9-23.27-20.71-23.26-32.45V371C279.66,359.27,287.41,347.52,302.94,338.56Z" style="fill:#37474f"></path><path d="M390.88,329a95.45,95.45,0,0,1,24.41,9.61c15.5,8.95,23.25,20.68,23.26,32.41,0,2.32,0,11.62,0,14-.05,11.7-7.8,23.39-23.26,32.32a95.82,95.82,0,0,1-24.41,9.61Z" style="fill:#263238"></path><ellipse cx="359.11" cy="370.99" rx="79.45" ry="45.87" style="fill:#455a64"></ellipse><path d="M288.07,366h0l2.61-23.48h0c1-8.82,7.62-17.49,19.94-24.23,26.78-14.64,70.2-14.64,97,0,12.32,6.74,19,15.41,19.94,24.23h0L430.22,366h0c1.15,10.58-5.66,21.37-20.45,29.46-27.45,15-73.78,15-101.23,0C293.73,387.36,286.93,376.57,288.07,366Z" style="fill:#37474f"></path><path d="M407.6,318.28c12.32,6.74,19,15.41,19.94,24.23h0L430.22,366h0c1.15,10.58-5.66,21.37-20.45,29.46a84,84,0,0,1-18.87,7.31l-1.66-27.92-3.28-64.55A85.69,85.69,0,0,1,407.6,318.28Z" style="fill:#263238"></path><ellipse cx="359.11" cy="344.8" rx="68.57" ry="37.51" style="fill:#455a64"></ellipse><ellipse cx="359.11" cy="344.8" rx="59.11" ry="29.43" style="fill:#263238"></ellipse><path d="M317.32,339.26c23.08-11.5,60.5-11.5,83.59,0,7.6,3.78,12.69,8.35,15.28,13.18-2.59,4.82-7.68,9.39-15.28,13.17-23.08,11.5-60.51,11.5-83.59,0-7.61-3.78-12.69-8.35-15.28-13.17C304.63,347.61,309.71,343,317.32,339.26Z" style="fill:#455a64"></path><path d="M309,332.36l69.65,40.22a82,82,0,0,0,22.25-7c10.72-5.33,16.47-12.22,17.23-19.21-.75-7-6.5-13.87-17.23-19.22-23.08-11.49-60.5-11.49-83.59,0A47.63,47.63,0,0,0,309,332.36Z" style="fill:#455a64"></path><path d="M304.64,348.62l43.45,25.1a117.25,117.25,0,0,0,30.56-1.14L309,332.36Z" style="fill:#37474f"></path><path d="M306.21,366.16l10,5.8a4.13,4.13,0,0,0,3.71-.15h0c1.09-.64,1.21-1.59.26-2.14l-10-5.8a4.11,4.11,0,0,0-3.7.15h0C305.38,364.66,305.26,365.61,306.21,366.16Z" style="opacity:0.5"></path><path d="M300.11,346.52c2.18,12.71,16.32,19.08,27.32,22.72,24.29,7.43,59.85,6.42,81.07-8.66,7.83-5.71,12.69-15,7.28-24.15,5.71,9.13,1,18.74-6.89,24.66-21.17,15.6-57.27,16.69-81.69,8.88-11.16-3.86-25.15-10.46-27.09-23.45Z" style="fill:#37474f"></path></g></g><g id="freepik--coffee-cup-1--inject-1270"><g id="freepik--coffee-cup--inject-1270"><ellipse cx="132.46" cy="254.68" rx="69.76" ry="40.28" style="fill:#263238"></ellipse><path d="M182.78,182.61c-27.79-16-72.85-16-100.65,0-14.87,8.58-21.77,20-20.73,31.26h0L76.51,390.93h0c.64,7.75,6.09,15.38,16.33,21.3,21.88,12.63,57.34,12.63,79.21,0,10.24-5.92,15.69-13.55,16.34-21.3h0l15.12-177.07h0C204.55,202.64,197.65,191.2,182.78,182.61Z" style="fill:#f0f0f0"></path><path d="M182.78,182.61c-22.91-13.22-57.53-15.53-84.56-7l0,0c-2.27.72-4.47,1.51-6.62,2.38l-.67.27-1.45.63-1.25.56-1.19.56c-.52.24-1,.5-1.54.76l-.91.46c-.81.43-1.62.87-2.41,1.33-14.87,8.58-21.77,20-20.73,31.26h0L76.51,390.93h0c.64,7.75,6.09,15.38,16.33,21.3,8.3,4.79,18.56,7.76,29.3,8.92-9.19-4.2-16.16-11-16.52-22-.24-7.32-.7-20.73-1.24-36.5,23.83,6.73,53.4,4.39,73.2-7,6.93-4,11.92-8.69,15-13.68l5.83-68.31c-3.34,5.62-8.88,10.89-16.64,15.37-21.55,12.44-53.69,15-79.67,7.79-.54-15.54-1-28.6-1.24-35.47,29,7.26,64,4,87.76-9.65a61.13,61.13,0,0,0,12.46-9.32l2.43-28.44h0C204.55,202.64,197.65,191.2,182.78,182.61Z" style="opacity:0.1"></path><ellipse cx="132.46" cy="211.67" rx="71.17" ry="41.09" style="fill:#e0e0e0"></ellipse><path d="M188.63,163.9c-31-17.91-81.32-17.91-112.35,0C60.78,172.85,53,184.58,53,196.31c0,2.32,0,11.63,0,14,0,11.7,7.8,23.39,23.26,32.31,31,17.92,81.33,17.92,112.35,0,15.52-9,23.27-20.7,23.26-32.45V196.37C211.91,184.62,204.16,172.87,188.63,163.9Z" style="fill:#9C4F06"></path><path d="M188.63,163.9c-31-17.91-81.32-17.91-112.35,0C60.78,172.85,53,184.58,53,196.31c0,2.32,0,11.63,0,14,0,11.7,7.8,23.39,23.26,32.31,31,17.92,81.33,17.92,112.35,0,15.52-9,23.27-20.7,23.26-32.45V196.37C211.91,184.62,204.16,172.87,188.63,163.9Z" style="opacity:0.2"></path><path d="M100.69,154.3a95.8,95.8,0,0,0-24.41,9.6C60.78,172.85,53,184.58,53,196.31c0,2.32,0,11.63,0,14,0,11.7,7.8,23.39,23.26,32.31a95.45,95.45,0,0,0,24.41,9.61Z" style="opacity:0.2"></path><ellipse cx="132.46" cy="196.34" rx="79.45" ry="45.87" style="fill:#9C4F06"></ellipse><path d="M203.5,191.33h0l-2.61-23.48h0c-1-8.82-7.62-17.48-19.94-24.22-26.78-14.65-70.2-14.65-97,0C71.65,150.37,65,159,64,167.85h0l-2.66,23.48h0C60.22,201.92,67,212.71,81.81,220.8c27.46,15,73.79,15,101.24,0C197.84,212.71,204.64,201.92,203.5,191.33Z" style="fill:#9C4F06"></path><path d="M203.5,191.33h0l-2.61-23.48h0c-1-8.82-7.62-17.48-19.94-24.22-26.78-14.65-70.2-14.65-97,0C71.65,150.37,65,159,64,167.85h0l-2.66,23.48h0C60.22,201.92,67,212.71,81.81,220.8c27.46,15,73.79,15,101.24,0C197.84,212.71,204.64,201.92,203.5,191.33Z" style="opacity:0.2"></path><path d="M84,143.63C71.65,150.37,65,159,64,167.85h0l-2.66,23.48h0C60.22,201.92,67,212.71,81.81,220.8a84.74,84.74,0,0,0,18.88,7.31l1.66-27.93,3.28-64.55A85.7,85.7,0,0,0,84,143.63Z" style="opacity:0.2"></path><ellipse cx="132.46" cy="170.15" rx="68.57" ry="37.51" style="fill:#9C4F06"></ellipse><ellipse cx="132.46" cy="170.15" rx="59.11" ry="29.43" style="fill:#9C4F06"></ellipse><ellipse cx="132.46" cy="170.15" rx="59.11" ry="29.43" style="opacity:0.2"></ellipse><path d="M174.25,164.6c-23.08-11.49-60.51-11.49-83.59,0C83.06,168.39,78,173,75.38,177.78c2.59,4.83,7.68,9.39,15.28,13.18,23.08,11.49,60.51,11.49,83.59,0,7.61-3.79,12.69-8.35,15.28-13.18C186.94,173,181.86,168.39,174.25,164.6Z" style="fill:#9C4F06"></path><path d="M174.25,164.6c-23.08-11.49-60.51-11.49-83.59,0C83.06,168.39,78,173,75.38,177.78c2.59,4.83,7.68,9.39,15.28,13.18,23.08,11.49,60.51,11.49,83.59,0,7.61-3.79,12.69-8.35,15.28-13.18C186.94,173,181.86,168.39,174.25,164.6Z" style="fill:#fff;opacity:0.1"></path><path d="M182.56,157.71l-69.65,40.22a82,82,0,0,1-22.25-7c-10.72-5.33-16.47-12.22-17.23-19.21.75-7,6.5-13.87,17.23-19.22,23.08-11.49,60.5-11.49,83.59,0A47.63,47.63,0,0,1,182.56,157.71Z" style="fill:#9C4F06"></path><path d="M182.56,157.71l-69.65,40.22a82,82,0,0,1-22.25-7c-10.72-5.33-16.47-12.22-17.23-19.21.75-7,6.5-13.87,17.23-19.22,23.08-11.49,60.5-11.49,83.59,0A47.63,47.63,0,0,1,182.56,157.71Z" style="fill:#fff;opacity:0.2"></path><path d="M186.92,174l-43.45,25.1a117.25,117.25,0,0,1-30.56-1.14l69.65-40.22Z" style="fill:#9C4F06"></path><path d="M186.92,174l-43.45,25.1a117.25,117.25,0,0,1-30.56-1.14l69.65-40.22Z" style="opacity:0.1"></path><path d="M185.36,191.51l-10.05,5.8a4.11,4.11,0,0,1-3.7-.16h0c-1.09-.63-1.21-1.59-.26-2.14l10-5.79a4.11,4.11,0,0,1,3.7.15h0C186.19,190,186.31,191,185.36,191.51Z" style="opacity:0.5"></path><path d="M202.12,256.76l-5.9,68.7c-.72,8.84-6.93,17.56-18.63,24.32-24.93,14.39-65.35,14.39-90.28,0-12.5-7.22-18.72-16.68-18.7-26.14L62.81,257c1,9.51,7.73,18.86,20.31,26.12,27.26,15.72,71.42,15.72,98.66,0,12.7-7.33,19.48-16.79,20.33-26.4Z" style="fill:#455a64"></path><path d="M170.2,313.72a32.12,32.12,0,0,1,9.38-6.07,1.83,1.83,0,0,0,.15-3.3c-6.81-3.37-16.39-1.14-23.16,5.94-7.13,7.47-8.62,17.74-4,24.29a1.87,1.87,0,0,0,2.62.34c3.64-2.86,6-6.23,8.37-11.65A28.74,28.74,0,0,1,170.2,313.72Zm15.42-3.56a1.89,1.89,0,0,0-2.37-.79A29.1,29.1,0,0,0,168.48,323c-1.69,3.23-2.82,6.88-4.94,9.88a19,19,0,0,1-5.59,5.28c-.3.19-.18.92.21,1.08,6.76,2.95,16,.63,22.53-6.23S189.09,316.71,185.62,310.16Z" style="fill:#263238"></path><path d="M105.37,291.8a85,85,0,0,1-22.25-8.64C70.54,275.9,63.77,266.55,62.81,257l5.8,66.6c0,9.46,6.2,18.92,18.7,26.14a77.42,77.42,0,0,0,20.4,7.92Z" style="fill:#37474f"></path></g></g><g id="freepik--leaves-1--inject-1270"><g id="freepik--leaf--inject-1270"><path d="M269.09,384.65c-5.57-3-11.12-6-16.8-8.83-3.18-1.57-6.31-3.22-9.61-4.52a56.76,56.76,0,0,0-9.57-2.48,88,88,0,0,0-20.19-2c-10.11.29-20.1,2-30.14,3.12a29.11,29.11,0,0,1-4.27.23,23.64,23.64,0,0,0,6.07-5.08c1.52-1.78,2.81-3.82,4.69-5.18,2.24-1.63,5-2.13,7.73-2.68a7.7,7.7,0,0,0,3.35-1.28c2.18-1.73,3.1-3.94,6.1-4.56,2.56-.54,5.38.21,7.74-1,1.1-.55,2-1.47,3-2.12,3-1.86,5.82-.61,9-.34,2.24.2,4.53-.77,6.73-.24,1.35.33,2.55,1.2,3.92,1.44,1.77.31,3.59-.46,5.35-.09,2.77.58,4.52,3.77,7.31,4.28,1,.17,2,0,2.9.19,2.58.53,4,3.42,6.36,4.67,1.43.78,3.18.92,4.44,2,1.6,1.31,2,3.62,3,5.43.87,1.5,2.23,2.68,2.95,4.26C271.22,374.4,267.32,380,269.09,384.65Z" style="fill:#9C4F06"></path><path d="M269.09,384.65c-5.57-3-11.12-6-16.8-8.83-3.18-1.57-6.31-3.22-9.61-4.52a56.76,56.76,0,0,0-9.57-2.48,88,88,0,0,0-20.19-2c-10.11.29-20.1,2-30.14,3.12a29.11,29.11,0,0,1-4.27.23,23.64,23.64,0,0,0,6.07-5.08c1.52-1.78,2.81-3.82,4.69-5.18,2.24-1.63,5-2.13,7.73-2.68a7.7,7.7,0,0,0,3.35-1.28c2.18-1.73,3.1-3.94,6.1-4.56,2.56-.54,5.38.21,7.74-1,1.1-.55,2-1.47,3-2.12,3-1.86,5.82-.61,9-.34,2.24.2,4.53-.77,6.73-.24,1.35.33,2.55,1.2,3.92,1.44,1.77.31,3.59-.46,5.35-.09,2.77.58,4.52,3.77,7.31,4.28,1,.17,2,0,2.9.19,2.58.53,4,3.42,6.36,4.67,1.43.78,3.18.92,4.44,2,1.6,1.31,2,3.62,3,5.43.87,1.5,2.23,2.68,2.95,4.26C271.22,374.4,267.32,380,269.09,384.65Z" style="opacity:0.1"></path><path d="M252.29,375.82c5.68,2.78,11.23,5.83,16.8,8.83-1.61-4.25,1.46-9.25.46-13.53a18.09,18.09,0,0,1-1.23,3.66.58.58,0,0,1-.75.34.9.9,0,0,1-.32-.42,22.38,22.38,0,0,0-2.84-4.82c-1.37-1.67-3.69-2.3-5.05-4.09-1-1.36-1.53-3.07-2.45-4.51a8.84,8.84,0,0,0-6.17-4c-2.54-.34-5.34.43-7.54-.94-1.33-.83-2.19-2.34-3.56-3.12-2.81-1.58-6.23.53-9.43.35-2.09-.11-4-1.21-6.06-1.62a9.45,9.45,0,0,0-5.74.66c-1.38.63-2.64,1.59-4.13,1.89-2.5.49-5.13-1.05-7.58-.33s-3.85,3.32-6.22,4.07c-1.66.52-3.48,0-5.18.42a10.36,10.36,0,0,0-4.24,2.66c-2.8,2.48-6.26,5.35-8.74,8.67l.46-.05c10-1.08,20-2.83,30.14-3.12a88,88,0,0,1,20.19,2,56.76,56.76,0,0,1,9.57,2.48C246,372.6,249.11,374.25,252.29,375.82Z" style="opacity:0.1"></path><path d="M176.77,371.39c-.73-.1-2.37-.4-1.51-1.53a2.17,2.17,0,0,1,.91-.63c2.52-1.09,5.12-.67,7.57-2.2,3-1.85,5-5.22,8.32-6.28s7,.35,9.84-1.46c1.21-.77,2.09-2,3.36-2.72,2.57-1.38,5.71.1,8.6-.16,2.69-.24,5.06-2,7.73-2.35,3.3-.46,6.58,1.19,9.91,1,2.37-.12,4.92-1.12,7,.05,1.38.77,2.22,2.37,3.65,3.05s3,.33,4.56.34a10.08,10.08,0,0,1,8.16,4.41c1,1.42,1.58,3.09,2.69,4.4a25.28,25.28,0,0,0,3.8,3.11c4.92,3.89,6.89,12.28,8.94,18.31-2.49-2.3-12.07-7.56-15.18-8.82-21.73-8.74-38.46-12.19-61.62-9.53C187.94,371.05,182.33,372.15,176.77,371.39Z" style="fill:#9C4F06"></path><path d="M270,388.51c-2.48-4.49-6.95-7.9-11.48-10.38-1.07-.59-2.07-1.23-3.15-1.78a6.12,6.12,0,0,1-2.58-2.17,2.49,2.49,0,0,1-.38-1.18,3.3,3.3,0,0,1,.5-1.51c.43-.79.89-1.57,1.38-2.33.3-.47.86-1.78-.13-1.9a1.48,1.48,0,0,0-.81.22c-1.57.81-3,1.95-4.55,2.76a6.82,6.82,0,0,1-4.56.82c-1.39-.32-2.58-1.76-3.29-3-.93-1.59-1.47-3.38-2.26-5a4,4,0,0,0-2.17-2.34.67.67,0,0,0-.54,0,.71.71,0,0,0-.29.54,5.89,5.89,0,0,0,.56,2.62,9.68,9.68,0,0,1,.43,2.06,3.38,3.38,0,0,1-.38,2.2,2.42,2.42,0,0,1-1.89,1c-1.57.11-3.08-1.1-4.42-1.83-2.1-1.15-4.17-2.36-6.2-3.65-1.72-1.08-3.58-2.58-5.56-3.11-.51-.14-1.22-.1-1.35.43s.21.73.48,1l2.25,2.23a2.39,2.39,0,0,1,.92,1.61,1.73,1.73,0,0,1-.8,1.28,5.26,5.26,0,0,1-3.62.63,18,18,0,0,1-6-1.73c-.83-.4-1.47-1.06-2.29-1.51-1-.56-2-1.14-3.07-1.67a3.76,3.76,0,0,0-1.93-.71c-2.73.3,4.33,5.13,1.49,5.85s-6.15-1.43-8.76-2.37c-.49-.17-3.94-1.27-3.27.5a1.42,1.42,0,0,0,.38.5,12.8,12.8,0,0,0,1.06.89c.19.14.4.3.43.53a.57.57,0,0,1-.29.53,1.64,1.64,0,0,1-.59.19c-3.07.51-6.21.63-9.3.89a43.69,43.69,0,0,1-8.48,0,1.2,1.2,0,0,0-.22.23c-.86,1.13.78,1.43,1.51,1.53,5.56.76,11.17-.34,16.74-1,23.16-2.66,39.89.79,61.62,9.53C258.14,381.15,267.17,386.1,270,388.51Z" style="opacity:0.1"></path><path d="M276.69,397.55c.13.15.25.31.37.46h4.09a31.54,31.54,0,0,0-5.3-6.6,52.3,52.3,0,0,0-8-6.36,92,92,0,0,0-19.43-9.41,107.65,107.65,0,0,0-22.17-5.5,114.36,114.36,0,0,0-23.54-.58c-4.95.37-9.88.89-14.83,1.19q-3.74.22-7.46.41a10,10,0,0,1-5.21-.79c-.26-.13-.3.33-.16.47,1.31,1.27,3,1.46,4.7,1.61,2.11.2,4.24.23,6.36.25,4.1,0,8.2-.27,12.29-.44a147.78,147.78,0,0,1,24.17.41c14.47,1.73,29,6.19,41.55,14.05a54.47,54.47,0,0,1,8.73,6.71A49.19,49.19,0,0,1,276.69,397.55Z" style="fill:#9C4F06"></path><path d="M276.69,397.55c.13.15.25.31.37.46h4.09a31.54,31.54,0,0,0-5.3-6.6,52.3,52.3,0,0,0-8-6.36,92,92,0,0,0-19.43-9.41,107.65,107.65,0,0,0-22.17-5.5,114.36,114.36,0,0,0-23.54-.58c-4.95.37-9.88.89-14.83,1.19q-3.74.22-7.46.41a10,10,0,0,1-5.21-.79c-.26-.13-.3.33-.16.47,1.31,1.27,3,1.46,4.7,1.61,2.11.2,4.24.23,6.36.25,4.1,0,8.2-.27,12.29-.44a147.78,147.78,0,0,1,24.17.41c14.47,1.73,29,6.19,41.55,14.05a54.47,54.47,0,0,1,8.73,6.71A49.19,49.19,0,0,1,276.69,397.55Z" style="fill:#fff;opacity:0.30000000000000004"></path><path d="M186.13,367.45c.22.94,2,.52,2.58.42a1.53,1.53,0,0,0,1.25-.72,6.49,6.49,0,0,0,.13-1.1c.08-.36.53-.68.78-.42a2.17,2.17,0,0,1,2.12-1.79,6.06,6.06,0,0,1,2.86.83,6.43,6.43,0,0,0,2.86.84.89.89,0,0,0,.43-.11c.36-.24.27-.82,0-1.17a4.27,4.27,0,0,1-.74-1.07c.5-.38,1.21-.05,1.68.37s.93,1,1.55,1c.5-.75-.79-1.77-.35-2.56a1.15,1.15,0,0,1,1.11-.44c3.37.07,6.2,2.77,9.55,3.23a1,1,0,0,0,.42,0c.53-.18.44-1,.12-1.46s-.82-.88-.79-1.45c1.65-.67,3.1,2.16,4.83,1.74.15-.49-.22-1-.58-1.35a15.51,15.51,0,0,0-6-3.79,4.37,4.37,0,0,0-2.39-.27,5.93,5.93,0,0,0-1.58.77,19.55,19.55,0,0,1-8.27,2.66c-2,.17-4,0-5.88.73a11.09,11.09,0,0,0-3.33,2.18c-.63.55-2.47,1.82-2.39,2.82A.59.59,0,0,0,186.13,367.45Z" style="fill:#fff;opacity:0.1"></path><path d="M218.42,356.66a.93.93,0,0,0-.43.63,1,1,0,0,0,.42.69,27.75,27.75,0,0,0,4.61,3.1c.48.28,1.17.52,1.5.07s-.45-1.38-.39-2.13c1-.28,1.94.7,2.65,1.53a19.11,19.11,0,0,0,3.66,3.24c.31.21.72.41,1,.19a.92.92,0,0,0,.29-.7A4.45,4.45,0,0,0,230.6,360c.39-.35,1,.06,1.32.46s.9.83,1.32.52.14-1.07.25-1.64a1.31,1.31,0,0,1,1-1,2.87,2.87,0,0,1,1.47.18,9.06,9.06,0,0,1,3.75,2.39c1.26,1.35,2.12,3.07,3.45,4.35.24.23.58.46.88.32.46-.22.28-1,.58-1.4s1.09-.26,1.45.19a13.21,13.21,0,0,1,.78,1.55,3.1,3.1,0,0,0,4.21.78,2.39,2.39,0,0,0,1.07-1.21c.36-1.06-.37-2.19-1.19-2.93a8.84,8.84,0,0,0-4.28-2.12c-1.7-.32-3.54-.14-5-1-1.67-1-2.6-3-4.38-3.75-2-.82-4.27.48-6.45.82-2.45.38-4.46-.66-6.78-1.19A7.09,7.09,0,0,0,218.42,356.66Z" style="fill:#fff;opacity:0.1"></path></g><g id="freepik--leaf--inject-1270"><path d="M254.56,379.94a13.28,13.28,0,0,0-4.83-2.6c-1.35-.32-2.77-.25-4.13-.49-2.2-.39-4.19-1.55-6.34-2.15a12.72,12.72,0,0,0-6-.19,22.41,22.41,0,0,1-2.8.57,11.81,11.81,0,0,1-2.9-.25c-3.15-.51-6.5-.92-9.45.32-2.28,1-4,2.78-6,4.16-1.85,1.27-3.86.6-5.91,1.27-4.08,1.32-4.17,7-7.91,8.93-1.91,1-3.41,1.53-4.77,3.35-1.12,1.49-1.72,3.36-3,4.74s-2.81,1.76-4.2,2.75c-2.12,1.49-3.05,4-4.28,6.14s-3.51,3.74-4.7,6a1.13,1.13,0,0,0-.18.58.86.86,0,0,0,.58.73c1.52.64,3.35,0,4.93,0,6.76-.23,11.87,6.05,18.47,5.94a21.86,21.86,0,0,1,4.27-.16,9.18,9.18,0,0,1,2.89,1.22c3.12,1.77,6.41,3.74,10,3.55,3.23-.17,6.19-2.09,9.42-2.08,2.68,0,5.65,1.29,7.87-.22,1-.69,1.62-1.84,2.64-2.51,1.77-1.17,4.2-.56,6.15-1.41,2.35-1,3.4-3.86,5.59-5.18,1.75-1.06,4-1,5.79-1.93,2.27-1.15,3.1-3.49,4.91-5.08s4.08-2.24,5.87-3.73c1.05-.86,1.87-2,2.87-2.89a17,17,0,0,1,4.8-3c.53-.23,1.16-.61,1.09-1.18a1.35,1.35,0,0,0-.27-.55A25.22,25.22,0,0,0,270.3,389c-1.87-1.45-3.34-3.49-5.56-4.48-1.69-.76-3.61-.87-5.35-1.53A20.63,20.63,0,0,1,254.56,379.94Z" style="fill:#9C4F06"></path><path d="M198.72,395.08h.64a.54.54,0,0,0,.37-.13.38.38,0,0,0,0-.46,1.23,1.23,0,0,0-.4-.27c-.65-.33-1.67-1-1.57-1.78a2.2,2.2,0,0,1,1.52-1.52,6.35,6.35,0,0,1,3.25.24c1.4.33,2.81.59,4.24.78.5.06,1.18,0,1.3-.48s-.35-.79-.69-1.08-.63-.88-.26-1.14a.87.87,0,0,1,.53-.1,29.32,29.32,0,0,1,4,.48,3.1,3.1,0,0,0,1.21.08,1,1,0,0,0,.82-.79,1.15,1.15,0,0,0-.14-.6,8.35,8.35,0,0,0-2.42-2.5,3.71,3.71,0,0,1-1.58-3c1.51-1.34,3.89-1,5.71-.09s3.44,2.22,5.4,2.71a1.4,1.4,0,0,0,.73,0,1.18,1.18,0,0,0,.58-1.53c-.31-.9-1.95-2.28-.51-3,1.2-.64,2.78.77,4,.79a.43.43,0,0,0,.27-.06c.2-.14.1-.45,0-.66-.48-.84-1.77-2.32-1.71-3.32.08-1.2,1.67-1.11,2.47-.82,3.89,1.42,6.67,5.38,10.77,5.95a1.3,1.3,0,0,0,.52,0c1.2-.34.41-2.2-.06-2.78a9.76,9.76,0,0,0-3.59-2.95,11,11,0,0,0-2.33-.62l-4.14-.8a14.19,14.19,0,0,0-3.8-.63,15.14,15.14,0,0,0-6.36,2c-1.57,1-2.9,2.34-4.6,3-2.24.94-4.94.64-6.95,2a12,12,0,0,0-2.62,3,24.67,24.67,0,0,1-4.51,4.62,24,24,0,0,0-4.77,4.21c-.41.55-1.69,2.26-1.22,3s2.57.35,3.21.2a1.4,1.4,0,0,0,.65-.28.63.63,0,0,0,.22-.64c-.11-.32-.55-.48-.59-.82s.26-.56.57-.58a2.13,2.13,0,0,1,.88.2A4.68,4.68,0,0,0,198.72,395.08Z" style="fill:#fff;opacity:0.1"></path><path d="M187.56,401.06a2.56,2.56,0,0,0-.88.88,7.75,7.75,0,0,0-.45,1.28,6,6,0,0,1-1.17,1.79c-.89,1-1.81,2-2.78,3a4.43,4.43,0,0,0-1.31,1.76,5.69,5.69,0,0,0,3.84-1.47,2.58,2.58,0,0,0,.75-1c.08-.24.11-.51.21-.75a2,2,0,0,1,1.36-1,6.5,6.5,0,0,0,1.63-.54,1.27,1.27,0,0,0,.64-1.45,2.11,2.11,0,0,1-.21-.46.68.68,0,0,1,.44-.64,2.79,2.79,0,0,1,.81-.12,4.77,4.77,0,0,0,1.84-.54c1.36-.73-.75-1.44-1.38-1.47A5.54,5.54,0,0,0,187.56,401.06Z" style="fill:#fff;opacity:0.1"></path><path d="M241.8,378.17a2.61,2.61,0,0,0,.43.76l3,4.05a2.11,2.11,0,0,0,.62.64.72.72,0,0,0,.84-.07c.11-.12.17-.3.28-.42a.73.73,0,0,1,.78-.11,2.4,2.4,0,0,1,.65.5,18.88,18.88,0,0,0,2.07,1.72c.18.13.43.25.58.11a.42.42,0,0,0,.12-.26,3.72,3.72,0,0,0-.09-1.9,1.61,1.61,0,0,1-.15-.74,1,1,0,0,1,1.09-.7c.78.09,1.57.91,2.15,1.38a17.44,17.44,0,0,1,2.06,2,6.79,6.79,0,0,0,2.68,2.33,1.18,1.18,0,0,0,1-.05c.1-.07.19-.17.3-.24.4-.25.91,0,1.24.35.5.5.83,1.13,1.3,1.66a2.06,2.06,0,0,0,1.83.83.4.4,0,0,0,.32-.2c.05-.1,0-.23,0-.34a.54.54,0,0,1,.53-.43,1.39,1.39,0,0,1,.7.21c1,.55,2,1.4,3.18,1.39a.24.24,0,0,0,.16-.05.17.17,0,0,0,.05-.14,1.71,1.71,0,0,0-.53-1.07,15.73,15.73,0,0,0-4.27-3.83c-2.35-1.26-5.18-1.39-7.55-2.63a41.15,41.15,0,0,1-4-2.83,9.13,9.13,0,0,0-4.62-1.6c-.69-.06-1.39,0-2.08-.11a9.85,9.85,0,0,1-3.07-.74C242.82,377.36,241.44,376.86,241.8,378.17Z" style="fill:#fff;opacity:0.1"></path><path d="M194.09,404.84c-8.1,3.64-14.15,6.38-16.72,8.74a.9.9,0,0,0,.36.25c1.52.64,3.35,0,4.93,0,6.76-.23,11.87,6.05,18.47,5.94a21.86,21.86,0,0,1,4.27-.16,9.18,9.18,0,0,1,2.89,1.22c3.12,1.77,6.41,3.74,10,3.55,3.23-.17,6.19-2.09,9.42-2.08,2.68,0,5.65,1.29,7.87-.22,1-.69,1.62-1.84,2.64-2.51,1.77-1.17,4.2-.56,6.15-1.41,2.35-1,3.4-3.86,5.59-5.18,1.75-1.06,4-1,5.79-1.93,2.27-1.15,3.1-3.49,4.91-5.08s4.08-2.24,5.87-3.73c1.05-.86,1.87-2,2.87-2.89a17,17,0,0,1,4.8-3,2.57,2.57,0,0,0,.82-.51,129.27,129.27,0,0,0-18.15-3.21C229.34,389.7,204.81,400,194.09,404.84Z" style="opacity:0.1"></path><path d="M218.67,413.36l-.44.88c-.88,1.76-2,1.27-1.48-.55.35-1.19,1-2.25,1.41-3.41l2-5.54c.39-1.11.7-2.86-.14-3.86s-2.28-.86-3.45-.45c-2.84,1-4.93,3.45-6.66,5.92-1.44,2.06-2.75,4.41-4.63,6.11-.55.5-1.7,1-1.6-.23.06-.69,1.16-1.65,1.59-2.19a25.42,25.42,0,0,0,3.68-6.67c.15-.38.26-.86,0-1.15a1,1,0,0,0-.55-.23c-1.6-.27-3.15.58-4.48,1.48a35.08,35.08,0,0,0-7.64,7c-.27.32-1.26,1.62-1.76.86-.37-.56,1-1.9,1.35-2.32a6.52,6.52,0,0,0,1.33-3.48c-1.18-.26-3,.64-4.13,1a44.87,44.87,0,0,0-4.51,1.77,3.38,3.38,0,0,1-1.25.46c-1.56,0,.48-1.61.84-1.95,1.19-1.13,10.19-5.32,5.34-7.08a14.62,14.62,0,0,0-2.33-.64c-.09-.52.56-.82,1.08-.87a18.36,18.36,0,0,1,3.55.16,30.32,30.32,0,0,0,4.47.06,9.55,9.55,0,0,0,4.87-1.33c.54-.37,1-1,.86-1.62s-.69-.76-1.18-.95c-1.28-.48-2.56-.83-3.8-1.36-.52-.23-2.58-.59-2.63-1.35-.07-1.09,3.54.07,4.14.24a43.73,43.73,0,0,0,4.78,1.28,16,16,0,0,0,4,.16,18.57,18.57,0,0,0,3.56-.33,4.7,4.7,0,0,0,2.1-1.17,3.44,3.44,0,0,0,.86-1.59,2.21,2.21,0,0,0,.06-.77,1.87,1.87,0,0,0-.7-1.24l-3.61-3c-.36-.29-2.56-1.75-1.57-2.38.43-.27,2,.79,2.3,1,.73.5,1.41,1.08,2.09,1.64a24.14,24.14,0,0,0,7.5,4.35,7.44,7.44,0,0,0,4.19.37,3.52,3.52,0,0,0,2.73-2.91,5.42,5.42,0,0,0-.83-2.76,24.83,24.83,0,0,0-2.84-4.73c-.41-.5-1.22-1.06-1.35-1.73-.23-1.15.78-.45,1.24,0a17.92,17.92,0,0,1,3.2,3.65c1.52,2.3,2.6,5.05,4.93,6.53a8,8,0,0,0,3.64,1.15,5.26,5.26,0,0,0,3-.49c1.63-.94,1.34-2.48.77-4a27.58,27.58,0,0,0-2.77-5.44.58.58,0,0,1-.14-.38.41.41,0,0,1,.48-.3,1.08,1.08,0,0,1,.52.33c2.76,2.63,3.48,7,6.59,9.25a12.19,12.19,0,0,0,6.17,1.79c.67.06,1.49,0,1.82-.55a1.57,1.57,0,0,0,0-1.29c-.67-2-2.26-3.49-3.29-5.3a.55.55,0,0,1-.1-.44c.1-.28.52-.23.79-.09a8.74,8.74,0,0,1,3,3.18,24.4,24.4,0,0,0,2.67,3.63c3.73,3.9,9.44,3.64,13.91,6.19-2.76-.48-5.55-1-8.14.33a10.51,10.51,0,0,0-4.85,5.25c-.61,1.48-.8,3.79-2,4.95-1.55,1.54-.21-2.62-.09-3.23.23-1.17.41-2.35.55-3.54a3.73,3.73,0,0,0-.11-1.82c-.45-1.12-1.83-1.55-3-1.6a9.5,9.5,0,0,0-6.91,2.66c-3.48,3.38-3.85,8.88-6.64,12.85-.2.28-.54.59-.84.42s-.23-.54-.16-.83c.82-3.44,2.27-6.69,3.16-10.11.29-1.11,1-3.44-.22-4.19a3,3,0,0,0-2.14-.25,6.5,6.5,0,0,0-3.56,2.4A18.58,18.58,0,0,0,235,402.7q-2.11,4.67-3.95,9.44c-.31.8-2,3.43-1.77,1.13a20.12,20.12,0,0,1,.81-3.3,46.29,46.29,0,0,0,1.13-7.12c.11-1.41,0-3.13-1.28-3.75-1.07-.53-2.36.09-3.28.85-2.21,1.83-3.55,4.47-4.83,7Z" style="opacity:0.1"></path><path d="M286.77,397.5c-24.79-8.88-53.36-9.7-78.2-.51a79.33,79.33,0,0,0-20.07,10.38c-.07.05-.16.31,0,.25,6-2.28,11.9-4.91,18.06-6.86A136.68,136.68,0,0,1,226.24,396a125.88,125.88,0,0,1,38.41-.46,113.21,113.21,0,0,1,21.29,5.32C288.35,401.71,288.86,398.25,286.77,397.5Z" style="fill:#9C4F06"></path><path d="M286.77,397.5c-24.79-8.88-53.36-9.7-78.2-.51a79.33,79.33,0,0,0-20.07,10.38c-.07.05-.16.31,0,.25,6-2.28,11.9-4.91,18.06-6.86A136.68,136.68,0,0,1,226.24,396a125.88,125.88,0,0,1,38.41-.46,113.21,113.21,0,0,1,21.29,5.32C288.35,401.71,288.86,398.25,286.77,397.5Z" style="fill:#fff;opacity:0.30000000000000004"></path></g><g id="freepik--leaf--inject-1270"><path d="M285.43,362.35a12.28,12.28,0,0,0,.35-5.1c-.25-1.27-.86-2.45-1.18-3.7-.52-2-.3-4.15-.62-6.2a11.85,11.85,0,0,0-2.17-5.2,21.91,21.91,0,0,1-1.56-2.16,10.92,10.92,0,0,1-.91-2.55c-.78-2.88-1.73-5.88-3.92-7.9-1.69-1.56-3.9-2.33-5.85-3.5-1.79-1.09-2-3-3.35-4.53-2.7-2.94-7.52-.85-10.63-3.27-1.58-1.23-2.62-2.3-4.69-2.75-1.69-.37-3.52-.16-5.16-.68s-2.57-1.7-4-2.5c-2.08-1.22-4.55-1.05-6.86-1.26s-4.53-1.53-6.93-1.66a1.17,1.17,0,0,0-.56.07.82.82,0,0,0-.4.77c.05,1.55,1.28,2.85,1.93,4.17,2.8,5.65-.55,12.41,2.09,18a20.76,20.76,0,0,1,1.78,3.56,8.67,8.67,0,0,1,.08,2.92c-.3,3.33-.7,6.88.84,9.85,1.39,2.67,4.17,4.44,5.4,7.19,1,2.28,1.09,5.29,3.22,6.59,1,.59,2.19.66,3.15,1.27,1.68,1.05,2.1,3.35,3.57,4.68,1.77,1.6,4.58,1.39,6.55,2.74,1.57,1.08,2.38,3,3.87,4.17,1.85,1.48,4.16,1.28,6.21,2.21s3.47,2.59,5.42,3.54c1.14.55,2.39.83,3.56,1.32a15.67,15.67,0,0,1,4.38,2.92c.4.36,1,.75,1.42.47a1.27,1.27,0,0,0,.36-.44,23,23,0,0,0,2.95-6.17c.52-2.14,1.68-4.18,1.67-6.44,0-1.73-.66-3.4-.77-5.13A19,19,0,0,1,285.43,362.35Z" style="fill:#9C4F06"></path><path d="M251.05,320.81a4.41,4.41,0,0,0,.24.54.47.47,0,0,0,.26.26.33.33,0,0,0,.37-.2A1.16,1.16,0,0,0,252,321c0-.68.18-1.79.91-2a2.06,2.06,0,0,1,1.87.71,6,6,0,0,1,1.05,2.85c.26,1.31.58,2.61,1,3.89.14.46.45,1,.91.92s.54-.59.65-1,.5-.87.87-.66a.74.74,0,0,1,.28.41,25.71,25.71,0,0,1,1.13,3.55,2.79,2.79,0,0,0,.4,1.05.91.91,0,0,0,1,.4,1.09,1.09,0,0,0,.46-.36,8,8,0,0,0,1.19-3,3.45,3.45,0,0,1,1.91-2.49c1.72.77,2.33,2.93,2.27,4.81s-.56,3.78-.21,5.63a1.33,1.33,0,0,0,.25.64,1.09,1.09,0,0,0,1.51-.11c.66-.6,1.19-2.53,2.4-1.6,1,.77.41,2.65.87,3.71a.54.54,0,0,0,.15.21c.2.12.42-.09.56-.27.53-.73,1.28-2.4,2.16-2.73,1-.4,1.58,1,1.64,1.78.3,3.84-2,7.73-.89,11.43a1.12,1.12,0,0,0,.21.44c.74.89,2-.5,2.33-1.12a9.23,9.23,0,0,0,1.12-4.19,11.09,11.09,0,0,0-.37-2.21c-.31-1.28-.62-2.55-.92-3.82a13.48,13.48,0,0,0-.94-3.47,14.2,14.2,0,0,0-4.1-4.65c-1.43-.95-3.11-1.55-4.37-2.72-1.66-1.53-2.45-3.95-4.38-5.12a11.23,11.23,0,0,0-3.53-1.08,23,23,0,0,1-5.66-2.05,22.23,22.23,0,0,0-5.41-2.42c-.62-.14-2.57-.56-3,.11s.7,2.31,1.07,2.8a1.29,1.29,0,0,0,.49.44.58.58,0,0,0,.62-.06c.24-.22.2-.65.47-.82a.55.55,0,0,1,.72.26,2.12,2.12,0,0,1,.17.83A4.46,4.46,0,0,0,251.05,320.81Z" style="fill:#fff;opacity:0.1"></path><path d="M241.67,313.65a2.42,2.42,0,0,0-1.09-.41,7.56,7.56,0,0,0-1.25.12,5.86,5.86,0,0,1-2-.31c-1.2-.36-2.4-.76-3.57-1.21a4.33,4.33,0,0,0-2-.44,5.33,5.33,0,0,0,2.73,2.7,2.5,2.5,0,0,0,1.17.23c.24,0,.48-.1.72-.11a1.88,1.88,0,0,1,1.34.78,6.09,6.09,0,0,0,1.08,1.18,1.19,1.19,0,0,0,1.48,0c.11-.12.18-.27.32-.35a.6.6,0,0,1,.7.12,2.44,2.44,0,0,1,.42.64,4.22,4.22,0,0,0,1.17,1.35c1.14.87.93-1.19.71-1.74A5.15,5.15,0,0,0,241.67,313.65Z" style="fill:#fff;opacity:0.1"></path><path d="M282,350.84a2.55,2.55,0,0,0-.48.65l-2.29,4.1a2,2,0,0,0-.29.77.65.65,0,0,0,.38.68c.15.06.31,0,.46.08a.66.66,0,0,1,.39.62,2,2,0,0,1-.17.75,20.11,20.11,0,0,0-.66,2.42c0,.19-.05.45.14.53a.39.39,0,0,0,.26,0,3.38,3.38,0,0,0,1.57-.81,1.72,1.72,0,0,1,.57-.41.9.9,0,0,1,1,.66,4.79,4.79,0,0,1-.34,2.35,14.54,14.54,0,0,1-.88,2.5,6.41,6.41,0,0,0-.94,3.18,1.08,1.08,0,0,0,.44.86l.32.16a1,1,0,0,1,.19,1.19c-.23.62-.65,1.15-.92,1.74a1.93,1.93,0,0,0,0,1.88.36.36,0,0,0,.29.19.84.84,0,0,0,.3-.11.54.54,0,0,1,.57.29,1.17,1.17,0,0,1,.09.67c-.06,1.09-.41,2.25,0,3.24a.16.16,0,0,0,.25.1,1.55,1.55,0,0,0,.7-.86,14.5,14.5,0,0,0,1.59-5.1c.17-2.48-.81-4.93-.68-7.42a40.53,40.53,0,0,1,.85-4.5,8.52,8.52,0,0,0-.42-4.55c-.22-.61-.49-1.19-.71-1.8a9.5,9.5,0,0,1-.56-2.9C283.09,351.39,283,350,282,350.84Z" style="fill:#fff;opacity:0.1"></path><path d="M241,320.65c-6.22-5.47-10.87-9.55-13.87-10.81a.88.88,0,0,0-.08.39c.05,1.55,1.28,2.85,1.93,4.17,2.8,5.65-.55,12.41,2.09,18a20.76,20.76,0,0,1,1.78,3.56,8.67,8.67,0,0,1,.08,2.92c-.3,3.33-.7,6.88.84,9.85,1.39,2.67,4.17,4.44,5.4,7.19,1,2.28,1.09,5.29,3.22,6.59,1,.59,2.19.66,3.15,1.27,1.68,1.05,2.1,3.35,3.57,4.68,1.77,1.6,4.58,1.39,6.55,2.74,1.57,1.08,2.38,3,3.87,4.17,1.85,1.48,4.16,1.28,6.21,2.21s3.47,2.59,5.42,3.54c1.14.55,2.39.83,3.56,1.32a15.67,15.67,0,0,1,4.38,2.92,2.62,2.62,0,0,0,.75.49,121.23,121.23,0,0,0-4.27-16.63C267.42,344.71,249.21,327.88,241,320.65Z" style="opacity:0.1"></path><path d="M243.23,344.79l-.91,0c-1.84-.07-1.86-1.22-.11-1.47,1.14-.17,2.3,0,3.44-.12l5.46-.46c1.1-.09,2.71-.51,3.22-1.61s-.14-2.27-.94-3.09c-2-2-4.83-2.86-7.6-3.37-2.3-.43-4.8-.63-7-1.57-.64-.28-1.47-1.08-.43-1.45.62-.22,1.85.35,2.48.5a23.69,23.69,0,0,0,7.07.56c.38,0,.83-.12,1-.47a.89.89,0,0,0,0-.56,6.11,6.11,0,0,0-3-3.23,32.63,32.63,0,0,0-8.89-3.78c-.37-.1-1.85-.44-1.4-1.16.33-.53,2,.14,2.49.25a6,6,0,0,0,3.46-.21c-.23-1.1-1.7-2.31-2.45-3.12a41.79,41.79,0,0,0-3.24-3.14c-.28-.25-.72-.53-.87-.89-.57-1.33,1.55-.21,2,0,1.41.58,8.44,6.6,8.06,1.81a14,14,0,0,0-.35-2.23c.4-.27.91.16,1.15.58a17.55,17.55,0,0,1,1.24,3.08,28.69,28.69,0,0,0,1.66,3.81,8.91,8.91,0,0,0,3,3.62,1.5,1.5,0,0,0,1.7.11,1.64,1.64,0,0,0,.35-1.37c-.08-1.27-.29-2.49-.31-3.75,0-.53-.5-2.42.13-2.75.9-.48,1.31,3,1.39,3.6a41.12,41.12,0,0,0,.76,4.55,14.64,14.64,0,0,0,1.4,3.43,17.24,17.24,0,0,0,1.65,2.89,4.29,4.29,0,0,0,1.8,1.33,3.21,3.21,0,0,0,1.68.13,2.31,2.31,0,0,0,.68-.25,1.78,1.78,0,0,0,.79-1.07c.38-1.41.77-2.82,1.15-4.23.12-.42.5-2.85,1.42-2.25.39.26.09,2,0,2.34-.13.82-.37,1.61-.58,2.41a22.33,22.33,0,0,0-.79,8,7,7,0,0,0,1.29,3.7,3.29,3.29,0,0,0,3.53,1.19,5.15,5.15,0,0,0,2-1.77,23.11,23.11,0,0,0,2.91-4.24c.26-.54.43-1.44,1-1.81.89-.64.68.49.52,1a16.7,16.7,0,0,1-1.87,4.13c-1.36,2.17-3.28,4.15-3.64,6.69a7.77,7.77,0,0,0,.43,3.54,4.93,4.93,0,0,0,1.6,2.39c1.42,1,2.61.18,3.7-.9a25.79,25.79,0,0,0,3.55-4.45.59.59,0,0,1,.27-.27.38.38,0,0,1,.43.29,1,1,0,0,1-.07.57c-1.17,3.36-4.62,5.67-5.31,9.16a11.5,11.5,0,0,0,.86,5.93c.21.59.54,1.27,1.17,1.33a1.5,1.5,0,0,0,1.09-.51c1.41-1.34,2.09-3.27,3.23-4.84a.51.51,0,0,1,.33-.26c.28,0,.39.36.38.64a8.14,8.14,0,0,1-1.55,3.75,21.94,21.94,0,0,0-2.05,3.66c-1.87,4.67.55,9.42.12,14.19-.67-2.53-1.28-5.1-3.43-6.78a9.78,9.78,0,0,0-6.32-2.09c-1.49.06-3.53.79-5,.24-1.9-.73,2.15-1.2,2.71-1.33q1.62-.39,3.21-.9a3.5,3.5,0,0,0,1.5-.79,3.05,3.05,0,0,0,.19-3.2,8.89,8.89,0,0,0-4.92-4.84c-4.21-1.64-9,.16-13.47-.67-.31-.06-.7-.24-.67-.56s.36-.4.64-.45c3.23-.63,6.55-.65,9.79-1.22,1.05-.18,3.31-.49,3.47-1.8A2.74,2.74,0,0,0,266,357a6,6,0,0,0-3.4-2.1,16.64,16.64,0,0,0-4.05-.35q-4.77,0-9.53.28c-.8.05-3.67-.32-1.65-1.06a20.55,20.55,0,0,1,3.11-.59,42.67,42.67,0,0,0,6.49-1.78c1.23-.45,2.64-1.22,2.68-2.53,0-1.12-1-2-2-2.46-2.4-1.16-5.16-1.28-7.83-1.38Z" style="opacity:0.1"></path><path d="M283,396.45c-2-24.46-12.35-49-29.73-66.55a74.13,74.13,0,0,0-16.55-13c-.07,0-.33,0-.2.11,4.26,4.24,8.75,8.21,12.78,12.68a127,127,0,0,1,11.62,14.84,117.2,117.2,0,0,1,15.21,32.42,104.9,104.9,0,0,1,3.7,20.11C280,399.42,283.13,398.51,283,396.45Z" style="fill:#9C4F06"></path><path d="M283,396.45c-2-24.46-12.35-49-29.73-66.55a74.13,74.13,0,0,0-16.55-13c-.07,0-.33,0-.2.11,4.26,4.24,8.75,8.21,12.78,12.68a127,127,0,0,1,11.62,14.84,117.2,117.2,0,0,1,15.21,32.42,104.9,104.9,0,0,1,3.7,20.11C280,399.42,283.13,398.51,283,396.45Z" style="fill:#fff;opacity:0.30000000000000004"></path></g></g><g id="freepik--Coffee--inject-1270"><g id="freepik--coffee-bean--inject-1270"><path d="M247.41,370.76h0a.86.86,0,0,1,.8-.15c.33.16.52.63.76,1,0,0,.46-1.09.91-2a1,1,0,0,1,.48-.45,5.61,5.61,0,0,1,1.56-.37c8.11-1,20.61,5.89,27.93,15.48,4.89,6.41,6.22,12.39,4.13,16-3.55,6.33-17.92,13.11-32.17,1.4S242.46,374.89,247.41,370.76Z" style="fill:#37474f"></path><path d="M280.49,395.74a26.43,26.43,0,0,1,2.8,4c2-3.44.75-9.21-4-15.4-7.05-9.24-19.1-15.92-26.92-14.91a9.63,9.63,0,0,0-1.7.37c2.23,4.65,6.24,8.3,10.56,11.33C267.84,385.78,275.23,389.46,280.49,395.74Z" style="fill:#455a64"></path><path d="M251,388c7,9.24,19.09,15.92,26.9,14.91a8.44,8.44,0,0,0,3.19-1l-.09-.17a25,25,0,0,0-2.82-4.09,42.57,42.57,0,0,0-8.55-7.4c-6.71-4.61-14-8.47-19-15.12a22.33,22.33,0,0,1-2.4-3.95C244.7,374.25,245.55,380.84,251,388Z" style="fill:#455a64"></path><path d="M249,371.66s.21-.51.49-1.13c1.52,2.45,6.33,9.16,16.54,15.31,12.77,7.7,15.39,12.85,16.2,14.09a.9.9,0,0,1-.63,1.5c-2.79-4.62-5.41-8.19-16-14.68S252.18,376.63,249,371.66Z" style="fill:#263238"></path></g><g id="freepik--coffee-bean--inject-1270"><path d="M292.53,400.17h0a.83.83,0,0,0-.68-.44c-.37,0-.72.38-1.1.66,0,0,0-1.18-.06-2.23a.9.9,0,0,0-.27-.59,5.82,5.82,0,0,0-1.3-.94c-7.08-4.09-21.29-2.52-31.73,3.51-7,4-10.52,9.05-10,13.14.83,7.21,11.48,19,29.14,13.69S295.51,405.88,292.53,400.17Z" style="fill:#37474f"></path><path d="M252.37,410.47a25.48,25.48,0,0,0-4.13,2.62c-.54-4,2.86-8.79,9.6-12.68,10.07-5.81,23.76-7.33,30.59-3.39a9.66,9.66,0,0,1,1.42,1c-3.85,3.43-9,5.25-14.1,6.39C267.88,406.15,259.64,406.69,252.37,410.47Z" style="fill:#455a64"></path><path d="M282.55,414.68C272.5,420.49,258.8,422,252,418.07a8.52,8.52,0,0,1-2.55-2.17l.15-.12a24.81,24.81,0,0,1,4.18-2.69,42.22,42.22,0,0,1,10.73-3.53c8-1.67,16.23-2.41,23.4-6.62a22.27,22.27,0,0,0,3.73-2.72C293.68,404.42,290.35,410.18,282.55,414.68Z" style="fill:#455a64"></path><path d="M290.74,400.39s0-.55,0-1.23c-2.34,1.68-9.37,6-21.16,7.76-14.75,2.18-19.15,5.92-20.38,6.75a.89.89,0,0,0,0,1.62c4.36-3.18,8.15-5.47,20.43-7.37S285.86,403.74,290.74,400.39Z" style="fill:#263238"></path></g><g id="freepik--Flower--inject-1270"><path d="M287.3,390.69a14.06,14.06,0,0,1,.89-7.33,34.63,34.63,0,0,1,3.54-6.56q2.75-4.2,5.79-8.19c.27-.34.86-1.48,1.36-1.51,1.53-.1,1.18,5.15,1.16,6a42,42,0,0,1-1.4,10.09c-.92,3.43-2.23,6.78-5.25,8.81-1.07.72-2.23,1.67-3.58,1.7C288.05,393.7,287.57,392.2,287.3,390.69Z" style="fill:#fafafa"></path><path d="M290.44,389.79a21,21,0,0,1-.14-6.07c.46-2.73,2-5.15,3.11-7.67a31.2,31.2,0,0,0,1.42-3.78c-1.06,1.49-2.1,3-3.1,4.53a34.63,34.63,0,0,0-3.54,6.56,14.06,14.06,0,0,0-.89,7.33c.27,1.51.75,3,2.51,3,1.35,0,2.51-1,3.58-1.7,3-2,4.33-5.38,5.25-8.81a38.42,38.42,0,0,0,.86-4.16,26.1,26.1,0,0,1-5.44,6.36C292.57,386.62,290.83,387.88,290.44,389.79Z" style="fill:#e6e6e6"></path><path d="M288.14,385a13.45,13.45,0,0,0-3.13-4.87,58.36,58.36,0,0,0-7.67-6.81q-2.07-1.54-4.25-2.89c-.78-.48-4.31-3.47-4.82-1.52a1.85,1.85,0,0,0,.06.93c.83,3.53,2.78,6.68,4.82,9.69a44.36,44.36,0,0,0,8.77,10.18,51.4,51.4,0,0,0,5.39,3.58.85.85,0,0,0,.84.16.83.83,0,0,0,.3-.5,16.17,16.17,0,0,0,.26-5.15A10.87,10.87,0,0,0,288.14,385Z" style="fill:#fafafa"></path><path d="M287.31,393.3a1,1,0,0,0,.75.19,13.8,13.8,0,0,1-2.42-3.54c-2-3.81-3.88-7.78-7-10.75-2.66-2.55-6.12-4.27-8.27-7.26a4.92,4.92,0,0,1-1.07-3.65.83.83,0,0,0-1.05.63,1.85,1.85,0,0,0,.06.93c.83,3.53,2.78,6.68,4.82,9.69a44.36,44.36,0,0,0,8.77,10.18A51.4,51.4,0,0,0,287.31,393.3Z" style="fill:#ebebeb"></path><path d="M298.33,387.86a14.07,14.07,0,0,1,9.59,3c3.3,2.54,5.41,6.28,8,9.52a3.82,3.82,0,0,1-2.41-.3c-3.53-1.35-6.78-3.68-10.55-4-1.3-.12-2.61,0-3.91,0a19.14,19.14,0,0,1-4.52-.54c-1.24-.29-4.63-1.18-4.55-2.87s2.32-2.79,3.52-3.42A12.37,12.37,0,0,1,298.33,387.86Z" style="fill:#f5f5f5"></path><path d="M299.08,396.08c1.3,0,2.61-.14,3.91,0,3.77.33,7,2.66,10.55,4a3.82,3.82,0,0,0,2.41.3c-.11-.13-.21-.27-.32-.41a12.65,12.65,0,0,1-2.1-.85c-3.28-1.69-5.8-4.75-9.28-6s-7.34-.38-11,.22a7.51,7.51,0,0,1-3,0c.73,1.22,3.29,1.9,4.33,2.14A19.14,19.14,0,0,0,299.08,396.08Z" style="fill:#e6e6e6"></path><path d="M290.32,389.19a27.1,27.1,0,0,1,6.72-3.73,50.28,50.28,0,0,0,7.19-3.4,17.34,17.34,0,0,1,2.11-1.33c.14-.06.33-.11.42,0,.65.84-7,6.48-7.85,7.06a50.24,50.24,0,0,1-4.34,2.74c-1.16.65-3,2-4.36,1.92C288.1,392.27,289.4,390,290.32,389.19Z" style="fill:#e0e0e0"></path><path d="M283.34,390.08a27.21,27.21,0,0,0-3.91-.53c-5.49-.25-10.7,2.22-15.64,4.63a1.48,1.48,0,0,0-.81.66c-.28.63.34,1.27.92,1.65,5,3.26,11.4,3.91,17.17,2.72a16.74,16.74,0,0,0,6.52-2.75c1.28-.92,3.55-3.71,1.43-5.09a2.58,2.58,0,0,0-1.1-.3C286.35,390.88,284.88,390.37,283.34,390.08Z" style="fill:#f5f5f5"></path><path d="M289.89,393a7.77,7.77,0,0,1-1.26,1,10.41,10.41,0,0,1-5.78,1.19,38.4,38.4,0,0,0-6,0c-1.87.24-3.65.94-5.52,1.22a18.55,18.55,0,0,1-8.42-1,2.23,2.23,0,0,0,1,1.11c5,3.26,11.4,3.91,17.17,2.72a16.74,16.74,0,0,0,6.52-2.75A5.72,5.72,0,0,0,289.89,393Z" style="fill:#e6e6e6"></path><path d="M288.33,398.67a18.88,18.88,0,0,0,3.5,7.21c1.52,2.08,3.26,4,4.33,6.39.69,1.53.86,3.18,1.45,4.72.79,2.11,2,0,2.49-1.11a18.1,18.1,0,0,0,1.33-9.58c-.81-6-5-12.36-11.16-13.92-1.18-.3-1.8.8-2,1.82A12,12,0,0,0,288.33,398.67Z" style="fill:#fafafa"></path><path d="M298,417.69c-1.1-3.11-.16-6.72-1.36-9.82-.92-2.38-3-4.09-4.47-6.16a14.7,14.7,0,0,1-1.91-3.61c-.66-1.85-.86-4.12.41-5.59l-.42-.13c-1.18-.3-1.8.8-2,1.82a12,12,0,0,0,.05,4.47,18.88,18.88,0,0,0,3.5,7.21c1.52,2.08,3.26,4,4.33,6.39.69,1.53.86,3.18,1.45,4.72A1.72,1.72,0,0,0,298,417.69Z" style="fill:#ebebeb"></path></g></g><g id="freepik--Sparkles--inject-1270"><path id="freepik--Shine--inject-1270" d="M462.48,138.25a.38.38,0,0,0-.33-.38L454,137a1.86,1.86,0,0,1-1.64-1.67l-.94-10.43a.36.36,0,0,0-.37-.34.38.38,0,0,0-.38.34l-.94,10.43a1.84,1.84,0,0,1-1.63,1.67l-8.18.9a.38.38,0,0,0-.33.38.37.37,0,0,0,.33.37l8.18.91a1.83,1.83,0,0,1,1.63,1.67l.94,10.43a.39.39,0,0,0,.38.34.37.37,0,0,0,.37-.34l.94-10.43a1.85,1.85,0,0,1,1.64-1.67l8.18-.91A.37.37,0,0,0,462.48,138.25Zm-8.59.53a2.62,2.62,0,0,0-2.31,2.35L451,147.4l-.57-6.27a2.6,2.6,0,0,0-2.3-2.35l-4.79-.53,4.79-.53a2.62,2.62,0,0,0,2.3-2.35l.57-6.27.56,6.27a2.64,2.64,0,0,0,2.31,2.35l4.79.53Zm-396.17-5.3-6-.67a1.23,1.23,0,0,1-1.09-1.12L49.9,124a.41.41,0,0,0-.82,0l-.69,7.69a1.23,1.23,0,0,1-1.09,1.12l-6,.67a.4.4,0,0,0-.37.4.42.42,0,0,0,.37.41l6,.66a1.24,1.24,0,0,1,1.09,1.12l.69,7.7a.41.41,0,0,0,.82,0l.69-7.7A1.24,1.24,0,0,1,51.68,135l6-.66a.42.42,0,0,0,.36-.41A.4.4,0,0,0,57.72,133.48Zm-6,.68a2.19,2.19,0,0,0-1.94,2l-.31,3.41-.31-3.41a2.19,2.19,0,0,0-1.94-2l-2.52-.28,2.52-.28a2.18,2.18,0,0,0,1.94-2h0l.31-3.41.31,3.41a2.18,2.18,0,0,0,1.94,2l2.52.28Zm366.91,38.93-5.24-.58a1.18,1.18,0,0,1-1.05-1.07l-.61-6.69a.23.23,0,0,0-.24-.22.24.24,0,0,0-.24.22l-.6,6.69a1.18,1.18,0,0,1-1.05,1.07l-5.25.58a.25.25,0,0,0-.21.24.23.23,0,0,0,.21.24l5.25.58a1.19,1.19,0,0,1,1.05,1.08l.6,6.69a.25.25,0,0,0,.24.22.24.24,0,0,0,.24-.22l.61-6.69a1.2,1.2,0,0,1,1.05-1.08l5.24-.58a.24.24,0,0,0,.22-.24A.26.26,0,0,0,418.65,173.09Zm-5.3.58a1.67,1.67,0,0,0-1.47,1.51l-.37,4-.36-4a1.67,1.67,0,0,0-1.48-1.51l-3.07-.34,3.07-.34a1.66,1.66,0,0,0,1.48-1.51l.36-4,.37,4a1.66,1.66,0,0,0,1.47,1.51l3.08.34ZM395.66,93.15l-9.42-1a2.14,2.14,0,0,1-1.89-1.93l-1.08-12a.43.43,0,0,0-.43-.39.43.43,0,0,0-.43.39l-1.09,12a2.13,2.13,0,0,1-1.89,1.93l-9.42,1a.43.43,0,0,0-.38.43A.44.44,0,0,0,370,94l9.42,1A2.13,2.13,0,0,1,381.32,97l1.09,12a.43.43,0,0,0,.43.4.43.43,0,0,0,.43-.4l1.08-12a2.14,2.14,0,0,1,1.89-1.92l9.42-1a.45.45,0,0,0,.39-.44A.44.44,0,0,0,395.66,93.15Zm-9.51,1a3,3,0,0,0-2.66,2.71l-.65,7.23-.65-7.23a3,3,0,0,0-2.66-2.71L374,93.58l5.52-.61a3,3,0,0,0,2.66-2.71l.65-7.22.65,7.22A3,3,0,0,0,386.15,93l5.51.61Zm-176.5,15.2-5.45-.6a1.13,1.13,0,0,1-1-1l-.63-7a.37.37,0,0,0-.73,0l-.63,7a1.13,1.13,0,0,1-1,1l-5.44.6a.37.37,0,0,0,0,.73l5.44.6a1.13,1.13,0,0,1,1,1l.63,7a.37.37,0,0,0,.73,0l.63-7a1.13,1.13,0,0,1,1-1l5.45-.6a.37.37,0,0,0,0-.73Zm-5.53.6a1.84,1.84,0,0,0-1.64,1.68l-.26,2.88-.26-2.88a1.86,1.86,0,0,0-1.65-1.68l-2.13-.23,2.13-.24a1.86,1.86,0,0,0,1.65-1.67h0l.26-2.87.26,2.87a1.84,1.84,0,0,0,1.64,1.68l2.13.24Zm76.73-40.83-5.45-.61a1.1,1.1,0,0,1-1-1l-.63-7a.37.37,0,0,0-.37-.33.35.35,0,0,0-.36.33l-.63,7a1.11,1.11,0,0,1-1,1l-5.45.61a.36.36,0,0,0-.33.36.37.37,0,0,0,.33.37l5.45.6a1.12,1.12,0,0,1,1,1l.63,7a.36.36,0,0,0,.36.34.38.38,0,0,0,.37-.34l.63-7a1.11,1.11,0,0,1,1-1l5.45-.6a.37.37,0,0,0,.33-.37A.36.36,0,0,0,280.85,69.16Zm-5.53.6a1.85,1.85,0,0,0-1.64,1.67l-.26,2.88-.26-2.88a1.85,1.85,0,0,0-1.64-1.67l-2.13-.24,2.13-.23a1.86,1.86,0,0,0,1.64-1.68h0l.26-2.88.26,2.88a1.86,1.86,0,0,0,1.64,1.68l2.14.23ZM428.23,58.27l-5.45-.6a1.11,1.11,0,0,1-1-1l-.63-6.95a.37.37,0,0,0-.74,0l-.62,6.95a1.13,1.13,0,0,1-1,1l-5.45.6a.37.37,0,0,0-.33.37.38.38,0,0,0,.33.37l5.45.6a1.12,1.12,0,0,1,1,1l.62,6.95a.37.37,0,0,0,.74,0l.63-7a1.1,1.1,0,0,1,1-1l5.45-.6a.38.38,0,0,0,.33-.37A.37.37,0,0,0,428.23,58.27Zm-5.53.6a1.86,1.86,0,0,0-1.64,1.68l-.26,2.88-.26-2.88a1.86,1.86,0,0,0-1.64-1.68l-2.13-.23,2.13-.24a1.85,1.85,0,0,0,1.64-1.67h0l.26-2.88.26,2.88a1.85,1.85,0,0,0,1.64,1.67l2.14.24ZM252,47l-7.77-.86a1.77,1.77,0,0,1-1.56-1.59l-.9-9.92a.35.35,0,0,0-.35-.33.36.36,0,0,0-.36.33l-.89,9.92a1.78,1.78,0,0,1-1.56,1.59l-7.77.86a.34.34,0,0,0-.32.35.37.37,0,0,0,.32.36l7.77.85a1.79,1.79,0,0,1,1.56,1.6l.89,9.91a.36.36,0,0,0,.36.33.35.35,0,0,0,.35-.33l.9-9.91a1.78,1.78,0,0,1,1.56-1.6l7.77-.85a.37.37,0,0,0,.32-.36A.35.35,0,0,0,252,47Zm-7.85.85A2.49,2.49,0,0,0,242,50.1l-.53,6-.54-6a2.49,2.49,0,0,0-2.19-2.24l-4.55-.5,4.55-.5a2.49,2.49,0,0,0,2.19-2.24l.54-6,.53,6a2.49,2.49,0,0,0,2.2,2.24l4.55.5ZM120.82,100.59l-6.11-.67a1.26,1.26,0,0,1-1.11-1.13l-.7-7.8a.42.42,0,0,0-.83,0l-.7,7.8a1.26,1.26,0,0,1-1.11,1.13l-6.11.67a.42.42,0,0,0,0,.83l6.11.67a1.26,1.26,0,0,1,1.11,1.13l.7,7.8a.42.42,0,0,0,.83,0l.7-7.8a1.26,1.26,0,0,1,1.11-1.13l6.11-.67a.42.42,0,0,0,0-.83Zm-5.87.72a2.43,2.43,0,0,0-2.13,2.18l-.33,3.74-.34-3.74a2.42,2.42,0,0,0-2.13-2.18l-2.77-.3,2.77-.31a2.42,2.42,0,0,0,2.13-2.18h0l.34-3.73.33,3.73A2.43,2.43,0,0,0,115,100.7l2.78.31ZM90.71,68.93l-9.42-1A2.14,2.14,0,0,1,79.4,66l-1.08-12a.44.44,0,0,0-.87,0L76.37,66a2.15,2.15,0,0,1-1.89,1.93l-9.42,1a.43.43,0,0,0,0,.86l9.42,1a2.14,2.14,0,0,1,1.89,1.93l1.08,12a.44.44,0,0,0,.87,0l1.08-12a2.13,2.13,0,0,1,1.89-1.93l9.42-1a.43.43,0,0,0,0-.86Zm-9.52,1a3,3,0,0,0-2.65,2.71l-.66,7.22-.65-7.22A3,3,0,0,0,74.58,70l-5.52-.61,5.52-.61A3,3,0,0,0,77.23,66l.65-7.23L78.54,66a3,3,0,0,0,2.65,2.71l5.52.61Z" style="fill:#e0e0e0"></path></g></svg>
