<svg xmlns="http://www.w3.org/2000/svg" viewBox="0 0 500 500"><g id="freepik--background-complete--inject-854"><g><rect x="299.57949" y="72.7424" width="132.2449" height="171.6647" transform="translate(731.40388 317.1495) rotate(180)" style="fill:#e6e6e6;"></rect><rect x="296.23879" y="72.7424" width="134.0246" height="171.6647" transform="translate(726.50218 317.1495) rotate(180)" style="fill:#f0f0f0;"></rect><rect x="299.57949" y="244.4071" width="132.2449" height="5.8102" transform="translate(731.40388 494.6244) rotate(180)" style="fill:#e6e6e6;"></rect><rect x="290.67349" y="244.4071" width="134.0246" height="5.8102" transform="translate(715.37158 494.6244) rotate(180)" style="fill:#f0f0f0;"></rect><rect x="288.71924" y="96.23935" width="149.0638" height="124.6709" transform="translate(521.82594 -204.67634) rotate(90)" style="fill:#fafafa;"></rect><polygon points="411.16489 233.1067 383.71519 84.0429 355.62449 84.0429 383.07419 233.1067 411.16489 233.1067" style="fill:#fff;"></polygon><path d="M423.42149,208.1967c.1847,0,.334-.3615,.334-.807V91.3952c0-.4455-.1493-.8069-.334-.8069-.1846,0-.3339,.3614-.3339,.8069v115.9945c0,.4455,.1493,.807,.3339,.807Z" style="fill:#f0f0f0;"></path><polygon points="372.51369 233.1067 345.064 84.0429 335.34539 84.0429 362.79509 233.1067 372.51369 233.1067" style="fill:#fff;"></polygon><rect x="226.68074" y="158.27785" width="149.0638" height=".5939" transform="translate(459.78744 -142.63784) rotate(90)" style="fill:#e6e6e6;"></rect><g style="opacity:.5;"><polygon points="295.132 99.5645 427.377 99.5645 427.80729 88.4337 295.56239 88.4337 295.132 99.5645" style="fill:#e6e6e6;"></polygon><polygon points="295.132 117.943 427.377 117.943 427.80729 106.8122 295.56239 106.8122 295.132 117.943" style="fill:#e6e6e6;"></polygon><polygon points="295.132 136.3215 427.377 136.3215 427.80729 125.1908 295.56239 125.1908 295.132 136.3215" style="fill:#e6e6e6;"></polygon><polygon points="295.132 154.7 427.377 154.7 427.80729 143.5693 295.56239 143.5693 295.132 154.7" style="fill:#e6e6e6;"></polygon><polygon points="295.132 173.0787 427.377 173.0787 427.80729 161.9478 295.56239 161.9478 295.132 173.0787" style="fill:#e6e6e6;"></polygon><polygon points="295.132 191.4572 427.377 191.4572 427.80729 180.3264 295.56239 180.3264 295.132 191.4572" style="fill:#e6e6e6;"></polygon></g></g><g><g><rect x="82.5554" y="77.1959" width="116.49319" height="138.7641" style="fill:#e0e0e0;"></rect><rect x="90.5611" y="84.9469" width="100.9457" height="123.2621" style="fill:#fafafa;"></rect></g><path d="M162.17278,116.78594c-5.85144,13.90507-16.48717,25.68572-29.54133,33.19385-3.70496,2.13092-7.59294,3.90606-11.63211,5.30249-1.81365,.62702-1.0341,3.52607,.79752,2.89284,15.02356-5.19396,28.08846-15.39805,36.89117-28.62531,2.51423-3.77797,4.61833-7.78574,6.37759-11.96635,.31673-.75266-.34135-1.64236-1.04766-1.84518-.86254-.24768-1.53256,.30477-1.84518,1.04766h0Z" style="fill:#e0e0e0;"></path><circle cx="158.11632" cy="154.44422" r="11.71038" transform="translate(-27.12566 275.02282) rotate(-77.388)" style="fill:#fff;"></circle><rect x="113.6421" y="168.1863" width="57.733" height="13.4443" style="fill:#ebebeb;"></rect><polygon points="130.7982 109.7881 151.3676 109.7881 141.0829 127.6016 130.7982 145.4152 120.5136 127.6016 110.2289 109.7881 130.7982 109.7881" style="fill:#e0e0e0;"></polygon></g><g><g><g><path d="M443.92038,334.2003h-180.7461c-3.2324,0-5.8623-2.6298-5.8623-5.8623V65.0646c0-3.2324,2.6299-5.8618,5.8623-5.8618h180.7461c3.2324,0,5.8623,2.6294,5.8623,5.8618V328.338c0,3.2325-2.6299,5.8623-5.8623,5.8623ZM263.17428,59.4528c-3.0947,0-5.6123,2.5176-5.6123,5.6118V328.338c0,3.0948,2.5176,5.6123,5.6123,5.6123h180.7461c3.0947,0,5.6123-2.5175,5.6123-5.6123V65.0646c0-3.0942-2.5176-5.6118-5.6123-5.6118h-180.7461Z" style="fill:#e0e0e0;"></path><path d="M235.49268,334.2003H54.74609c-3.2324,0-5.8618-2.6298-5.8618-5.8623V65.0646c0-3.2324,2.6294-5.8618,5.8618-5.8618H235.49268c3.2324,0,5.8623,2.6294,5.8623,5.8618V328.338c0,3.2325-2.6299,5.8623-5.8623,5.8623ZM54.74609,59.4528c-3.0942,0-5.6118,2.5176-5.6118,5.6118V328.338c0,3.0948,2.5176,5.6123,5.6118,5.6123H235.49268c3.0947,0,5.6123-2.5175,5.6123-5.6123V65.0646c0-3.0942-2.5176-5.6118-5.6123-5.6118H54.74609Z" style="fill:#e0e0e0;"></path></g><rect x=".00003" y="395.2697" width="499.99995" height=".25" style="fill:#e0e0e0;"></rect></g><rect x="56.2322" y="409.5342" width="16.06" height=".25" style="fill:#e0e0e0;"></rect><rect x="174.9122" y="406.8242" width="53.53" height=".25" style="fill:#e0e0e0;"></rect><rect x="73.2922" y="418.8242" width="36.25" height=".25" style="fill:#e0e0e0;"></rect><rect x="382.91229" y="406.6942" width="43.19" height=".25" style="fill:#e0e0e0;"></rect><rect x="435.01219" y="406.6942" width="6.33" height=".25" style="fill:#e0e0e0;"></rect><rect x="320.77219" y="412.9242" width="53.8901" height=".25" style="fill:#e0e0e0;"></rect></g><g><g><path d="M144.7098,365.6638c-.0183-.57-1.9364-57.1781-11.1442-66.1316-8.9554-8.7058-19.2342-.3236-19.6662,.0366l-.9234-1.1063c.1162-.0985,11.7163-9.5671,21.5945,.0365,9.6214,9.3562,11.5036,64.7653,11.5789,67.1195l-1.4396,.0453Z" style="fill:#e0e0e0;"></path><path d="M145.5,376.7888c-.0662-.6768-6.2929-67.9583,18.2781-96.1574l1.0864,.9457c-24.1635,27.7319-17.995,94.4012-17.9303,95.0709l-1.4342,.1408Z" style="fill:#e0e0e0;"></path><path d="M144.5916,369.6717l-1.4382-.0956c.0506-.7627,4.8089-76.4896-13.2145-93.0668l.9753-1.0611c18.5285,17.0428,13.8843,91.0797,13.6774,94.2235Z" style="fill:#e0e0e0;"></path><path d="M146.9377,369.6295l-1.4412-.0111c.0176-2.0857,.5947-51.1503,14.5317-59.1369,3.0981-1.7776,6.1317-2.0732,9.0176-.8797,8.4273,3.4858,12.6036,18.4842,12.7773,19.1203l-1.3904,.3801c-.0408-.1495-4.1643-14.9547-11.9394-18.1691-2.4507-1.0119-5.0572-.7445-7.7487,.7979-13.2251,7.5785-13.8027,57.3963-13.8069,57.8985Z" style="fill:#e0e0e0;"></path><path d="M141.5101,369.6648l-1.4381-.0816c.0217-.3871,2.1024-38.7727-8.2571-52.2974-2.5101-3.2761-5.2347-4.8384-8.1134-4.6371-6.7877,.4742-12.4797,10.4073-12.5361,10.5072l-1.2552-.709c.2471-.4366,6.1276-10.7058,13.6886-11.2352,3.3826-.2406,6.5357,1.5115,9.3602,5.1989,10.6847,13.9481,8.6432,51.6567,8.5511,53.2542Z" style="fill:#e0e0e0;"></path><path d="M143.7816,374.8861c-.2821-3.724-6.7721-91.371,4.6472-106.8153l1.1582,.8555c-11.1034,15.018-4.4367,104.9436-4.3685,105.8499l-1.4369,.1099Z" style="fill:#e0e0e0;"></path></g><path d="M172.1513,318.4845s-6.8506,2.5254-4.8136,8.4877c2.0365,5.9624,23.6986,15.7751,23.6986,15.7751,0,0,9.0723-8.3155,.7406-21.8393-8.3315-13.5239-19.4403-6.6904-19.6256-2.4235Z" style="fill:#ebebeb;"></path><path d="M142.3704,307.1348s7.2949-.3056,7.7095,5.9815c.4145,6.2869-15.8033,23.6801-15.8033,23.6801,0,0-11.5737-4.1841-9.088-19.8727,2.4859-15.6886,15.3689-13.6562,17.1818-9.7889Z" style="fill:#ebebeb;"></path><path d="M136.1944,277.0403s4.8636-.5224,4.472-3.4846c-.3915-2.9625-18.9065-10.587-29.8301,1.742,0,0,6.9946,12.015,17.1057,12.172,10.1111,.1571,8.2524-10.4294,8.2524-10.4294Z" style="fill:#ebebeb;"></path><path d="M145.2573,269.8461s-4.4038,2.1293-5.6383-.5921c-1.2344-2.721,10.4463-18.9841,26.238-14.2982,0,0,.4184,13.8964-8.0797,19.3772-8.4979,5.4813-12.52-4.4869-12.52-4.4869Z" style="fill:#ebebeb;"></path><path d="M122.2304,316.088s3.3564-2.7101-.266-4.033c-3.6225-1.323-21.3966-.947-21.5818,16.6596,0,0,20.7012,3.4402,23.2636-3.2663,2.5625-6.7067-1.4158-9.3603-1.4158-9.3603Z" style="fill:#ebebeb;"></path><path d="M164.4439,276.5988s-3.3565-2.7103,.2659-4.0332c3.6222-1.3228,21.3963-.9471,21.5815,16.6596,0,0-20.7013,3.4405-23.2635-3.2665-2.5622-6.7064,1.4161-9.3599,1.4161-9.3599Z" style="fill:#ebebeb;"></path><path d="M153.4999,290.7818s-.2953-3.2946,2.3645-2.0032c2.6597,1.2914,11.9257,11.2877,2.3208,20.7738,0,0-12.9293-9.5758-10.5989-14.5624,2.3306-4.9867,5.9136-4.2082,5.9136-4.2082Z" style="fill:#ebebeb;"></path><path d="M119.2293,295.4765s2.0068-2.6295-.9319-2.9554c-2.9386-.3258-16.1078,3.1893-13.041,16.336,0,0,16.0437-1.2059,16.7315-6.6672,.6876-5.4612-2.7586-6.7134-2.7586-6.7134Z" style="fill:#ebebeb;"></path><polygon points="160.4248 395.025 128.0635 395.025 119.4557 355.3222 168.215 355.3222 160.4248 395.025" style="fill:#f0f0f0;"></polygon><rect x="116.5201" y="354.7474" width="54.5037" height="11.4171" style="fill:#e6e6e6;"></rect></g></g><g id="freepik--Shadow--inject-854"><path d="M458.875,460.7304c0,3.3867-93.51651,6.1322-208.875,6.1322s-208.875-2.7455-208.875-6.1322,93.5165-6.1323,208.875-6.1323,208.875,2.7455,208.875,6.1323Z" style="fill:#f5f5f5;"></path></g><g id="freepik--Food_5--inject-854"><g><g><circle cx="422.22156" cy="316.6979" r="53.82294" style="fill:#9C4F06;"></circle><circle cx="422.22156" cy="316.6979" r="53.82294" style="fill:#fff; opacity:.8;"></circle></g><g><path d="M449.30469,304.2766c-.0374-.1705-.0813-.3401-.1316-.5082-.93609-3.1337-4.1817-4.9115-7.4174-4.4361-4.5141,.6633-8.7422,3.6855-10.7263,7.7949-.9417,1.9503-1.4145,4.1596-1.1223,6.3056,.2921,2.1459,1.3928,4.213,3.1491,5.4802,2.6567,1.9168,6.45981,1.716,9.2921,.0699,2.8324-1.6462,4.7861-4.5092,6.0091-7.5482,.9124-2.267,1.4708-4.7711,.9473-7.1581Z" style="fill:#9C4F06;"></path><g style="opacity:.6;"><path d="M449.30469,304.2766c-.0374-.1705-.0813-.3401-.1316-.5082-.93609-3.1337-4.1817-4.9115-7.4174-4.4361-4.5141,.6633-8.7422,3.6855-10.7263,7.7949-.9417,1.9503-1.4145,4.1596-1.1223,6.3056,.2921,2.1459,1.3928,4.213,3.1491,5.4802,2.6567,1.9168,6.45981,1.716,9.2921,.0699,2.8324-1.6462,4.7861-4.5092,6.0091-7.5482,.9124-2.267,1.4708-4.7711,.9473-7.1581Z" style="fill:#fff;"></path></g><g style="opacity:.3;"><path d="M442.37349,301.1623c-.7783-.7087-4.76,1.0301-6.3124,2.6996-.3154,.3393-.6173,.7084-.7655,1.1474-.1483,.439-.1167,.9638,.1848,1.3157,.2845,.332,.7571,.4524,1.1927,.415s.8466-.2105,1.24891-.3814c1.16609-.4953,2.33209-.9905,3.49819-1.4858,.7369-.313,1.552-.7072,1.8056-1.4667,.2683-.8034-.22679-1.6724-.8523-2.2438Z" style="fill:#fff;"></path></g></g><g><path d="M434.837,285.7097c-.05241-.1101-.10911-.2186-.16991-.3251-1.1326-1.9842-3.62209-2.6807-5.7487-1.8454-2.9667,1.1651-5.3658,3.8903-6.066,7.0003-.3323,1.476-.3046,3.0541,.23361,4.4681,.53809,1.414,1.614,2.6465,3.00939,3.231,2.1109,.8841,4.667,.146,6.3339-1.422,1.667-1.568,2.5436-3.8251,2.8952-6.0865,.2623-1.6868,.2463-3.4791-.48749-5.0204Z" style="fill:#9C4F06;"></path><g style="opacity:.6;"><path d="M434.837,285.7097c-.05241-.1101-.10911-.2186-.16991-.3251-1.1326-1.9842-3.62209-2.6807-5.7487-1.8454-2.9667,1.1651-5.3658,3.8903-6.066,7.0003-.3323,1.476-.3046,3.0541,.23361,4.4681,.53809,1.414,1.614,2.6465,3.00939,3.231,2.1109,.8841,4.667,.146,6.3339-1.422,1.667-1.568,2.5436-3.8251,2.8952-6.0865,.2623-1.6868,.2463-3.4791-.48749-5.0204Z" style="fill:#fff;"></path></g><g style="opacity:.3;"><path d="M429.62819,284.6866c-.6417-.3591-3.076,1.4537-3.8683,2.8353-.161,.2807-.3081,.5796-.3394,.9018-.03149,.3222,.073,.6743,.3338,.866,.2461,.181,.58671,.1881,.8772,.0938,.29051-.0943,.5427-.2771,.78951-.457,.71509-.5215,1.43019-1.0429,2.14529-1.5643,.4519-.3295,.9442-.7267,.99671-1.2835,.05549-.5892-.41881-1.1021-.93481-1.3921Z" style="fill:#fff;"></path></g></g><g><path d="M420.39829,306.5871c-.6218-4.0415-8.218-12.9018-8.218-12.9018v-6.2177h-10.0815v6.2177s-7.5961,8.8603-8.2179,12.9018c-.6217,4.0415,0,45.7678,0,45.7678h26.5174s.6218-41.7263,0-45.7678Z" style="fill:#9C4F06;"></path><path d="M420.39829,306.5871c-.6218-4.0415-8.218-12.9018-8.218-12.9018v-6.2177h-10.0815v6.2177s-7.5961,8.8603-8.2179,12.9018c-.6217,4.0415,0,45.7678,0,45.7678h26.5174s.6218-41.7263,0-45.7678Z" style="fill:#fff; opacity:.6;"></path><rect x="401.23309" y="285.1006" width="11.6131" height="4.5847" style="fill:#263238;"></rect><path d="M396.57949,307.5878l-.0001,42.0008h3.86l.0085-43.2903,3.1317-11.4213c-3.199,4.6468-6.8593,9.5119-7.0001,12.7108Z" style="fill:#fff; opacity:.7;"></path><path d="M395.90969,316.2125h22.4599v30.2771c0,2.16058-1.75412,3.9147-3.9147,3.9147h-14.6305c-2.16058,0-3.9147-1.75412-3.9147-3.9147v-30.2771h0Z" style="fill:#fff; opacity:.3;"></path><rect x="402.09879" y="289.6853" width="10.0815" height="1.0565" style="opacity:.3;"></rect></g><g><path d="M411.33209,350.7558c.09391-4.3168,.5004-21.7309,.5984-25.9285,.0119-.5094,.4282-.9137,.9377-.9137h45.61c.5181,0,.938,.42,.938,.938v25.4613c0,.5144-.41419,.9328-.9286,.9379l-46.2084,.4606c-.5296,.0052-.9587-.426-.9471-.9556Z" style="fill:#9C4F06;"></path><path d="M458.23639,351.2416l-21.6691,.2277-.0858-27.5557h22.0789c.4727,0,.8558,.3832,.8558,.8559v25.2922c0,.6516-.52819,1.1799-1.1798,1.1799Z" style="opacity:.3;"></path><circle cx="428.31499" cy="330.8302" r="1.5926" style="opacity:.3;"></circle><circle cx="448.82519" cy="345.9517" r="1.19119" style="opacity:.3;"></circle><circle cx="418.36929" cy="345.8597" r="1.5926" style="opacity:.3;"></circle><circle cx="425.11969" cy="333.5538" r=".7963" style="opacity:.3;"></circle><path d="M444.37939,342.9952c0,.4398-.3565,.7963-.7963,.7963-.4397,0-.7962-.3565-.7962-.7963s.3565-.7963,.7962-.7963c.4398,0,.7963,.3565,.7963,.7963Z" style="opacity:.3;"></path><path d="M455.10329,333.3068c0,.4398-.3565,.7963-.79629,.7963-.43981,0-.79631-.3565-.79631-.7963s.3565-.7963,.79631-.7963c.43979,0,.79629,.3565,.79629,.7963Z" style="opacity:.3;"></path></g></g></g><g id="freepik--Food_4--inject-854"><g><g><circle cx="396.24739" cy="172.88063" r="53.01728" transform="translate(163.08625 536.935) rotate(-80.93358)" style="fill:#9C4F06;"></circle><circle cx="396.24739" cy="172.88063" r="53.01728" transform="translate(163.08625 536.935) rotate(-80.93358)" style="fill:#fff; opacity:.8;"></circle></g><g><g><path d="M398.10009,186.0775c-4.065,.0912-8.2862,1.1461-11.2754,3.9025-3.3211,3.0626-4.6575,7.9928-3.7126,12.4105,.94491,4.4177,4.0101,8.2513,7.9246,10.5065,3.9145,2.2551,8.6044,2.9958,13.0919,2.4749,6.4171-.7448,13.6022-4.2893,17.5692-9.388,3.967-5.0988,5.7957-9.2724,4.7673-17.9279-.3815-3.2108-2.2755-7.2524-4.6545-9.4423-2.3789-2.19-6.848-2.47-9.9087-1.4273-2.5511,.8691-4.42,3-6.41789,4.8088-1.998,1.8088-2.66551,3.319-7.38391,4.0823" style="fill:#9C4F06;"></path><g style="opacity:.3;"><path d="M415.64169,179.3898c-1.0075,0-2.0163,.1552-2.8399,.4357-1.4949,.5092-2.84679,1.7903-4.279,3.1469-.388,.3676-.7747,.7345-1.16679,1.0892-.31851,.2886-.599,.5684-.86851,.8373-1.857,1.8501-3.5139,3.2143-7.9426,3.9304l-.1906,.0313-.192,.0041c-2.8127,.0633-6.735,.6637-9.44829,3.1653-2.48051,2.2879-3.63641,6.2177-2.87531,9.7771,.7447,3.4832,3.2075,6.7255,6.58931,8.6737,2.569,1.4799,5.66619,2.262,8.95949,2.262h0c.8019,0,1.6161-.0477,2.4193-.1409,6.0556-.7025,12.3604-4.0503,15.6891-8.3299,3.6527-4.6929,5.1258-8.1005,4.2-15.8872-.3172-2.6732-1.9741-6.0638-3.77389-7.7193-.86721-.7992-2.46691-1.2757-4.28031-1.2757Z"></path></g></g><path d="M385.84388,207.9199c8.31018-3.14882,11.80913-12.97146,8.08841-20.88637-.20519-.43649-.85196-.05619-.6476,.37854,3.50234,7.45038,.19323,16.81645-7.64019,19.78463-.44702,.16938-.25321,.8947,.19938,.72321h0Z" style="opacity:.3;"></path><path d="M397.75689,186.2293c.09367,5.28709,.7623,11.36064,3.76782,15.86717,3.3279,4.98992,9.65554,8.02482,15.41839,8.95234,.47217,.07599,.6754-.6466,.19938-.72321-5.64062-.90784-11.99072-3.87631-15.14021-8.8703-2.77041-4.39291-3.40533-10.14302-3.49538-15.226-.00854-.48207-.75857-.48361-.75,0h0Z" style="opacity:.3;"></path><path d="M420.89242,178.031c-3.86048,2.04684-4.98531,6.73035-3.55928,10.64024,1.472,4.03591,4.86343,7.35683,8.80396,8.97466,.44616,.18318,.6405-.5421,.19938-.72321-3.59317-1.47523-6.72121-4.52239-8.16614-8.15229-1.45942-3.66629-.60124-8.12905,3.10062-10.0918,.4266-.22618,.04808-.8738-.37854-.6476h0Z" style="opacity:.3;"></path><circle cx="415.15669" cy="187.2228" r="3.1971" style="fill:#fff;"></circle></g><g><path d="M411.20519,157.5017s-.1445,3.5768,4.0806,6.8454c0,0-3.1005-3.4874-1.7275-4.4804,1.2803-.9305,1.4513-1.8109,1.4513-1.8109l-3.8044-.5541Z" style="fill:#9C4F06;"></path><path d="M414.60469,144.9157s3.878-2.791,9.7227-3.1398c0,0-4.7638,.8986-5.0535,3.2943-.2897,2.3956,.77411,2.444-.9104,3.0716l-3.7588-3.2261Z" style="fill:#9C4F06;"></path><path d="M429.78829,159.4286s1.12971-.2103,3.3185-2.0232c3.0597-2.538,7.7644-2.1952,7.7644-2.1952-2.9018,.7455-5.6013,3.0527-7.2291,6.1786-2.6699,5.249-1.0364,10.0709-1.0364,10.0709,0,0-2.7548-4.1208-2.576-6.9257,.09931-1.7501,.01831-3.4638-.2414-5.1054Z" style="fill:#9C4F06;"></path><path d="M429.78829,159.4286s1.12971-.2103,3.3185-2.0232c3.0597-2.538,7.7644-2.1952,7.7644-2.1952-2.9018,.7455-5.6013,3.0527-7.2291,6.1786-2.6699,5.249-1.0364,10.0709-1.0364,10.0709,0,0-2.7548-4.1208-2.576-6.9257,.09931-1.7501,.01831-3.4638-.2414-5.1054Z" style="fill:#263238; isolation:isolate; opacity:.3;"></path><path d="M403.90319,138.9491c1.477-2.1464,3.2057-4.0612,5.1152-5.666,0,0-.93739,3.1248,2.793,6.9326,3.7303,3.8078,3.5923,5.149,3.5923,5.149l-11.5005-6.4156Z" style="fill:#9C4F06;"></path><path d="M403.90319,138.9491c1.477-2.1464,3.2057-4.0612,5.1152-5.666,0,0-.93739,3.1248,2.793,6.9326,3.7303,3.8078,3.5923,5.149,3.5923,5.149l-11.5005-6.4156Z" style="fill:#9C4F06;"></path><path d="M403.90319,138.9491c1.477-2.1464,3.2057-4.0612,5.1152-5.666,0,0-.93739,3.1248,2.793,6.9326,3.7303,3.8078,3.5923,5.149,3.5923,5.149l-11.5005-6.4156Z" style="fill:#fff; isolation:isolate; opacity:.4;"></path><path d="M403.90319,138.9491c1.477-2.1464,3.2057-4.0612,5.1152-5.666,0,0-.93739,3.1248,2.793,6.9326,3.7303,3.8078,3.5923,5.149,3.5923,5.149l-11.5005-6.4156Z" style="fill:#263238; isolation:isolate; opacity:.3;"></path><path d="M396.24739,151.9618c.47461,1.268,.64761,2.7191,.5041,4.2291-.1928,2.7126,.4221,3.0254,.4221,3.0254,0,0,3.0012-2.5982,2.7925-3.5622-.2087-.9639-2.1174-2.9022-2.1174-2.9022l-1.6013-.7901Z" style="fill:#9C4F06;"></path><path d="M396.24739,151.9618c.47461,1.268,.64761,2.7191,.5041,4.2291-.1928,2.7126,.4221,3.0254,.4221,3.0254,0,0,3.0012-2.5982,2.7925-3.5622-.2087-.9639-2.1174-2.9022-2.1174-2.9022l-1.6013-.7901Z" style="fill:#fff; isolation:isolate; opacity:.4;"></path><path d="M396.24739,151.9618c.47461,1.268,.64761,2.7191,.5041,4.2291-.1928,2.7126,.4221,3.0254,.4221,3.0254,0,0,3.0012-2.5982,2.7925-3.5622-.2087-.9639-2.1174-2.9022-2.1174-2.9022l-1.6013-.7901Z" style="fill:#263238; isolation:isolate; opacity:.3;"></path><path d="M430.09919,158.7897c-5.56419-5.349-14.357-14.865-21.3677-18.4311-6.3137-3.2115-18.7798-4.1318-22.3528-1.6359l2.4309,4.8868c-1.0822-1.0462-2.2312-2.0024-3.4412-2.8637,.296,4.5552,11.8313,12.7103,15.7,14.6781,7.6591,3.896,20.9375,4.031,28.6245,4.8748,2.1642,.2369,3.2185,.9679,3.3169,.7746,.0983-.1933-1.2315-.6872-2.9106-2.2836Z" style="fill:#9C4F06;"></path><path d="M430.09919,158.7897c-5.56419-5.349-14.357-14.865-21.3677-18.4311-6.3137-3.2115-18.7798-4.1318-22.3528-1.6359l2.4309,4.8868c-1.0822-1.0462-2.2312-2.0024-3.4412-2.8637,.296,4.5552,11.8313,12.7103,15.7,14.6781,7.6591,3.896,20.9375,4.031,28.6245,4.8748,2.1642,.2369,3.2185,.9679,3.3169,.7746,.0983-.1933-1.2315-.6872-2.9106-2.2836Z" style="fill:#fff; isolation:isolate; opacity:.4;"></path><path d="M430.09919,158.7897c-5.56419-5.349-14.357-14.865-21.3677-18.4311-6.3137-3.2115-18.7798-4.1318-22.3528-1.6359l.08,.1563c4.5836,1.5954,26.1164,9.4273,45.2044,21.8074,.8503,.256,1.2901,.498,1.3516,.3772,.1044-.2328-1.2364-.6775-2.9155-2.2739Z" style="fill:#9C4F06;"></path><path d="M430.09919,158.7897c-5.56419-5.349-14.357-14.865-21.3677-18.4311-6.3137-3.2115-18.7798-4.1318-22.3528-1.6359l.08,.1563c4.5836,1.5954,26.1164,9.4273,45.2044,21.8074,.8503,.256,1.2901,.498,1.3516,.3772,.1044-.2328-1.2364-.6775-2.9155-2.2739Z" style="isolation:isolate; opacity:.6;"></path><path d="M399.50789,144.8231s5.3785,2.5229,2.4676,3.9016l8.07951,.4594s-4.30541-5.2136-10.54711-4.361Z" style="fill:#9C4F06;"></path><path d="M399.50789,144.8231s5.3785,2.5229,2.4676,3.9016l8.07951,.4594s-4.30541-5.2136-10.54711-4.361Z" style="fill:#fff; isolation:isolate; opacity:.4;"></path><path d="M399.50789,144.8231s5.3785,2.5229,2.4676,3.9016l8.07951,.4594s-4.30541-5.2136-10.54711-4.361Z" style="fill:#263238; isolation:isolate; opacity:.3;"></path><path d="M396.61669,141.284c-.3613,2.5836-2.062,4.9637-4.2499,5.9479,0,0,4.52521-1.0382,4.2499-5.9479Z" style="fill:#9C4F06;"></path><path d="M399.97189,143.1731c-.9075,3.0096-3.2593,5.4179-5.8748,6.0158,0,0,5.2311-.0465,5.8748-6.0158Z" style="fill:#9C4F06;"></path><g style="opacity:.4;"><path d="M396.61669,141.284c-.3613,2.5836-2.062,4.9637-4.2499,5.9479,0,0,4.52521-1.0382,4.2499-5.9479Z" style="fill:#fff;"></path><path d="M399.97189,143.1731c-.9075,3.0096-3.2593,5.4179-5.8748,6.0158,0,0,5.2311-.0465,5.8748-6.0158Z" style="fill:#fff;"></path></g><g style="opacity:.3;"><path d="M396.61669,141.284c-.3613,2.5836-2.062,4.9637-4.2499,5.9479,0,0,4.52521-1.0382,4.2499-5.9479Z" style="fill:#263238;"></path><path d="M399.97189,143.1731c-.9075,3.0096-3.2593,5.4179-5.8748,6.0158,0,0,5.2311-.0465,5.8748-6.0158Z" style="fill:#263238;"></path></g><path d="M392.68339,141.297c-.2607,.5125-.79239,.765-1.1876,.564-.3952-.2011-.5043-.7795-.2436-1.292s.7924-.765,1.1876-.564c.3953,.201,.5043,.7795,.2436,1.292h0Z" style="fill:#263238;"></path><path d="M392.68339,141.297c-.2607,.5125-.79239,.765-1.1876,.564-.3952-.2011-.5043-.7795-.2436-1.292s.7924-.765,1.1876-.564c.3953,.201,.5043,.7795,.2436,1.292h0Z" style="fill:#fff; isolation:isolate; opacity:.8;"></path><path d="M392.30319,141.1036c-.12219,.2403-.3714,.3586-.5567,.2644-.1852-.0942-.2363-.3654-.1141-.6056,.1222-.2403,.3714-.3586,.5567-.2644h0c.1852,.0942,.2363,.3654,.1141,.6056Z" style="fill:#263238;"></path></g><g><path d="M358.74849,189.3975l4.156-5.2906,2.4472,2.0221-4.0423,5.4938s2.4189,3.4248-.2062,4.0312c-2.625,.6065-1.8168-2.574-2.5601-3.2986-.8348-.8461-4.8768-.0153-3.979-2.6153,1.0325-2.8755,4.1844-.3426,4.1844-.3426Z" style="fill:#263238;"></path><path d="M358.74849,189.3975l4.156-5.2906,2.4472,2.0221-4.0423,5.4938s2.4189,3.4248-.2062,4.0312c-2.625,.6065-1.8168-2.574-2.5601-3.2986-.8348-.8461-4.8768-.0153-3.979-2.6153,1.0325-2.8755,4.1844-.3426,4.1844-.3426Z" style="fill:#fff; opacity:.7;"></path><path d="M377.70369,156.9147c3.177-.1907,7.9105,.5172,8.5962,9.5688s-3.2117,14.0913-7.5536,15.2182c-4.3418,1.127-8.8286,1.7031-10.1911,4.1367-1.3624,2.4336-3.5253,4.3631-4.458,1.8657-.9327-2.4973-5.8953-1.465-3.9275-4.1657,1.9678-2.7006,4.08031-.2412,3.5211-5.1862-.5593-4.9449-.7099-20.6389,14.0129-21.4375Z" style="fill:#9C4F06;"></path><path d="M377.70369,156.9147c3.177-.1907,7.9105,.5172,8.5962,9.5688s-3.2117,14.0913-7.5536,15.2182c-4.3418,1.127-8.8286,1.7031-10.1911,4.1367-1.3624,2.4336-3.5253,4.3631-4.458,1.8657-.9327-2.4973-5.8953-1.465-3.9275-4.1657,1.9678-2.7006,4.08031-.2412,3.5211-5.1862-.5593-4.9449-.7099-20.6389,14.0129-21.4375Z" style="fill:#fff; isolation:isolate; opacity:.3;"></path><path d="M383.75289,169.6733c.5999,1.5245,1.215,3.6253-.97089,6.4926-2.18591,2.8672-6.00321,3.5735-6.21611,2.3779-.21289-1.1957,3.5279-3.4029,3.9954-5.7737,.4674-2.3708,2.5135-4.8196,3.1916-3.0968Z" style="fill:#fff; isolation:isolate; opacity:.5;"></path></g></g></g><g id="freepik--Food_3--inject-854"><g><g><circle cx="250" cy="103.0315" r="51.7356" style="fill:#9C4F06;"></circle><circle cx="250" cy="103.0315" r="51.7356" style="fill:#fff; opacity:.8;"></circle></g><g><path d="M228.62539,100.9847s-3.5421-24.1841-4.3718-25.1499c-.8297-.9659-2.0411-2.5628-1.9679-4.4638,.0732-1.9011,4.11-5.4303,16.5177-9.3436,12.4078-3.9133,17.4634,1.3661,18.3147,4.2717,.5832,1.991-.9287,3.6159-.9287,3.6159,0,0,5.8701,22.2151,4.2231,23.6144-1.6469,1.3993-30.3754,11.2321-31.7871,7.4553Z" style="fill:#9C4F06;"></path><path d="M225.95069,102.1735s-3.5421-24.184-4.3718-25.1499c-.8297-.9658-2.0412-2.5628-1.96789-4.4638,.07319-1.901,4.11-5.4303,16.51769-9.3436,12.4078-3.9133,17.6389,1.5661,18.0889,3.6515,.3971,1.8394-.7029,4.2361-.7029,4.2361,0,0,5.87,22.2151,4.2231,23.6144-1.6469,1.3994-30.3754,11.2321-31.7871,7.4553Z" style="fill:#9C4F06;"></path><path d="M225.95069,102.1735s-3.5421-24.184-4.3718-25.1499c-.8297-.9658-2.0412-2.5628-1.96789-4.4638,.07319-1.901,4.11-5.4303,16.51769-9.3436,12.4078-3.9133,17.6389,1.5661,18.0889,3.6515,.3971,1.8394-.7029,4.2361-.7029,4.2361,0,0,5.87,22.2151,4.2231,23.6144-1.6469,1.3994-30.3754,11.2321-31.7871,7.4553Z" style="fill:#fff; isolation:isolate; opacity:.5;"></path><path d="M254.56019,88.6476c.2736,.6156-.0036,1.3365-.61919,1.6101-.61561,.2736-1.33651-.0036-1.61011-.6192-.2737-.6156,.0036-1.3365,.6192-1.6101,.6156-.2737,1.3365,.0036,1.6101,.6192Z" style="opacity:.4;"></path><path d="M225.50449,74.3515c.2737,.6156-.0036,1.3365-.6192,1.6101s-1.3365-.0036-1.6101-.6192c-.2737-.6157,.0036-1.3365,.6192-1.6102,.61561-.2736,1.3365,.0037,1.6101,.6193Z" style="opacity:.4;"></path><path d="M251.59729,92.0695c.1368,.3079-.0018,.6683-.3096,.8051s-.6683-.0018-.8051-.3096,.0018-.6683,.3097-.8051c.3078-.1368,.6682,.0018,.805,.3096Z" style="opacity:.4;"></path><path d="M222.63129,74.3061c.055,.1238-.0007,.2686-.1244,.3236s-.2686-.0007-.3235-.1244c-.055-.1237,.0007-.2686,.1244-.3236s.2686,.0007,.3235,.1244Z" style="opacity:.4;"></path><path d="M224.69549,77.2637c.1043,.2347-.0014,.5096-.2361,.6139s-.5095-.0014-.6138-.2361c-.1044-.2347,.0013-.5095,.236-.6139,.2347-.1043,.5096,.0014,.6139,.2361Z" style="opacity:.4;"></path><path d="M262.24319,73.6268c-12.9277-1.4635-17.1734-.3342-18.0124,1.3732s-.3806,3.6588-.0147,4.8784c.2774,.9246-3.441,14.6778-5.2558,21.2761,3.2458-.716,18.3581-5.4109,30.1059-8.9776,1.6901-1.3468,6.7373-4.7371,6.7373-4.7371,0,0,1.9786-1.7433,2.3629-3.5855,.4357-2.0884-2.9956-8.764-15.9232-10.2275Z" style="isolation:isolate; opacity:.3;"></path></g><g><path d="M288.42489,127.2768c.2429,8.7206-14.4895,6.1964-32.6476,6.676-18.1581,.4797-32.7417,3.8045-32.9755-4.9151-.2339-8.7196,14.309-14.6524,32.4318-15.1452,18.1227-.4928,32.95841,4.6556,33.1913,13.3843Z" style="fill:#9C4F06;"></path><path d="M288.42489,127.2768c.2429,8.7206-14.4895,6.1964-32.6476,6.676-18.1581,.4797-32.7417,3.8045-32.9755-4.9151-.2339-8.7196,14.309-14.6524,32.4318-15.1452,18.1227-.4928,32.95841,4.6556,33.1913,13.3843Z" style="fill:#fff; isolation:isolate; opacity:.4;"></path><path d="M255.23359,113.8925c-17.1535,.4627-31.0965,5.8001-32.33459,13.7761,.31969,1.4248,1.09779,2.9466,2.93429,3.1419,3.5711,.3978,11.47771-2.6129,15.09571-.4067,3.61809,2.2061,14.36519-2.1901,17.97629-.4171,3.6112,1.7729,16.8902-1.2373,20.5703-.8273,3.6802,.4099,9.044,2.3873,8.9523-1.9099-.23589-8.7014-15.0726-13.8407-33.1943-13.357Z" style="fill:#fff; isolation:isolate; opacity:.3;"></path><g style="opacity:.2;"><path d="M260.43839,113.9111c-.9167-.0285-1.9082-.047-2.8745-.0442-2.9642,2.908-7.8716,7.9823-6.5824,8.4663,1.2893,.484,6.2351-4.8528,9.4569-8.4221Z"></path><path d="M244.15109,114.9395c-1.1723,.2006-2.3102,.4234-3.423,.6675-2.8056,2.7233-8.6583,8.603-7.26509,9.1446,1.39319,.5416,7.743-6.4143,10.68809-9.8121Z"></path><path d="M272.334,115.3097c-2.92081,2.9313-6.59411,6.9195-5.42091,7.3722,1.1731,.4527,4.8312-3.3992,7.9288-6.7616-.8185-.1954-1.6544-.399-2.50789-.6106Z"></path></g></g><g><path d="M244.42169,104.6361s6.5858-23.5381,6.2199-24.7577c-.3658-1.2196-.8243-3.171,.0147-4.8784s5.9613-3.2929,18.889-1.8294c12.9276,1.4635,15.4032,8.3413,15.0009,11.3422-.2756,2.0563-2.31719,2.927-2.31719,2.927,0,0-3.65881,22.6844-5.73211,23.2942s-32.3191-2.0733-32.0752-6.0979Z" style="fill:#9C4F06;"></path><path d="M241.49469,104.6361s6.5858-23.5381,6.2199-24.7577-.8243-3.171,.0147-4.8784,5.9613-3.2929,18.889-1.8294c12.9276,1.4635,15.4823,8.5953,15.0466,10.6837-.3843,1.8422-2.36289,3.5855-2.36289,3.5855,0,0-3.65881,22.6844-5.73211,23.2942s-32.3191-2.0733-32.0752-6.0979Z" style="fill:#9C4F06;"></path><path d="M241.49469,104.6361s6.5858-23.5381,6.2199-24.7577-.8243-3.171,.0147-4.8784,5.9613-3.2929,18.889-1.8294c12.9276,1.4635,15.4823,8.5953,15.0466,10.6837-.3843,1.8422-2.36289,3.5855-2.36289,3.5855,0,0-3.65881,22.6844-5.73211,23.2942s-32.3191-2.0733-32.0752-6.0979Z" style="fill:#fff; isolation:isolate; opacity:.5;"></path><path d="M273.13189,103.896c0,.6737-.5462,1.2199-1.21989,1.2199-.67361,0-1.21981-.5462-1.21981-1.2199s.5462-1.2198,1.21981-1.2198c.67369,0,1.21989,.5461,1.21989,1.2198Z" style="opacity:.4;"></path><path d="M252.38719,79.031c0,.6737-.54619,1.2198-1.2198,1.2198-.6737,0-1.2199-.5461-1.2199-1.2198s.5462-1.2198,1.2199-1.2198c.67361,0,1.2198,.5461,1.2198,1.2198Z" style="opacity:.4;"></path><circle cx="268.42459" cy="105.8196" r=".6099" style="opacity:.4;"></circle><path d="M249.78009,77.8226c0,.1354-.1098,.2451-.2452,.2451-.1353,0-.2451-.1097-.2451-.2451s.1098-.2451,.2451-.2451c.1354,0,.2452,.1097,.2452,.2451Z" style="opacity:.4;"></path><path d="M250.46509,81.3636c0,.2569-.2083,.4651-.46509,.4651s-.46511-.2082-.46511-.4651c0-.2568,.2083-.465,.46511-.465s.46509,.2082,.46509,.465Z" style="opacity:.4;"></path></g></g></g><g id="freepik--Food_2--inject-854"><g><g><circle cx="112.51727" cy="173.7069" r="54.54699" style="fill:#9C4F06;"></circle><circle cx="112.51727" cy="173.7069" r="54.54699" style="fill:#fff; opacity:.8;"></circle></g><g id="freepik--freepik--Broccoli--inject-2--inject-854"><path d="M104.994,178.2154c.1115-1.6607-1.1443-3.0974-2.805-3.2089l-.0027-.0002c-.3074-.0209-.6162,.0069-.915,.0824l.0194-.1425c.1572-2.3437-1.6152-4.3711-3.9589-4.5283-1.5209-.102-2.9801,.6177-3.8249,1.8865-.6197-.4108-1.3348-.6551-2.0763-.7093-2.3446-.1499-4.3691,1.6241-4.5283,3.9681-.0312,.5413,.0423,1.0834,.2164,1.5969-1.2657,.3227-2.1815,1.4211-2.2714,2.7242-.0618,.9269,.31,1.83,1.0065,2.4447-1.3782,.9333-1.7388,2.807-.8055,4.1852,.4002,.591,.9972,1.0208,1.6846,1.2128,1.241,2.092,3.9428,2.7819,6.0348,1.541,.6877-.4079,1.2513-.9953,1.6305-1.6992,1.1851,1.1637,3.0892,1.1464,4.2529-.0388,.3432-.3495,.5959-.7776,.736-1.247,.3659,.1454,.7529,.2313,1.146,.2543,2.1287,.143,3.9703-1.4668,4.1133-3.5955,.0623-.9277-.2121-1.8468-.7728-2.5885,.655-.5254,1.0611-1.3003,1.1204-2.1379Z" style="fill:#9C4F06;"></path><path d="M104.4748,183.8167c-.2974-4.9245-5.2703-4.1059-5.2703-4.1059-3.5296-3.5832-5.5116-.1426-5.5116-.1426-4.0401-.8963-3.1387,3.3266-3.1387,3.3266l-1.8505,3.0867,1.0685,3.8463c.1478,.0226,.2957,.0452,.45,.057,1.719,.1143,3.3469-.7843,4.1663-2.2998,1.1851,1.1637,3.0892,1.1463,4.253-.0388,.3431-.3495,.5958-.7776,.7359-1.247,.366,.1454,.7529,.2312,1.146,.2542,1.7927,.1157,3.4293-1.0177,3.9514-2.7367Z" style="isolation:isolate; opacity:.1;"></path><path d="M98.0971,181.607c-.3023-2.0628-2.2196-3.49-4.2824-3.1878-.7438,.109-1.4381,.4376-1.994,.9436-1.9024-1.9903-5.0114-2.194-7.1572-.469-1.8533-2.2729-5.1983-2.613-7.4712-.7597-1.4458,1.1789-2.1669,3.03-1.8996,4.8763,.0914,.6794,.3176,1.3338,.6653,1.9247-1.8679,.9259-2.6316,3.1908-1.7057,5.0588,.3287,.6631,.845,1.2149,1.4848,1.5869-1.4347,1.5127-1.3715,3.902,.1412,5.3368,.8267,.784,1.9632,1.1527,3.0927,1.0034,.4828-.0718,.9479-.2333,1.3712-.4764,2.2366,2.0699,5.7276,1.9348,7.7975-.3017,.7514-.8118,1.2414-1.8308,1.4064-2.9246l.2331-.0216c1.4696-.2144,2.6771-1.2706,3.085-2.6987,.11-.0006,.22-.0082,.3291-.0228,2.0605-.2954,3.4929-2.2031,3.202-4.2643-.0815-.5715-.2949-1.1163-.6231-1.5913,1.602-.6477,2.5596-2.3006,2.3249-4.0126Z" style="fill:#9C4F06;"></path><path d="M98.0971,181.607c-.3023-2.0628-2.2196-3.49-4.2824-3.1878-.7438,.109-1.4381,.4376-1.994,.9436-1.9024-1.9903-5.0114-2.194-7.1572-.469-1.8533-2.2729-5.1983-2.613-7.4712-.7597-1.4458,1.1789-2.1669,3.03-1.8996,4.8763,.0914,.6794,.3176,1.3338,.6653,1.9247-1.8679,.9259-2.6316,3.1908-1.7057,5.0588,.3287,.6631,.845,1.2149,1.4848,1.5869-1.4347,1.5127-1.3715,3.902,.1412,5.3368,.8267,.784,1.9632,1.1527,3.0927,1.0034,.4828-.0718,.9479-.2333,1.3712-.4764,2.2366,2.0699,5.7276,1.9348,7.7975-.3017,.7514-.8118,1.2414-1.8308,1.4064-2.9246l.2331-.0216c1.4696-.2144,2.6771-1.2706,3.085-2.6987,.11-.0006,.22-.0082,.3291-.0228,2.0605-.2954,3.4929-2.2031,3.202-4.2643-.0815-.5715-.2949-1.1163-.6231-1.5913,1.602-.6477,2.5596-2.3006,2.3249-4.0126Z" style="fill:#fff; isolation:isolate; opacity:.2;"></path><path d="M91.4985,183.4243s-2.7867-1.9714-4.956-.3597c-2.9115,2.1645-.8531,7.125-.8531,7.125,0,0-4.952,2.0562-4.6153,5.1777,.3367,3.1214,3.7767,3.4892,3.7767,3.4892,2.4131-.3442,4.3153-2.2294,4.6813-4.6392l.233-.0217c1.4697-.2143,2.6771-1.2705,3.085-2.6986,.1101-.0007,.22-.0083,.3291-.0228,2.0605-.2955,3.493-2.2032,3.2021-4.2643-.0816-.5716-.2949-1.1164-.6232-1.5913,1.6047-.6494,2.5621-2.3068,2.3228-4.0213-2.4231-4.9151-6.5824,1.827-6.5824,1.827Z" style="isolation:isolate; opacity:.1;"></path><path d="M82.6929,196.0443s9.2589-.1123,15.8275,13.8316c0,0,8.1661,3.2891,10.4964-6.9116,0,0-11.5541-9.0175-6.7688-21.4289-.7794-.6284-1.8446-.7688-2.7602-.3637,0,0,.1828,7.3426-1.7009,8.0619s-1.5778-6.8878-1.5778-6.8878c0,0-2.7732-.1954-3.5937,1.3079,0,0,2.176,5.0825,.3012,6.6067-1.8748,1.5243-4.9699-2.9795-4.9699-2.9795-1.1243,.4193-1.919,1.433-2.0578,2.6249,0,0,4.4596,3.1577,3.6798,4.0547-.7798,.8969-5.758-1.2-5.758-1.2,0,0-1.4284,.8529-1.1178,3.2838Z" style="fill:#9C4F06;"></path><path d="M82.6929,196.0443s9.2589-.1123,15.8275,13.8316c0,0,8.1661,3.2891,10.4964-6.9116,0,0-11.5541-9.0175-6.7688-21.4289-.7794-.6284-1.8446-.7688-2.7602-.3637,0,0,.1828,7.3426-1.7009,8.0619s-1.5778-6.8878-1.5778-6.8878c0,0-2.7732-.1954-3.5937,1.3079,0,0,2.176,5.0825,.3012,6.6067-1.8748,1.5243-4.9699-2.9795-4.9699-2.9795-1.1243,.4193-1.919,1.433-2.0578,2.6249,0,0,4.4596,3.1577,3.6798,4.0547-.7798,.8969-5.758-1.2-5.758-1.2,0,0-1.4284,.8529-1.1178,3.2838Z" style="fill:#fff; isolation:isolate; opacity:.5;"></path><path d="M109.0016,202.9773c-9.7147-1.0853-10.4963,6.9116-10.4963,6.9116,0,0,8.1812,3.2761,10.4963-6.9116Z" style="fill:#fff; isolation:isolate; opacity:.3;"></path><path d="M99.5173,203.5633s-4.3772-8.2507-7.7041-9.1742c-3.327-.9235,4.2162,4.3469,7.7041,9.1742Z" style="isolation:isolate; opacity:.1;"></path><path d="M100.6003,199.5177s-4.4031-8.0241-2.9067-8.7335c1.4963-.7095,.7671,2.9173,2.9067,8.7335Z" style="isolation:isolate; opacity:.1;"></path><path d="M96.4223,196.2941s-3.6659-4.3471-2.7942-4.8956c.8716-.5485,2.7942,4.8956,2.7942,4.8956Z" style="isolation:isolate; opacity:.1;"></path><path d="M101.9477,201.7486c-2.6249-2.0578-.4733,4.0077-2.9965,2.7591-1.4709-.7278-1.8069,1.1174-1.8042,2.7402,.4654,.8145,.9264,1.6851,1.3627,2.6215,0,0,8.166,3.2892,10.4963-6.9116,0,0-6.6939-5.2308-7.779-13.2097h0c-.1395,5.2862,3.3456,14.0584,.7207,12.0005Z" style="isolation:isolate; opacity:.1;"></path></g><g id="freepik--freepik--Tomato--inject-2--inject-854"><path d="M107.6242,142.5337c-.7627-.001-1.5239,.0646-2.2752,.196-1.4212,.2436-2.8736,.2436-4.2948,0-.7532-.1316-1.5165-.1972-2.2811-.196-7.2591,0-13.1519,5.6789-13.1519,12.6944s5.8928,12.6945,13.1519,12.6945c.4743,.0014,.9484-.0244,1.4197-.0772,2.0002-.2139,4.0174-.2139,6.0176,0,.4694,.0527,.9414,.0785,1.4138,.0772,7.265,0,13.1519-5.6849,13.1519-12.6945s-5.8869-12.6944-13.1519-12.6944Z" style="fill:#9C4F06;"></path><path d="M107.6242,142.5337c-.7627-.001-1.5239,.0646-2.2752,.196-1.4212,.2436-2.8736,.2436-4.2948,0-.7532-.1316-1.5165-.1972-2.2811-.196-7.2591,0-13.1519,5.6789-13.1519,12.6944s5.8928,12.6945,13.1519,12.6945c.4743,.0014,.9484-.0244,1.4197-.0772,2.0002-.2139,4.0174-.2139,6.0176,0,.4694,.0527,.9414,.0785,1.4138,.0772,7.265,0,13.1519-5.6849,13.1519-12.6945s-5.8869-12.6944-13.1519-12.6944Z" style="isolation:isolate; opacity:.1;"></path><path d="M90.1061,149.4007c.9861-1.9009,2.3762-3.4217,3.6355-2.9108,.8732,.3624-.2732,2.0969,.8079,2.5187s2.0851-1.5088,3.1603-1.5979c1.0751-.0891,.8078,2.3761,2.2216,2.4355,1.4138,.0594,1.1881-2.2633,2.091-2.1801,1.0039,.095,.6713,5.8275-.5406,5.869-.7425,0-.6712-1.7821-1.6157-1.7821-1.6396,0-2.7623,2.4296-4.2414,2.4296-1.4792,0-.4693-2.5959-1.5504-2.8513-1.0812-.2555-2.8276,3.8612-4.3068,2.8513-1.4791-1.0098-.3445-3.4691,.3386-4.7819Z" style="fill:#fff; isolation:isolate; opacity:.2;"></path><path d="M107.6242,167.9226c7.265,0,13.1518-5.6849,13.1518-12.6945-.0067-3.4161-1.418-6.679-3.9028-9.0233,.7426,.7306,6.2314,6.5819,1.2594,13.8469-5.3107,7.7759-10.7936,4.8651-17.2804,5.9403-6.3799,1.0455-12.6173-3.3028-12.8252-3.4513,2.5147,3.4113,6.5081,5.4158,10.7461,5.3938,.4743,.0014,.9483-.0244,1.4197-.0772,2.0002-.2139,4.0174-.2139,6.0176,0,.4696,.0487,.9416,.0705,1.4138,.0653Z" style="isolation:isolate; opacity:.2;"></path><path d="M102.3254,141.9099c-1.8177,.2079-3.7602-4.3542-5.4473-3.9681,0,0,2.4593,2.1444,3.0712,4.0632,0,0-6.5938-1.1109-8.2036,.8197,0,0,9.0352-1.3781,8.9105,1.0218-.0476,.7841-2.0732,.9207-2.0732,2.3761,0,0,2.4593-1.6871,4.1582-1.6098,1.6989,.0772,2.7563,2.5305,2.7563,2.5305-.248-.8778-.248-1.8072,0-2.685,.4693-1.3781,5.9047-1.9246,7.669-.0772,0,0-1.6276-3.0711-5.9997-2.1266,0,0,2.4711-2.4712,5.4651-1.9366,0,0-3.0771-1.6514-6.5641,1.1881-.7313,.5895-1.755,.6538-2.5543,.1604l-.5465-.3327s-.2377,.5287-.6416,.5762Z" style="fill:#263238;"></path><path d="M102.6996,142.3495c-.1782-1.6039,.802-4.5443-.499-6.4274,0,0,1.5683-1.0693,2.489,.3445,.5457,2.0722,.1989,4.2782-.9564,6.0829-.1425,.2436-.9385,.8911-1.0336,0Z" style="fill:#263238;"></path><path d="M102.6996,142.3495c-.1782-1.6039,.802-4.5443-.499-6.4274,0,0,1.5683-1.0693,2.489,.3445,.5457,2.0722,.1989,4.2782-.9564,6.0829-.1425,.2436-.9385,.8911-1.0336,0Z" style="fill:#fff; isolation:isolate; opacity:.2;"></path><path d="M104.6896,136.2666c-.9207-1.4138-2.489-.3445-2.489-.3445,0,0,1.2297,1.3247,2.489,.3445Z" style="fill:#fff; isolation:isolate; opacity:.4;"></path></g><g id="freepik--freepik--Pepper--inject-2--inject-854"><path d="M145.4323,186.3689c-.2282-2.4863-1.7689-4.6607-4.039-5.7002-1.0818-.525-2.28-.7644-3.4804-.6953-.7081-.9715-1.653-1.7457-2.7448-2.2488-1.8253-.9061-3.9584-.9559-5.8239-.1361-.5399-.488-1.1496-.8926-1.809-1.2004-3.9741-1.8737-8.7336-.1592-12.0625,6.8852-3.3288,7.0444-4.0092,16.7797-.0256,18.6659,.4346,.2028,.9075,.3107,1.387,.3165,.1137,2.9925,.9658,5.3589,2.7236,6.1949,1.113,.5251,2.4786,.3807,3.9308-.2574,.432,1.5303,1.1791,2.6733,2.2944,3.2015,1.5213,.7062,3.4644,.196,5.4949-1.1038,.3551,.5488,.8518,.9915,1.4377,1.2813,3.9806,1.8886,11.0803-4.7898,14.4185-11.8412,3.1523-6.669,1.7965-11.2737-1.7017-13.3621Z" style="fill:#9C4F06;"></path><path d="M121.4658,188.6715c3.1207-6.6006,7.0408-8.4485,10.1063-6.9996,.6814,.3173,1.2767,.7936,1.7359,1.3887-.2927-1.9611-1.3012-3.3182-2.7919-4.023-3.0709-1.4497-6.9856,.399-10.1118,6.9989-2.8816,6.094-4.0816,14.1-1.8348,16.4377-.501-3.5141,.7178-9.208,2.8963-13.8027Z" style="isolation:isolate; opacity:.1;"></path><path d="M139.3337,198.0842c3.3383-7.0515,2.3839-11.4649-.6816-12.9138-.6822-.3281-1.4368-.4766-2.1925-.4313,1.7525-1.1225,3.4736-1.2522,4.9581-.5427,3.0709,1.4497,4.0198,5.8624,.6816,12.9138-3.0806,6.5111-8.743,12.9906-12.0077,12.8049,3.1299-2.0333,6.9179-6.9236,9.2421-11.8309Z" style="isolation:isolate; opacity:.1;"></path><path d="M126.015,196.2114c-2.5699,6.1223-2.3201,9.5326-.553,10.2581,.4166,.1694,.8799,.1847,1.3068,.0431-1.1574,1.1417-2.2117,1.482-3.0768,1.1273-1.765-.742-2.0202-4.153,.5529-10.2581,2.3752-5.6544,6.323-11.6402,8.3051-11.944-2.0604,2.0554-4.7448,6.5089-6.535,10.7736Z" style="isolation:isolate; opacity:.1;"></path><path d="M138.8757,192.1518c-.4454,1.6376-1.6124,2.7472-2.6061,2.4757-.9937-.2716-1.44-1.8206-.9945-3.4582,.4454-1.6376,1.6155-2.7496,2.6092-2.4781,.9937,.2716,1.44,1.8206,.9914,3.4606Z" style="fill:#fff; isolation:isolate; opacity:.3;"></path><path d="M135.8752,197.5985c-.5386,.6559-1.2983,.9243-1.6975,.5937s-.2804-1.1244,.2581-1.7803c.5386-.6558,1.3006-.9212,1.6975-.5937,.3968,.3275,.2859,1.1252-.2581,1.7803Z" style="fill:#fff; isolation:isolate; opacity:.2;"></path><path d="M132.7775,179.2492s1.9848,.0681,1.1251,2.5571c0,0,2.1392,.4325,1.4795,2.4348,0,0,4.938-.6208,5.1415,1.1327,.943-.6884,2.2129-.7239,3.193-.0893,0,0-1.7008-3.9338-5.768-3.7004,.0094-.0071-2.4136-4.3209-5.1711-2.3349Z" style="fill:#9C4F06;"></path><path d="M132.7775,179.2492s1.9848,.0681,1.1251,2.5571c0,0,2.1392,.4325,1.4795,2.4348,0,0,4.938-.6208,5.1415,1.1327,.943-.6884,2.2129-.7239,3.193-.0893,0,0-1.7008-3.9338-5.768-3.7004,.0094-.0071-2.4136-4.3209-5.1711-2.3349Z" style="isolation:isolate; opacity:.3;"></path><path d="M138.0778,183.1236c-.834-.2279-1.3253-1.0888-1.0973-1.9228,.0944-.3453,.3042-.6478,.5945-.8571,1.9794-1.4575,5.5619-3.678,9.3969-4.074,5.7773-.5908,7.362,2.7575,7.362,2.7575,0,0-1.4272,4.2441-4.7464,2.2358,0,0,.5026-4.7158-9.5964,1.7765-.3069,.2006-.6744,.2872-1.0386,.2446-.2957-.0279-.5884-.0816-.8747-.1605Z" style="fill:#9C4F06;"></path><path d="M138.0778,183.1236c-.834-.2279-1.3253-1.0888-1.0973-1.9228,.0944-.3453,.3042-.6478,.5945-.8571,1.9794-1.4575,5.5619-3.678,9.3969-4.074,5.7773-.5908,7.362,2.7575,7.362,2.7575,0,0-1.4272,4.2441-4.7464,2.2358,0,0,.5026-4.7158-9.5964,1.7765-.3069,.2006-.6744,.2872-1.0386,.2446-.2957-.0279-.5884-.0816-.8747-.1605Z" style="isolation:isolate; opacity:.2;"></path><path d="M149.597,181.2755c3.3192,2.0083,4.7464-2.2358,4.7464-2.2358-2.7668-1.1599-4.7464,2.2358-4.7464,2.2358Z" style="isolation:isolate; opacity:.3;"></path></g><g><path d="M138.3916,146.578c.836-1.9288,1.9689-3.4865,2.5557-5.2331,.5869-1.7466,1.4313-4.3054,1.4313-4.3054,.1325-.2715,.0443-.5991-.2067-.7672-.2525-.1481-.4335,.2164-.5117,.4989-.9186,3.4886-2.4764,6.7765-4.5944,9.6967,.4495-.0756,1.1405-.2832,1.3258,.1101Z" style="fill:#9C4F06;"></path><path d="M138.3916,146.578c.836-1.9288,1.9689-3.4865,2.5557-5.2331,.5869-1.7466,1.4313-4.3054,1.4313-4.3054,.1325-.2715,.0443-.5991-.2067-.7672-.2525-.1481-.4335,.2164-.5117,.4989-.9186,3.4886-2.4764,6.7765-4.5944,9.6967,.4495-.0756,1.1405-.2832,1.3258,.1101Z" style="isolation:isolate; opacity:.1;"></path><path d="M139.6946,147.3425c1.364-1.5972,2.8941-2.7685,3.95-4.2509,1.0558-1.4824,2.6374-3.6744,2.6374-3.6744,.2087-.225,.2192-.5695,.0245-.8067-.1932-.2119-.4801,.0905-.6363,.3382-1.8938,3.0692-4.3384,5.762-7.2108,7.9427,.4615-.0029,1.1901-.0133,1.2352,.4511Z" style="fill:#9C4F06;"></path><path d="M139.6946,147.3425c1.364-1.5972,2.8941-2.7685,3.95-4.2509,1.0558-1.4824,2.6374-3.6744,2.6374-3.6744,.2087-.225,.2192-.5695,.0245-.8067-.1932-.2119-.4801,.0905-.6363,.3382-1.8938,3.0692-4.3384,5.762-7.2108,7.9427,.4615-.0029,1.1901-.0133,1.2352,.4511Z" style="isolation:isolate; opacity:.1;"></path><path d="M144.5113,136.5392c.0531-.1654-.0023-.3464-.1389-.4537-.1384-.0812-.2317-.0156-.357,.0861l-3.2921,5.6111-2.8828,4.7456c.1141,.2582,.361,.4326,.6425,.4536,.473,.0148,6.0283-10.4427,6.0283-10.4427Z" style="fill:#9C4F06;"></path><path d="M144.8504,136.7381c.0531-.1654-.0023-.3463-.1389-.4537-.1384-.0812-.2317-.0155-.357,.0862l-3.2921,5.6111-2.8828,4.7456c.1141,.2582,.3611,.4325,.6425,.4536,.473,.0148,6.0283-10.4428,6.0283-10.4428Z" style="fill:#fff; isolation:isolate; opacity:.1;"></path><path d="M145.4863,137.2097c.124-.1217,.3127-.1485,.4657-.0661,.1466,.086,.1137,.1981,.0732,.3604l-3.6931,5.343-3.0701,4.6357c-.2788,.0064-.5374-.1453-.6678-.3918-.1075-.2272,2.0008-3.205,3.8893-5.8081,1.5985-2.1274,3.0028-4.0731,3.0028-4.0731Z" style="fill:#9C4F06;"></path><path d="M140.1246,152.0393c-1.539,2.2499-2.8447,4.1768-4.0725,5.9524-.1481,.2525-.2915,.4968-.5,.7029-2.7229,3.876-5.1445,7.1078-8.7923,11.4594l-.2624,.3167c-.3538,.4164-.7042,.8457-1.0757,1.2737-.8176,.965-2.2237,1.1748-3.2874,.4906l-.6434-.3775c-1.0803-.6975-1.4625-2.0963-.8869-3.2462,1.8189-3.5854,3.26-6.3962,4.7326-8.9807h0l.387-.6596c2.3083-3.9618,4.9117-7.7442,7.7881-11.3151l.1672-.2851c.1401-.1859,.299-.3567,.4743-.5099,.9003-.8292,2.1248-1.2115,3.337-1.0417,.2301,.0355,.4559,.0946,.6738,.1764,.1313,.0401,.2595,.0897,.3836,.1484,.1377,.0699,.271,.148,.3991,.2342l.1059,.0621c.2091,.1416,.4038,.3035,.5812,.4833l.1932,.2119c1.1797,1.3861,1.3011,3.3852,.2976,4.9038Z" style="fill:#9C4F06;"></path><path d="M140.1246,152.0393c-1.539,2.2499-2.8447,4.1768-4.0725,5.9524-.1481,.2525-.2915,.4968-.5,.7029-2.7229,3.876-5.1445,7.1078-8.7923,11.4594l-.2624,.3167c-.3538,.4164-.7042,.8457-1.0757,1.2737-.8176,.965-2.2237,1.1748-3.2874,.4906l-.6434-.3775c-1.0803-.6975-1.4625-2.0963-.8869-3.2462,1.8189-3.5854,3.26-6.3962,4.7326-8.9807h0l.387-.6596c2.3083-3.9618,4.9117-7.7442,7.7881-11.3151l.1672-.2851c.1401-.1859,.299-.3567,.4743-.5099,.9003-.8292,2.1248-1.2115,3.337-1.0417,.2301,.0355,.4559,.0946,.6738,.1764,.1313,.0401,.2595,.0897,.3836,.1484,.1377,.0699,.271,.148,.3991,.2342l.1059,.0621c.2091,.1416,.4038,.3035,.5812,.4833l.1932,.2119c1.1797,1.3861,1.3011,3.3852,.2976,4.9038Z" style="fill:#fff; isolation:isolate; opacity:.5;"></path><path d="M134.2097,146.8393c1.2732,1.0013,2.4076,2.1675,3.3732,3.468-1.0927-1.2382-2.4911-2.1681-4.0555-2.6969l.1672-.2851c.1542-.1796,.3268-.3425,.5151-.486Z" style="isolation:isolate; opacity:.1;"></path><path d="M129.0293,161.1732c-1.0907-.7927-2.3438-1.3335-3.6689-1.5833,.129-.2199,.2628-.4479,.3871-.6596,1.1733,.6243,2.274,1.3765,3.2818,2.2429Z" style="isolation:isolate; opacity:.1;"></path></g></g></g><g id="freepik--Food_1--inject-854"><g><g><circle cx="84.4971" cy="319.8055" r="54.1914" style="fill:#9C4F06;"></circle><circle cx="84.4971" cy="319.8055" r="54.1914" style="fill:#fff; opacity:.8;"></circle></g><g id="freepik--freepik--Strawberry--inject-2--inject-854"><path d="M116.9264,313.7719s2.3778-3.378,4.507-1.5084c2.1291,1.8695-.7916,.035-4.507,1.5084Z" style="fill:#263238;"></path><g style="opacity:.3;"><path d="M116.9264,313.7719s2.3778-3.378,4.507-1.5084c2.1291,1.8695-.7916,.035-4.507,1.5084Z" style="fill:#fff;"></path></g><path d="M114.4607,312.2376s-1.8988-3.1557-.4467-3.4286c1.2287-.2262,.4406,1.8084,1.2471,2.5484,0,0,1.2255-2.1302,2.4094-1.6248,0,0-1.3794,1.7572-.7868,3.0452,0,0,2.2049-.3566,3.7133,2.092,0,0-2.8972-1.2544-2.564-.1904,.3331,1.0641,3.6857,.9084,3.537,2.1156-.1488,1.2073-2.5007-.1103-2.5007-.1103,.2959,1.0317,.8376,1.9763,1.5785,2.7529,0,0-1.9543,.2424-3.1757-2.857-1.2215-3.0993-3.0114-4.343-3.0114-4.343Z" style="fill:#9C4F06;"></path><path d="M116.9492,324.5423c-2.501,1.5383-12.2819,2.3446-14.6936-1.5739-2.4117-3.9185,3.4496-11.0858,5.9473-12.6268s6.4792,.3951,8.8943,4.3163c2.4151,3.9213,2.347,8.3467-.148,9.8844Z" style="fill:#9C4F06;"></path><path d="M116.9492,324.5423c-2.501,1.5383-12.2819,2.3446-14.6936-1.5739-2.4117-3.9185,3.4496-11.0858,5.9473-12.6268s6.4792,.3951,8.8943,4.3163c2.4151,3.9213,2.347,8.3467-.148,9.8844Z" style="fill:#fff; isolation:isolate; opacity:.4;"></path><path d="M104.8274,315.4421s3.1023-5.3077,5.3903-4.6371-2.5994,1.3847-5.3903,4.6371Z" style="fill:#fff; isolation:isolate; opacity:.2;"></path><path d="M103.5571,322.0448c-1.8884-2.3957-.672-5.3353-.6549-5.411-1.163,2.2319-1.7146,4.6005-.6466,6.3346,2.4017,3.9102,12.1926,3.1122,14.6936,1.5739,.7534-.4815,1.3155-1.2104,1.5897-2.0614-1.2284,2.3184-13.0797,2.0043-14.9818-.4361Z" style="isolation:isolate; opacity:.1;"></path><g style="opacity:.8;"><path d="M108.9411,311.076c-.3194,.1979-.6591,.2222-.762,.0537-.1029-.1686,.0719-.457,.3913-.655,.3194-.1979,.659-.2222,.762-.0537,.1029,.1686-.0775,.4637-.3913,.655Z" style="fill:#fff;"></path><path d="M110.7415,314.0164c-.3194,.198-.659,.2223-.7619,.0538-.103-.1686,.0746-.4604,.3913-.655,.3166-.1946,.659-.2223,.7647-.0571s-.0747,.4604-.3941,.6583Z" style="fill:#fff;"></path><path d="M112.5475,316.9502c-.3166,.1946-.659,.2223-.762,.0537-.1029-.1685,.0747-.4603,.3914-.6549,.3166-.1946,.659-.2223,.7647-.0571s-.0747,.4603-.3941,.6583Z" style="fill:#fff;"></path><path d="M114.3535,319.884c-.3167,.1946-.6624,.2195-.762,.0537s.0713-.4631,.3941-.6583c.3227-.1952,.659-.2223,.7619-.0537,.103,.1685-.0829,.4704-.394,.6583Z" style="fill:#fff;"></path><path d="M116.1622,322.8144c-.3194,.1979-.6651,.2228-.7647,.057s.0713-.463,.3941-.6583c.3227-.1952,.659-.2222,.7619-.0537,.103,.1686-.0747,.4604-.3913,.655Z" style="fill:#fff;"></path><path d="M107.0305,313.8501c-.3194,.1979-.6624,.2195-.762,.0537s.0714-.4631,.3913-.655c.32-.1918,.6591-.2222,.7648-.057,.1056,.1652-.0647,.4686-.3941,.6583Z" style="fill:#fff;"></path><path d="M108.8465,316.7921c-.3194,.1979-.6624,.2195-.7619,.0537-.0996-.1658,.0713-.4631,.3879-.6577,.3167-.1946,.6624-.2195,.7681-.0543s-.0747,.4603-.3941,.6583Z" style="fill:#fff;"></path><path d="M110.6525,319.7259c-.3167,.1946-.6624,.2195-.762,.0537s.0713-.4631,.3907-.6611c.3194-.1979,.6624-.2195,.7654-.051,.1029,.1686-.0747,.4604-.3941,.6584Z" style="fill:#fff;"></path><path d="M112.4612,322.6563c-.3228,.1952-.6651,.2228-.7681,.0543-.1029-.1686,.0747-.4604,.3941-.6583,.3194-.198,.6624-.2196,.762-.0537,.0995,.1658-.0714,.4631-.388,.6577Z" style="fill:#fff;"></path><path d="M113.9191,325.0297c-.32,.1919-.6624,.2195-.7654,.051-.1029-.1686,.0747-.4604,.3914-.655,.3166-.1946,.6651-.2229,.7647-.0571s-.0713,.4631-.3907,.6611Z" style="fill:#fff;"></path><path d="M105.1949,316.4165c-.3166,.1946-.659,.2223-.762,.0537-.1029-.1685,.0747-.4603,.3941-.6583,.3194-.198,.659-.2223,.762-.0537,.1029,.1685-.072,.457-.3941,.6583Z" style="fill:#fff;"></path><path d="M107.0097,319.3463c-.3194,.198-.659,.2223-.7647,.0571-.1057-.1652,.0747-.4604,.3941-.6583,.3194-.198,.659-.2223,.7619-.0538,.103,.1686-.078,.4576-.3913,.655Z" style="fill:#fff;"></path><path d="M103.0899,321.3082c-.3227,.1953-.6624,.2196-.7681,.0544s.0747-.4604,.3941-.6583c.3194-.198,.6624-.2196,.762-.0538s-.0741,.4665-.388,.6577Z" style="fill:#fff;"></path><path d="M104.87,323.6992c-.3167,.1946-.6591,.2222-.762,.0537-.1029-.1686,.0747-.4604,.3941-.6583,.3194-.198,.6624-.2196,.7619-.0538,.0996,.1658-.0713,.4632-.394,.6584Z" style="fill:#fff;"></path><path d="M108.8123,322.2773c-.3194,.198-.6623,.2195-.7647,.0571-.1023-.1625,.0714-.4631,.3941-.6583,.3227-.1952,.659-.2223,.762-.0538,.1029,.1686-.072,.457-.3914,.655Z" style="fill:#fff;"></path><path d="M110.2443,324.6071c-.3194,.1979-.659,.2223-.7619,.0537-.103-.1685,.0746-.4603,.3913-.6549,.3166-.1947,.6623-.2196,.7647-.0571,.1023,.1624-.0713,.4631-.3941,.6583Z" style="fill:#fff;"></path><path d="M103.6432,318.582c-.3194,.1979-.6623,.2195-.7619,.0537s.0686-.4597,.388-.6577c.3193-.1979,.6623-.2195,.7653-.051,.1029,.1686-.072,.457-.3914,.655Z" style="fill:#fff;"></path><path d="M105.4492,321.5157c-.3227,.1953-.6624,.2196-.7653,.051-.103-.1685,.0747-.4603,.3913-.6549,.3167-.1946,.6624-.2196,.7647-.0571,.1024,.1624-.0713,.4631-.3907,.661Z" style="fill:#fff;"></path><path d="M107.2552,324.4495c-.3228,.1952-.6624,.2195-.7653,.051-.103-.1686,.0746-.4604,.3913-.655,.3166-.1946,.6624-.2195,.7647-.0571,.1023,.1625-.0713,.4631-.3907,.6611Z" style="fill:#fff;"></path><path d="M112.3728,311.5966c-.3194,.1979-.6618,.2256-.7647,.057-.1029-.1685,.0747-.4603,.3941-.6583,.3194-.1979,.659-.2222,.7619-.0537,.103,.1686-.0746,.4604-.3913,.655Z" style="fill:#fff;"></path><path d="M114.1788,314.5303c-.3194,.198-.659,.2223-.7647,.0571s.0746-.4604,.394-.6583c.3194-.198,.6591-.2223,.762-.0537,.1029,.1685-.0814,.4548-.3913,.6549Z" style="fill:#fff;"></path><path d="M115.9848,317.4641c-.3194,.1979-.6624,.2195-.762,.0537s.0686-.4597,.3913-.655c.3227-.1952,.659-.2222,.762-.0537,.1029,.1686-.0719,.457-.3913,.655Z" style="fill:#fff;"></path><path d="M117.7907,320.3978c-.3194,.198-.6623,.2196-.7619,.0538s.0713-.4631,.3913-.655,.659-.2223,.7647-.0571-.0881,.4494-.3941,.6583Z" style="fill:#fff;"></path></g></g><g id="freepik--freepik--Strawberry--inject-2-2--inject-854"><path d="M93.8441,295.9301s-2.1183-4.0868,.8242-5.2314-.372,.8007-.8242,5.2314Z" style="fill:#263238;"></path><g style="opacity:.3;"><path d="M93.8441,295.9301s-2.1183-4.0868,.8242-5.2314-.372,.8007-.8242,5.2314Z" style="fill:#fff;"></path></g><path d="M91.0601,297.5798s-4.0959,.256-3.6197-1.32c.4077-1.3311,2.0145,.4935,3.1606,.0763,0,0-1.4766-2.3062-.3685-3.2171,0,0,1.0286,2.2667,2.6066,2.3426,0,0,.7804-2.3634,3.9765-2.5968,0,0-2.7289,2.2202-1.5056,2.4375s2.792-3.1776,3.9092-2.4102c1.1172,.7674-1.394,2.4159-1.394,2.4159,1.1722,.2375,2.3845,.1873,3.533-.1464,0,0-.7644,2.0569-4.4566,1.6722-3.6922-.3848-5.8415,.746-5.8415,.746Z" style="fill:#9C4F06;"></path><path d="M104.5052,301.4416c.2359,3.2633-3.9924,13.3486-9.1061,13.7199-5.1137,.3712-9.1888-9.1069-9.4291-12.3684-.2404-3.2615,3.7197-6.2034,8.8378-6.5766,5.1182-.3731,9.4589,1.968,9.6974,5.2251Z" style="fill:#9C4F06;"></path><path d="M104.5052,301.4416c.2359,3.2633-3.9924,13.3486-9.1061,13.7199-5.1137,.3712-9.1888-9.1069-9.4291-12.3684-.2404-3.2615,3.7197-6.2034,8.8378-6.5766,5.1182-.3731,9.4589,1.968,9.6974,5.2251Z" style="fill:#fff; isolation:isolate; opacity:.4;"></path><path d="M89.2788,308.7514s-3.6541-5.7947-1.8154-7.7124,.0335,3.2818,1.8154,7.7124Z" style="fill:#fff; isolation:isolate; opacity:.2;"></path><path d="M95.1546,313.4c-3.339,.6362-5.6207-2.0769-5.6867-2.1327,1.6093,2.2967,3.6679,4.0592,5.9312,3.8942,5.1003-.3656,9.342-10.4566,9.1061-13.7199-.089-.9923-.5209-1.9226-1.2215-2.631,1.6613,2.4058-4.7387,13.9627-8.1291,14.5894Z" style="isolation:isolate; opacity:.1;"></path><g style="opacity:.8;"><path d="M87.0754,302.4406c.0316,.4175-.1189,.7658-.3384,.781s-.4149-.306-.4465-.7235c-.0317-.4175,.1188-.7658,.3384-.781,.2195-.0152,.4187,.3148,.4465,.7235Z" style="fill:#fff;"></path><path d="M90.9079,302.1712c.0316,.4175-.1188,.7658-.3384,.781-.2195,.0152-.4168-.3104-.4465-.7235-.0297-.413,.1188-.7658,.3365-.7854,.2176-.0196,.4168,.3104,.4484,.7279Z" style="fill:#fff;"></path><path d="M94.7367,301.8929c.0297,.4131-.1189,.7658-.3384,.781-.2196,.0152-.4168-.3103-.4465-.7234-.0298-.4131,.1188-.7659,.3364-.7855,.2177-.0196,.4168,.3104,.4485,.7279Z" style="fill:#fff;"></path><path d="M98.5654,301.6146c.0298,.4131-.1232,.7678-.3384,.7811-.2151,.0132-.4212-.3085-.4484-.7279-.0272-.4195,.1189-.7659,.3384-.7811,.2195-.0151,.4225,.3237,.4484,.7279Z" style="fill:#fff;"></path><path d="M102.3923,301.3319c.0316,.4175-.1214,.7722-.3365,.7855s-.4212-.3085-.4484-.7279,.1188-.7658,.3383-.781c.2196-.0152,.4168,.3103,.4466,.7234Z" style="fill:#fff;"></path><path d="M88.8366,305.7551c.0317,.4175-.1232,.7677-.3383,.781-.2152,.0133-.4213-.3085-.4466-.7235-.0253-.4149,.1189-.7658,.3365-.7854s.4301,.3047,.4484,.7279Z" style="fill:#fff;"></path><path d="M92.6787,305.4711c.0316,.4175-.1233,.7677-.3384,.781s-.4212-.3085-.4509-.7216c-.0298-.413,.1232-.7677,.3409-.7873,.2176-.0196,.4168,.3104,.4484,.7279Z" style="fill:#fff;"></path><path d="M96.5075,305.1928c.0297,.4131-.1233,.7678-.3384,.781-.2151,.0133-.4213-.3084-.4529-.726-.0316-.4175,.1233-.7677,.3428-.7829,.2196-.0151,.4168,.3104,.4485,.7279Z" style="fill:#fff;"></path><path d="M100.3343,304.9101c.0272,.4194-.1214,.7722-.3409,.7874-.2196,.0152-.4168-.3104-.4485-.7279-.0316-.4175,.1233-.7678,.3384-.781,.2151-.0133,.4213,.3084,.451,.7215Z" style="fill:#fff;"></path><path d="M103.4302,304.6881c.0252,.415-.1233,.7678-.3429,.783-.2195,.0151-.4168-.3104-.4465-.7235s.1214-.7722,.3365-.7854c.2151-.0133,.4212,.3084,.4529,.7259Z" style="fill:#fff;"></path><path d="M90.4311,308.8887c.0297,.4131-.1189,.7658-.3384,.781-.2196,.0152-.4168-.3104-.4484-.7279-.0317-.4175,.1188-.7658,.3383-.781,.2196-.0152,.4149,.306,.4485,.7279Z" style="fill:#fff;"></path><path d="M94.2605,308.5997c.0316,.4175-.1189,.7658-.3365,.7854-.2177,.0196-.4168-.3104-.4485-.7279-.0316-.4175,.1189-.7658,.3384-.781,.2196-.0152,.4124,.3123,.4466,.7235Z" style="fill:#fff;"></path><path d="M94.1863,313.4835c.0272,.4194-.1233,.7677-.3409,.7874-.2177,.0196-.4168-.3104-.4484-.7279-.0317-.4176,.1232-.7678,.3383-.781,.2151-.0133,.4232,.3129,.451,.7215Z" style="fill:#fff;"></path><path d="M97.465,312.9519c.0297,.4131-.1189,.7659-.3384,.781-.2195,.0152-.4168-.3103-.4484-.7279-.0317-.4175,.1232-.7677,.3384-.781,.2151-.0132,.4212,.3085,.4484,.7279Z" style="fill:#fff;"></path><path d="M98.0848,308.3233c.0316,.4175-.1233,.7677-.3365,.7854-.2132,.0178-.4213-.3084-.4485-.7279-.0272-.4194,.1189-.7658,.3384-.781,.2196-.0151,.4149,.306,.4466,.7235Z" style="fill:#fff;"></path><path d="M101.1241,308.1045c.0317,.4175-.1188,.7658-.3383,.781-.2196,.0152-.4168-.3104-.4466-.7235-.0297-.4131,.1233-.7677,.3365-.7854,.2132-.0178,.4213,.3084,.4484,.7279Z" style="fill:#fff;"></path><path d="M91.775,311.5356c.0316,.4175-.1233,.7677-.3384,.781s-.4193-.304-.451-.7215c-.0316-.4176,.1233-.7678,.3429-.783,.2195-.0151,.4149,.306,.4465,.7235Z" style="fill:#fff;"></path><path d="M95.6037,311.2573c.0272,.4195-.1232,.7678-.3428,.7829-.2196,.0152-.4168-.3103-.4465-.7234-.0298-.4131,.1232-.7677,.3365-.7855,.2132-.0177,.4212,.3085,.4528,.726Z" style="fill:#fff;"></path><path d="M99.4325,310.9791c.0271,.4194-.1233,.7677-.3429,.7829-.2195,.0152-.4168-.3104-.4465-.7235s.1233-.7677,.3365-.7854c.2132-.0178,.4212,.3084,.4529,.726Z" style="fill:#fff;"></path><path d="M89.3534,299.3148c.0316,.4176-.1169,.7703-.3365,.7855-.2195,.0152-.4168-.3104-.4484-.7279s.1188-.7658,.3384-.781c.2195-.0152,.4168,.3104,.4465,.7234Z" style="fill:#fff;"></path><path d="M93.1822,299.0366c.0316,.4175-.1189,.7658-.3365,.7854-.2177,.0197-.4168-.3103-.4485-.7279-.0316-.4175,.1189-.7658,.3384-.781,.2196-.0151,.408,.3142,.4466,.7235Z" style="fill:#fff;"></path><path d="M97.0109,298.7583c.0316,.4175-.1233,.7677-.3384,.781s-.4193-.304-.4465-.7234,.1188-.7659,.3384-.781c.2195-.0152,.4149,.3059,.4465,.7234Z" style="fill:#fff;"></path><path d="M100.8397,298.48c.0316,.4176-.1233,.7678-.3384,.781-.2151,.0133-.4213-.3084-.4466-.7234-.0253-.415,.1189-.7658,.3365-.7855,.2177-.0196,.3991,.318,.4485,.7279Z" style="fill:#fff;"></path></g></g><g id="freepik--freepik--Apple--inject-2--inject-854"><path d="M61.9218,294.7331s-.4354-16.481,11.998-10.9633c0,0-3.6168,8.9924-11.998,10.9633Z" style="fill:#9C4F06;"></path><path d="M61.9218,294.7331s-.4354-16.481,11.998-10.9633c0,0-3.6168,8.9924-11.998,10.9633Z" style="fill:#fff; isolation:isolate; opacity:.4;"></path><path d="M68.3743,285.1866c3.4194-1.842,4.9383-1.6297,5.3903-1.477-12.2852-5.3163-11.8428,11.0235-11.8428,11.0235,0,0,2.2208-7.2806,6.4525-9.5465Z" style="fill:#fff; isolation:isolate; opacity:.3;"></path><path d="M61.4092,296.9836s-.5136-7.1332-4.8095-9.0105c0,0,.3296-1.4106,2.6001-1.2769,1.9138,3.0049,3.0774,6.4257,3.3929,9.9742l-1.1835,.3132Z" style="fill:#263238;"></path><path d="M61.4092,296.9836s-.5136-7.1332-4.8095-9.0105c0,0,.3296-1.4106,2.6001-1.2769,1.9138,3.0049,3.0774,6.4257,3.3929,9.9742l-1.1835,.3132Z" style="fill:#fff; isolation:isolate; opacity:.4;"></path><path d="M68.4953,291.1953c-2.3397,.5621-4.7387,2.4317-6.3951,4.8583-3.0556-1.186-6.444-1.5241-8.754-.8496-7.3058,2.1106-6.4477,11.5271-3.6249,16.9539,2.5396,4.8115,8.3349,13.1685,14.0612,12.2674,1.4535-.2263,3.1765-2.0183,4.5429-4.3681,2.0377,1.4553,4.173,2.2263,5.517,1.706,5.4238-2.0684,6.3437-12.1834,6.1534-17.6165-.1728-6.109-4.1069-14.7306-11.5005-12.9514Z" style="fill:#9C4F06;"></path><path d="M79.3584,299.8956c1.2984,5.026-1.5673,12.3822-5.5972,13.4486s-4.6217-3.1081-7.4858-2.3502-1.0172,6.9241-3.976,7.707c-2.9588,.783-5.1939-3.6912-6.8228-3.0512-1.0264,.4046-1.3161,2.0136-1.3853,3.14,2.79,3.3649,6.2451,6.1801,9.6912,5.6355,1.4535-.2263,3.1765-2.0183,4.5429-4.3681,2.0378,1.4553,4.1731,2.2263,5.5171,1.706,5.4237-2.0684,6.3436-12.1834,6.1533-17.6165-.0453-1.4371-.2592-2.8639-.6374-4.2511Z" style="isolation:isolate; opacity:.1;"></path><path d="M50.5383,308.8327s-2.1184-9.6086,1.6572-10.4874-1.3294,3.8534-1.6572,10.4874Z" style="fill:#fff; isolation:isolate; opacity:.2;"></path><path d="M59.1998,286.6962c-2.2705-.1337-2.6001,1.2769-2.6001,1.2769,0,0,2.7845,.4726,2.6001-1.2769Z" style="fill:#263238;"></path></g><g><g><path d="M62.6165,351.0436s-2.607-12.5418,8.7012-24.6099c0,0,5.5834-5.3811,13.0432-7.3919l1.3003,1.2208s-5.5946,8.0022-10.6686,17.1222c-4.3043,7.7366-8.2448,14.863-8.2448,14.863l-.6617,.4893-1.183,2.0584-2.8507-1.544,.5641-2.2079Z" style="fill:#9C4F06;"></path><path d="M66.0861,352.7371l-1.244-.6071s8.9002-20.6022,14.8718-26.5334l5.1229-6.1079,.8244,.7739c-5.1814,7.4992-10.269,16.3084-15.6456,26.0848-1.063,1.9326-2.1999,3.9095-3.2678,5.9004l-.6617,.4893Z" style="opacity:.3;"></path><path d="M65.2745,351.4574c4.21429-11.68547,10.88373-22.59961,19.36229-31.67863-8.24205,9.29054-14.85424,20.10587-19.36229,31.67863h0Z" style="fill:#263238;"></path><polygon points="64.9031 354.7955 62.0524 353.2515 62.6165 351.0436 66.0861 352.7371 64.9031 354.7955" style="fill:#263238;"></polygon></g><g><path d="M80.0137,358.099s-8.1539-9.8797-3.7764-25.8282c0,0,2.4306-7.3637,8.0926-12.6204l1.7194,.4737s-1.2185,9.6876-1.4553,20.1213c-.2007,8.8511-.3641,16.9927-.3641,16.9927l-.3573,.7414-.0869,2.3726-3.2418-.0368-.5302-2.2163Z" style="fill:#9C4F06;"></path><path d="M83.8726,357.9795l-1.3835,.0428s-1.7317-22.3755,.7857-30.4067l1.6844-7.7919,1.0901,.3004c-1.0874,9.0499-1.481,19.2151-1.6795,30.3706-.0394,2.2054-.1235,4.4843-.1399,6.7434l-.3573,.7414Z" style="opacity:.3;"></path><path d="M82.5579,357.22589c-1.71983-12.30257-.90821-25.06746,2.35966-37.0523-2.96001,12.06169-3.76704,24.71249-2.35966,37.0523h0Z" style="fill:#263238;"></path><polygon points="83.7857 360.3521 80.5439 360.3153 80.0137 358.099 83.8726 357.9795 83.7857 360.3521" style="fill:#263238;"></polygon></g><g><path d="M94.6658,357.3181s-11.2303-6.1622-13.0634-22.5987c0,0-.4661-7.7405,2.8494-14.719l1.7727-.1959s2.4518,9.4511,6.092,19.2321c3.0878,8.2973,5.9479,15.9219,5.9479,15.9219l-.0575,.8209,.797,2.2363-3.0254,1.1652-1.3127-1.8628Z" style="fill:#9C4F06;"></path><path d="M98.2069,355.7794l-1.2696,.5516s-9.8866-20.1474-10.5189-28.54l-1.3177-7.8623,1.1238-.1242c2.3377,8.8101,5.7326,18.3997,9.6752,28.8372,.7794,2.0634,1.5444,4.2117,2.3648,6.3168l-.0576,.8209Z" style="opacity:.3;"></path><path d="M96.7066,355.56561c-6.14925-10.79344-10.11745-22.95296-11.51524-35.29643,1.71224,12.30101,5.64249,24.35282,11.51524,35.29643h0Z" style="fill:#263238;"></path><polygon points="99.0039 358.0157 95.9785 359.1809 94.6658 357.3181 98.2069 355.7794 99.0039 358.0157" style="fill:#263238;"></polygon></g><g><path d="M110.431,349.3037s-12.788-.7471-21.497-14.8065c0,0-3.7424-6.7916-3.7424-14.5177l1.5171-.9377s6.2703,7.4845,13.7554,14.7573c6.3498,6.1695,12.2049,11.8291,12.2049,11.8291l.3003,.7662,1.6795,1.6779-2.2327,2.3507-1.9851-1.1193Z" style="fill:#9C4F06;"></path><path d="M112.9693,346.3944l-.91,1.043s-17.5757-13.9555-21.7483-21.265l-4.5641-6.536,.9618-.5946c5.8922,6.9547,13.0737,14.1597,21.1137,21.8955,1.5894,1.5293,3.2023,3.1415,4.8466,4.6909l.3003,.7662Z" style="opacity:.3;"></path><path d="M111.5224,346.845c-10.18595-7.11042-18.98803-16.39069-25.54748-26.94005,6.82524,10.37606,15.54683,19.5753,25.54748,26.94005h0Z" style="fill:#263238;"></path><polygon points="114.6488 348.0723 112.4161 350.423 110.431 349.3037 112.9693 346.3944 114.6488 348.0723" style="fill:#263238;"></polygon></g></g></g></g><g id="freepik--Character--inject-854"><g><g><path d="M261.41,249.7707c-2.52941,4.5089-7.46431,14.4474-10.44731,18.4201-.0076,0-.0246,.0305-.0185,.0423l-33.6744,4.1647-.3843,7.5916c8.86451,1.8814,30.273,3.3685,37.50051,2.943,2.20279-.1298,4.12259-2.7534,6.26229-4.7996,6.6439-7.6005,9.0783-14.4232,12.9821-22.1349v.0137c3.6152-8.1103-7.7942-13.9388-12.22039-6.2409Z" style="fill:#b97964;"></path><path d="M237.70929,282.4322s-5.9068-6.2856-4.8724-8.3304c1.0344-2.0447,7.2607-3.2567,10.1-4.3845,2.8394-1.1278,10.747,1.3039,10.747,1.3039l13.34211-2.5455v.695s-7.15491,11.7924-10.36161,12.3778c-2.06439,.3769-9.208-.9158-10.533-.9686-1.0366-.0413-3.34139,1.5497-4.6951,2.0904l-3.727-.2381Z" style="opacity:.2;"></path><g><path d="M207.563,269.9684s-9.07021,2.6498-9.479,3.7398c-.4087,1.0899,4.13879-.4294,4.13879-.4294l5.34021-3.3104Z" style="fill:#b97964;"></path><path d="M217.74809,272.1711s-8.4787-3.3865-10.18509-2.2027c-1.70631,1.1839-10.5731,4.8331-8.79891,7.0088,.2291,.2809,3.40491-.8177,3.5676-.5657,.17031,.264-1.8812,.9512-2.4158,1.9176-.69289,1.2529,2.2237,3.9812,3.7792,3.4812,3.4124-1.0968,5.9181-2.3667,5.9181-2.3667,0,0,5.0349,1.6906,7.8786,.3067,2.8436-1.3838,.2563-7.5792,.2563-7.5792Z" style="fill:#b97964;"></path><g><path d="M196.3592,267.8045c-4.8524-6.3646-4.8524-10.4884-4.8524-10.4884l8.7702,10.997h0l11.84929,14.8736c.3055,.2957,.3133,.783,.0176,1.0885-.2958,.3054-.783,.3133-1.0885,.0175-.04839-.0468-.09039-.0997-.125-.1575l-7.8767-9.8974c-2.6136-1.7077-4.8842-3.8897-6.6945-6.4333Z" style="fill:#263238;"></path><path d="M196.3592,267.8045c-4.8524-6.3646-4.8524-10.4884-4.8524-10.4884l8.7702,10.997h0l11.84929,14.8736c.3055,.2957,.3133,.783,.0176,1.0885-.2958,.3054-.783,.3133-1.0885,.0175-.04839-.0468-.09039-.0997-.125-.1575l-7.8767-9.8974c-2.6136-1.7077-4.8842-3.8897-6.6945-6.4333Z" style="fill:#fff; isolation:isolate; opacity:.4;"></path></g><path d="M215.33439,277.4424c-2.2361,.5761-4.7927-.4964-5.94839-2.4956-1.47051,1.0284-3.08741,1.8469-4.78661,2.4234-.4408,.1496-.955,.2753-1.3477,.0255-.4048-.2574-.5023-.8348-.3451-1.288,.1573-.4531,.5089-.8082,.8585-1.1365,1.6041-1.5062,3.4003-2.8074,5.3313-3.8622" style="fill:#b97964;"></path><path d="M214.09668,277.84668c-1.87646,0-3.75781-.96777-4.78564-2.54395-1.43311,.97266-2.98975,1.74805-4.63135,2.30371-.50391,.1709-1.08301,.30371-1.5625,0-.53516-.33984-.62988-1.05273-.44678-1.58105,.17529-.50488,.55273-.8877,.92383-1.23633,1.61865-1.52051,3.42969-2.83203,5.38232-3.89941,.11963-.06445,.27295-.02148,.33887,.09961,.06641,.12109,.02197,.27344-.09961,.33984-1.91504,1.0459-3.69141,2.33301-5.2793,3.8252-.32617,.30566-.65527,.63672-.79346,1.03516-.11768,.33887-.05908,.80371,.24219,.99512,.30273,.19238,.74365,.08203,1.13428-.05078,1.67969-.57031,3.26904-1.375,4.72363-2.3916,.05762-.03906,.12891-.05371,.19727-.03906,.06836,.01562,.12744,.05859,.16211,.11914,1.1001,1.90332,3.53711,2.92383,5.66943,2.37793,.13525-.03027,.27002,.04688,.30469,.17969,.03418,.13379-.0459,.27051-.17969,.30469-.42627,.10938-.86328,.16211-1.30029,.16211Z" style="opacity:.2;"></path></g></g><g><path d="M301.73849,460.7297c-.7102,0-1.3263-.5262-1.4214-1.2487l-12.9834-98.9394h-21.6169l-12.9834,98.9394c-.10339,.7856-.81139,1.3427-1.6105,1.2363-.7856-.1034-1.3397-.8239-1.2362-1.6105l13.1466-100.1881c.0931-.7144,.7029-1.2487,1.4234-1.2487h24.1371c.7205,0,1.3305,.5343,1.4235,1.2487l13.14671,100.1881c.10329,.7866-.45071,1.5071-1.23641,1.6105-.064,.0083-.1271,.0124-.1891,.0124Z" style="fill:#263238;"></path><path d="M338.05989,460.7297c-.7101,0-1.3262-.5262-1.4214-1.2487l-12.9833-98.9394h-21.617l-12.9833,98.9394c-.1034,.7856-.8125,1.3427-1.6106,1.2363-.7856-.1034-1.3396-.8239-1.23629-1.6105l13.14679-100.1881c.0929-.7144,.7028-1.2487,1.4234-1.2487h24.137c.7206,0,1.3304,.5343,1.4234,1.2487l13.1468,100.1881c.1033,.7866-.4507,1.5071-1.2363,1.6105-.0642,.0083-.1272,.0124-.1892,.0124Z" style="fill:#263238;"></path><path d="M278.98629,359.1064h47.8009c9.126,0,16.5757-7.2995,16.7614-16.4235l1.782-72.6477c.1393-6.8399-5.3674-12.4598-12.2088-12.4598h-29.9652c-6.2089,0-11.4294,4.659-12.1328,10.8278l-12.0375,90.7032Z" style="fill:#263238;"></path><path d="M278.98629,359.1064h47.8009c9.126,0,16.5757-7.2995,16.7614-16.4235l1.782-72.6477c.1393-6.8399-5.3674-12.4598-12.2088-12.4598h-29.9652c-6.2089,0-11.4294,4.659-12.1328,10.8278l-12.0375,90.7032Z" style="fill:#fff; opacity:.4;"></path><path d="M245.54649,347.8688h62.6586c1.5272,0,2.7671,1.2399,2.7671,2.7671v.8817c0,4.18837-3.40043,7.5888-7.5888,7.5888h-57.8369v-11.2376h0Z" transform="translate(556.51869 706.9752) rotate(180)" style="fill:#263238;"></path><path d="M245.54649,347.8688h62.6586c1.5272,0,2.7671,1.2399,2.7671,2.7671v.8817c0,4.18837-3.40043,7.5888-7.5888,7.5888h-57.8369v-11.2376h0Z" transform="translate(556.51869 706.9752) rotate(180)" style="fill:#fff; opacity:.4;"></path></g><g><path d="M263.615,234.3653c-3.37071,7.967-9.06061,22.3042-9.06061,22.3042l19.8969,2.5759s3.8579-14.7427,1.1306-19.696c-2.8423-5.1611-6.9103-9.9832-11.96689-5.1841Z" style="fill:#9C4F06;"></path><g style="opacity:.3;"><path d="M263.38719,243.6983c-.9037,2.0052-1.1683,3.1204-1.6289,5.3684-.4604,2.2479-.4192,6.2433-.373,8.3046l3.8466,.6775c-.6763-4.9731-1.1683-9.3773-1.8447-14.3505Z"></path></g><path d="M313.73939,253.3529l-1.1541-23.3393c-1.5884-3.475-18.2648-4.2621-18.1127-4.0948l-14.4795,1.274s-3.8764,.4285-7.8978,2.2311c-5.3686,2.4065-8.2206,4.1861-9.2177,7.4134,0,0-1.592,7.085,1.3052,21.0266,.7967,3.8338,7.0315,24.5783,6.65921,31.3481l-2.00191,7.086c3.3074,3.5274-.8478,14.5451,3.5121,15.0865,5.2436,.6512,41.8365-11.9502,41.8365-11.9502-1.379-3.0704-4.4151-9.8726-5.2166-12.9313-.08309-4.0024,.7524-6.7256,1.6921-13.8497,.1813-1.3751,2.651-17.9379,3.0752-19.3004Z" style="fill:#9C4F06;"></path><path d="M267.26689,269.7247s18.7275-2.3342,18.5547-2.3918,9.3296-11.806,9.3296-11.806l-6.8363,14.1978-20.5191,2.8489-.5289-2.8489Z" style="opacity:.2;"></path></g><path d="M294.312,182.2599c1.43259-1.0603,2.45779-2.6575,2.82509-4.4016-1.7,1.3044-3.2558,2.5522-5.6292,2.0905,2.72811-2.7058,2.4996-6.8936,.6715-8.898-1.828-2.0045-6.0523-2.2156-8.4018-.8593-2.3494,1.3563-3.6617,4.2117-3.3957,6.9116l7.1795,7.325c3.5953,1.4159,7.9817,.5389,10.7561-2.1504-1.32549,.1982-2.6816,.1922-4.00549-.0178Z" style="fill:#263238;"></path><path d="M292.06889,185.2382c-1.0697-1.4584-2.2773-2.8119-3.60989-4.002l-.01771-.0177-.00229-.0004c-6.407-5.7085-15.61371-7.2286-24.42861,.1128-5.1631,4.2999-8.7053,9.5122-7.8226,17.1983,.005,.0438,.0173,.0878,.0213,.1319,1.4263,15.43-.907,22.9537-2.3819,26.0217-.3706,.7708,.24381,1.6457,1.0953,1.5649,9.0572-.8584,43.6264-4.3561,45.7838-7.9239,2.2299-3.6876,.9976-20.7368-8.6374-33.0856Z" style="fill:#263238;"></path><g><path d="M295.27909,226.3235s-3.72109,3.3106-8.4785,8.0439c-.991,.986-2.09759,1.8567-3.2823,2.5992-3.1962,2.003-6.1527,3.2301-7.0877,1.6867-.2077-.339-.3754-.7104-.5079-1.1032-.8889-2.6326-.8736-6.4243,1.1711-8.3055,2.3054-2.1214,3.3648-3.8709,2.735-6.4736-.3384-1.4768-.9895-2.9797-1.7285-4.4319l2.7018-1.8975,9.3342-10.8767c-.7046,6.3092-.42129,17.4578,5.1428,20.7586Z" style="fill:#b97964;"></path><path d="M279.95219,223.3436c2.6496-1.8413,5.4817-4.9085,4.8843-8.1381-.2606-1.3592-.6492-2.637-1.03749-3.446l-5.08741,7.8452c.54741,1.1665,.7729,1.9473,1.2406,3.7389Z" style="opacity:.2;"></path><path d="M288.31479,192.2433c2.0675,10.2014,3.1547,14.4645-.408,21.2068-5.3586,10.1418-18.0051,11.0627-22.9971,1.8333-4.4932-8.3071-7.1194-23.5941,1.3767-30.6894,8.3704-6.9904,19.9607-2.5521,22.0284,7.6493Z" style="fill:#b97964;"></path></g><path d="M278.95909,198.965c.2662,1.0652-.0442,2.0983-.6933,2.3075-.6487,.2093-1.3903-.4844-1.6564-1.5495-.2663-1.0651,.044-2.0983,.6929-2.3076,.64871-.2093,1.3903,.4844,1.6568,1.5496Z" style="fill:#263238;"></path><path d="M267.48289,202.0263c.2558,1.0327-.0612,2.0393-.7081,2.2482-.64679,.2085-1.3787-.4594-1.6347-1.4923-.2556-1.0326,.0614-2.0392,.7083-2.248,.6468-.2088,1.37861,.4592,1.6345,1.4921Z" style="fill:#263238;"></path><path d="M277.39849,195.0514c-.1223,.052-.2616,.0537-.387-.0074-1.9541-.9576-3.5273,.056-3.54549,.0677-.233,.1509-.53461,.084-.67111-.1589-.1358-.2429-.0557-.5647,.1793-.7206,.0821-.0534,2.0559-1.328,4.481-.1389,.2417,.1186,.3385,.4278,.2164,.6903-.0593,.1263-.15859,.2191-.2731,.2678Z" style="fill:#263238;"></path><path d="M261.83649,198.2427c-.11-.0035-.2157-.053-.2921-.1487-.1578-.1979-.1329-.5165,.0551-.7116,1.8868-1.9561,3.8599-1.4908,3.9437-1.4692,.2352,.059,.36781,.3264,.2961,.5979-.07129,.2711-.3196,.4431-.5545,.3857-.0769-.0195-1.6131-.3547-3.1132,1.2011-.0971,.1005-.2187,.1487-.3351,.1448Z" style="fill:#263238;"></path><path d="M269.142,200.9551s-.43891,4.1822-1.49661,7.0244c-.1848,.4967,.1819,1.031,.7108,1.0635,1.3614,.0836,2.67381-.7549,2.67381-.7549l-1.888-7.333Z" style="fill:#a24e3f;"></path><path d="M277.68909,197.3466l-2.44,.145s1.7556,1.3256,2.44-.145Z" style="fill:#263238;"></path><path d="M266.08989,200.4874l-2.4402,.1449s1.7556,1.3258,2.4402-.1449Z" style="fill:#263238;"></path><path d="M285.89689,196.7065s-7.4331-6.1737-9.041-12.4961c0,0-10.5695,.3836-15.2564,13.172-.7466,2.0369-.6574,5.0344-1.0549,7.7615,0,0-7.5358-18.3302,8.76341-24.9052,16.27319-6.5648,26.61829,15.9792,20.82669,26.3455,0,0,.3802-6.0047-4.2378-9.8777Z" style="fill:#263238;"></path><path d="M293.745,199.4345c-.56211,2.3879-2.08441,4.238-3.70041,5.2002-2.4304,1.447-5.0544-2.3715-4.9469-5.2734,.0969-2.6126,2.2089-4.9558,4.9215-5.2059,2.6725-.2462,4.3686,2.5488,3.72581,5.2791Z" style="fill:#b97964;"></path><g><path d="M272.23609,211.6c1.2782,.9842,2.4855,2.057,3.6131,3.2104l.7052-.4924c3.1327-2.254,3.8424-4.3372,3.6908-6.0271-.1047-.7923-.3917-1.5496-.8383-2.2124-.2424-.3838-.5385-.731-.8792-1.031-.9464,2.195-3.7109,4.5244-5.22569,5.7039-.64961,.5652-1.06591,.8486-1.06591,.8486Z" style="fill:#263238;"></path><path d="M273.29689,210.79l1.0903,.9157c2.8942-2.1294,4.7392-4.0213,5.0146-5.5888-.2424-.3838-.5384-.731-.8792-1.0309-.9499,2.2205-3.7213,4.6012-5.2257,5.704Z" style="fill:#fff;"></path><path d="M276.55439,214.318c3.1328-2.254,3.8424-4.3372,3.6908-6.0271-1.2,.8629-2.2291,1.9413-3.0351,3.1801-.5143,.8558-.7437,1.8526-.6557,2.847Z" style="fill:#a24e3f;"></path></g><path d="M290.59238,195.9906c-1.18042-.29573-2.35913,.33559-2.96113,1.35352-.66593,1.12603-.60965,2.47968-.31667,3.71067,.1117,.46934,.83507,.27063,.72321-.19938-.23454-.98544-.31987-2.08077,.17033-3.00641,.41644-.78635,1.27197-1.36391,2.18487-1.1352,.46828,.11732,.66805-.6058,.19938-.72321h0Z" style="opacity:.3;"></path><g><g><rect x="152.374" y="283.6038" width="196.466" height="11.2162" style="fill:#263238;"></rect><rect x="162.8488" y="294.82" width="8.4227" height="167.1708" style="fill:#263238;"></rect><rect x="326.02069" y="294.82" width="8.4227" height="167.1708" style="fill:#263238;"></rect></g><rect x="326.02069" y="294.82" width="8.4227" height="2.1152" style="isolation:isolate; opacity:.3;"></rect><rect x="162.8488" y="294.8392" width="8.4227" height="2.1152" style="isolation:isolate; opacity:.3;"></rect></g><g><g><path d="M297.39039,249.7707c-2.5295,4.5089-7.46439,14.4474-10.4473,18.4201-.0076,0-.0246,.0305-.0185,.0423l-33.6744,4.1647-.3843,7.5916c8.8645,1.8814,30.273,3.3685,37.5005,2.943,2.2027-.1298,4.12261-2.7534,6.2623-4.7996,6.6439-7.6005,9.0782-14.4232,12.9821-22.1349v.0137c3.61521-8.1103-7.7942-13.9388-12.2204-6.2409Z" style="fill:#b97964;"></path><path d="M243.54339,269.9684s-9.0703,2.6498-9.4791,3.7398c-.4086,1.0899,4.1389-.4294,4.1389-.4294l5.3402-3.3104Z" style="fill:#b97964;"></path></g><path d="M315.49849,236.7892c.6192,8.1773-2.1533,21.208-2.1533,21.208l-19.6071-8.256s4.83891-12.7196,9.38891-17.759c3.85609-4.2489,10.92219-5.6856,12.37149,4.807Z" style="fill:#9C4F06;"></path><g><path d="M249.28879,283.2108c-.0689,.6969-.4474,1.0117-1.201,.8642l-14.1323-18.8261,1.201-.8642,14.1323,18.8261Z" style="fill:#e0e0e0;"></path><path d="M230.86819,256.5922l3.8339,5.9081-.6479,.4662-4.2296-5.6235-.6602,.4751,4.0103,5.7812-.648,.4662-4.427-5.4813-.6043,.4348,4.4018,6.1177c.91981,1.2783,2.5655,1.6669,3.6757,.8681,1.1103-.7989,1.2647-2.4827,.345-3.761l-4.5153-6.0361-.5344,.3845Z" style="fill:#e0e0e0;"></path></g><path d="M254.04919,272.299s-8.7994-3.5144-10.5058-2.3306c-1.70639,1.1839-10.5731,4.8331-8.799,7.0088,.2292,.2809,3.405-.8177,3.5677-.5657,.1703,.264-1.8812,.9512-2.4158,1.9176-.6929,1.2529,2.22371,3.9812,3.7791,3.4812,3.4125-1.0968,5.9182-2.3667,5.9182-2.3667,0,0,5.0349,1.6906,7.8786,.3067,2.8436-1.3838,.577-7.4513,.577-7.4513Z" style="fill:#b97964;"></path><path d="M294.69259,250.1431c.2795,.1177,16.5856,9.1023,16.5856,9.1023l.7322-1.8103-17.3178-7.292Z" style="opacity:.2;"></path></g><g><g><path d="M178.7276,426.9057l11.0642,.3167s19.7495-38.0228,29.2334-59.3466c11.2062-25.196,8.7392-33.311,12.1002-33.4581,6.2054-.2715,69.52761,28.8427,85.3904,12.6955,15.8628-16.1473-7.0847-55.061-7.0847-55.061,0,0-35.3456-5.4589-38.2285,3.1641-.7058,2.5481-2.2463,5.1811-2.6168,7.7989-.4266,2.5857-1.2875,6.4066-1.2875,6.4066h0c-.8375-.2094-25.061-2.5544-40.0967-2.2099-9.0581,.2076-17.1255,5.7086-20.73,14.0214-13.5907,31.3426-27.744,105.6724-27.744,105.6724Z" style="fill:#b97964;"></path><path d="M290.18859,351.0045s-2.5857,0-42.663-1.8098c0,0,5.5027,12.9941,7.0342,39.7573,.6299,11.0083-1.127,46.6684,.2507,62.4487-.6976,.9842-8.0631,4.2474-12.5552,.9506,0,0-26.0028-93.8356-25.7442-106.5697,.2586-12.7343,15.0225-16.4834,15.0225-16.4834,0,0,28.4419,16.4834,58.655,21.7063Z" style="fill:#b97964;"></path><path d="M252.91039,340.5069c-5.4853-2.2117-10.8745-4.6516-16.1536-7.3131-9.16-4.6184-20.4223,1.324-21.283,11.5462-.0287,.3403-.0475,.6875-.0562,1.0416-.1292,5.1713,4.4873,24.5634,11.0935,45.6493-.17109-1.2485-.4085-2.4871-.711-3.7104-6.5546-26.3347-9.8383-40.0126-6.5546-46.3862,2.2091-3.9599,5.7156-7.0372,9.9288-8.7136l35.8109,17.4531c19.7284,.8661,22.676,.9049,23.0251,.9049-12.0319-2.262-23.7954-5.7716-35.0999-10.4718Z" style="isolation:isolate; opacity:.2;"></path><g><path d="M240.38069,447.0249c-.0442-.5688,.4446-1.0404,1.0151-1.0404h3.3699c.8508-.0206,1.7767,1.4983,2.296,2.1727,2.2397,2.9088,3.8421,1.7502,6.1334-1.0906,1.495-.2109,1.9401,1.4999,2.0736,1.9593l3.0574,10.1566c.2648,.8478-.208,1.7498-1.056,2.0145-.1507,.0471-.3076,.0718-.4656,.0731-4.5659,.1102-6.7261,.1624-12.409,.2994l-17.3801,.4193c-4.7377,.1143-5.8349-4.6365-3.894-5.1255,8.7291-2.1511,14.8811-4.8835,17.532-7.5019,.3707-.3457-.1915-1.2929-.2727-2.3365Z" style="fill:#9C4F06;"></path><path d="M242.12744,452.67578c-.08057,0-.16016-.03906-.2085-.11133-.68555-1.0332-1.83008-1.73145-3.06201-1.87012-.13721-.01465-.23584-.13867-.2207-.27539,.01514-.1377,.14014-.23828,.27637-.2207,1.37695,.15332,2.65674,.93457,3.42334,2.08887,.07617,.11523,.04492,.27051-.07031,.34668-.04248,.02832-.09033,.04199-.13818,.04199Z" style="fill:#fff;"></path><path d="M239.68701,454.19238c-.08057,0-.16016-.03906-.2085-.11133-.68506-1.03223-1.83008-1.73145-3.0625-1.87109-.13721-.01465-.23584-.13867-.2207-.27637,.01562-.13672,.14893-.23145,.27637-.21973,1.37793,.15527,2.65771,.93652,3.42383,2.08984,.07617,.11523,.04492,.27051-.07031,.34668-.04248,.02832-.09033,.04199-.13818,.04199Z" style="fill:#fff;"></path><path d="M236.6709,455.74121c-.08057,0-.16016-.03906-.2085-.11133-.68555-1.0332-1.83008-1.73145-3.06201-1.87012-.13721-.01465-.23584-.13867-.2207-.27539,.01514-.1377,.14209-.23926,.27637-.2207,1.37695,.15332,2.65674,.93457,3.42334,2.08887,.07617,.11523,.04492,.27051-.07031,.34668-.04248,.02832-.09033,.04199-.13818,.04199Z" style="fill:#fff;"></path></g><g><path d="M179.2645,419.4937l3.5381,1.2753c.8006,.2885,1.3952,.9604,1.6355,1.7769,1.036,3.522,2.9488,3.0213,6.1125,1.2016,1.4701,.3441,1.2663,2.1,1.2246,2.5767l-.823,10.5748c-.0598,.8862-.8268,1.5561-1.7131,1.4963-.1576-.0106-.3128-.0445-.4606-.1003-4.2967-1.5488-6.3295-2.2815-11.6772-4.209l-16.3552-5.8952c-4.4583-1.607-3.7629-6.4331-1.7765-6.187,8.9161,1.1518,15.6399,.8294,19.0584-.6529,.6251-.25,.2523-.7399,1.2365-1.8572Z" style="fill:#9C4F06;"></path><path d="M178.13086,425.08105c-.11523,0-.21875-.0791-.24414-.19629-.26562-1.21094-1.08008-2.27637-2.17822-2.84961-.12256-.06445-.16992-.21484-.10596-.33789,.06494-.12109,.21533-.16992,.3374-.10547,1.22754,.6416,2.13818,1.83203,2.43506,3.18555,.02979,.13477-.05566,.26855-.19043,.29785-.01807,.00391-.03613,.00586-.05371,.00586Z" style="fill:#fff;"></path><path d="M175.33545,425.46973c-.11523,0-.21875-.08008-.24414-.19629-.26562-1.21094-1.08008-2.27734-2.17871-2.85059-.12256-.06445-.16992-.21484-.10596-.33789,.06494-.12207,.21533-.16895,.3374-.10547,1.22803,.6416,2.13867,1.83301,2.43555,3.18652,.02979,.13477-.05566,.26855-.19043,.29785-.01807,.00391-.03613,.00586-.05371,.00586Z" style="fill:#fff;"></path><path d="M172.09814,425.875c-.11523,0-.21875-.0791-.24414-.19629-.26562-1.20996-1.08008-2.27539-2.17871-2.85059-.12256-.06445-.16992-.21484-.10596-.33789,.06494-.12109,.21729-.16992,.3374-.10547,1.22803,.64258,2.13867,1.83398,2.43555,3.18652,.02979,.13477-.05566,.26855-.19043,.29785-.01807,.00391-.03613,.00586-.05371,.00586Z" style="fill:#fff;"></path></g></g><path d="M310.08449,289.7821s-24.68949,.8746-39.24249-.5701c-.70581,2.5479-3.582,11.3497-3.95251,13.9675-.4266,2.5857-.8452,4.6579-.8452,4.6579h0l-4.2438,.024-3.8234,37.2608c21.0858,6.7743,49.0365,11.6354,58.5516,1.9781,15.8369-16.1086-6.4442-57.3182-6.4442-57.3182Z" style="fill:#263238;"></path><path d="M253.34889,349.5178l.6075-8.9851c11.3025,4.7061,23.06661,8.2159,35.1,10.4718" style="fill:#263238;"></path><path d="M266.04429,307.8633l22.314,4.6541s-12.2121-6.6229-21.4688-9.312c-.4266,2.6373-.8452,4.6579-.8452,4.6579Z" style="isolation:isolate; opacity:.3;"></path><path d="M268.20519,297.978s.8326-3.158,.9425-3.158h43.4178l2.0517,4.6495-46.412-1.4915Z" style="isolation:isolate; opacity:.3;"></path></g></g></g></svg>
