<svg xmlns="http://www.w3.org/2000/svg" viewBox="0 0 500 500"><g id="freepik--background-simple--inject-328"><path d="M490.61,243.05c-5.36,45.36-26.08,98.11-67.45,122.34C360.65,402,365.89,458.34,243.87,482.83a251.24,251.24,0,0,1-54.09,5.11,208.69,208.69,0,0,1-26.56-2.17C85.68,474.44,33.5,420.54,14.35,355.48c-25.19-85.58,25.11-141.6,58.46-175.35S130.58,41.2,250.33,16.19a242.63,242.63,0,0,1,55.6-5.28c42.61,1,89.08,15,121.24,44.24,2.42,2.19,4.76,4.46,7.05,6.81C478.92,107.84,497.91,181.2,490.61,243.05Z" style="fill:#9C4F06"></path><path d="M490.61,243.05c-5.36,45.36-26.08,98.11-67.45,122.34C360.65,402,365.89,458.34,243.87,482.83a251.24,251.24,0,0,1-54.09,5.11,208.69,208.69,0,0,1-26.56-2.17C85.68,474.44,33.5,420.54,14.35,355.48c-25.19-85.58,25.11-141.6,58.46-175.35S130.58,41.2,250.33,16.19a242.63,242.63,0,0,1,55.6-5.28c42.61,1,89.08,15,121.24,44.24,2.42,2.19,4.76,4.46,7.05,6.81C478.92,107.84,497.91,181.2,490.61,243.05Z" style="fill:#fff;opacity:0.7000000000000001"></path></g><g id="freepik--Floor--inject-328"><line x1="490.38" y1="452.84" x2="10.5" y2="452.84" style="fill:none;stroke:#263238;stroke-miterlimit:10"></line></g><g id="freepik--Windows--inject-328"><path d="M180.26,171.26l-11.27,56c-5.06,25.15-25.11,45.53-44.78,45.53H110.15c-.58,0-1.15,0-1.73-.05-18.61-1.17-29.64-21.07-24.72-45.48l11.25-56c4.9-24.33,23.83-44.19,42.87-45.47q1-.06,1.92-.06h14C173.47,125.73,185.31,146.12,180.26,171.26Z" style="fill:none;stroke:#263238;stroke-miterlimit:10"></path><path d="M160.11,189.15,153,219.37c-3.19,13.57-16.77,24.57-30.34,24.57H113q-.6,0-1.2,0c-12.85-.63-20.69-11.37-17.59-24.54l7.09-30.22c3.09-13.13,15.9-23.85,29-24.54q.66,0,1.32,0h9.69C154.88,164.58,163.29,175.58,160.11,189.15Z" style="fill:#fff;stroke:#263238;stroke-miterlimit:10"></path><path d="M147.9,189.15l-7.1,30.22c-3.08,13.13-15.9,23.85-29,24.54-12.85-.63-20.69-11.37-17.59-24.54l7.09-30.22c3.09-13.13,15.9-23.85,29-24.54C143.16,165.24,151,176,147.9,189.15Z" style="fill:#fff;stroke:#263238;stroke-miterlimit:10"></path><path d="M341.45,171.26l-11.27,56c-5.06,25.15-25.11,45.53-44.78,45.53h-14c-.58,0-1.16,0-1.74-.05C251,271.57,240,251.67,244.89,227.26l11.25-56C261,146.93,280,127.07,299,125.79q1-.06,1.92-.06H315C334.66,125.73,346.51,146.12,341.45,171.26Z" style="fill:none;stroke:#263238;stroke-miterlimit:10"></path><path d="M321.3,189.15l-7.1,30.22c-3.19,13.57-16.77,24.57-30.34,24.57h-9.69q-.6,0-1.2,0c-12.85-.63-20.69-11.37-17.59-24.54l7.09-30.22c3.09-13.13,15.91-23.85,29-24.54q.66,0,1.32,0h9.69C316.07,164.58,324.49,175.58,321.3,189.15Z" style="fill:#fff;stroke:#263238;stroke-miterlimit:10"></path><path d="M309.09,189.15,302,219.37c-3.08,13.13-15.9,23.85-29,24.54-12.85-.63-20.69-11.37-17.59-24.54l7.09-30.22c3.09-13.13,15.91-23.85,29-24.54C304.35,165.24,312.18,176,309.09,189.15Z" style="fill:#fff;stroke:#263238;stroke-miterlimit:10"></path><path d="M464.92,171.26l-11.27,56c-5.07,25.15-25.11,45.53-44.79,45.53H394.81c-.58,0-1.16,0-1.73-.05-18.62-1.17-29.64-21.07-24.72-45.48l11.25-56c4.9-24.33,23.83-44.19,42.87-45.47q1-.06,1.92-.06h14.05C458.13,125.73,470,146.12,464.92,171.26Z" style="fill:none;stroke:#263238;stroke-miterlimit:10"></path><path d="M444.77,189.15l-7.1,30.22c-3.2,13.57-16.77,24.57-30.34,24.57h-9.69q-.6,0-1.2,0c-12.85-.63-20.69-11.37-17.59-24.54l7.09-30.22c3.09-13.13,15.9-23.85,29-24.54q.66,0,1.32,0H426C439.54,164.58,448,175.58,444.77,189.15Z" style="fill:#fff;stroke:#263238;stroke-miterlimit:10"></path><path d="M432.56,189.15l-7.1,30.22c-3.08,13.13-15.91,23.85-29,24.54-12.85-.63-20.69-11.37-17.59-24.54l7.09-30.22c3.09-13.13,15.9-23.85,29-24.54C427.82,165.24,435.65,176,432.56,189.15Z" style="fill:#fff;stroke:#263238;stroke-miterlimit:10"></path><path d="M87.13,122.3S56.71,227.8,50.88,301.58c0,0,0,.12-.05.33a22,22,0,0,0,21.73,25.56h78.38a30.39,30.39,0,0,0,30.26-27.33,982.93,982.93,0,0,1,36-179.78" style="fill:none;stroke:#263238;stroke-miterlimit:10"></path><path d="M243.76,122.3s-30.42,105.5-36.25,179.28c0,0,0,.12-.06.33a22,22,0,0,0,21.74,25.56h74.52a34.71,34.71,0,0,0,34.51-31.08,984.47,984.47,0,0,1,35.63-176" style="fill:none;stroke:#263238;stroke-miterlimit:10"></path><line x1="31.85" y1="120.69" x2="462.36" y2="120.69" style="fill:none;stroke:#263238;stroke-miterlimit:10"></line><line x1="42.19" y1="111" x2="472.7" y2="111" style="fill:none;stroke:#263238;stroke-miterlimit:10"></line><line x1="85.5" y1="55.4" x2="466.24" y2="55.4" style="fill:none;stroke:#263238;stroke-miterlimit:10"></line><path d="M156.6,55.16S144,91.48,95.54,110.87" style="fill:none;stroke:#263238;stroke-miterlimit:10"></path><path d="M305.44,55.16s-12.57,36.32-61.05,55.71" style="fill:none;stroke:#263238;stroke-miterlimit:10"></path><path d="M454.28,55.16s-12.57,36.32-61,55.71" style="fill:none;stroke:#263238;stroke-miterlimit:10"></path><path d="M253.74,70.29H210.07c-1.94,0-2.84-1.57-2-3.52h0a6.09,6.09,0,0,1,5-3.52H256.8c1.94,0,2.83,1.58,2,3.52h0A6.1,6.1,0,0,1,253.74,70.29Z" style="fill:none;stroke:#263238;stroke-miterlimit:10"></path><path d="M398.48,70.29H354.81c-1.94,0-2.84-1.57-2-3.52h0a6.09,6.09,0,0,1,5.05-3.52h43.67c1.94,0,2.83,1.58,2,3.52h0A6.1,6.1,0,0,1,398.48,70.29Z" style="fill:none;stroke:#263238;stroke-miterlimit:10"></path><path d="M107.86,114.21s-2.73,4.24-3.94,4.85" style="fill:none;stroke:#263238;stroke-miterlimit:10"></path><path d="M110.28,114.21s-2.72,4.24-3.94,4.85" style="fill:none;stroke:#263238;stroke-miterlimit:10"></path><path d="M112.71,114.21s-2.73,4.24-3.94,4.85" style="fill:none;stroke:#263238;stroke-miterlimit:10"></path><path d="M115.13,114.21s-2.73,4.24-3.94,4.85" style="fill:none;stroke:#263238;stroke-miterlimit:10"></path><path d="M117.55,114.21s-2.72,4.24-3.93,4.85" style="fill:none;stroke:#263238;stroke-miterlimit:10"></path><path d="M120,114.21s-2.73,4.24-3.94,4.85" style="fill:none;stroke:#263238;stroke-miterlimit:10"></path><path d="M122.4,114.21s-2.73,4.24-3.94,4.85" style="fill:none;stroke:#263238;stroke-miterlimit:10"></path><path d="M124.82,114.21s-2.72,4.24-3.93,4.85" style="fill:none;stroke:#263238;stroke-miterlimit:10"></path><path d="M127.25,114.21s-2.73,4.24-3.94,4.85" style="fill:none;stroke:#263238;stroke-miterlimit:10"></path><path d="M129.67,114.21s-2.72,4.24-3.94,4.85" style="fill:none;stroke:#263238;stroke-miterlimit:10"></path><path d="M132.1,114.21s-2.73,4.24-3.94,4.85" style="fill:none;stroke:#263238;stroke-miterlimit:10"></path><path d="M134.52,114.21s-2.73,4.24-3.94,4.85" style="fill:none;stroke:#263238;stroke-miterlimit:10"></path><path d="M136.94,114.21s-2.72,4.24-3.94,4.85" style="fill:none;stroke:#263238;stroke-miterlimit:10"></path><path d="M139.37,114.21s-2.73,4.24-3.94,4.85" style="fill:none;stroke:#263238;stroke-miterlimit:10"></path><path d="M141.79,114.21s-2.73,4.24-3.94,4.85" style="fill:none;stroke:#263238;stroke-miterlimit:10"></path><path d="M144.21,114.21s-2.72,4.24-3.93,4.85" style="fill:none;stroke:#263238;stroke-miterlimit:10"></path><path d="M146.64,114.21s-2.73,4.24-3.94,4.85" style="fill:none;stroke:#263238;stroke-miterlimit:10"></path><path d="M149.06,114.21s-2.73,4.24-3.94,4.85" style="fill:none;stroke:#263238;stroke-miterlimit:10"></path><path d="M151.48,114.21s-2.72,4.24-3.93,4.85" style="fill:none;stroke:#263238;stroke-miterlimit:10"></path><path d="M153.91,114.21s-2.73,4.24-3.94,4.85" style="fill:none;stroke:#263238;stroke-miterlimit:10"></path><path d="M156.33,114.21s-2.72,4.24-3.94,4.85" style="fill:none;stroke:#263238;stroke-miterlimit:10"></path><path d="M158.76,114.21s-2.73,4.24-3.94,4.85" style="fill:none;stroke:#263238;stroke-miterlimit:10"></path><path d="M161.18,114.21s-2.73,4.24-3.94,4.85" style="fill:none;stroke:#263238;stroke-miterlimit:10"></path><path d="M163.6,114.21s-2.72,4.24-3.94,4.85" style="fill:none;stroke:#263238;stroke-miterlimit:10"></path><path d="M166,114.21s-2.73,4.24-3.94,4.85" style="fill:none;stroke:#263238;stroke-miterlimit:10"></path><path d="M168.45,114.21s-2.73,4.24-3.94,4.85" style="fill:none;stroke:#263238;stroke-miterlimit:10"></path><path d="M170.87,114.21s-2.72,4.24-3.93,4.85" style="fill:none;stroke:#263238;stroke-miterlimit:10"></path><path d="M173.3,114.21s-2.73,4.24-3.94,4.85" style="fill:none;stroke:#263238;stroke-miterlimit:10"></path><path d="M175.72,114.21s-2.73,4.24-3.94,4.85" style="fill:none;stroke:#263238;stroke-miterlimit:10"></path><path d="M178.14,114.21s-2.72,4.24-3.93,4.85" style="fill:none;stroke:#263238;stroke-miterlimit:10"></path><path d="M180.57,114.21s-2.73,4.24-3.94,4.85" style="fill:none;stroke:#263238;stroke-miterlimit:10"></path><path d="M183,114.21s-2.72,4.24-3.94,4.85" style="fill:none;stroke:#263238;stroke-miterlimit:10"></path><path d="M185.42,114.21s-2.73,4.24-3.94,4.85" style="fill:none;stroke:#263238;stroke-miterlimit:10"></path><path d="M187.84,114.21s-2.73,4.24-3.94,4.85" style="fill:none;stroke:#263238;stroke-miterlimit:10"></path><path d="M190.26,114.21s-2.72,4.24-3.94,4.85" style="fill:none;stroke:#263238;stroke-miterlimit:10"></path><path d="M192.69,114.21s-2.73,4.24-3.94,4.85" style="fill:none;stroke:#263238;stroke-miterlimit:10"></path><path d="M195.11,114.21s-2.73,4.24-3.94,4.85" style="fill:none;stroke:#263238;stroke-miterlimit:10"></path><path d="M197.53,114.21s-2.72,4.24-3.93,4.85" style="fill:none;stroke:#263238;stroke-miterlimit:10"></path><path d="M200,114.21s-2.73,4.24-3.94,4.85" style="fill:none;stroke:#263238;stroke-miterlimit:10"></path><path d="M202.38,114.21s-2.73,4.24-3.94,4.85" style="fill:none;stroke:#263238;stroke-miterlimit:10"></path><path d="M204.81,114.21s-2.73,4.24-3.94,4.85" style="fill:none;stroke:#263238;stroke-miterlimit:10"></path><path d="M207.23,114.21s-2.73,4.24-3.94,4.85" style="fill:none;stroke:#263238;stroke-miterlimit:10"></path><path d="M209.65,114.21s-2.72,4.24-3.94,4.85" style="fill:none;stroke:#263238;stroke-miterlimit:10"></path><path d="M264.49,114.21s-2.73,4.24-3.94,4.85" style="fill:none;stroke:#263238;stroke-miterlimit:10"></path><path d="M266.91,114.21s-2.73,4.24-3.94,4.85" style="fill:none;stroke:#263238;stroke-miterlimit:10"></path><path d="M269.33,114.21s-2.72,4.24-3.93,4.85" style="fill:none;stroke:#263238;stroke-miterlimit:10"></path><path d="M271.76,114.21s-2.73,4.24-3.94,4.85" style="fill:none;stroke:#263238;stroke-miterlimit:10"></path><path d="M274.18,114.21s-2.72,4.24-3.94,4.85" style="fill:none;stroke:#263238;stroke-miterlimit:10"></path><path d="M276.61,114.21s-2.73,4.24-3.94,4.85" style="fill:none;stroke:#263238;stroke-miterlimit:10"></path><path d="M279,114.21s-2.73,4.24-3.94,4.85" style="fill:none;stroke:#263238;stroke-miterlimit:10"></path><path d="M281.45,114.21s-2.72,4.24-3.94,4.85" style="fill:none;stroke:#263238;stroke-miterlimit:10"></path><path d="M283.88,114.21s-2.73,4.24-3.94,4.85" style="fill:none;stroke:#263238;stroke-miterlimit:10"></path><path d="M286.3,114.21s-2.73,4.24-3.94,4.85" style="fill:none;stroke:#263238;stroke-miterlimit:10"></path><path d="M288.72,114.21s-2.72,4.24-3.93,4.85" style="fill:none;stroke:#263238;stroke-miterlimit:10"></path><path d="M291.15,114.21s-2.73,4.24-3.94,4.85" style="fill:none;stroke:#263238;stroke-miterlimit:10"></path><path d="M293.57,114.21s-2.73,4.24-3.94,4.85" style="fill:none;stroke:#263238;stroke-miterlimit:10"></path><path d="M296,114.21s-2.73,4.24-3.94,4.85" style="fill:none;stroke:#263238;stroke-miterlimit:10"></path><path d="M298.42,114.21s-2.73,4.24-3.94,4.85" style="fill:none;stroke:#263238;stroke-miterlimit:10"></path><path d="M300.84,114.21s-2.72,4.24-3.94,4.85" style="fill:none;stroke:#263238;stroke-miterlimit:10"></path><path d="M303.27,114.21s-2.73,4.24-3.94,4.85" style="fill:none;stroke:#263238;stroke-miterlimit:10"></path><path d="M305.69,114.21s-2.73,4.24-3.94,4.85" style="fill:none;stroke:#263238;stroke-miterlimit:10"></path><path d="M308.11,114.21s-2.72,4.24-3.93,4.85" style="fill:none;stroke:#263238;stroke-miterlimit:10"></path><path d="M310.54,114.21s-2.73,4.24-3.94,4.85" style="fill:none;stroke:#263238;stroke-miterlimit:10"></path><path d="M313,114.21s-2.73,4.24-3.94,4.85" style="fill:none;stroke:#263238;stroke-miterlimit:10"></path><path d="M315.38,114.21s-2.72,4.24-3.93,4.85" style="fill:none;stroke:#263238;stroke-miterlimit:10"></path><path d="M317.81,114.21s-2.73,4.24-3.94,4.85" style="fill:none;stroke:#263238;stroke-miterlimit:10"></path><path d="M320.23,114.21s-2.72,4.24-3.94,4.85" style="fill:none;stroke:#263238;stroke-miterlimit:10"></path><path d="M322.66,114.21s-2.73,4.24-3.94,4.85" style="fill:none;stroke:#263238;stroke-miterlimit:10"></path><path d="M325.08,114.21s-2.73,4.24-3.94,4.85" style="fill:none;stroke:#263238;stroke-miterlimit:10"></path><path d="M327.5,114.21s-2.72,4.24-3.94,4.85" style="fill:none;stroke:#263238;stroke-miterlimit:10"></path><path d="M329.93,114.21s-2.73,4.24-3.94,4.85" style="fill:none;stroke:#263238;stroke-miterlimit:10"></path><path d="M332.35,114.21s-2.73,4.24-3.94,4.85" style="fill:none;stroke:#263238;stroke-miterlimit:10"></path><path d="M334.77,114.21s-2.72,4.24-3.93,4.85" style="fill:none;stroke:#263238;stroke-miterlimit:10"></path><path d="M337.2,114.21s-2.73,4.24-3.94,4.85" style="fill:none;stroke:#263238;stroke-miterlimit:10"></path><path d="M339.62,114.21s-2.73,4.24-3.94,4.85" style="fill:none;stroke:#263238;stroke-miterlimit:10"></path><path d="M342,114.21s-2.72,4.24-3.93,4.85" style="fill:none;stroke:#263238;stroke-miterlimit:10"></path><path d="M344.47,114.21s-2.73,4.24-3.94,4.85" style="fill:none;stroke:#263238;stroke-miterlimit:10"></path><path d="M346.89,114.21s-2.72,4.24-3.94,4.85" style="fill:none;stroke:#263238;stroke-miterlimit:10"></path><path d="M349.32,114.21s-2.73,4.24-3.94,4.85" style="fill:none;stroke:#263238;stroke-miterlimit:10"></path><path d="M351.74,114.21s-2.73,4.24-3.94,4.85" style="fill:none;stroke:#263238;stroke-miterlimit:10"></path><path d="M354.16,114.21s-2.72,4.24-3.94,4.85" style="fill:none;stroke:#263238;stroke-miterlimit:10"></path><path d="M356.59,114.21s-2.73,4.24-3.94,4.85" style="fill:none;stroke:#263238;stroke-miterlimit:10"></path><path d="M359,114.21s-2.73,4.24-3.94,4.85" style="fill:none;stroke:#263238;stroke-miterlimit:10"></path><path d="M361.43,114.21s-2.72,4.24-3.93,4.85" style="fill:none;stroke:#263238;stroke-miterlimit:10"></path><path d="M363.86,114.21s-2.73,4.24-3.94,4.85" style="fill:none;stroke:#263238;stroke-miterlimit:10"></path><path d="M366.28,114.21s-2.73,4.24-3.94,4.85" style="fill:none;stroke:#263238;stroke-miterlimit:10"></path><path d="M407.18,114.21s-2.73,4.24-3.94,4.85" style="fill:none;stroke:#263238;stroke-miterlimit:10"></path><path d="M409.6,114.21s-2.72,4.24-3.93,4.85" style="fill:none;stroke:#263238;stroke-miterlimit:10"></path><path d="M412,114.21s-2.73,4.24-3.94,4.85" style="fill:none;stroke:#263238;stroke-miterlimit:10"></path><path d="M414.45,114.21s-2.73,4.24-3.94,4.85" style="fill:none;stroke:#263238;stroke-miterlimit:10"></path><path d="M416.88,114.21s-2.73,4.24-3.94,4.85" style="fill:none;stroke:#263238;stroke-miterlimit:10"></path><path d="M419.3,114.21s-2.73,4.24-3.94,4.85" style="fill:none;stroke:#263238;stroke-miterlimit:10"></path><path d="M421.72,114.21s-2.72,4.24-3.94,4.85" style="fill:none;stroke:#263238;stroke-miterlimit:10"></path><path d="M424.15,114.21s-2.73,4.24-3.94,4.85" style="fill:none;stroke:#263238;stroke-miterlimit:10"></path><path d="M426.57,114.21s-2.73,4.24-3.94,4.85" style="fill:none;stroke:#263238;stroke-miterlimit:10"></path><path d="M429,114.21s-2.72,4.24-3.94,4.85" style="fill:none;stroke:#263238;stroke-miterlimit:10"></path><path d="M431.42,114.21s-2.73,4.24-3.94,4.85" style="fill:none;stroke:#263238;stroke-miterlimit:10"></path><path d="M433.84,114.21s-2.73,4.24-3.94,4.85" style="fill:none;stroke:#263238;stroke-miterlimit:10"></path><path d="M436.26,114.21s-2.72,4.24-3.93,4.85" style="fill:none;stroke:#263238;stroke-miterlimit:10"></path><path d="M438.69,114.21s-2.73,4.24-3.94,4.85" style="fill:none;stroke:#263238;stroke-miterlimit:10"></path><path d="M441.11,114.21s-2.73,4.24-3.94,4.85" style="fill:none;stroke:#263238;stroke-miterlimit:10"></path><path d="M443.54,114.21s-2.73,4.24-3.94,4.85" style="fill:none;stroke:#263238;stroke-miterlimit:10"></path><path d="M446,114.21s-2.73,4.24-3.94,4.85" style="fill:none;stroke:#263238;stroke-miterlimit:10"></path><path d="M448.38,114.21s-2.72,4.24-3.94,4.85" style="fill:none;stroke:#263238;stroke-miterlimit:10"></path><path d="M450.81,114.21s-2.73,4.24-3.94,4.85" style="fill:none;stroke:#263238;stroke-miterlimit:10"></path><path d="M453.23,114.21s-2.73,4.24-3.94,4.85" style="fill:none;stroke:#263238;stroke-miterlimit:10"></path><path d="M455.65,114.21s-2.72,4.24-3.93,4.85" style="fill:none;stroke:#263238;stroke-miterlimit:10"></path><path d="M458.08,114.21s-2.73,4.24-3.94,4.85" style="fill:none;stroke:#263238;stroke-miterlimit:10"></path><path d="M460.5,114.21s-2.73,4.24-3.94,4.85" style="fill:none;stroke:#263238;stroke-miterlimit:10"></path><path d="M462.92,114.21s-2.72,4.24-3.93,4.85" style="fill:none;stroke:#263238;stroke-miterlimit:10"></path><path d="M465.35,114.21s-2.73,4.24-3.94,4.85" style="fill:none;stroke:#263238;stroke-miterlimit:10"></path><path d="M467.77,114.21s-2.72,4.24-3.94,4.85" style="fill:none;stroke:#263238;stroke-miterlimit:10"></path><path d="M470.2,114.21s-2.73,4.24-3.94,4.85" style="fill:none;stroke:#263238;stroke-miterlimit:10"></path><path d="M472.62,114.21s-2.73,4.24-3.94,4.85" style="fill:none;stroke:#263238;stroke-miterlimit:10"></path><path d="M475,114.21s-2.72,4.24-3.94,4.85" style="fill:none;stroke:#263238;stroke-miterlimit:10"></path><path d="M477.47,114.21s-2.73,4.24-3.94,4.85" style="fill:none;stroke:#263238;stroke-miterlimit:10"></path></g><g id="freepik--Device--inject-328"><rect x="149.33" y="305.49" width="292.02" height="147.12" style="fill:#8a8a8a;stroke:#263238;stroke-miterlimit:10"></rect><rect x="149.33" y="305.49" width="292.02" height="7.33" style="fill:#a1a1a1;stroke:#263238;stroke-miterlimit:10"></rect><rect x="149.33" y="365.47" width="292.02" height="7.33" style="fill:#a1a1a1;stroke:#263238;stroke-miterlimit:10"></rect><rect x="226.36" y="305.49" width="215" height="7.7" style="fill:#263238;stroke:#263238;stroke-miterlimit:10"></rect><rect x="154.62" y="232.81" width="84.13" height="72.34" style="fill:#a1a1a1;stroke:#263238;stroke-miterlimit:10"></rect><rect x="123.67" y="232.81" width="30.95" height="220.02" style="fill:#ccc;stroke:#263238;stroke-miterlimit:10"></rect><rect x="162.59" y="239.66" width="68.2" height="58.64" style="fill:#263238;stroke:#263238;stroke-miterlimit:10"></rect><rect x="167.69" y="244.05" width="57.99" height="49.86" style="fill:#9C4F06;stroke:#263238;stroke-miterlimit:10"></rect><polygon points="206.86 267.65 191.05 260.17 191.05 275.14 206.86 267.65" style="fill:#fff;stroke:#263238;stroke-miterlimit:10"></polygon><rect x="169.67" y="287.46" width="53.86" height="2.52" style="fill:#fff;stroke:#263238;stroke-miterlimit:10"></rect><rect x="171.35" y="288.13" width="2.36" height="1.35" style="fill:#263238;stroke:#263238;stroke-miterlimit:10"></rect></g><g id="freepik--character-2--inject-328"><path d="M361.85,186.8s-7.85,10.31-8.52,12.84a26.32,26.32,0,0,0-.7,5.64s-7.22,7.16-7,8.46,3.64,5.2,3.64,5.2.11,11.36,1,13.84a5.21,5.21,0,0,0,4.33,3.65c1.37,0,6-.64,6-.64l1.44,10.27,26.17-11.2.74-5s11.1-8.84,13.54-19.9-8.51-20.85-13.3-24.37-15.11-7.3-23.62-5.36-8.68,3.6-6.73,5.3S361.85,186.8,361.85,186.8Z" style="fill:#fff;stroke:#263238;stroke-miterlimit:10"></path><path d="M384.1,217.66c-2,6.25-3.41,8-3.41,8s2.17,5.73,4.48,5.1c1.72-.46,3.69-1.2,4.6-1.55,2.54-2.22,10.72-9.95,12.78-19.26,2.45-11.07-8.51-20.85-13.3-24.37s-15.11-7.3-23.62-5.36-8.68,3.6-6.73,5.3,3,1.3,3,1.3,5.36,2.88,7.65,2.63,12.7-1.09,11.32-.72-9.14,2.36-8.83,3.51-2.94,7.86-2.42,9.33,3.54,4.36,3.54,4.36-2,7.61-1.29,8,3.31-1,3.31-1,2.94-3.77,4.55-4.2S386.12,211.42,384.1,217.66Z" style="fill:#263238;stroke:#263238;stroke-miterlimit:10"></path><path d="M356,203.12a4.32,4.32,0,0,1,5.31,1.29" style="fill:none;stroke:#263238;stroke-miterlimit:10"></path><path d="M358.54,208.46c-.27,1.18-1,2-1.63,1.88s-1-1.21-.68-2.4,1-2,1.63-1.89S358.8,207.27,358.54,208.46Z" style="fill:#263238"></path><path d="M352.65,220.87s5.05,1.73,8.28-.51" style="fill:none;stroke:#263238;stroke-miterlimit:10"></path><polygon points="360.66 235.79 367.25 234.5 361.56 240 360.66 235.79" style="fill:#263238;stroke:#263238;stroke-miterlimit:10"></polygon><path d="M383.89,218.71a7.14,7.14,0,0,1-3.72,4.1,6.85,6.85,0,0,1-5.45,0" style="fill:#fff;stroke:#263238;stroke-miterlimit:10"></path><path d="M255.61,357.61a29.13,29.13,0,0,1-7.5-6.54c-2.87-3.82-8.3-10.53-10.85-8.93s-1.76,11.33-.32,16.75,5.74,9.89,7,11,4.63,5.58,7,7,5.74,3.35,6.86,3,6.06-1.76,5.42-7.66S255.61,357.61,255.61,357.61Z" style="fill:#263238;stroke:#263238;stroke-miterlimit:10"></path><path d="M310.72,301.34s-10.37-8.46-15.64-7.18A14,14,0,0,0,285,303.09c-1.12,3.67-19.55,46.12-19.55,46.12s-9.41,12.6-9.73,13.72-1.6,5.42,1.11,8.93,4.95,2.71,4.95,2.71S243.87,410,243.07,411.89s-3,3-3.83,4.63l-2.55,5.1s-10.37,3.51-13.56,4.95-13.56,2.23-15.47,2.07-4.79.32-4.95,2.88,3.19,4.14,7.82,6.54,21.38,7.65,27.6,8.61,9.73,2.39,12.44,1.44,5.11-5.11,5.43-6.54,5.1-12.77,5.1-12.77,4.15-3.67,4.31-4.78.16-9.1.16-9.1l16.11-28.39,24.57-36.22a80.54,80.54,0,0,0,37,10.05c21.86.64,37.65-.32,42.91-4.94s5.75-12.61,5.75-12.61L376.6,334.2Z" style="fill:#263238;stroke:#263238;stroke-miterlimit:10"></path><path d="M358.88,249.23A17.72,17.72,0,0,0,357,254a19.29,19.29,0,0,0,0,3.38s-4.22,5.24-4.73,8.11,0,10.31,0,10.31l12.51-23.49S361.75,247.88,358.88,249.23Z" style="fill:#9C4F06;stroke:#263238;stroke-miterlimit:10"></path><path d="M388.24,232.12s-30.2,14.41-29.36,17.11a56.31,56.31,0,0,0,2.37,5.92s28.68-19.82,28.85-20.5S388.24,232.12,388.24,232.12Z" style="fill:#fff;stroke:#263238;stroke-miterlimit:10"></path><path d="M283.43,276l-4.52,1.78,19.58,11.09,8.63,8.49,6.16-2.87-17.66-17.8C295.21,276.31,283.43,276,283.43,276Z" style="fill:#fff;stroke:#263238;stroke-miterlimit:10"></path><path d="M286,273.43l-7,2.19s17.52,8.9,18.89,10,10.82,12.05,10.82,12.05l3.83-1.1s-12.32-13.83-15.74-16.7S286,273.43,286,273.43Z" style="fill:#fff;stroke:#263238;stroke-miterlimit:10"></path><path d="M301.09,268.78s-10.54.82-14.37,1.91-5.34,1.65-5.34,1.65l12.87,8.76,17.25,16.57s11.23-1,10.81-1.92S301.09,268.78,301.09,268.78Z" style="fill:#9C4F06;stroke:#263238;stroke-miterlimit:10"></path><path d="M326.83,305.74s-5.61-9.17-6.43-10.54-8.9-3.7-9.45-4-2.6-2.74-3.83-1.92.68,2.88.68,2.88-7.39-.55-7.94.68.82,2.33,1.37,2.6,3,8.36,4,9.31,11.09,2.88,11.09,2.88l7.26,4.52Z" style="fill:#fff;stroke:#263238;stroke-miterlimit:10"></path><path d="M325.46,301a16.62,16.62,0,0,1-2.19-1.78c-1-1-3.28-5.61-3.28-5.61s-1.65-1-3-1.78-2.87-2.06-2.19-4.11,2.19-.27,2.74.14,6.44,2.6,7.12,3.28,3.7,4.93,3.7,4.93l-1.23,6.3" style="fill:#fff;stroke:#263238;stroke-miterlimit:10"></path><polygon points="350.11 297.12 328.34 296.02 325.74 305.74 346.82 316.15 350.11 297.12" style="fill:#263238;stroke:#263238;stroke-miterlimit:10"></polygon><path d="M390.27,233.47s-29.36,22-31.56,25.73-8.79,19.94-10,22.31-6.47,29.36-6.47,29.36-8.28,1.52-7.94,2.71,9.8,18.92,11,22.47,12,10,17.06,9.63,29.58-.84,29.58-.84,14.79-60.63,15-64.69-4.19-28.49-9.26-34.4A44.77,44.77,0,0,1,390.27,233.47Z" style="fill:#263238;stroke:#263238;stroke-miterlimit:10"></path><polyline points="391.62 240.51 362.64 264.08 358.5 266.31 358.82 270.45 350.54 287.64" style="fill:none;stroke:#fff;stroke-miterlimit:10"></polyline><path d="M384.18,257.47s-7.43,0-12.33,4.22-10.48,11.83-11,17.41S352.72,306,352.72,306s-3.21-1.86-4.22-1.86a6.63,6.63,0,0,0-2.2.51L325.46,301l-8.16,11.41s23.28,18.45,27.85,20.65,11.15,4.9,13.69,2.87,26.36-35.66,28.05-39.37,9.8-15.21,10.81-17.58" style="fill:#263238;stroke:#263238;stroke-miterlimit:10"></path><path d="M363,274.63c-2.85,11.41-7.19,31.5-7.19,31.5l-7.26-2" style="fill:none;stroke:#fff;stroke-miterlimit:10"></path><path d="M371.85,261.69s-5,0-7.11,6.4c-.27.79-.61,2-1,3.43" style="fill:none;stroke:#fff;stroke-miterlimit:10"></path><path d="M329.27,321.2c-5.66-3.42-9.85-6.09-9.85-6.09" style="fill:none;stroke:#fff;stroke-miterlimit:10"></path><path d="M388.7,292C382,304,368.35,328,365.16,331.78c-4.27,5.13-1.11,3.07-6.32,4.1-3,.6-15.63-6.38-25.79-12.41" style="fill:none;stroke:#fff;stroke-miterlimit:10"></path><path d="M392.52,285.19l-2.1,3.75" style="fill:none;stroke:#fff;stroke-miterlimit:10"></path><path d="M266.62,363.2c5.69-11.61,18.17-36.89,20-38.73,2.39-2.39,10.21-3.19,10.21-3.19" style="fill:none;stroke:#fff;stroke-miterlimit:10"></path><path d="M263.81,369l1.71-3.51" style="fill:none;stroke:#fff;stroke-miterlimit:10"></path><line x1="306.16" y1="331.69" x2="308.96" y2="335.16" style="fill:none;stroke:#fff;stroke-miterlimit:10"></line><line x1="290.77" y1="312.66" x2="304.12" y2="329.17" style="fill:none;stroke:#fff;stroke-miterlimit:10"></line><path d="M426.63,315.66,407,312.47a4.21,4.21,0,0,1-3.48-4.82l10.07-62A14.13,14.13,0,0,1,429.82,234h0a14.13,14.13,0,0,1,11.69,16.22l-10.06,62A4.21,4.21,0,0,1,426.63,315.66Z" style="fill:#ccc;stroke:#263238;stroke-miterlimit:10"></path><rect x="395.88" y="313.54" width="28.28" height="81.15" rx="3.31" transform="translate(62.02 -61.1) rotate(9.22)" style="fill:#ccc;stroke:#263238;stroke-miterlimit:10"></rect><path d="M281.45,362.09H434.06a0,0,0,0,1,0,0v84.83a0,0,0,0,1,0,0H275.71a0,0,0,0,1,0,0V367.83A5.74,5.74,0,0,1,281.45,362.09Z" style="fill:#9e9e9e;stroke:#263238;stroke-miterlimit:10"></path><rect x="278.54" y="446.92" width="152.13" height="5.66" style="fill:#919191;stroke:#263238;stroke-miterlimit:10"></rect><path d="M290.84,332.4h0a6.08,6.08,0,0,0-6.08,6.08v23.61h12.16V338.48A6.08,6.08,0,0,0,290.84,332.4Z" style="fill:#9e9e9e;stroke:#263238;stroke-miterlimit:10"></path><rect x="296.92" y="338.48" width="137.14" height="23.61" style="fill:#ccc;stroke:#263238;stroke-miterlimit:10"></rect><rect x="434.11" y="232.81" width="30.95" height="220.02" style="fill:#ccc;stroke:#263238;stroke-miterlimit:10"></rect></g><g id="freepik--character-1--inject-328"><path d="M88,329.2s4.42,10.17,3.54,13.27-7.3,24.33-6.64,40.25-3.54,52.2-3.54,56.84-.22,7.3,2,9.07,10.18,0,12.61-.22,7.41,2.76,12.06,2.54,7.74-2.65,5.75-3.76-13.61-11.39-14.93-13.6-2-2-2.22-4.64,2.59-29.16,5.22-41.84c1.58-7.58,7.39-27.17,9.16-34.25s3.1-22.56,3.1-22.56Z" style="fill:#8a8a8a;stroke:#263238;stroke-linecap:round;stroke-linejoin:round"></path><path d="M113.8,447.19c-.86-.48-3.52-2.42-6.36-4.64a3.07,3.07,0,0,1-.35,2.18c-1,1.48-7.2-.94-13-3.74a36.24,36.24,0,0,0-12.63-3.57c-.07,1-.11,1.7-.11,2.14,0,4.65-1.77,7,.44,8.79s11.73.28,14.16.06,7.41,2.76,12.06,2.54S115.79,448.3,113.8,447.19Z" style="fill:#263238;stroke:#263238;stroke-linecap:round;stroke-linejoin:round"></path><path d="M81.44,448.24l.36,2.9c-.61,1.14,6.45,2.35,11.34.72l-.17-3S83.22,448.63,81.44,448.24Z" style="fill:#263238;stroke:#263238;stroke-linecap:round;stroke-linejoin:round"></path><path d="M107.27,329l1.55,14.59a88.07,88.07,0,0,0,1.77,42c6.63,22.56,14.6,49.1,15.26,50.42s-2,12-1.33,13.05S138,452.61,140,453.5s7.08.44,11.73-.23,8.18-.88,6.63-3.31-7.3-2.66-9.29-5.53-8.84-10.4-10.84-14.16-7.07-34.94-9.06-48.88.88-30.74.44-37.15-.89-11.28-.89-12.17S107.27,329,107.27,329Z" style="fill:#8a8a8a;stroke:#263238;stroke-linecap:round;stroke-linejoin:round"></path><path d="M124.52,449.07v4a13.12,13.12,0,0,0,4.65,1.33h4l.66-2.21Z" style="fill:#263238;stroke:#263238;stroke-linecap:round;stroke-linejoin:round"></path><path d="M152.11,446.64a9,9,0,0,1-2.15,1.77c-1.77.88-6-.22-10-1.55-3.27-1.09-11.63-4.87-14.49-6.18-.56,3.49-1.39,7.72-1,8.39.67,1.11,13.49,3.54,15.48,4.43s7.08.44,11.73-.23,8.18-.88,6.63-3.31C157.34,448.36,154.51,447.71,152.11,446.64Z" style="fill:#263238;stroke:#263238;stroke-linecap:round;stroke-linejoin:round"></path><polygon points="131.9 206.04 144.08 207.9 143.24 219.07 130.54 219.24 131.9 206.04" style="fill:#9C4F06;stroke:#263238;stroke-linecap:round;stroke-linejoin:round"></polygon><path d="M101.52,139.21S86.92,151.15,84.27,154s4.2,61,4.2,61l-.88,4s-3.76,3.32-8.85,17-6.19,26.54-4.64,37.38,6,61.93,6,61.93H135.8s-5.31-48.22-6-54.41-.44-28.31-.44-33,1.77-16.59,1.77-22.12,2.43-19.91,2.65-21.68,4.62-18.34,4.42-21.23-11.35-25.71-10.65-27.45-4.38-7.05-6.38-7.94S101.52,139.21,101.52,139.21Z" style="fill:#9C4F06;stroke:#263238;stroke-linecap:round;stroke-linejoin:round"></path><path d="M120.68,260.71c.32,1.26.58,2.5.77,3.72" style="fill:none;stroke:#263238;stroke-linecap:round;stroke-linejoin:round"></path><path d="M107.68,233.71S116,245.86,119.88,258" style="fill:none;stroke:#263238;stroke-linecap:round;stroke-linejoin:round"></path><path d="M120.17,248.27c2.8,5.15,5.78,11.28,6,14.57" style="fill:none;stroke:#263238;stroke-linecap:round;stroke-linejoin:round"></path><path d="M115.09,239.53s1.48,2.37,3.36,5.67" style="fill:none;stroke:#263238;stroke-linecap:round;stroke-linejoin:round"></path><ellipse cx="112.25" cy="169.84" rx="5.64" ry="2.99" style="fill:#fff;stroke:#263238;stroke-linecap:round;stroke-linejoin:round"></ellipse><line x1="130.7" y1="195.6" x2="118.07" y2="203.43" style="fill:none;stroke:#263238;stroke-linecap:round;stroke-linejoin:round"></line><line x1="130.2" y1="198.88" x2="118.07" y2="205.19" style="fill:none;stroke:#263238;stroke-linecap:round;stroke-linejoin:round"></line><path d="M100,137.68s-3.84,9.19-3.84,12.36S96,162.56,96,162.56s8.69-4.17,11-5.67,10.52-4.18,10.52-4.18l18.54,9.19s-7.18-12.53-9.52-14.36a31,31,0,0,0-5.84-3.34Z" style="fill:#fff;stroke:#263238;stroke-linecap:round;stroke-linejoin:round"></path><path d="M145.79,103.78s2.17,8.35.16,13-2.67,8.52-2.34,10.69,2,3.17,1,4.51-2.34,2-2.84,1.83a12.56,12.56,0,0,0-1.51-.33,27.88,27.88,0,0,1-5,8.51c-3.33,3.68-6,3.18-7.34,2.51a45.57,45.57,0,0,1-4.68-3.34l-2.34,4.51-18.7-14.86,3-10.36s-3.84-11.69-3.84-18.53,7.51-13,9.68-13.86,20,4.84,26.55,7.68S145.79,103.78,145.79,103.78Z" style="fill:#fff;stroke:#263238;stroke-linecap:round;stroke-linejoin:round"></path><path d="M142.28,99.11a50.13,50.13,0,0,1-15.2,13c-10,5.68-14.53,4.68-14.53,4.68s-1.67,3.34-4.5,3.51l-2.84.16s-2,4.68-6,5.68-18.36-9.35-14.36-19.7S101.37,102,101.37,102A9.74,9.74,0,0,1,104,93.6a24.72,24.72,0,0,1,7-5.51C112.72,87.08,140.78,96.6,142.28,99.11Z" style="fill:#263238;stroke:#263238;stroke-linecap:round;stroke-linejoin:round"></path><path d="M146.29,105.45l9.85-6.84s-13.69-23-23.71-25.55-24.72,3.34-24.89,5.67,1,10.69,1,10.69a30,30,0,0,1,11.35,1.51c5.51,2,19.37,6.34,21,8.34S146.29,105.45,146.29,105.45Z" style="fill:#9C4F06;stroke:#263238;stroke-linecap:round;stroke-linejoin:round"></path><path d="M107.61,81.09c0,.63.1,1.31.17,2,5.66-.85,16-1.66,23.73,1.89,8.47,3.87,16.44,12.65,20,16.87l1.65-1.15c-3.53-4.3-11.73-13.41-20.77-17.54C124.08,79.39,113.51,80.19,107.61,81.09Z" style="fill:#fff;stroke:#263238;stroke-linecap:round;stroke-linejoin:round"></path><path d="M140.11,121.65c-.37,1.24-1.13,2.11-1.71,1.94s-.74-1.32-.37-2.55,1.12-2.11,1.7-1.94S140.47,120.41,140.11,121.65Z" style="fill:#263238"></path><path d="M137.44,116.14s4.67-3.67,6.17.67" style="fill:none;stroke:#263238;stroke-linecap:round;stroke-linejoin:round"></path><path d="M131.93,129s0,3.67,4.34,5.51" style="fill:none;stroke:#263238;stroke-linecap:round;stroke-linejoin:round"></path><path d="M118.23,116.31s-.33-6.51-4.34-5.85-3.17,6.52-2,11,5.84,3.34,6.84,2" style="fill:#fff;stroke:#263238;stroke-linecap:round;stroke-linejoin:round"></path><path d="M110.72,147.7s6.68,9.69,11.35,17.54a133.83,133.83,0,0,1,7.52,14.52s-.84-14.86-2.17-19.37S123.58,150,123.58,150Z" style="fill:#fff;stroke:#263238;stroke-linecap:round;stroke-linejoin:round"></path><path d="M101.37,128.5s-3.18,8.35-2.51,9.68,17.37,14.2,18.7,14.53,2.68.34,3-.67,3.34-7.18,2.84-8.51-19.71-15.37-20.37-16S102.37,126.66,101.37,128.5Z" style="fill:#263238;stroke:#263238;stroke-linecap:round;stroke-linejoin:round"></path><path d="M122.57,147.7s4.85-1.67,7.85-.5,11.52,5.18,12,5.18-6.68.5-9.52.5-9.35-2.84-9.35-2.84a19,19,0,0,1,4,5.51,51,51,0,0,1,3.68,11c.16,1-5.68-5.84-7.52-9.18a43.74,43.74,0,0,1-3-7.18Z" style="fill:#263238;stroke:#263238;stroke-linecap:round;stroke-linejoin:round"></path><path d="M143.86,208.58s6.09-3,7.78-3,7.44,3,8,3.21,5.25.34,4.23,2.2-3.38,1.36-3.89,1.36-16.39.79-16.39.79Z" style="fill:#fff;stroke:#263238;stroke-linecap:round;stroke-linejoin:round"></path><polygon points="181.9 211.57 181.9 193.68 180.43 193.68 180.43 211.57 173.19 211.57 173.19 212.56 189.62 212.56 189.62 211.57 181.9 211.57" style="fill:#fff;stroke:#263238;stroke-linecap:round;stroke-linejoin:round"></polygon><path d="M181.17,195.75h0a7.68,7.68,0,0,1-7.68-7.68l2.3-17.92h10.75l2.3,17.92A7.67,7.67,0,0,1,181.17,195.75Z" style="fill:#fff;stroke:#263238;stroke-linecap:round;stroke-linejoin:round"></path><path d="M176.68,174.56l-1.51,12.73a6.26,6.26,0,0,0,6,6.5h0a6.26,6.26,0,0,0,6-6.5l-1.51-12.73Z" style="fill:#9C4F06"></path><polygon points="196.62 216.55 147.21 216.55 141.38 213.15 202.45 213.15 196.62 216.55" style="fill:#a1a1a1;stroke:#263238;stroke-miterlimit:10"></polygon><path d="M141.32,214.05h61.19a.74.74,0,0,0,.73-.74h0a.73.73,0,0,0-.73-.73H141.32a.73.73,0,0,0-.73.73h0A.74.74,0,0,0,141.32,214.05Z" style="fill:#a1a1a1;stroke:#263238;stroke-miterlimit:10"></path><path d="M129,212.42s10.17-4.65,11.05-4.87a16.48,16.48,0,0,1,7.3,1.11c2.44,1.1,6.64-.44,6.64,1.55s-.67,2.21-2.21,2.21h-8c-.88,0,9.17,3.25,9.17,3.25s6.86.88,6.86,2.87-2.86.82-4.63,1.05-2.57.69-3.24.69-3.73,3.42-7.49,4.08-8.19,0-8.85-.44-5.75-2-5.75-2l-2.65-.22v-9.07Z" style="fill:#fff;stroke:#263238;stroke-linecap:round;stroke-linejoin:round"></path><path d="M94.66,146.07s-10.83,5.08-12.16,6-10.64,5.68-12.39,28.75c-1,13.33-3.31,41.8-3.31,43.57s3.54,0,12.82,0,49.57.63,49.57.63l1.35-13.7-40.3-9,6-28.53" style="fill:#9C4F06;stroke:#263238;stroke-linecap:round;stroke-linejoin:round"></path><path d="M88.53,202.16s-5.31.26-9.1,6.07" style="fill:none;stroke:#263238;stroke-linecap:round;stroke-linejoin:round"></path></g></svg>
