<svg xmlns="http://www.w3.org/2000/svg" viewBox="0 0 750 500"><g id="freepik--background-complete--inject-946"><g><g><path d="M654.66589,428.9055l1.4729,12.4225v.0025l.0954,.806h0c.2777,2.3375,2.2597,4.0981,4.6136,4.0981h31.0184c2.3604,0,4.3455-1.7698,4.6155-4.1147l.1176-1.0212,.1056-.9167,.3682-3.2009,.1133-.9683,.0721-.6334,.0953-.8241,.8524-7.3983,.0927-.8086,1.68411-14.6293v-.0024l.098-.8421,.78779-6.8371c0-2.42-49.154-2.42-49.154,0l.5769,4.8594,.0926,.7879,1.0585,8.9177,.0926,.7725,.6902,5.8198,.0979,.8344,.2574,2.1683,.085,.708Z" style="fill:#ebebeb;"></path><path d="M698.42579,404.9705c0,.64-10.0387,1.1591-22.4223,1.1591s-22.4222-.5191-22.4222-1.1591c0-.6401,10.0389-1.1589,22.4222-1.1589s22.4223,.5188,22.4223,1.1589Z" style="fill:#e0e0e0;"></path><g><path d="M677.49469,386.0707s-6.8936,1.0803-16.1718-9.962l6.2859,.5744-9.1235-4.3031c-9.5898-14.3923-7.6431-39.1574-7.6431-39.1574,0,0,7.0635,5.8919,13.6431,15.4533l1.6351,8.8766,.8497-5.0294c5.0475,8.3385,11.1451,22.0317,10.5246,33.5476Z" style="fill:#ebebeb;"></path><path d="M678.288,364.0527s6.95789-.5235,13.46739-13.3937l-5.9883,1.9955,7.899-6.274c6.0472-16.203-1.50709-39.8679-1.50709-39.8679,0,0-5.53031,7.35-9.75091,18.162l.4364,9.0152-1.9764-4.7019c-3.0083,9.271-5.8159,23.9954-2.58009,35.0648Z" style="fill:#ebebeb;"></path><path d="M671.12639,338.2174s5.6431-4.1038,4.4128-18.474l-4.0444,4.8461,3.4199-9.4901c-3.3759-16.9619-22.2449-33.1191-22.2449-33.1191,0,0-.8394,9.1597,1.2557,20.5757l5.11151,7.4389-4.15341-2.9602c2.3158,9.4676,7.67,23.4685,16.2428,31.1827Z" style="fill:#ebebeb;"></path><path d="M676.84649,397.794s6.7729,1.6781,16.98-8.5115l-6.3122,.023,9.4646-3.4899c10.81-13.5,11.0332-38.3402,11.0332-38.3402,0,0-7.55109,5.2524-14.9404,14.2028l-2.404,8.6997-.4075-5.0842c-5.7561,7.8656-13.0264,20.9741-13.4137,32.5003Z" style="fill:#ebebeb;"></path></g></g><path d="M675.06159,405.2077h2.027c3.279-23.3017,1.2316-43.0509-1.1224-55.6815-2.6454-14.192-6.1387-22.4921-6.2861-22.8385-.2173-.5102-.8076-.7477-1.3169-.5308-.5103,.2173-.7479,.8067-.5308,1.3169,.0353,.0829,3.5544,8.443,6.1599,22.4201,2.3358,12.5331,4.3668,32.1582,1.0693,55.3138Z" style="fill:#e0e0e0;"></path></g><g><g><rect x="442.36189" y="256.6882" width="37.5492" height="157.9331" transform="translate(922.27298 671.3095) rotate(180)" style="fill:#f0f0f0;"></rect><rect x="56.8109" y="414.6213" width="415.89049" height="7.4525" transform="translate(529.51229 836.6951) rotate(180)" style="fill:#f0f0f0;"></rect><rect x="49.6013" y="256.6882" width="392.76059" height="157.9331" style="fill:#f5f5f5;"></rect><path d="M427.59349,356.3695H64.3698c-.7451,0-1.3493-.6402-1.3493-1.4298v-38.5721c0-.7897,.6042-1.4298,1.3493-1.4298h48.2331c.5155,0,.9857,.3112,1.2122,.8017,.2265,.4908,.1692,1.0752-.1473,1.5063-.1088,.148-.2383,.3909-.2383,.7078,0,.6557,.5718,1.2095,1.2487,1.2095H377.285c.677,0,1.24889-.5538,1.24889-1.2095,0-.3169-.1295-.5598-.2383-.7078-.3165-.4311-.3738-1.0155-.1474-1.5063,.2265-.4905,.6967-.8017,1.2122-.8017h48.2331c.7453,0,1.3493,.6401,1.3493,1.4298v38.5721c0,.7896-.604,1.4298-1.3493,1.4298Zm-361.87429-2.8597H426.24419v-35.7123h-45.0146c.002,.0518,.0028,.1039,.0028,.1561,0,2.2437-1.7706,4.0692-3.94739,4.0692H114.6782c-2.1765,0-3.9473-1.8255-3.9473-4.0692,0-.0522,.0009-.1043,.0028-.1561h-45.0145v35.7123Z" style="fill:#fff;"></path><path d="M427.59349,401.974H64.3698c-.7451,0-1.3493-.6401-1.3493-1.4299v-38.572c0-.7896,.6042-1.4298,1.3493-1.4298h48.2465c.5239,0,1.0005,.3215,1.2224,.8246,.2218,.5031,.1489,1.0966-.1873,1.5226-.1431,.1811-.2219,.4188-.2219,.6686,0,.6745,.5602,1.2232,1.2487,1.2232H377.285c.68879,0,1.24889-.5487,1.24889-1.2232,0-.2498-.0787-.4873-.2218-.6684-.3362-.4259-.4094-1.0196-.1877-1.5228,.2219-.503,.6984-.8246,1.2225-.8246h48.2466c.7453,0,1.3493,.6402,1.3493,1.4298v38.572c0,.7898-.604,1.4299-1.3493,1.4299Zm-361.87429-2.8596H426.24419v-35.7124h-45.0146c.002,.0519,.0028,.104,.0028,.1561,0,2.2513-1.7706,4.0829-3.94739,4.0829H114.6782c-2.1765,0-3.9473-1.8316-3.9473-4.0829,0-.0521,.0009-.1042,.0028-.1561h-45.0145v35.7124Z" style="fill:#fff;"></path><path d="M427.59349,310.7656H64.3698c-.7451,0-1.3493-.6401-1.3493-1.4299v-38.572c0-.7897,.6042-1.4299,1.3493-1.4299h48.2331c.5193,0,.9924,.3157,1.2168,.8119s.1602,1.085-.1652,1.5137c-.1472,.1943-.225,.428-.225,.6758,0,.6744,.5602,1.2232,1.2487,1.2232H377.285c.68879,0,1.24889-.5488,1.24889-1.2232,0-.2478-.07789-.4815-.2251-.6758-.3254-.4287-.3895-1.0175-.1652-1.5137,.22441-.4962,.6976-.8119,1.2168-.8119h48.2331c.7453,0,1.3493,.6402,1.3493,1.4299v38.572c0,.7898-.604,1.4299-1.3493,1.4299Zm-361.87429-2.8597H426.24419v-35.7124h-45.0141c.0016,.0472,.0023,.0943,.0023,.1417,0,2.2513-1.7706,4.0828-3.94739,4.0828H114.6782c-2.1765,0-3.9473-1.8315-3.9473-4.0828,0-.0474,.0007-.0945,.0023-.1417h-45.014v35.7124Z" style="fill:#fff;"></path></g><rect x="44.5979" y="243.7201" width="397.76399" height="12.9681" transform="translate(486.95979 500.4083) rotate(180)" style="fill:#f0f0f0;"></rect><path d="M139.4168,221.393s-1.0408,22.3281-40.9388,22.3281-40.9388-22.3281-40.9388-22.3281h81.8776Z" style="fill:#f0f0f0;"></path><path d="M139.4168,207.0959s-1.0408,22.3281-40.9388,22.3281-40.9388-22.3281-40.9388-22.3281h81.8776Z" style="fill:#f0f0f0;"></path><rect x="442.36189" y="243.7201" width="42.7966" height="12.9681" style="fill:#e6e6e6;"></rect></g><g><g><rect x="181.9025" y="53.5082" width="52.2647" height="96.0842" transform="translate(416.0697 203.1006) rotate(180)" style="fill:#e6e6e6;"></rect><rect x="175.9466" y="53.5082" width="56.7992" height="96.0842" transform="translate(408.6924 203.1006) rotate(180)" style="fill:#f0f0f0;"></rect><rect x="161.0625" y="77.9091" width="86.5675" height="47.2823" transform="translate(305.8965 -102.796) rotate(90)" style="fill:#fff;"></rect></g><path d="M215.8533,79.4706h-23.0141c-.2525,0-.4567,.3776-.4567,.8429v42.4743c0,.4655,.2042,.843,.4567,.843h23.0141c.2526,0,.4568-.3775,.4568-.843v-42.4743c0-.4653-.2042-.8429-.4568-.8429Zm-22.5573,42.4743v-40.7884l22.1006,40.7884h-22.1006Z" style="fill:#f0f0f0;"></path></g><g><g><rect x="102.1972" y="86.6808" width="52.2647" height="96.0842" transform="translate(256.6591 269.4458) rotate(180)" style="fill:#e6e6e6;"></rect><rect x="96.2413" y="86.6808" width="56.7992" height="96.0842" transform="translate(249.2818 269.4458) rotate(180)" style="fill:#f0f0f0;"></rect><rect x="81.35725" y="111.08175" width="86.5674" height="47.2823" transform="translate(259.36385 10.08195) rotate(90)" style="fill:#fff;"></rect></g><path d="M136.148,112.6432h-23.014c-.2526,0-.4567,.3776-.4567,.843v42.4742c0,.4655,.2041,.843,.4567,.843h23.014c.2526,0,.4568-.3775,.4568-.843v-42.4742c0-.4654-.2042-.843-.4568-.843Zm-22.5573,42.4743v-40.7884l22.1006,40.7884h-22.1006Z" style="fill:#f0f0f0;"></path></g><g><rect x="511.61179" y="47.0032" width="146.9599" height="195.6411" style="fill:#e0e0e0;"></rect><rect x="518.07829" y="54.7523" width="134.41171" height="180.545" style="fill:#f5f5f5;"></rect><polygon points="556.06559 54.7523 518.07829 225.9088 518.07829 133.2501 535.46059 54.7523 556.06559 54.7523" style="fill:#fff;"></polygon><polygon points="573.04359 54.7523 532.98079 235.2973 525.42509 235.2973 565.48769 54.7523 573.04359 54.7523" style="fill:#fff;"></polygon><polygon points="652.49 103.9859 652.49 196.6607 643.98149 235.2973 623.376 235.2973 652.49 103.9859" style="fill:#fff;"></polygon><rect x="582.48169" y="47.0032" width="5.2201" height="195.6411" style="fill:#e0e0e0;"></rect><rect x="514.16329" y="80.0001" width="141.5891" height="5.2202" style="fill:#e0e0e0;"></rect></g><g><rect x="301.19409" y="89.1228" width="153.8695" height="82.1653" transform="translate(508.33429 -247.92339) rotate(90)" style="fill:#e6e6e6;"></rect><rect x="296.48719" y="87.572" width="153.79" height="85.1874" transform="translate(503.54789 -243.21649) rotate(90)" style="fill:#f0f0f0;"></rect><rect x="337.50169" y="57.4518" width="71.761" height="145.4277" style="fill:#fff;"></rect><path d="M373.38229,61.4592h0c-1.517,0-2.7465,.7658-2.7465,1.7105V197.1616c0,.9447,1.2295,1.7106,2.7465,1.7106h0c1.51671,0,2.7464-.7659,2.7464-1.7106V63.1697c0-.9447-1.22969-1.7105-2.7464-1.7105Z" style="fill:#f5f5f5;"></path></g><g><g><g><g><path d="M673.73379,316.4899h-180.7461c-3.2324,0-5.8623-2.6298-5.8623-5.8623V47.3542c0-3.2324,2.6299-5.8617,5.8623-5.8617h180.7461c3.2323,0,5.86221,2.6293,5.86221,5.8617V310.6276c0,3.2325-2.62991,5.8623-5.86221,5.8623ZM492.98769,41.7425c-3.09469,0-5.6123,2.5175-5.6123,5.6117V310.6276c0,3.0948,2.51761,5.6123,5.6123,5.6123h180.7461c3.0946,0,5.61221-2.5175,5.61221-5.6123V47.3542c0-3.0942-2.51761-5.6117-5.61221-5.6117h-180.7461Z" style="fill:#e0e0e0;"></path><path d="M465.30609,316.4899h-180.7466c-3.2324,0-5.8618-2.6298-5.8618-5.8623V47.3542c0-3.2324,2.6294-5.8617,5.8618-5.8617h180.7466c3.2324,0,5.8623,2.6293,5.8623,5.8617V310.6276c0,3.2325-2.6299,5.8623-5.8623,5.8623ZM284.5595,41.7425c-3.0942,0-5.6118,2.5175-5.6118,5.6117V310.6276c0,3.0948,2.5176,5.6123,5.6118,5.6123h180.7466c3.0947,0,5.6123-2.5175,5.6123-5.6123V47.3542c0-3.0942-2.5176-5.6117-5.6123-5.6117h-180.7466Z" style="fill:#e0e0e0;"></path></g><path d="M257.0123,316.4899H76.2658c-3.2324,0-5.8618-2.6298-5.8618-5.8623V47.3542c0-3.2324,2.6294-5.8617,5.8618-5.8617h180.7465c3.2324,0,5.8623,2.6293,5.8623,5.8617V310.6276c0,3.2325-2.6299,5.8623-5.8623,5.8623ZM76.2658,41.7425c-3.0942,0-5.6118,2.5175-5.6118,5.6117V310.6276c0,3.0948,2.5176,5.6123,5.6118,5.6123h180.7465c3.0948,0,5.6123-2.5175,5.6123-5.6123V47.3542c0-3.0942-2.5175-5.6117-5.6123-5.6117H76.2658Z" style="fill:#e0e0e0;"></path></g><rect y="377.5593" width="750" height=".1204" style="fill:#e0e0e0;"></rect></g><g><rect x="653.62639" y="406.9354" width="55.7291" height=".4206" style="fill:#ebebeb;"></rect><rect x="495.04359" y="411.5011" width="14.6268" height=".4206" style="fill:#ebebeb;"></rect><rect x="40.6445" y="394.1381" width="72.6745" height=".4207" style="fill:#ebebeb;"></rect><rect x="128.2991" y="394.1381" width="10.6555" height=".4207" style="fill:#ebebeb;"></rect><rect x="173.5856" y="401.2422" width="157.61289" height=".4206" style="fill:#ebebeb;"></rect></g></g></g><g id="freepik--Shadow--inject-946"><path d="M719.68718,462.6387c0,3.3867-154.3217,6.1322-344.68718,6.1322s-344.6872-2.7455-344.6872-6.1322,154.3217-6.1323,344.6872-6.1323,344.68718,2.7455,344.68718,6.1323Z" style="fill:#f5f5f5;"></path></g><g id="freepik--Speech_Bubble_2--inject-946"><g><path d="M401.11659,121.2467h28.4221c7.2885,0,13.1971,5.9081,13.1971,13.1968v15.9266c0,7.2883-5.9086,13.1969-13.1969,13.1969h-6.4648l-1.0326,7.3593-7.8441-7.3593h-13.081c-7.2881,0-13.1963-5.9086-13.1963-13.1969v-15.9266c0-7.2887,5.9082-13.1968,13.1965-13.1968Z" style="fill:#9C4F06;"></path><g style="opacity:.5;"><path d="M401.11659,121.2467h28.4221c7.2885,0,13.1971,5.9081,13.1971,13.1968v15.9266c0,7.2883-5.9086,13.1969-13.1969,13.1969h-6.4648l-1.0326,7.3593-7.8441-7.3593h-13.081c-7.2881,0-13.1963-5.9086-13.1963-13.1969v-15.9266c0-7.2887,5.9082-13.1968,13.1965-13.1968Z" style="fill:#fff;"></path></g><g><path d="M407.152,142.4584c0,1.876-1.52071,3.397-3.39721,3.397-1.876,0-3.3967-1.521-3.3967-3.397,0-1.8764,1.5207-3.3971,3.3967-3.3971,1.8765,0,3.39721,1.5207,3.39721,3.3971Z" style="fill:#fff;"></path><path d="M418.72489,142.4584c0,1.876-1.52089,3.397-3.397,3.397-1.876,0-3.39689-1.521-3.39689-3.397,0-1.8764,1.52089-3.3971,3.39689-3.3971,1.87611,0,3.397,1.5207,3.397,3.3971Z" style="fill:#fff;"></path><path d="M430.60349,142.4584c0,1.876-1.5208,3.397-3.3969,3.397-1.8762,0-3.397-1.521-3.397-3.397,0-1.8764,1.5208-3.3971,3.397-3.3971,1.8761,0,3.3969,1.5207,3.3969,3.3971Z" style="fill:#fff;"></path></g><path d="M398.91859,119.4983h18.0275c.48259,0,.48339-.75,0-.75h-18.0275c-.48259,0-.48339,.75,0,.75h0Z" style="fill:#9C4F06;"></path><path d="M420.34489,119.4983h1.51011c.19615,0,.38407-.17248,.375-.375-.0091-.20318-.16477-.375-.375-.375h-1.51011c-.19615,0-.38407,.17248-.375,.375,.0091,.20318,.16477,.375,.375,.375h0Z" style="fill:#9C4F06;"></path></g></g><g id="freepik--Speech_Bubble_1--inject-946"><g><g><g><path d="M323.959,133.876h-28.4221c-7.2885,0-13.1971,5.9081-13.1971,13.1968v15.9265c0,7.2884,5.9086,13.197,13.1969,13.197h6.4648l1.0326,7.3593,7.8441-7.3593h13.081c7.2881,0,13.1963-5.9086,13.1963-13.197v-15.9265c0-7.2887-5.9082-13.1968-13.19649-13.1968Z" style="fill:#9C4F06;"></path><g><path d="M317.9236,155.0877c0,1.876,1.5207,3.3969,3.3972,3.3969,1.876,0,3.3968-1.5209,3.3968-3.3969,0-1.8764-1.5208-3.3971-3.3968-3.3971-1.8765,0-3.3972,1.5207-3.3972,3.3971Z" style="fill:#fff;"></path><path d="M306.3507,155.0877c0,1.876,1.521,3.3969,3.397,3.3969s3.3969-1.5209,3.3969-3.3969c0-1.8764-1.5209-3.3971-3.3969-3.3971s-3.397,1.5207-3.397,3.3971Z" style="fill:#fff;"></path><path d="M294.4721,155.0877c0,1.876,1.5208,3.3969,3.3969,3.3969s3.397-1.5209,3.397-3.3969c0-1.8764-1.5208-3.3971-3.397-3.3971s-3.3969,1.5207-3.3969,3.3971Z" style="fill:#fff;"></path></g></g><path d="M326.15709,131.3776h-18.0276c-.48259,0-.48339,.75,0,.75h18.0276c.48259,0,.48339-.75,0-.75h0Z" style="fill:#9C4F06;"></path><path d="M305.8684,131.3776h-1.5102c-.19615,0-.38407,.17248-.375,.375,.0091,.20318,.16477,.375,.375,.375h1.5102c.19615,0,.38407-.17248,.375-.375-.0091-.20318-.16477-.375-.375-.375h0Z" style="fill:#9C4F06;"></path></g><g style="opacity:.5;"><path d="M323.959,133.876h-28.4221c-7.2885,0-13.1971,5.9081-13.1971,13.1968v15.9265c0,7.2884,5.9086,13.197,13.1969,13.197h6.4648l1.0326,7.3593,7.8441-7.3593h13.081c7.2881,0,13.1963-5.9086,13.1963-13.197v-15.9265c0-7.2887-5.9082-13.1968-13.19649-13.1968Z" style="fill:#fff;"></path></g></g></g><g id="freepik--Sofa--inject-946"><g><g><g><path d="M232.8011,458.4266h0c9.1549,0,16.6452-7.4902,16.6452-16.6452v-142.6756c0-9.155-7.4903-16.6452-16.6452-16.6452h-90.5941v175.966h90.5941Z" style="fill:#9C4F06;"></path><path d="M232.8011,458.4266h0c9.1549,0,16.6452-7.4902,16.6452-16.6452v-142.6756c0-9.155-7.4903-16.6452-16.6452-16.6452h-90.5941v175.966h90.5941Z" style="opacity:.2;"></path></g><path d="M142.207,282.4606h0c-9.15495,0-16.64521,7.4902-16.64521,16.6452v159.3208h33.29041v-159.3208c0-9.155-7.4904-16.6452-16.6452-16.6452Z" style="fill:#9C4F06;"></path><path d="M602.98849,345.229l5.8727-72.7633c1.0624-13.1626-8.8378-23.932-22.0004-23.932H291.1934c-13.1627,0-24.8014,10.7694-25.8637,23.932l-5.8727,72.7633c-.7176,8.8903,5.9692,16.1642,14.8596,16.1642h311.20289c8.8904,0,16.7514-7.2739,17.469-16.1642Z" style="fill:#9C4F06;"></path><g style="opacity:.2;"><path d="M602.98849,345.229l5.8727-72.7633c1.0624-13.1626-8.8378-23.932-22.0004-23.932H291.1934c-13.1627,0-24.8014,10.7694-25.8637,23.932l-5.8727,72.7633c-.7176,8.8903,5.9692,16.1642,14.8596,16.1642h311.20289c8.8904,0,16.7514-7.2739,17.469-16.1642Z"></path></g><g><path d="M200.3473,292.977s-4.352-3.2714-2.7816-5.0174,8.699,1.5777,8.699,1.5777c0,0,40.2024-5.063,63.8592-4.1572,.16-3.1865,3.3092-4.4206,5.8519-3.8466,2.5428,.5739,.064,5.7656,.064,5.7656,0,0,16.578,42.2689,16.051,63.6097,2.6501,2.2858,5.2842,3.8918,2.5792,4.9808-2.705,1.0888-5.1249-.9295-5.1249-.9295,0,0-53.3768,7.8071-75.0906,3.869-1.4989,2.8873-4.6008,2.3246-6.3899,1.4361-1.7891-.8886,1.2008-5.085,1.2008-5.085,0,0-13.3593-36.9465-8.9181-62.2032Z" style="fill:#9C4F06;"></path><path d="M200.3473,292.977s-4.352-3.2714-2.7816-5.0174,8.699,1.5777,8.699,1.5777c0,0,40.2024-5.063,63.8592-4.1572,.16-3.1865,3.3092-4.4206,5.8519-3.8466,2.5428,.5739,.064,5.7656,.064,5.7656,0,0,16.578,42.2689,16.051,63.6097,2.6501,2.2858,5.2842,3.8918,2.5792,4.9808-2.705,1.0888-5.1249-.9295-5.1249-.9295,0,0-53.3768,7.8071-75.0906,3.869-1.4989,2.8873-4.6008,2.3246-6.3899,1.4361-1.7891-.8886,1.2008-5.085,1.2008-5.085,0,0-13.3593-36.9465-8.9181-62.2032Z" style="fill:#fff; opacity:.2;"></path></g><g><path d="M591.66409,265.955s4.3521-3.2714,2.7816-5.0174c-1.5704-1.746-8.699,1.5777-8.699,1.5777,0,0-40.2023-5.0631-63.8592-4.1573-.1599-3.1864-3.3091-4.4206-5.8519-3.8465-2.5427,.5739-.064,5.7655-.064,5.7655,0,0-16.578,42.269-16.0509,63.6098-2.6501,2.2858-5.2842,3.8918-2.5792,4.9807,2.7049,1.0888,5.1249-.9294,5.1249-.9294,0,0,53.3768,7.807,75.09061,3.869,1.49879,2.8873,4.60069,2.3246,6.38989,1.436,1.789-.8886-1.2008-5.0849-1.2008-5.0849,0,0,13.3593-36.9466,8.918-62.2032Z" style="fill:#9C4F06;"></path><path d="M591.66409,265.955s4.3521-3.2714,2.7816-5.0174c-1.5704-1.746-8.699,1.5777-8.699,1.5777,0,0-40.2023-5.0631-63.8592-4.1573-.1599-3.1864-3.3091-4.4206-5.8519-3.8465-2.5427,.5739-.064,5.7655-.064,5.7655,0,0-16.578,42.269-16.0509,63.6098-2.6501,2.2858-5.2842,3.8918-2.5792,4.9807,2.7049,1.0888,5.1249-.9294,5.1249-.9294,0,0,53.3768,7.807,75.09061,3.869,1.49879,2.8873,4.60069,2.3246,6.38989,1.436,1.789-.8886-1.2008-5.0849-1.2008-5.0849,0,0,13.3593-36.9466,8.918-62.2032Z" style="fill:#fff; opacity:.5;"></path></g><g><path d="M385.49039,290.8515s3.7011-3.3369,2.1272-4.8008c-1.574-1.4638-7.8021,2.147-7.8021,2.147,0,0-37.0637-1.341-58.5571,1.4118-.4054-2.8919-3.3769-3.7605-5.6483-3.0301-2.2715,.7304,.4113,5.2615,.4113,5.2615,0,0-11.6705,39.8857-9.4516,59.2985-2.2298,2.2998-4.5004,3.9785-1.9457,4.7509,2.5547,.7723,4.5965-1.2648,4.5965-1.2648,0,0,49.2979,2.7695,68.773-2.5895,1.6016,2.5101,4.3837,1.7445,5.94241,.7887,1.55859-.9559-1.509-4.538-1.509-4.538,0,0,9.16969-34.7713,3.06339-57.4352Z" style="fill:#9C4F06;"></path><path d="M385.49039,290.8515s3.7011-3.3369,2.1272-4.8008c-1.574-1.4638-7.8021,2.147-7.8021,2.147,0,0-37.0637-1.341-58.5571,1.4118-.4054-2.8919-3.3769-3.7605-5.6483-3.0301-2.2715,.7304,.4113,5.2615,.4113,5.2615,0,0-11.6705,39.8857-9.4516,59.2985-2.2298,2.2998-4.5004,3.9785-1.9457,4.7509,2.5547,.7723,4.5965-1.2648,4.5965-1.2648,0,0,49.2979,2.7695,68.773-2.5895,1.6016,2.5101,4.3837,1.7445,5.94241,.7887,1.55859-.9559-1.509-4.538-1.509-4.538,0,0,9.16969-34.7713,3.06339-57.4352Z" style="fill:#fff; opacity:.2;"></path></g><path d="M613.63879,458.4266h0c9.1549,0,16.6451-7.4902,16.6451-16.6452v-142.6756c0-9.155-7.4902-16.6452-16.6451-16.6452h-78.7341v175.966h78.7341Z" style="fill:#9C4F06;"></path><g style="opacity:.2;"><path d="M613.63879,458.4266h0c9.1549,0,16.6451-7.4902,16.6451-16.6452v-142.6756c0-9.155-7.4902-16.6452-16.6451-16.6452h-78.7341v175.966h78.7341Z"></path></g><rect x="344.49779" y="192.80671" width="33.2902" height="355.27379" rx="6.219" ry="6.219" transform="translate(731.58649 9.30071) rotate(90)" style="fill:#9C4F06;"></rect><g><g><rect x="331.34514" y="250.99186" width="71.3379" height="343.53159" rx="3.3204" ry="3.3204" transform="translate(789.77174 55.74356) rotate(90)" style="fill:#9C4F06;"></rect><rect x="331.34514" y="250.99186" width="71.3379" height="343.53159" rx="3.3204" ry="3.3204" transform="translate(789.77174 55.74356) rotate(90)" style="opacity:.1;"></rect></g><path d="M533.73209,387.0892H200.2959c-2.7761,0-5.0473,2.2712-5.0473,5.0473h343.53159c0-2.7761-2.272-5.0473-5.0481-5.0473Z" style="opacity:.1;"></path></g><path d="M534.90469,282.4606h0c-9.155,0-16.6452,7.4902-16.6452,16.6452v159.3208h33.2902v-159.3208c0-9.155-7.4902-16.6452-16.645-16.6452Z" style="fill:#9C4F06;"></path></g><path d="M118.03613,440.65332c-.20703,0-.375-.16797-.375-.375v-98.97559c0-.20703,.16797-.375,.375-.375s.375,.16797,.375,.375v98.97559c0,.20703-.16797,.375-.375,.375Z" style="fill:#9C4F06;"></path><path d="M118.03613,332.67969c-.20703,0-.375-.16797-.375-.375v-6.13477c0-.20703,.16797-.375,.375-.375s.375,.16797,.375,.375v6.13477c0,.20703-.16797,.375-.375,.375Z" style="fill:#9C4F06;"></path></g></g><g id="freepik--Plant--inject-946"><g><g><path d="M94.8686,375.339c3.828-4.7184,11.2268-7.8669,19.3493-9.3821-.6371,2.3233-.1596,4.4668,1.21405,4.9932,1.53206,.5872,3.58692-1.058,4.5896-3.6745,.28308-.7386,.44011-1.4698,.50235-2.1605,8.18942-.6656,16.3788,.2767,21.8447,2.8998,0,0-5.3511,4.8231-11.41212,17.5053-.1861-.0067-.37221-.0127-.56224-.011-3.92251,.0398-7.08363,1.9339-7.06068,4.2306,.01666,1.6779,1.73185,3.1028,4.18249,3.7358-.31829,.8122-.63643,1.6383-.95316,2.4958-5.77381,15.6267-21.17749,4.3302-21.03869-6.3653,0,0-19.2336-3.694-10.6556-14.2671Z" style="fill:#9C4F06;"></path><path d="M94.8686,375.339c3.828-4.7184,11.2268-7.8669,19.3493-9.3821-.6371,2.3233-.1596,4.4668,1.21405,4.9932,1.53206,.5872,3.58692-1.058,4.5896-3.6745,.28308-.7386,.44011-1.4698,.50235-2.1605,8.18942-.6656,16.3788,.2767,21.8447,2.8998,0,0-5.3511,4.8231-11.41212,17.5053-.1861-.0067-.37221-.0127-.56224-.011-3.92251,.0398-7.08363,1.9339-7.06068,4.2306,.01666,1.6779,1.73185,3.1028,4.18249,3.7358-.31829,.8122-.63643,1.6383-.95316,2.4958-5.77381,15.6267-21.17749,4.3302-21.03869-6.3653,0,0-19.2336-3.694-10.6556-14.2671Z" style="opacity:.3;"></path><g><path d="M75.8918,355.1675c-4.7172-5.0931-13.3878-8.1288-22.7609-9.2485,.8998,2.6012,.5158,5.0803-1.0107,5.7832-1.7029,.7839-4.1687-.9378-5.5074-3.8456-.378-.8209-.6118-1.6428-.7342-2.4255-9.3864-.1464-18.6522,1.5405-24.6871,4.9399,0,0,6.4612,5.0984,14.3196,19.1032,.2117-.0216,.4236-.0423,.6403-.0544,4.4751-.2482,8.2204,1.6746,8.3661,4.2948,.1061,1.9142-1.7423,3.6671-4.489,4.5719,.424,.9021,.8482,1.8202,1.2735,2.7743,7.7517,17.3832,24.4674,3.3522,23.5089-8.8312,0,0,21.6512-5.6498,11.0809-17.0621Z" style="fill:#9C4F06;"></path><g><path d="M64.436,351.3512c2.0034-9.7777,10.4002-19.9734,21.0891-28.3378,.8328,3.8689,3.1531,6.6308,5.5538,6.357,2.6781-.3056,4.426-4.2605,3.9044-8.8336-.1473-1.2909-.4726-2.4756-.9054-3.5291,11.4309-7.1768,24.08024-12.0107,34.03419-12.3301,0,0-4.14351,11.0849-3.36498,34.1613-.27633,.1313-.55266,.2633-.82804,.4104-5.68643,3.0304-8.85823,8.1866-7.08395,11.5164,1.2963,2.4329,4.87599,3.2099,8.92724,2.2748,.15105,1.4248,.31405,2.8701,.5022,4.3601,3.42848,27.1503-27.58226,22.3607-35.48586,6.6677,0,0-30.8311,9.1933-26.3427-12.7171Z" style="fill:#9C4F06;"></path><path d="M64.436,351.3512c2.0034-9.7777,10.4002-19.9734,21.0891-28.3378,.8328,3.8689,3.1531,6.6308,5.5538,6.357,2.6781-.3056,4.426-4.2605,3.9044-8.8336-.1473-1.2909-.4726-2.4756-.9054-3.5291,11.4309-7.1768,24.08024-12.0107,34.03419-12.3301,0,0-4.14351,11.0849-3.36498,34.1613-.27633,.1313-.55266,.2633-.82804,.4104-5.68643,3.0304-8.85823,8.1866-7.08395,11.5164,1.2963,2.4329,4.87599,3.2099,8.92724,2.2748,.15105,1.4248,.31405,2.8701,.5022,4.3601,3.42848,27.1503-27.58226,22.3607-35.48586,6.6677,0,0-30.8311,9.1933-26.3427-12.7171Z" style="fill:#fff; opacity:.5;"></path><path d="M112.226,323.0815c.2823-.3143,.4356-.4752,.4356-.4752-.1479,.1573-.2889,.3172-.4356,.4752Z" style="fill:#263238;"></path></g><path d="M86.53174,413.33691c-5.17627-28.77051,2.56055-59.63477,20.69629-82.5625l.39258,.31055c-18.04883,22.81641-25.74805,53.53223-20.59668,82.16406l-.49219,.08789Z" style="fill:#263238;"></path><path d="M85.37598,403.24902c-.02539,0-.05078-.00391-.07568-.01172-.07568-.02441-.13525-.08203-.16113-.15723-3.67529-10.77539-16.09375-33.99219-36.78467-44.73535-.12256-.06348-.17041-.21387-.10645-.33691,.06348-.12305,.21582-.17188,.33691-.10645,20.62939,10.71094,33.08594,33.72363,36.91748,44.69727,2.85156-2.06445,27.14795-19.62598,39.12598-27.30176,.11377-.07422,.27002-.04004,.34521,.07617,.07471,.11621,.04053,.27051-.07568,.3457-12.66016,8.11133-39.10938,27.29004-39.375,27.48242-.04346,.03125-.09473,.04785-.14697,.04785Z" style="fill:#263238;"></path><g><polygon points="118.63142 422.4668 53.3783 422.4668 53.4037 410.5144 118.56477 410.5144 118.63142 422.4668" style="fill:#263238;"></polygon><polygon points="58.1056 418.5695 68.3011 460.9823 105.8461 460.9823 114.9374 418.5695 58.1056 418.5695" style="fill:#263238;"></polygon><polygon points="59.0424 422.4668 114.102 422.4668 113.0956 427.1617 60.022 427.1617 59.0424 422.4668" style="opacity:.3;"></polygon></g></g></g><path d="M62.82129,408.31152h-5.8042c-.13818,0-.25-.1123-.25-.25s.11182-.25,.25-.25h5.8042c.13818,0,.25,.1123,.25,.25s-.11182,.25-.25,.25Z" style="fill:#9C4F06;"></path><path d="M81.37354,408.31152h-15.88477c-.13818,0-.25-.1123-.25-.25s.11182-.25,.25-.25h15.88477c.13818,0,.25,.1123,.25,.25s-.11182,.25-.25,.25Z" style="fill:#9C4F06;"></path></g></g><g id="freepik--Character_2--inject-946"><g><g><path d="M407.873,265.5311c.10929-.1513,.18519-.3174,.21889-.501,.16711-.9119,.4402-3.9081-2.1054-7.6853-3.0686-4.5535-6.2363-8.8101-7.1272-10.889-.8909-2.0787-1.2868-4.8504-2.3758-3.8605-1.0889,.9899-2.5738,1.9797-1.9798,4.7516,.2574,1.2015,.5335,2.4402,.7637,3.4581,.2182,.9652-.6931,1.8019-1.6345,1.4969-1.9764-.6403-4.7823-1.3288-6.0586-.5996-1.2992,.7425-.9744,2.1423-.5481,3.0877,.2229,.4942,.10081,1.0469-.273,1.4396-.2964,.3113-.5173,.8163-.3317,1.6216,.0956,.4151-.0092,.8461-.2846,1.1712-.4772,.5633-1.009,1.5678-.2453,2.7769,0,0,1.0735,1.93,3.2513,3.8108,2.1779,1.8809,4.8778,4.9153,8.2375,5.8062,1.9447,.5157,3.32761,.9932,4.1474,1.304,.5391,.2043,1.1466,.0155,1.4839-.452l4.86131-6.7372Z" style="fill:#ebb373;"></path><g><path d="M402.253,240.7677l-1.735-13.7777c-.08071-.6408-.62561-1.1214-1.27151-1.1215h-15.133c-.6556,0-1.20549,.4948-1.27449,1.1468l-1.45611,13.7649c-.0065,.0622-.01,.1256-.0094,.1881,.0434,5.1216,3.605,9.415,8.3017,10.435,.575,.1248,.9729,.651,.9729,1.2393l.0001,16.1537c0,.7078-.5738,1.2816-1.2816,1.2816h0c-1.285,.0001-2.5513,.3065-3.6941,.894l-1.646,.8461c-.6389,.3284-.4119,1.3206,.3021,1.3204l14.9822,.0001c.714,0,.9411-.992,.302-1.3203l-1.6549-.8508c-1.137-.5845-2.397-.8894-3.6755-.8894h-.0096c-.70779,0-1.2816-.5738-1.2816-1.2816l.0001-16.1538c0-.5883,.398-1.1145,.9729-1.2393,4.6927-1.0192,8.2523-5.3061,8.3016-10.4221,.0007-.071-.004-.143-.01279-.2135Z" style="fill:#9C4F06;"></path><path d="M402.253,240.7677l-1.735-13.7777c-.08071-.6408-.62561-1.1214-1.27151-1.1215h-15.133c-.6556,0-1.20549,.4948-1.27449,1.1468l-1.45611,13.7649c-.0065,.0622-.01,.1256-.0094,.1881,.0434,5.1216,3.605,9.415,8.3017,10.435,.575,.1248,.9729,.651,.9729,1.2393l.0001,16.1537c0,.7078-.5738,1.2816-1.2816,1.2816h0c-1.285,.0001-2.5513,.3065-3.6941,.894l-1.646,.8461c-.6389,.3284-.4119,1.3206,.3021,1.3204l14.9822,.0001c.714,0,.9411-.992,.302-1.3203l-1.6549-.8508c-1.137-.5845-2.397-.8894-3.6755-.8894h-.0096c-.70779,0-1.2816-.5738-1.2816-1.2816l.0001-16.1538c0-.5883,.398-1.1145,.9729-1.2393,4.6927-1.0192,8.2523-5.3061,8.3016-10.4221,.0007-.071-.004-.143-.01279-.2135Z" style="fill:#fff; opacity:.7;"></path><path d="M399.92679,238.0001l.0001,2.8695c0,4.6116-3.6434,8.3538-8.1073,8.3538-4.46359,0-8.1071-3.7422-8.1071-8.3539l-.0001-2.6437c.117,.0238,.2344,.0239,.3513,.0239,2.5894-.0001,2.5895-1.6659,5.1785-1.6658,2.5893-.0001,2.5892,1.6658,5.1784,1.6657,2.0572,.0001,2.47241-1.0612,3.8729-1.4896,.677,.514,.9564,.7261,1.6333,1.2401Z" style="fill:#9C4F06; opacity:.6;"></path></g><path d="M388.26069,253.2267c.1725-.8899,1.2067-1.3506,1.9515-.8339,1.1331,.7859,2.26181,2.0085,2.9277,2.8873,.3399,.4486,.66111,.9297,.7913,1.4773,.13,.5476,.0365,1.1779-.3635,1.5738-.5124,.507-.9844,.532-1.613,.1795-.6285-.3526-1.4649-1.0095-1.8643-1.6094,1.2498,.9674,2.2651,2.236,2.935,3.6675,.2289,.489,.42061,1.0107,.4175,1.5506-.003,.5397-.2327,1.1032-.6903,1.3893-.4628,.2894-1.0758,.245-1.56959,.0126-.49381-.2324-.89021-.6276-1.25761-1.0312,.74761,.708,1.5158,1.4453,1.9104,2.3962,.1204,.29,.1963,.6058,.2216,.9239,.0814,1.0224-1.1165,1.6421-1.9097,.9919-1.0096-.8278-2.4038-2.1048-3.1978-3.4095-1.1533-1.8951-.1192-4.1282,.1998-4.7275,.05631-.1057,.0988-.2182,.1216-.3358l.9894-5.1026Z" style="fill:#ebb373;"></path></g><g><g><path d="M455.58669,219.516s-13.708,4.0422-16.00069,15.9604c-1.65571,8.6065-7.23751,38.6079-7.23751,38.6079l-21.86349-11.1609-9.311,11.1609s19.17809,15.6275,26.77029,21.16c7.8424,5.7149,14.3644,3.4951,17.7392-3.9296,2.25-4.9502,9.9032-31.847,9.9032-31.847v-39.9517Z" style="fill:#9C4F06;"></path><path d="M455.58669,219.516s-13.708,4.0422-16.00069,15.9604c-1.65571,8.6065-7.23751,38.6079-7.23751,38.6079l-21.86349-11.1609-9.311,11.1609s19.17809,15.6275,26.77029,21.16c7.8424,5.7149,14.3644,3.4951,17.7392-3.9296,2.25-4.9502,9.9032-31.847,9.9032-31.847v-39.9517Z" style="fill:#fff; opacity:.3;"></path><path d="M432.37389,274.1026s3.8002,1.0002,5.6639,4.6496c0,0,.6653-4.0534-5.3356-6.996l-.3283,2.3464Z" style="opacity:.2;"></path></g><path d="M448.49379,274.0843s-8.3746-28.4164-5.09-38.9903c0,0-4.9554,10.1367-1.5251,28.9081,2.5119,13.7462,1.5251,14.7501,1.5251,14.7501l5.09-4.6679Z" style="opacity:.3;"></path></g><g><g><path d="M454.645,303.9212c13.59679-1.3573,31.28539-2.4436,54.30449-2.962,0,0,17.1632,40.4244-3.1901,52.5004-6.1499,3.6489-16.2995,5.0924-27.4708,5.3302-12.9613,.2759-23.64359-10.1118-23.64359-23.076v-31.7926Z" style="fill:#263238;"></path><path d="M499.10169,337.2155v18.9931c-16.9273,4.8821-52.0612,3.0232-72.9462,1.3184-9.4051-.7676-16.6378-8.6234-16.6378-18.06v-15.5831c0-5.1669,3.1941-9.786,8.03031-11.6053,10.12459-3.8081,28.549-9.4832,47.82329-9.1852,18.688,.2888,33.7304,15.432,33.7304,34.1221Z" style="fill:#263238;"></path></g><g><g><path d="M420.054,482.1816l20.781-9.1676,6.57229-7.3379,2.0348,2.7633,2.4836-1.083c1.1577-9.2237-3.32369-13.5367-5.6763-15.4971-.1677-.1494-.4107-.3174-.6905-.5413-.0934-.0749-.187-.1495-.2803-.2057-.03759-.0184-.0749-.0559-.11159-.0746-.09361-.0746-.20571-.1495-.31791-.2428-.01809-.0184-.0373-.0184-.0747-.0373v-.0184c-.0556-.0376-.1116-.0749-.1865-.112l-11.4085,5.0409s-.18639,.5975-.54139,1.5686c-1.13871,3.2113-3.95811,10.5306-7.07591,14.4327-.13109,.168-.2619,.3363-.3926,.4858-.37349,.4477-.7654,.8401-1.1573,1.1575-8.73819,7.0203-3.95819,8.8689-3.95819,8.8689Z" style="fill:#263238;"></path><path d="M425.12589,472.0999c3.2492,1.2694,7.84211-1.942,11.3337-6.1429,1.9603-2.3715,3.8462-6.1618,5.5077-9.2236,1.0831-1.9794,2.0728-3.6598,2.9315-4.4626,.4855-.4293,.9335-.6162,1.3258-.4293,0,0-.019-.0189-.019-.0374-.16759-.1495-.41059-.3175-.6905-.5414-.0747-.0563-.16809-.1309-.2803-.2057-.0374-.0183-.0747-.0559-.1116-.0746-.0935-.0746-.2056-.1495-.3177-.2426-.0183-.0186-.0373-.0186-.0749-.0374v-.0186c-.05559-.0375-.11159-.0748-.1864-.1119-1.1948-.8966-2.5208-1.8114-2.5208-1.8114l-10.7321,2.6867,.8363,4.1096c-1.1947,4.2384-3.7152,12.3044-6.6093,16.0573-.131,.168-.2617,.3363-.3924,.4858Z" style="fill:#ebb373;"></path></g><path d="M407.65569,392.1866c6.6254,16.4552,16.9118,37.4215,24.5037,63.7129,.14861,.4787,.2808,.9574,.41261,1.4361,.14859,.5115,.29749,1.0065,.44559,1.5181l7.8396-1.9143,.3434-1.3643s2.7086-2.1037,2.2479-2.5803c-.3002-.3106-.0986-.891-.1487-1.3864v-.0164c-2.1123-18.3364-10.2492-85.6413-18.3195-99.6206,0,0,9.1434,1.7,16.0753,.5281,5.0008-.8416,11.0578-35.4183,11.0578-35.4183,0,0-12.74139-3.6641-25.8129-3.6641h-.1817s-25.6939,7.601-32.227,13.3563c-6.13979,5.4088-7.06,14.2734-3.6547,24.8089,3.1224,9.6601,9.2097,20.2163,17.4186,40.6043Z" style="fill:#ebb373;"></path><path d="M400.31349,335.09c1.5208-5.9787,12.4256-11.6382,30.7907-17.104,1.8471-2.3929-9.76719-3.0778-9.76719-3.0778l4.78169-1.491c6.3764-.1237,13.7416,.8521,21.5109,2.2776l6.6801,1.3912-5.952,26.7461-24.4539,4.2819,15.4694,71.789,1.8274,14.1843s-26.2019-56.2434-31.6829-68.2028c-5.481-11.9595-11.8412-20.4286-9.2042-30.7945Z" style="opacity:.1;"></path><path d="M452.11689,317.086s-34.9331,7.401-41.7575,12.7911c-5.8119,4.5904-5.9686,10.5827-4.0851,16.2408,5.20671,15.6417,23.88571,41.724,45.2683,116.5834l12.2519-3.8476c-1.1744-.0012-4.2541-39.0843-5.1636-70.4773-.4291-14.8077-8.0223-27.5765-10.9936-32.7332,0,0,12.486,1.6856,19.4163,.5236,8.9042-1.4929,14.5339-31.2023-14.9367-39.0808Z" style="fill:#ebb373;"></path><path d="M448.35769,357.0466s-4.6353-7.6867-10.4135-10.9287c0,0,7.1112,.464,11.5564,9.7489l-1.8633-.2236,.7204,1.4034Z" style="opacity:.2;"></path><g><path d="M467.95279,474.9716l-2.5529,.5565-2.12189-3.5301c-.25811-.4295-.84591-.513-1.21341-.1724l-7.2557,6.7215-19.8181,4.3492s-4.412-4.6651,5.4396-7.6373c.4705-.1419,.8784-.5101,1.3225-.8692,4.8752-3.7405,10.7202-14.0441,10.7202-14.0441l11.7423-2.5768s.5389,.4979,1.33361,1.4815c1.84989,2.3023,5.25549,7.2383,2.40379,15.7212Z" style="fill:#263238;"></path><path d="M465.549,459.2504l.00779,.0355c-1.9296-1.3879-7.3199,7.7513-11.9203,11.4688-4.1104,3.3114-9.0728,5.4647-11.8836,3.6351,4.8752-3.7405,10.9798-16.7424,10.9798-16.7424l9.443-2.0723s2.5786,2.6917,3.37331,3.6753Z" style="fill:#ebb373;"></path></g></g></g><g><path d="M512.01569,300.959c-2.6301-3.4717-8.722-11.772-9.49369-20.508l-.004-.0748c-.04761-.5607-.07581-1.1225-.07691-1.6854-.1387-3.7144-.1153-8.1131,.1291-13.3914,.0332-.8243,.0826-1.6981,.1316-2.5717,.1489-2.7698,.363-5.7537,.6271-9.0013,.4946-5.8195,1.2035-12.4631,2.1596-20.0135,.2138-1.7474,1.86051-4.4577,2.10751-6.304,1.10489-8.2262-6.39391-14.1711-14.48861-13.8414-2.1591,.0825-4.4512,.2308-6.7751,.4615-9.0839,.8573-16.53529,1.632-24.432,3.5115-2.6212,.6099-1.01829,.1594-3.6064,.9014-9.298,2.6706-17.8907,15.7656-18.0064,25.3438-.1151,8.9269,6.1452,27.1464,10.4341,43.1493,.631,9.1795-4.3828,14.1798-2.8729,17.3797,1.5092,3.1999,45.8826-5.4947,64.167,5.4077,0,0,2.80631-5.0586,0-8.7634Z" style="fill:#9C4F06;"></path><g style="opacity:.3;"><path d="M512.01569,300.959c-2.6301-3.4717-8.722-11.772-9.49369-20.508l-.004-.0748c-.04761-.5607-.07581-1.1225-.07691-1.6854-.1387-3.7144-.1153-8.1131,.1291-13.3914,.0332-.8243,.0826-1.6981,.1316-2.5717,.1489-2.7698,.363-5.7537,.6271-9.0013,.4946-5.8195,1.2035-12.4631,2.1596-20.0135,.2138-1.7474,1.86051-4.4577,2.10751-6.304,1.10489-8.2262-6.39391-14.1711-14.48861-13.8414-2.1591,.0825-4.4512,.2308-6.7751,.4615-9.0839,.8573-16.53529,1.632-24.432,3.5115-2.6212,.6099-1.01829,.1594-3.6064,.9014-9.298,2.6706-17.8907,15.7656-18.0064,25.3438-.1151,8.9269,6.1452,27.1464,10.4341,43.1493,.631,9.1795-4.3828,14.1798-2.8729,17.3797,1.5092,3.1999,45.8826-5.4947,64.167,5.4077,0,0,2.80631-5.0586,0-8.7634Z" style="fill:#fff;"></path></g><g style="opacity:.2;"><path d="M491.55859,232.829c-2.0573,8.9745-.6962,40.5644-.6962,40.5644h-33.7863l-.556,12.67s42.9273,13.7731,51.6101,9.2987c-1.35419-2.2633-2.5298-4.4106-3.3477-6.3256,1.566-9.135,7.3598-28.9142,6.0424-46.9796-1.5312-20.998-16.5397-21.1213-19.2663-9.2279Z"></path></g></g><g><g><path d="M458.70729,271.3076s-2.02-4.0117-5.6824-5.2236c-3.6621-1.2121-6.2558-3.099-9.0424-3.8225-2.78649-.7237-.59,2.3356,.9242,3.7426,1.5142,1.4072,3.2156,3.0165,1.9264,3.9108-1.289,.8946-15.009,2.31-16.64509,3.7444-1.63641,1.4341,.66579,1.8626,.66579,1.8626,0,0-3.3213,.4289-3.4867,1.7219-.043,.336,.4335,1.1885,1.9818,1.218,3.4835,.0659,10.79811-.1515,10.79811-.1515-.42031,.0044-9.42171,.8833-10.74991,1.1816-1.7359,.39-2.3353,1.4136-2.05309,2.3609,.40159,1.3483,11.60509,.6191,12.10369,.9011,0,0-6.467,.2157-7.3049,1.8264-.8377,1.6109,3.2435,1.6853,6.84821,1.1045,3.30449-.5326,9.94339-.7571,13.24369-1.6075,4.0671-1.0478,6.5395-2.6183,7.1356-6.3197,.5958-3.7013-.663-6.45-.663-6.45Z" style="fill:#ebb373;"></path><polygon points="457.42349 270.4926 469.73189 270.6766 466.65639 282.7876 458.36059 279.8839 457.42349 270.4926" style="fill:#ebb373;"></polygon></g><path d="M492.14409,219.9088c-2.0574,8.9744,1.6474,48.4465,1.6474,48.4465h-33.7862l-.636,14.4912s38.99071,6.6559,48.7585,6.6559c2.5503,0,7.393-3.3334,7.87221-8.3917,.99249-10.4763-1.10921-28.5036-2.246-44.0919-1.53121-20.998-18.88341-29.0034-21.60991-17.11Z" style="fill:#9C4F06;"></path><g style="opacity:.3;"><path d="M492.14409,219.9088c-2.0574,8.9744,1.6474,48.4465,1.6474,48.4465h-33.7862l-.636,14.4912s38.99071,6.6559,48.7585,6.6559c2.5503,0,7.393-3.3334,7.87221-8.3917,.99249-10.4763-1.10921-28.5036-2.246-44.0919-1.53121-20.998-18.88341-29.0034-21.60991-17.11Z" style="fill:#fff;"></path></g><path d="M459.36929,282.8465c.15115-4.83304,.345-9.66418,.5448-14.49509,.01187-.09232-.03089-.09057,.09131-.0874,11.26215-.05093,22.52424-.02154,33.7861,.09125-11.26186,.11287-22.52395,.14225-33.7861,.09135,.06421,4.25453-.46355,9.73945-.63611,14.39988h0Z" style="fill:#263238;"></path></g><g><g><path d="M485.24169,161.9044c5.2179,8.2397,7.1336,13.2266,7.94731,21.3224,.951,9.4616,.90859,17.8553-1.09431,20.3838-2.6283,3.3177-32.5108,7.7041-49.3634,7.8015-.6109,.0035-1.3632-5.3128-1.3632-5.3128,0,0-2.1438,5.3265-2.9358,5.3272-4.5992,.0043-7.5495-.0289-7.5495-.0289,0,0,3.442-8.0092,6.79621-36.4799,1.63819-13.9059,15.26289-20.0586,23.39289-21.4755,13.5499-2.3616,24.1698,8.4622,24.1698,8.4622Z" style="fill:#263238;"></path><path d="M446.47419,190.413c-4.7564-7.4104-10.0776-27.7268,7.9742-34.9079,22.5344-8.9638,33.46761,5.1666,36.1082,19.5479,2.6408,14.3809-5.0124,25.6976-20.1959,25.3025-15.1832-.3947-20.5965-4.8167-23.8865-9.9425Z" style="fill:#263238;"></path><g><g><path d="M483.44909,214.377s-4.3633,7.2582-10.8906,12.8831c-1.3598,1.1717-2.8569,2.1852-4.4421,3.0272-4.2773,2.2719-8.1763,3.5716-9.2322,1.5095-.2348-.4533-.4154-.9444-.54919-1.4595-.89651-3.4532-.52881-8.3078,2.26269-10.5294,3.1472-2.505,4.6646-4.6483,4.0971-8.0391-.29779-1.9227-.9936-3.9071-1.8067-5.8347l2.4764-2.8956,12.953-13.0724c-.3237,8.7289-1.6911,19.6726,5.1316,24.4109Z" style="fill:#ebb373;"></path><path d="M464.80009,212.5133c3.5625-2.1148,7.4711-5.7828,7.0026-9.9737-.209-1.7647-.5892-3.4367-1.0122-4.5085l-7.2358,9.5799c.594,1.5442,.811,2.5649,1.2454,4.9023Z" style="opacity:.2;"></path><path d="M481.98449,175.9417c-1.2192,13.3089-1.4542,18.9528-8.3221,25.9313-10.33039,10.4968-26.2233,6.9659-28.95939-6.2261-2.46281-11.8735-.05531-31.6429,13.01029-37.2362,12.8724-5.5105,25.4902,4.2221,24.2712,17.531Z" style="fill:#ebb373;"></path><path d="M465.29749,180.7636c-.07449,1.3406-.8983,2.4432-1.84,2.4628-.9416,.0198-1.64449-1.0508-1.5698-2.3911,.0744-1.3404,.8981-2.4432,1.8395-2.463,.9416-.0198,1.6445,1.0508,1.5703,2.3913Z" style="fill:#263238;"></path><path d="M451.462,180.5206c-.07411,1.2795-.88381,2.3326-1.80851,2.3523-.9247,.0193-1.6146-1.002-1.5404-2.2817,.074-1.2794,.8837-2.3327,1.8084-2.3521,.9247-.0197,1.61451,1.0019,1.54051,2.2815Z" style="fill:#263238;"></path><path d="M467.17959,175.8497c-.1822,.0361-.3722,.0044-.5239-.1034-2.3625-1.6864-4.81269-.7859-4.8411-.7755-.3629,.1344-.7524-.0237-.8635-.3642-.11-.3403,.0978-.7281,.4652-.8683,.1281-.0477,3.2029-1.1809,6.1348,.9131,.292,.2086,.3287,.6233,.0821,.9258-.1195,.1454-.2829,.2387-.4536,.2725Z" style="fill:#263238;"></path><path d="M446.75369,174.0584c-.1465-.069-.264-.1897-.3186-.3479-.11309-.3267,.0813-.6884,.4331-.808,3.5297-1.1971,5.9542,.516,6.0562,.591,.2872,.2085,.3313,.6025,.0974,.8808-.2327,.2782-.654,.3348-.9416,.1285-.094-.0684-1.99519-1.3703-4.8019-.4176-.1814,.0613-.3697,.0465-.5246-.0268Z" style="fill:#263238;"></path><path d="M470.86459,164.1084c-4.2338,4.4464-2.1291,21.2422,9.7578,23.4361,13.6934-3.2218,2.8794-36.7076-9.7578-23.4361Z" style="fill:#263238;"></path><path d="M454.96989,192.9512c1.0836,1.6678,2.3862,4.8992,2.3862,4.8992,.3141-.0651,.6282-.1303,.9378-.2117,4.23711-.9916,5.8753-2.8517,6.40611-4.6127,.28669-.9643,.23029-1.9084,.08629-2.6548-.1576-.8654-.4671-1.4465-.4671-1.4465-1.93219,1.8677-5.811,3.0964-7.91019,3.666-.87631,.2476-1.43911,.3605-1.43911,.3605Z" style="fill:#263238;"></path><path d="M456.409,192.5907l.74089,1.4261c3.9886-.9438,6.67011-2.1433,7.6364-3.6456-.1576-.8654-.4671-1.4465-.4671-1.4465-1.93219,1.8677-5.811,3.0964-7.91019,3.666Z" style="fill:#fff;"></path><path d="M458.29389,197.6387c4.23711-.9916,5.8753-2.8517,6.40611-4.6127-1.43081,.3937-3.11221,1.0273-4.48651,2.0336-1.0541,.7651-1.6111,1.6962-1.9196,2.5791Z" style="fill:#dc5753;"></path><path d="M455.192,179.5858s-2.50721,5.9984-5.12271,8.9343c1.7021,1.6451,4.7405,.7804,4.7405,.7804l.38221-9.7147Z" style="fill:#e4873e;"></path></g><path d="M461.07189,177.7393l3.0545,.7216c-1.3842,1.5563-3.0545-.7216-3.0545-.7216Z" style="fill:#263238;"></path><path d="M447.42119,177.606l3.0545,.7216c-1.3842,1.5563-3.0545-.7216-3.0545-.7216Z" style="fill:#263238;"></path></g><path d="M457.80549,155.558c-5.25549,1.7829-10.83849,10.8784-11.76849,14.3781,7.47359,1.2235,27.62039-5.7777,27.62039-5.7777,0,0,13.4431,3.7128,6.6332-3.1034-6.80959-6.8164-22.4851-5.497-22.4851-5.497Z" style="fill:#263238;"></path><path d="M486.01109,186.7884c-1.5719,2.7295-4.1263,4.4435-6.4685,5.031-3.5228,.8834-5.3419-4.7805-4.1395-8.31,1.0826-3.1771,4.5442-5.2803,7.9725-4.5874,3.3777,.6825,4.433,4.7457,2.6355,7.8664Z" style="fill:#ebb373;"></path><path d="M425.25,210.23193l-.27734-.41602c4.88086-3.2583,8.94043-14.70312,10.8916-20.20312,1.97559-5.56787,2.7373-11.52441,3.47363-17.28467l.49609,.06348c-.74023,5.78662-1.50488,11.77002-3.49902,17.38818-1.96875,5.55078-6.06543,17.10107-11.08496,20.45215Z" style="fill:#263238;"></path></g><path d="M478.47369,191.4708c0,1.3706,1.1112,2.4817,2.4818,2.4817s2.4818-1.1111,2.4818-2.4817c0-1.3707-1.1112-2.4818-2.4818-2.4818s-2.4818,1.1111-2.4818,2.4818Z" style="fill:#9C4F06;"></path><path d="M478.08984,186.99268h-.00879c-.1377-.00488-.24609-.12061-.24121-.25879,.04492-1.28662,.71777-2.55811,1.75781-3.31738,1.04004-.75977,2.45801-1.0127,3.69434-.66455,.13379,.0376,.21094,.17578,.17285,.30859-.03711,.13281-.17676,.20947-.30762,.17285-1.09766-.30908-2.34766-.0835-3.26465,.58643-.91895,.67139-1.51367,1.79443-1.55273,2.93164-.00488,.13477-.11621,.24121-.25,.24121Z" style="opacity:.1;"></path></g></g></g><g id="freepik--Character_1--inject-946"><g><g><path d="M253.1191,460.9742c.2426-.6064,8.2477-17.2232,7.6413-17.1019,0,0,16.0778,8.0051,15.9567,8.0051-.1212,0-11.1341,13.7512-11.1341,13.7512h-9.3104l-3.1535-4.6544Z" style="fill:#ae7461;"></path><g><path d="M268.8201,464.534l-4.2559-1.9546c-.963-.4422-2.0776-.3641-3.0035,.1514-3.9934,2.2247-5.2562,.1106-6.4785-4.2665-1.6061-.9771-2.9575,.7607-3.3362,1.2205l-8.4967,10.1119c-.7201,.8397-.6235,2.104,.216,2.8241,.1495,.128,.3167,.2337,.4968,.3129,5.1682,2.3736,7.6135,3.4966,14.0461,6.4508l19.6729,9.0348c5.363,2.463,8.9564-2.4313,6.9771-3.9458-8.9256-6.7573-14.6172-12.9109-16.3606-17.2108-.3367-.7674,.4217-.8775,.5225-2.7287Z" style="fill:#9C4F06;"></path><path d="M268.8201,464.534l-4.2559-1.9546c-.963-.4422-2.0776-.3641-3.0035,.1514-3.9934,2.2247-5.2562,.1106-6.4785-4.2665-1.6061-.9771-2.9575,.7607-3.3362,1.2205l-8.4967,10.1119c-.7201,.8397-.6235,2.104,.216,2.8241,.1495,.128,.3167,.2337,.4968,.3129,5.1682,2.3736,7.6135,3.4966,14.0461,6.4508l19.6729,9.0348c5.363,2.463,8.9564-2.4313,6.9771-3.9458-8.9256-6.7573-14.6172-12.9109-16.3606-17.2108-.3367-.7674,.4217-.8775,.5225-2.7287Z" style="opacity:.4;"></path><path d="M276.5441,472.0661c.5957-.1165,1.1006-.509,1.3606-1.0578,.1736-.2785,.1725-.6318-.0028-.9095-.9-1.5573-7.3633-1.5142-8.0946-1.4968-.0774-.0067-.1536,.0215-.2079,.077-.1004,.1026-.0989,.2672,.0037,.3676,1.1656,.91,2.4228,1.6962,3.7513,2.3453,.9641,.5589,2.0818,.7952,3.1897,.6742Zm.8393-1.7177c.0776,.1171,.0744,.2698-.0078,.3835-.2051,.3879-.5671,.6691-.9938,.7718-1.6233,.3479-4.3623-1.3812-5.7982-2.3939,2.6555,.0421,6.2996,.3866,6.7998,1.2386Z" style="fill:#fff;"></path><path d="M269.7582,469.1851c1.9041,.067,6.4583-1.0211,6.9157-2.4934,.1062-.3044,.0573-.7475-.6206-1.1765-2.7643-1.6735-6.4201,2.99-6.5223,3.2125-.07,.0763-.0879,.1872-.0454,.2818,.0468,.0411,.1049,.0678,.1666,.0765l.106,.0991Zm6.0003-3.2841c.5162,.3045,.4269,.499,.395,.5685-.2365,.9176-3.6695,1.9823-5.8273,2.1016,.9226-1.0566,3.3963-3.6218,5.2439-2.7733l.1884,.1032Z" style="fill:#fff;"></path><path d="M265.58301,470.09375c-.08154,0-.16113-.04004-.20947-.11328-.0752-.11523-.04297-.27051,.07275-.3457,1.4292-.93359,3.25879-1.19434,4.89258-.69922,.13184,.04004,.20654,.17969,.1665,.31152-.03955,.13281-.17773,.20605-.31201,.16699-1.49219-.45312-3.1665-.21387-4.47363,.63867-.04199,.02832-.08936,.04102-.13672,.04102Z" style="fill:#fff;"></path><path d="M267.31348,473.29883c-.08154,0-.16162-.04004-.20947-.11328-.0752-.11621-.04297-.27051,.07275-.3457,1.43066-.93359,3.26074-1.19434,4.89307-.69824,.13184,.04004,.20654,.17969,.1665,.31152-.03955,.13281-.17725,.20605-.31201,.16699-1.49072-.45215-3.16553-.21582-4.47412,.6377-.04248,.02832-.08984,.04102-.13672,.04102Z" style="fill:#fff;"></path><path d="M269.83545,476.48438c-.08154,0-.16162-.04004-.20947-.11328-.0752-.11523-.04297-.27051,.07275-.3457,1.43066-.93457,3.25977-1.19531,4.89307-.69824,.13184,.04004,.20654,.17969,.1665,.31152-.04004,.13281-.17676,.20508-.31201,.16699-1.49268-.45312-3.1665-.21582-4.47412,.6377-.04248,.02832-.08984,.04102-.13672,.04102Z" style="fill:#fff;"></path></g></g><g><g><path d="M321.0983,226.1121c-.2665,.1482-6.0588,12.7711-6.0588,12.7711l-11.676-6.4899,5.9061-7.2723s12.0958,.522,11.9622,.7566" style="fill:#ae7461;"></path><g><path d="M308.9728,225.5716s-2.7346-3.7381-2.1037-7.5155c.6304-3.7772,.1289-6.9613,.7918-9.7371,.663-2.7757,2.4351,.6443,3.0096,2.6547,.5743,2.01,1.246,4.2826,2.6858,3.6068,1.4403-.6754,9.294-11.8776,11.3973-12.587,2.1032-.7099,1.3995,1.4996,1.3995,1.4996,0,0,1.7797-2.4987,3.25191-2.1726,1.47219,.3255,.82539,2.2312,.82539,2.2312,0,0,1.2537-1.6358,2.30561-.6194,1.05139,1.0158-3.83931,11.0243-3.81711,11.5963,0,0,1.5484-6.1852,3.4333-6.1145,1.885,.0706,.5137,4.0069-.5133,7.1692-1.027,3.1622-3.122,6.1783-6.0098,7.9648-2.8876,1.7862-6.7946,6.2996-10.4916,4.9846-3.6971-1.3154-6.1647-2.9611-6.1647-2.9611Z" style="fill:#ae7461;"></path><g style="opacity:.2;"><path d="M330.23119,204.0939c-2.0151,2.8678-3.9329,5.7991-5.7277,8.7772,.7709,.4952,1.4869,1.0455,2.18151,1.6467,.33469,.3092-.24971,.6989-.58851,.411-2.0801-1.8247-4.5962-3.175-7.4256-4.0042-.4574-.1355-.1867-.72,.2709-.5847,.7073,.2074,1.3765,.4401,2.0375,.7152-.0214-.0592-.0087-.1228,.0251-.1821,1.2234-2.4313,2.7474-4.7148,4.5722-6.8497,.2837-.3179,.8936,.0462,.6057,.3852-1.7825,2.0885-3.28529,4.3209-4.4746,6.6928-.0508,.0892,.9133,.5802,.8202,.6056,.8429,.3557,.6114,.3302,1.3782,.7916,1.79491-2.978,3.69991-5.9008,5.7278-8.7772,.2455-.3473,.8427,.0252,.5973,.3726Z"></path></g><g style="opacity:.2;"><path d="M320.692,214.7343c-3.7519,1.8054-5.6821,5.2409-5.0755,8.8744,.0722,.4108-.6648,.5169-.7368,.1061-.6662-3.9428,1.463-7.6026,5.4987-9.5605,.4236-.1909,.7158,.3851,.3136,.58Z"></path></g></g></g><path d="M254.9737,214.7624s4.4709-.1839,13.5954,8.046c8.5659,8.9443,18.4841,26.0226,23.8103,32.8909l13.2625-29.2816,14.6099,5.1446-10.2289,35.5886c-2.7191,9.4602-10.6383,15.8586-21.6074,12.3669-1.9578-.6233-4.9554-3.0556-5.1905-3.3311l-11.8367-11.3907c-25.4846-22.4349-21.6908-43.4387-16.4146-50.0336Z" style="fill:#9C4F06;"></path><path d="M265.7195,229.315s9.4566,8.4143,12.023,17.2334c2.5665,8.819-.6635,23.8162-.6635,23.8162l-3.4763-4.3274-7.8832-36.7222Z" style="opacity:.3;"></path></g><path d="M237.0291,208.0808c-1.3064-5.936-3.5535-11.786-3.3394-17.8602l-5.4123-10.806c-3.6291-.2783-7.3496,.9091-10.1466,3.2381-2.797,2.3291-4.6383,5.7732-5.0218,9.3927-.3704,3.4985,.561,7.1094-.3131,10.5172-1.0192,3.9738-4.6563,7.1358-8.7333,7.5922-1.7272,.1934-3.5506-.0439-5.1441,.6496-2.6447,1.151-3.6481,4.7991-2.3181,7.3585,1.3299,2.5594,4.4869,3.8638,7.3416,3.4517-.9248,3.7252,1.6469,7.6474,5.0758,9.372,3.429,1.7246,7.4672,1.6966,11.2786,1.2427,5.4267-.646,11.1562-2.3324,14.5076-6.6493,3.727-4.801,3.5313-11.5633,2.2251-17.4992Z" style="fill:#263238;"></path><path d="M272.5603,186.2752c4.8265-7.5194,10.2258-28.1345-8.0914-35.4213-22.8658-9.0955-33.9598,5.2427-36.6392,19.8354-2.6796,14.5924,5.0861,26.0755,20.4929,25.6746,15.4065-.4005,20.8993-4.8876,24.2377-10.0887Z" style="fill:#263238;"></path><path d="M234.325,214.001s5.1442,3.9555,11.7675,9.6632c1.3797,1.1889,2.8989,2.2174,4.5074,3.0717,4.3402,2.3053,8.2966,3.6241,9.368,1.5317,.2383-.46,.264-1.0277,.5573-1.4809,1.3971-2.1585,1.2917-4.3213-2.2959-8.6596-2.6013-3.1454-4.7333-6.7414-4.1575-10.182,.3022-1.951,1.0082-3.9646,1.8333-5.9205l-2.5129-2.9383-13.1434-13.2645c.3285,8.8572,.9993,23.3713-5.9238,28.1792Z" style="fill:#ae7461;"></path><path d="M253.9649,208.7005c-3.6149-2.1459-7.581-5.8679-7.1056-10.1204,.2122-1.7906,.598-3.4872,1.0271-4.5748l7.3422,9.7208c-.6026,1.5669-.8228,2.6027-1.2637,4.9744Z" style="opacity:.2;"></path><path d="M236.5279,171.5911c1.2371,13.5046,1.4756,19.2315,8.4445,26.3126,10.4822,10.6512,26.6089,7.0684,29.3852-6.3176,2.499-12.0481,.0561-32.1082-13.2017-37.7838-13.0616-5.5915-25.865,4.2842-24.628,17.7888Z" style="fill:#ae7461;"></path><path d="M253.4602,176.4839c.0756,1.3603,.9115,2.4792,1.8671,2.499,.9555,.0201,1.6686-1.0662,1.5929-2.4262-.0755-1.3602-.9113-2.4792-1.8666-2.4993-.9554-.0201-1.6686,1.0662-1.5934,2.4265Z" style="fill:#263238;"></path><path d="M267.4992,176.2373c.0752,1.2984,.8968,2.3669,1.8351,2.3869,.9383,.0196,1.6383-1.0167,1.5631-2.3152-.0752-1.2982-.8968-2.367-1.8351-2.3868-.9383-.0199-1.6381,1.0167-1.5631,2.3151Z" style="fill:#263238;"></path><path d="M251.5504,171.4977c.1849,.0367,.3777,.0045,.5317-.1049,2.3972-1.7112,4.8835-.7975,4.9122-.7868,.3684,.1362,.7636-.0241,.8763-.3696,.1116-.3454-.0993-.7388-.4721-.8811-.13-.0484-3.25-1.1983-6.225,.9265-.2963,.2117-.3335,.6325-.0833,.9394,.1213,.1475,.2871,.2423,.4602,.2765Z" style="fill:#263238;"></path><path d="M272.2768,169.6801c.1486-.0701,.2679-.1925,.3232-.353,.1148-.3316-.0825-.6985-.4394-.8199-3.5817-1.2147-6.0418,.5236-6.1453,.5997-.2915,.2116-.3361,.6113-.0988,.8938,.2361,.2822,.6636,.3397,.9554,.1304,.0954-.0695,2.0245-1.3905,4.8725-.4239,.1841,.0623,.3752,.0473,.5324-.0271Z" style="fill:#263238;"></path><path d="M247.8113,159.5838c4.296,4.5118,2.1604,21.5546-9.9013,23.7808-13.8948-3.2692-2.9218-37.2475,9.9013-23.7808Z" style="fill:#263238;"></path><g><path d="M263.9397,188.8508c-1.0995,1.6923-2.4212,4.9712-2.4212,4.9712-.3188-.0661-.6375-.1322-.9517-.2148-4.2993-1.0062-5.9617-2.8936-6.5002-4.6806-.291-.9785-.2338-1.9364-.0876-2.6939,.1599-.8781,.4739-1.4677,.4739-1.4677,1.9606,1.8951,5.8965,3.1419,8.0265,3.7199,.8893,.2513,1.4603,.3659,1.4603,.3659Z" style="fill:#263238;"></path><path d="M262.4794,188.4849l-.7518,1.4471c-4.0472-.9576-6.7681-2.1748-7.7486-3.6993,.1599-.8781,.4739-1.4677,.4739-1.4677,1.9606,1.8951,5.8965,3.1419,8.0265,3.7199Z" style="fill:#fff;"></path><path d="M260.5668,193.6072c-4.2993-1.0062-5.9617-2.8936-6.5002-4.6806,1.4518,.3996,3.1579,1.0424,4.5525,2.0635,1.0695,.7763,1.6347,1.7212,1.9477,2.6171Z" style="fill:#dc5753;"></path></g><path d="M263.7144,175.2888s2.544,6.0866,5.1979,9.0656c-1.7271,1.6694-4.8101,.7919-4.8101,.7919l-.3878-9.8575Z" style="fill:#a24e3f;"></path><path d="M257.748,173.4152l-3.0995,.7322c1.4046,1.5792,3.0995-.7322,3.0995-.7322Z" style="fill:#263238;"></path><path d="M271.5995,173.2799l-3.0995,.7321c1.4045,1.5793,3.0995-.7321,3.0995-.7321Z" style="fill:#263238;"></path><path d="M261.0624,150.9076c5.3328,1.8091,10.9979,11.0384,11.9416,14.5896-7.5835,1.2415-28.0266-5.8627-28.0266-5.8627,0,0-13.6408,3.7674-6.7308-3.149,6.9098-6.9167,22.8158-5.5779,22.8158-5.5779Z" style="fill:#263238;"></path><path d="M240.0902,187.3485c0,1.3908-1.1274,2.5183-2.5182,2.5183s-2.5183-1.1275-2.5183-2.5183,1.1275-2.5182,2.5183-2.5182,2.5182,1.1274,2.5182,2.5182Z" style="fill:#9C4F06;"></path><g><path d="M232.442,182.5973c1.5951,2.7697,4.187,4.5089,6.5637,5.105,3.5746,.8964,5.4204-4.8509,4.2003-8.4322-1.0985-3.2238-4.611-5.358-8.0897-4.6549-3.4274,.6926-4.4982,4.8155-2.6743,7.9821Z" style="fill:#ae7461;"></path><path d="M240.47998,182.80078c-.13428,0-.24512-.10645-.25-.24121-.03955-1.15479-.64355-2.29541-1.57666-2.97705-.93262-.68115-2.20215-.90967-3.31543-.5957-.13135,.03809-.27051-.03906-.30859-.17285-.0376-.13281,.04004-.271,.17285-.30859,1.25684-.35254,2.69189-.09668,3.74609,.67383,1.0542,.76953,1.73682,2.05811,1.78174,3.36279,.00439,.13818-.10352,.25391-.24121,.25879h-.00879Z" style="opacity:.1;"></path></g><path d="M271.2298,237.4275c-5.4822-8.6778-11.4836-18.5265-14.0502-20.6296l-1.3436,4.2901-17.5681-11.852s-14.1975,.0386-22.6714,6.959l-4.2844,31.6736c.3448,2.0739,8.9816,25.2757,8.9695,27.3192l-15.7149,30.2259c8.757,3.4979,63.8987,14.8177,65.4063,5.7777l-2.1915-2.7072c-1.9917-7.5433,.9598-27.7255,6.2181-43.4714,3.0781-9.2172,2.0881-19.3073-2.7698-27.5853Z" style="fill:#9C4F06;"></path><g><path d="M304.9786,240.1193l.2022-17.3104-19.7501-2.7217-4.1447,16.7674c-.8614,6.2508,3.046,12.0746,8.847,13.5735l-2.6927,19.5399c-.1106,.8027-.8509,1.3637-1.6536,1.2531l-.5434-.0749c-1.1-.1516-2.2202-.0386-3.2677,.3294l-5.6353,1.9801,23.4996,3.2385-4.8988-3.437c-.9029-.6335-1.9438-1.0425-3.0365-1.193l-.5543-.0764c-.8026-.1106-1.3636-.851-1.253-1.6536l2.6928-19.5399c5.9902,.1259,11.3273-4.424,12.1885-10.675Z" style="fill:#9C4F06;"></path><path d="M304.9786,240.1193l.2022-17.3104-19.7501-2.7217-4.1447,16.7674c-.8614,6.2508,3.046,12.0746,8.847,13.5735l-2.6927,19.5399c-.1106,.8027-.8509,1.3637-1.6536,1.2531l-.5434-.0749c-1.1-.1516-2.2202-.0386-3.2677,.3294l-5.6353,1.9801,23.4996,3.2385-4.8988-3.437c-.9029-.6335-1.9438-1.0425-3.0365-1.193l-.5543-.0764c-.8026-.1106-1.3636-.851-1.253-1.6536l2.6928-19.5399c5.9902,.1259,11.3273-4.424,12.1885-10.675Z" style="fill:#fff; opacity:.7;"></path><path d="M302.3264,239.7495c-.7207,5.2295-5.4371,8.9037-10.499,8.2062-5.0617-.6975-8.6086-5.5105-7.8879-10.7401l.4131-2.9979c.1289,.0452,.262,.0637,.3945,.0819,2.9364,.4046,3.1968-1.4844,6.1328-1.0797,2.9361,.4046,2.6757,2.2936,5.6118,2.6982,3.0452,.4197,3.2002-1.6486,6.5029-1.0183l-.6682,4.8497Z" style="fill:#9C4F06; opacity:.6;"></path></g><g><path d="M268.8254,259.7907s-44.0094,12.4098-45.1278,8.2693c-.1522-.5631-.1048-1.3577,.0813-2.3009l-8.4561,18.8188-2.5403,5.0347c20.448,4.854,58.9693-17.0999,58.9693-17.0999l1.2423-4.3942-4.1687-8.3278Z" style="opacity:.3;"></path><path d="M220.9333,266.0357l6.1499-21.8586s-10.6303,14.9944-6.1499,21.8586Z" style="opacity:.3;"></path></g><g><path d="M239.0573,355.2537l67.5701-1.3547-56.0368,96.9422,27.5324,14.6444s53.02859-83.4582,64.61749-107.1879c8.7936-18.006,10.0498-32.662-8.7936-37.2681-15.3203-3.745-63.3883-10.3415-65.8215-9.9153s-60.0107-11.2099-60.0107-11.2099c-.6192,1.1388-22.3122,31.8067,3.8393,48.3803,0,0,11.307,7.2857,27.1033,6.969Z" style="fill:#263238;"></path><path d="M313.6984,344.5022c-1.0321-.1038-14.0331-3.3281-24.6591,2.695l-38.88,39.6588,24.8735,27.5173,38.6656-69.8711Z" style="fill:#263238;"></path><polygon points="273.05 412.1798 309.3186 353.4801 281.9848 354.3931 299.0867 357.9876 273.05 412.1798" style="opacity:.3;"></polygon></g><g><path d="M250.2466,408.8023c.3694-.5325,10.0109-10.6944,10.0109-10.6944l10.2999,11.3214-9.2938,6.6453-9.0027-2.0704-2.0143-5.2019Z" style="fill:#ae7461;"></path><g><path d="M264.6373,415.736l-3.6807-2.8364c-.8328-.6418-1.928-.8141-2.9379-.5215-4.3562,1.2631-5.1071-1.062-5.3157-5.5662-1.3357-1.3021-3.0289,.0778-3.4974,.4382l-10.4646,7.8883c-.8831,.6518-1.0708,1.8958-.4191,2.7788,.116,.1571,.2542,.2964,.4107,.4131,4.4697,3.4444,6.5844,5.0741,12.1475,9.3611l17.0137,13.1112c4.6381,3.5742,9.2011-.3592,7.624-2.2638-7.128-8.5189-11.263-15.7349-11.9926-20.2805-.155-.8169,.6028-.7546,1.1121-2.5223Z" style="fill:#9C4F06;"></path><path d="M264.6373,415.736l-3.6807-2.8364c-.8328-.6418-1.928-.8141-2.9379-.5215-4.3562,1.2631-5.1071-1.062-5.3157-5.5662-1.3357-1.3021-3.0289,.0778-3.4974,.4382l-10.4646,7.8883c-.8831,.6518-1.0708,1.8958-.4191,2.7788,.116,.1571,.2542,.2964,.4107,.4131,4.4697,3.4444,6.5844,5.0741,12.1475,9.3611l17.0137,13.1112c4.6381,3.5742,9.2011-.3592,7.624-2.2638-7.128-8.5189-11.263-15.7349-11.9926-20.2805-.155-.8169,.6028-.7546,1.1121-2.5223Z" style="opacity:.4;"></path><path d="M270.431,424.7369c.6019,.0198,1.1774-.2475,1.5509-.7202,.2297-.2307,.3073-.5727,.1995-.8802-.524-1.7059-6.7832-3.1016-7.4943-3.2474-.0733-.0237-.1533-.0133-.2181,.0283-.1199,.0768-.155,.2363-.0782,.3562,.9247,1.1391,1.9656,2.1789,3.1059,3.1021,.8078,.7548,1.8361,1.2318,2.9343,1.3612Zm1.1935-1.4743c.0491,.1305,.012,.2774-.0928,.3691-.2846,.3294-.6972,.5208-1.1325,.5253-1.6471-.0246-3.911-2.3056-5.0743-3.6042,2.5584,.6312,6.0054,1.7747,6.2996,2.7098Z" style="fill:#fff;"></path><path d="M264.51,420.4421c1.8263,.4882,6.472,.4488,7.2417-.8732,.1703-.2707,.2216-.71-.3384-1.2756-2.3009-2.2329-6.873,1.4635-7.0213,1.6559-.0847,.0583-.1266,.1615-.1065,.2624,.0361,.0502,.0863,.0889,.1441,.1111l.0804,.1194Zm6.5323-1.8413c.4315,.4092,.3019,.5775,.2556,.6375-.4327,.8347-3.9891,1.1009-6.1021,.7364,1.1271-.8166,4.0894-2.7469,5.6873-1.5156l.1592,.1417Z" style="fill:#fff;"></path><path d="M265.00342,420.79492c-.04248,0-.08496-.01074-.12451-.0332-1.34277-.76953-3.01318-.90918-4.46631-.37695-.13135,.04883-.27295-.01855-.32129-.14844-.04736-.12891,.01904-.27246,.14844-.32031,1.59131-.58691,3.41797-.43164,4.88818,.41211,.11963,.06836,.16113,.22168,.09229,.34082-.04639,.08105-.13037,.12598-.2168,.12598Z" style="fill:#fff;"></path><path d="M265.86963,424.28027c-.04248,0-.08496-.01074-.12451-.0332-1.34131-.77051-2.93506-.90723-4.37158-.37793-.13086,.0498-.27295-.01758-.32129-.14844-.04736-.12891,.01904-.27246,.14844-.32031,1.5791-.57812,3.3252-.42871,4.79346,.41309,.11963,.06836,.16113,.22168,.09229,.34082-.0459,.08105-.13037,.12598-.2168,.12598Z" style="fill:#fff;"></path><path d="M267.69434,427.9209c-.04248,0-.08496-.01074-.12451-.0332-1.3418-.76953-3.01123-.91113-4.4668-.37793-.12744,.04883-.27344-.01758-.3208-.14844-.04736-.12891,.01904-.27344,.14893-.32031,1.59131-.58594,3.41797-.42969,4.8877,.41309,.11963,.06836,.16113,.22168,.09229,.34082-.04639,.08105-.13037,.12598-.2168,.12598Z" style="fill:#fff;"></path></g></g><path d="M265.7195,257.5602l3.9179-.9566s4.0952-3.6285,6.4882-4.6347c5.615-2.3609,14.8259,.1395,14.8259,.1395,0,0,7.8929,2.5577,8.3374,3.7778,.8065,2.214-3.7296,2.1421-4.3735,2.0534s-5.2751-.4821-5.2751-.4821c0,0,.6018,.9894,2.9115,1.489,2.3096,.4996,3.3805,.4658,3.2403,2.0782-.1402,1.6125-.7036,1.5348-2.3923,2.4806,0,0-.1631,2.969-4.2296,3.3151,0,0,.2377,1.8458-2.8507,2.2361s-5.7622,.747-7.6816,.3918c-1.9195-.3551-5.1972-.8553-5.1972-.8553l-5.7305,1.7561-1.9907-12.7889Z" style="fill:#ae7461;"></path><g><path d="M230.14209,235.26514c-.03662,0-.07373-.00781-.10889-.0249-.12451-.06006-.17627-.20996-.11621-.33398,1.69775-3.50537,1.07812-9.2998-1.47314-13.77832-2.09717-3.68164-5.16309-5.87012-8.6333-6.16309-.1377-.01172-.23975-.13232-.22803-.27002s.13623-.2334,.27002-.22803c3.63916,.30713,6.84473,2.58447,9.02588,6.41357,2.62695,4.61084,3.25293,10.60107,1.48877,14.24365-.04346,.08936-.13232,.14111-.2251,.14111Z" style="opacity:.3;"></path><path d="M215.5964,216.1951c-6.119,7.7933-31.3453,58.2661-11.6468,67.4788,19.6987,9.2129,63.8298-12.8836,63.8298-12.8836l-2.2063-14.0537s-44.1348,11.7742-45.2533,7.6338c-1.1185-4.1405,7.2444-21.1944,7.2444-21.1944,0,0-10.633-28.6809-11.9678-26.9809Z" style="fill:#9C4F06;"></path><path d="M267.53223,270.8291l-2.16455-13.79199c-3.29785,.72168-36.69531,8.00488-43.48242,8.37402l-.02734-.5c7.06543-.38379,43.29639-8.33887,43.66162-8.41895l.25928-.05664,2.24756,14.31543-.49414,.07812Z" style="fill:#263238;"></path></g></g></g><g id="freepik--Table--inject-946"><g><polygon points="605.76719 380.5727 576.04819 468.6033 582.30359 468.6033 620.62669 380.5727 605.76719 380.5727" style="fill:#263238;"></polygon><polygon points="680.23019 380.5727 709.94919 468.6033 703.69379 468.6033 665.37069 380.5727 680.23019 380.5727" style="fill:#263238;"></polygon><polygon points="605.76719 380.5727 576.04819 468.6033 582.30359 468.6033 620.62669 380.5727 605.76719 380.5727" style="fill:#fff; opacity:.2;"></polygon><polygon points="680.23019 380.5727 709.94919 468.6033 703.69379 468.6033 665.37069 380.5727 680.23019 380.5727" style="fill:#fff; opacity:.2;"></polygon><g><rect x="584.70779" y="370.4436" width="119.047" height="17.4347" style="fill:#263238;"></rect><rect x="584.70779" y="370.4436" width="119.047" height="17.4347" style="fill:#fff; opacity:.3;"></rect><rect x="667.32139" y="370.4436" width="36.4334" height="17.4347" style="opacity:.3;"></rect></g><path d="M668.55109,387.8783l1.1043,2.5367s13.89761,.1108,13.89761,0c0-.1109-.85641-2.5367-.85641-2.5367h-14.1455Z" style="opacity:.3;"></path><path d="M617.40539,387.8783l-1.1043,2.5367s-13.8975,.1108-13.8975,0c0-.1109,.85641-2.5367,.85641-2.5367h14.14539Z" style="opacity:.3;"></path></g><g><path d="M640.73059,338.1784l-1.8895-15.0047-17.4165-.0001-1.5873,15.005c0,5.5123,4.0761,10.0863,9.2751,10.6916v17.2313c0,.7078-.5737,1.2816-1.2816,1.2816h-1.9552l-3.3848,1.74c-.639,.3285-.4119,1.3206,.3021,1.3205h14.9822c.714,0,.941-.992,.302-1.3203l-3.38509-1.7402h-1.95491c-.7078,0-1.2816-.5738-1.2816-1.2816l.0001-17.2312c5.1989-.6055,9.2752-5.1795,9.275-10.6919Z" style="fill:#9C4F06;"></path><path d="M640.73059,338.1784l-1.8895-15.0047-17.4165-.0001-1.5873,15.005c0,5.5123,4.0761,10.0863,9.2751,10.6916v17.2313c0,.7078-.5737,1.2816-1.2816,1.2816h-1.9552l-3.3848,1.74c-.639,.3285-.4119,1.3206,.3021,1.3205h14.9822c.714,0,.941-.992,.302-1.3203l-3.38509-1.7402h-1.95491c-.7078,0-1.2816-.5738-1.2816-1.2816l.0001-17.2312c5.1989-.6055,9.2752-5.1795,9.275-10.6919Z" style="fill:#fff; opacity:.7;"></path></g><g><rect x="655.77119" y="294.168" width="5.56681" height="6.1187" style="fill:#ae7461;"></rect><g><path d="M648.55809,370.4436v-36.5893l6.7014-14.0401v-18.5783c.2481-.0384,3.6716-.1706,3.4964,0-.1752,.1705,0,69.2077,0,69.2077h-10.1978Z" style="fill:#263238;"></path><path d="M668.55109,370.4436v-36.5893l-6.7013-14.0401v-18.5783c-.2481-.0384-3.6717-.1706-3.4965,0,.1753,.1705,0,69.2077,0,69.2077h10.1978Z" style="fill:#263238;"></path></g><rect x="654.04539" y="299.3231" width="9.0185" height="2.4097" rx=".8084" ry=".8084" style="fill:#263238;"></rect><rect x="651.41359" y="338.652" width="13.3845" height="23.8693" style="fill:#9C4F06;"></rect><rect x="655.25949" y="307.333" width="6.5903" height="11.3315" style="fill:#9C4F06;"></rect><rect x="657.44279" y="312.1672" width="4.407" height="1.7521" style="fill:#fff;"></rect><rect x="653.91609" y="349.4766" width="8.5768" height="1.7521" style="fill:#fff;"></rect><rect x="656.11519" y="345.4458" width="4.4633" height="1.752" style="fill:#fff;"></rect><rect x="656.11519" y="353.4585" width="4.4633" height="1.7521" style="fill:#fff;"></rect></g></g></svg>
