<svg xmlns="http://www.w3.org/2000/svg" viewBox="0 0 500 500"><g id="freepik--background-complete--inject-323"><path d="M330.27,451a1,1,0,1,1-1-1A1,1,0,0,1,330.27,451Z" style="fill:#ebebeb"></path><path d="M319.78,451a1,1,0,1,1-1-1A1,1,0,0,1,319.78,451Z" style="fill:#ebebeb"></path><path d="M330.27,371.5a1,1,0,1,1-1-1.05A1,1,0,0,1,330.27,371.5Z" style="fill:#ebebeb"></path><path d="M319.78,371.5a1,1,0,1,1-1-1.05A1,1,0,0,1,319.78,371.5Z" style="fill:#ebebeb"></path><path d="M330.27,292a1.05,1.05,0,1,1-1-1A1,1,0,0,1,330.27,292Z" style="fill:#ebebeb"></path><path d="M319.78,292a1.05,1.05,0,1,1-1-1A1,1,0,0,1,319.78,292Z" style="fill:#ebebeb"></path><path d="M330.27,212.43a1,1,0,1,1-1-1.05A1,1,0,0,1,330.27,212.43Z" style="fill:#ebebeb"></path><path d="M319.78,212.43a1,1,0,1,1-1-1.05A1,1,0,0,1,319.78,212.43Z" style="fill:#ebebeb"></path><path d="M330.27,132.9a1,1,0,1,1-1-1.05A1,1,0,0,1,330.27,132.9Z" style="fill:#ebebeb"></path><path d="M319.78,132.9a1,1,0,1,1-1-1.05A1,1,0,0,1,319.78,132.9Z" style="fill:#ebebeb"></path><path d="M324,0c.46,147.29.47,312.51,0,459.8-.46-147.29-.45-312.51,0-459.8Z" style="fill:#ebebeb"></path><path d="M180.67,451a1,1,0,1,1-1-1A1,1,0,0,1,180.67,451Z" style="fill:#ebebeb"></path><path d="M170.18,451a1.05,1.05,0,1,1-1.05-1A1,1,0,0,1,170.18,451Z" style="fill:#ebebeb"></path><path d="M180.67,371.5a1,1,0,1,1-1-1.05A1,1,0,0,1,180.67,371.5Z" style="fill:#ebebeb"></path><circle cx="169.13" cy="371.5" r="1.05" style="fill:#ebebeb"></circle><path d="M180.67,292a1,1,0,1,1-2.09,0,1,1,0,0,1,2.09,0Z" style="fill:#ebebeb"></path><circle cx="169.13" cy="291.96" r="1.05" style="fill:#ebebeb"></circle><path d="M180.67,212.43a1,1,0,1,1-1-1.05A1,1,0,0,1,180.67,212.43Z" style="fill:#ebebeb"></path><path d="M170.18,212.43a1.05,1.05,0,1,1-1.05-1.05A1,1,0,0,1,170.18,212.43Z" style="fill:#ebebeb"></path><path d="M180.67,132.9a1,1,0,1,1-1-1.05A1,1,0,0,1,180.67,132.9Z" style="fill:#ebebeb"></path><circle cx="169.13" cy="132.9" r="1.05" style="fill:#ebebeb"></circle><path d="M174.38,0c.46,147.29.46,312.51,0,459.8-.46-147.29-.46-312.51,0-459.8Z" style="fill:#ebebeb"></path><rect x="44.34" y="69.59" width="411.32" height="3" style="fill:#ebebeb"></rect><path d="M455.66,67.25c-131.76.46-279.56.46-411.32,0,131.76-.46,279.56-.46,411.32,0Z" style="fill:#ebebeb"></path><path d="M455.66,50.46c-131.76.46-279.56.46-411.32,0C176.1,50,323.9,50,455.66,50.46Z" style="fill:#ebebeb"></path><rect x="237.79" y="56.86" width="24.43" height="3.99" style="fill:#ebebeb"></rect><rect x="86.49" y="56.86" width="24.43" height="3.99" style="fill:#ebebeb"></rect><rect x="389.08" y="56.86" width="24.43" height="3.99" style="fill:#ebebeb"></rect><path d="M303.25,247.61l-106.72.21c-.1,0-.08-176.65-.15-176.73v-.37h.37l106.78.09c.17.11-.4,176.62-.28,176.8Zm0,0L303,71.09c1.77.65-106.62.22-106.22.38l.37-.38L197,247.6c-1.38-.42,106.59.07,106.28,0Z" style="fill:#ebebeb"></path><path d="M454.49,247.61l-106.71.21c-.1,0-.09-176.65-.16-176.73v-.37H348l106.78.09c.18.11-.4,176.62-.28,176.8Zm0,0-.28-176.52c1.78.65-106.61.22-106.22.38l.38-.38-.16,176.51c-1.37-.42,106.59.07,106.28,0Z" style="fill:#ebebeb"></path><path d="M152,247.61l-106.72.21c-.1,0-.09-176.65-.16-176.73v-.37h.38l106.78.09c.17.11-.41,176.62-.28,176.8Zm0,0-.29-176.52c1.78.65-106.61.22-106.21.38l.37-.38L45.72,247.6c-1.37-.42,106.59.07,106.29,0Z" style="fill:#ebebeb"></path><rect x="55.21" y="118.92" width="87.09" height="114.34" rx="23.83" style="fill:#455a64"></rect><rect x="55.21" y="118.92" width="87.09" height="114.34" rx="23.83" style="fill:#fff;opacity:0.7000000000000001"></rect><rect x="65.2" y="128.43" width="67.12" height="95.32" rx="16.57" style="fill:#455a64"></rect><rect x="65.2" y="128.43" width="67.12" height="95.32" rx="16.57" style="fill:#fff;opacity:0.8"></rect><rect x="71.33" y="134.46" width="54.86" height="83.27" rx="11.44" style="fill:#455a64;opacity:0.8"></rect><rect x="71.33" y="134.46" width="54.86" height="83.27" rx="11.44" style="fill:#fff;opacity:0.8"></rect><rect x="91.96" y="214.55" width="13.58" height="1.34" style="fill:#a6a6a6"></rect><path d="M114.74,217.73l-32.07.07c-7.41-.06-12.25-6.56-11.52-13.69C71.1,196,71,168.6,70.9,160c0-2.58,0-9.5,0-12v-2a11.92,11.92,0,0,1,11.9-12l32.08.07a11.87,11.87,0,0,1,11.54,10c.29,2.34,0,5.69.1,8.06,0,5.11-.19,34.34-.23,40.1,0,2.58,0,9.52,0,12,.75,7-4.15,13.53-11.49,13.52Zm0,0c7.32,0,12.17-6.47,11.4-13.52,0-2.49,0-9.44,0-12,0-5.93-.2-34.82-.23-40.1-.08-2.25.12-5.77-.19-8a11.14,11.14,0,0,0-10.85-9.24L82.77,135a11,11,0,0,0-11,11v2c0,2.49,0,9.43,0,12,0,8.75-.2,35.79-.25,44.11-.78,7,3.84,13.43,11.17,13.54l32.07.08Z" style="fill:#a6a6a6"></path></g><g id="freepik--Floor--inject-323"><polygon points="24.35 460.3 80.76 460.06 137.17 459.97 250 459.8 362.83 459.97 419.24 460.06 475.65 460.3 419.24 460.55 362.83 460.63 250 460.8 137.17 460.63 80.76 460.55 24.35 460.3" style="fill:#263238"></polygon></g><g id="freepik--Windows--inject-323"><rect x="357.7" y="118.92" width="87.09" height="114.34" rx="23.83" style="fill:#455a64"></rect><rect x="357.7" y="118.92" width="87.09" height="114.34" rx="23.83" style="fill:#fff;opacity:0.7000000000000001"></rect><rect x="367.68" y="128.43" width="67.12" height="95.32" rx="16.57" style="fill:#455a64"></rect><rect x="367.68" y="128.43" width="67.12" height="95.32" rx="16.57" style="fill:#fff;opacity:0.8"></rect><rect x="373.82" y="134.46" width="54.86" height="83.27" rx="11.44" style="fill:#9C4F06;opacity:0.9"></rect><rect x="373.82" y="134.46" width="54.85" height="31.7" rx="11.44" style="fill:#455a64;opacity:0.9"></rect><rect x="373.82" y="134.46" width="54.85" height="31.7" rx="11.44" style="fill:#fff;opacity:0.8"></rect><path d="M428.67,154.72a11.59,11.59,0,0,1-10.42,11.77c-1.48.13-2.84.08-4.27.1l-12.74.07-12.73-.07c-1.43,0-2.79,0-4.27-.1a11.59,11.59,0,0,1-10.42-11.77,11.46,11.46,0,0,0,10.48,11l16.94-.07,16.95.07a11.46,11.46,0,0,0,10.48-11Z" style="fill:#a6a6a6"></path><rect x="394.45" y="163.09" width="13.58" height="1.34" style="fill:#a6a6a6"></rect><path d="M401.34,182.08H373.82v-5.44C379.67,175.36,392,174,401.34,182.08Z" style="fill:#fff"></path><path d="M428.67,203.8v2.49a11.39,11.39,0,0,1-1.48,5.63H375.31a11.29,11.29,0,0,1-1.49-5.63v-6.95a33.39,33.39,0,0,1,12.39-2.88c14.44,0,18.71,10.3,18.71,10.3s10.19-4.8,19.64-3.94A13.55,13.55,0,0,1,428.67,203.8Z" style="fill:#fff"></path><path d="M417.23,217.73l-32.07.07c-7.41-.06-12.25-6.56-11.52-13.69-.05-8.15-.2-35.51-.25-44.11,0-2.58,0-9.5,0-12v-2a11.92,11.92,0,0,1,11.9-12l32.08.07a11.88,11.88,0,0,1,11.54,10c.29,2.34.05,5.69.1,8.06,0,5.11-.19,34.34-.23,40.1,0,2.58,0,9.52,0,12,.74,7-4.15,13.53-11.49,13.52Zm0,0c7.32,0,12.17-6.47,11.4-13.52,0-2.49,0-9.44,0-12,0-5.93-.21-34.82-.23-40.1-.09-2.25.12-5.77-.19-8a11.14,11.14,0,0,0-10.85-9.24l-32.07.06a11,11,0,0,0-11,11v2c0,2.49,0,9.43,0,12-.05,8.75-.2,35.79-.25,44.11-.78,7,3.84,13.43,11.17,13.54l32.07.08Z" style="fill:#a6a6a6"></path><rect x="206.46" y="118.92" width="87.09" height="114.34" rx="23.83" style="fill:#455a64"></rect><rect x="206.46" y="118.92" width="87.09" height="114.34" rx="23.83" style="fill:#fff;opacity:0.7000000000000001"></rect><rect x="216.44" y="128.43" width="67.12" height="95.32" rx="16.57" style="fill:#455a64"></rect><rect x="216.44" y="128.43" width="67.12" height="95.32" rx="16.57" style="fill:#fff;opacity:0.8"></rect><rect x="222.57" y="134.46" width="54.86" height="83.27" rx="11.44" style="fill:#9C4F06;opacity:0.9"></rect><path d="M275.92,140.24a16.61,16.61,0,0,1-9,2.65H233.08a16.64,16.64,0,0,1-9-2.65,11.5,11.5,0,0,1,10-5.78H266A11.5,11.5,0,0,1,275.92,140.24Z" style="fill:#455a64;opacity:0.9"></path><path d="M275.92,140.24a16.61,16.61,0,0,1-9,2.65H233.08a16.64,16.64,0,0,1-9-2.65,11.5,11.5,0,0,1,10-5.78H266A11.5,11.5,0,0,1,275.92,140.24Z" style="fill:#fff;opacity:0.8"></path><path d="M224.08,140.24a17.38,17.38,0,0,0,9.41,2.33l3.3-.07c4.4-.08,8.81-.07,13.21-.11s8.81,0,13.21.1a42.06,42.06,0,0,0,6.55-.11,17.21,17.21,0,0,0,6.16-2.14,16.33,16.33,0,0,1-6.07,2.64,41.85,41.85,0,0,1-6.64.4c-4.4.07-8.81.07-13.21.1s-8.81,0-13.21-.11l-3.3-.07a16.29,16.29,0,0,1-9.41-3Z" style="fill:#a6a6a6"></path><rect x="243.21" y="139.81" width="13.58" height="1.34" style="fill:#a6a6a6"></rect><path d="M250.27,162.45h-27.7v-6.32c3.69-1.36,10.4-3.36,16.78-2.78A11.76,11.76,0,0,1,250.27,162.45Z" style="fill:#fff"></path><path d="M266,217.73l-32.08.07c-7.41-.06-12.25-6.56-11.52-13.69,0-8.15-.2-35.51-.24-44.11,0-2.58,0-9.5,0-12v-2A11.92,11.92,0,0,1,234,134l32.08.07a11.86,11.86,0,0,1,11.54,10c.29,2.34.06,5.69.11,8.06-.05,5.11-.2,34.34-.24,40.1,0,2.58,0,9.52,0,12,.74,7-4.15,13.53-11.49,13.52Zm0,0c7.31,0,12.17-6.47,11.39-13.52,0-2.49,0-9.44,0-12,0-5.93-.2-34.82-.23-40.1-.08-2.25.12-5.77-.19-8a11.13,11.13,0,0,0-10.85-9.24L234,135a11,11,0,0,0-11,11v2c0,2.49,0,9.43,0,12-.05,8.75-.2,35.79-.25,44.11-.79,7,3.83,13.43,11.16,13.54l32.08.08Z" style="fill:#a6a6a6"></path></g><g id="freepik--character-1--inject-323"><path d="M236.74,272.35h44a10,10,0,0,1,10,10V449.79a10,10,0,0,1-10,10h-44a0,0,0,0,1,0,0V272.35A0,0,0,0,1,236.74,272.35Z" style="fill:#9C4F06"></path><path d="M236.74,272.35h44a10,10,0,0,1,10,10V449.79a10,10,0,0,1-10,10h-44a0,0,0,0,1,0,0V272.35A0,0,0,0,1,236.74,272.35Z" style="fill:#fff;opacity:0.5"></path><path d="M243.67,459.8h-13L202.29,272.35h41.38c4.35,0,7.88,4.37,7.88,9.76V450C251.55,455.43,248,459.8,243.67,459.8Z" style="fill:#9C4F06"></path><g style="opacity:0.2"><path d="M243.67,459.8h-13L202.29,272.35h41.38c4.35,0,7.88,4.37,7.88,9.76V450C251.55,455.43,248,459.8,243.67,459.8Z" style="fill:#fff"></path></g><rect x="264.62" y="290.46" width="16.9" height="129.18" rx="4.5" style="fill:#9C4F06"></rect><path d="M217.2,337.49h-102L60.63,190.14l2.15-1a40.2,40.2,0,0,1,17.31-3.92h91.25A21.67,21.67,0,0,1,192.66,203Z" style="fill:#9C4F06"></path><g style="opacity:0.5"><path d="M217.2,337.49h-102L60.63,190.14l2.15-1a40.2,40.2,0,0,1,17.31-3.92h91.25A21.67,21.67,0,0,1,192.66,203Z" style="fill:#fff"></path></g><path d="M115.23,337.49H68.71l-22.22-131a12,12,0,0,1,6.79-13l10.66-4.9a20.09,20.09,0,0,1,28.15,14.65Z" style="fill:#9C4F06"></path><g style="opacity:0.2"><path d="M115.23,337.49H68.71l-22.22-131a12,12,0,0,1,6.79-13l10.66-4.9a20.09,20.09,0,0,1,28.15,14.65Z" style="fill:#fff"></path></g><path d="M175.72,232.57h-54l-26.32-71,1-.5a19.46,19.46,0,0,1,8.35-1.89h48.83a10.46,10.46,0,0,1,10.28,8.58Z" style="fill:#9C4F06"></path><g style="opacity:0.5"><path d="M175.72,232.57h-54l-26.32-71,1-.5a19.46,19.46,0,0,1,8.35-1.89h48.83a10.46,10.46,0,0,1,10.28,8.58Z" style="fill:#fff"></path></g><path d="M121.72,232.57,91.1,185.19l-2.52-15.78a5.75,5.75,0,0,1,3.27-6.26L97,160.78a9.68,9.68,0,0,1,13.57,7.07Z" style="fill:#9C4F06"></path><g style="opacity:0.2"><path d="M121.72,232.57,91.1,185.19l-2.52-15.78a5.75,5.75,0,0,1,3.27-6.26L97,160.78a9.68,9.68,0,0,1,13.57,7.07Z" style="fill:#fff"></path></g><path d="M167.36,186.77c8.09,40.62,16.34,85.91,23.14,126.8-8.08-40.66-16.36-85.93-23.14-126.8Z" style="fill:#9C4F06"></path><path d="M112.8,186.77c8.08,40.62,16.33,85.91,23.13,126.8-8.08-40.66-16.35-85.93-23.13-126.8Z" style="fill:#9C4F06"></path><path d="M119.39,314.26H235.23a12.18,12.18,0,0,1,12.18,12.18v8.4A12.18,12.18,0,0,1,235.23,347H119.39a0,0,0,0,1,0,0V314.26A0,0,0,0,1,119.39,314.26Z" style="fill:#9C4F06"></path><path d="M119.39,314.26H235.23a12.18,12.18,0,0,1,12.18,12.18v8.4A12.18,12.18,0,0,1,235.23,347H119.39a0,0,0,0,1,0,0V314.26A0,0,0,0,1,119.39,314.26Z" style="fill:#fff;opacity:0.5"></path><path d="M110.07,347H234.89a12.52,12.52,0,0,1,12.52,12.52v66.85a12.52,12.52,0,0,1-12.52,12.52H110.07a0,0,0,0,1,0,0V347A0,0,0,0,1,110.07,347Z" style="fill:#9C4F06"></path><path d="M110.07,347H234.89a12.52,12.52,0,0,1,12.52,12.52v66.85a12.52,12.52,0,0,1-12.52,12.52H110.07a0,0,0,0,1,0,0V347A0,0,0,0,1,110.07,347Z" style="fill:#fff;opacity:0.5"></path><path d="M62.46,272.35c9.23-.1,32.46-.32,41.37-.34l6.89,0a11.54,11.54,0,0,1,3.53.32,8.6,8.6,0,0,1,6.24,8c.13,39.37,0,91.52-.19,131l-.23,27.58-.23-27.58c-.25-39.54-.28-91.59-.22-131a7.82,7.82,0,0,0-5.59-7.27,10.93,10.93,0,0,0-3.31-.33l-6.89,0c-8.82,0-32.28-.24-41.37-.33Z" style="fill:#9C4F06"></path><path d="M235.23,314.26c-28.69.06-86.47.26-115.16.43l.43-.43.06,32.75-.49-.48c29.21,0,72,.16,101.14.31l10.11.05c1.68,0,3.38.07,5.05,0A12.13,12.13,0,0,0,247,337.61c.63-2.85.22-7.13.34-10.08.64-6.9-5.15-13.42-12.14-13.27Zm0,0a12.24,12.24,0,0,1,11.56,8.28c1.05,2.79.54,7.1.66,10,.46,5.15-1.52,10.39-6.25,12.94-3,1.83-6.53,1.6-9.88,1.61-33.38.18-78.21.36-111.74.36V347l.06-32.75v-.43h.43c28.71.17,86.46.37,115.16.43Z" style="fill:#9C4F06"></path><path d="M113.69,438.9c35.24-.31,82.23-.32,117.29-.4h2.67c8.48.72,13.87-8,13.3-15.69,0-13.11,0-34.83,0-48-.12-3.56.33-12.48-.25-15.9-.85-5-4.33-10-9.46-11.24-1.43-.47-3.71-.2-5.21-.29h-5.34l-21.32,0c-21.24,0-64.07-.19-85.3-.33,21.29-.13,64-.33,85.3-.33l21.32,0H232a25,25,0,0,1,5.4.29c5.49,1.31,9.17,6.51,10.1,11.85.61,3.53.2,12.36.33,16.05,0,13.17,0,34.84,0,48,.54,8.17-5.23,17.26-14.21,16.5H231c-35,0-82.13-.15-117.29-.4Z" style="fill:#9C4F06"></path><path d="M62.46,272.35h48.73a8.88,8.88,0,0,1,8.88,8.88v169.7a8.88,8.88,0,0,1-8.88,8.88H62.46a0,0,0,0,1,0,0V272.35A0,0,0,0,1,62.46,272.35Z" style="fill:#9C4F06"></path><path d="M62.46,272.35h48.73a8.88,8.88,0,0,1,8.88,8.88v169.7a8.88,8.88,0,0,1-8.88,8.88H62.46a0,0,0,0,1,0,0V272.35A0,0,0,0,1,62.46,272.35Z" style="fill:#fff;opacity:0.5"></path><path d="M46.8,272.35H73.54a7.36,7.36,0,0,1,7.36,7.36V452.44a7.36,7.36,0,0,1-7.36,7.36H46.8a9.68,9.68,0,0,1-9.68-9.68V282A9.68,9.68,0,0,1,46.8,272.35Z" style="fill:#9C4F06"></path><g style="opacity:0.2"><path d="M46.8,272.35H73.54a7.36,7.36,0,0,1,7.36,7.36V452.44a7.36,7.36,0,0,1-7.36,7.36H46.8a9.68,9.68,0,0,1-9.68-9.68V282A9.68,9.68,0,0,1,46.8,272.35Z" style="fill:#fff"></path></g><rect x="93.17" y="290.46" width="16.9" height="129.18" rx="4.5" style="fill:#9C4F06"></rect><path d="M329.28,417.13c-.72.91-11.89,4.09-24,7.42-5.2,1.43-63.68-18.43-66.33-20.49s2.73-15.38,3-16.53L225.9,350.45l43.35-13.27L285,380.54s17.42,17.41,21.72,20,12.31,5,15.68,5.23S331.35,414.51,329.28,417.13Z" style="fill:#d3766a"></path><path d="M239,404.06c2.64,2.06,61.12,21.92,66.32,20.49,12.09-3.33,23.26-6.51,24-7.43,2.06-2.61-3.41-11.14-6.89-11.37-2.58-.17-7.91-1.67-12.16-3.49h0c5.67,3.89,11.57,14.25-26.87,2.56-26.08-7.95-37.05-14.11-41.4-17.24C241.58,389,236.39,402,239,404.06Z" style="fill:#263238"></path><path d="M238.43,403.16a57,57,0,0,0,4,11.6c1.16,2,4.77,6.08,5.6,9S252.72,440,252.72,440l5.38-1.56-4.61-15.88c-1.08-3.7-2.86-12.68,6.46-10.63Z" style="fill:#263238"></path><path d="M134.66,310.38c16.31,16.65,74.09.92,76.94,5.35,3.6,5.62-25,91.12-25,91.12L235.36,410s39.51-99,25.26-123.72c-9.66-16.77-51.87-7.89-77.3-9.87-7.67-.6-11.93-16.18-11.93-16.18l-45.21,2S116,291.34,134.66,310.38Z" style="fill:#d3766a"></path><path d="M244.34,277.33l-42.78,38c-17.93,1.66-54.47,7.79-66.9-4.91-18-18.42-9.1-46.3-8.51-48.09a.41.41,0,0,1,0-.09l45.2-2s4.26,15.58,11.93,16.18c1.1.08,2.25.15,3.42.2l1.2.05c.71,0,1.44,0,2.16,0s1.35,0,2,0c1.5,0,3,0,4.61,0C212.63,276.43,231,274.79,244.34,277.33Z" style="opacity:0.1"></path><path d="M262,459.87c-.94.67-12.56.58-25.1.36-5.39-.09-55.89-35.65-57.85-38.37s7-14,7.53-15l13.13-41.06,49.74.45L235.36,410s6.29,23.88,9.69,27.56,10.39,8.27,13.56,9.44S264.74,457.94,262,459.87Z" style="fill:#d3766a"></path><path d="M179.06,421.86c2,2.72,52.46,38.28,57.85,38.37,12.54.22,24.16.32,25.1-.36,2.72-1.93-.13-11.66-3.4-12.86-2.42-.89-7.12-3.83-10.68-6.78h0c4.35,5.34,7.08,16.94-26.49-5.12-22.78-15-31.58-24-34.86-28.23C185.81,408.15,177.15,419.19,179.06,421.86Z" style="fill:#263238"></path><path d="M178.79,420.85a57.84,57.84,0,0,0,.53,12.24c.56,2.21,2.86,7.18,2.85,10.17s0,16.92,0,16.92l5.61,0s0-12.69.05-16.54.83-13,9.2-8.37Z" style="fill:#263238"></path><path d="M285.81,389l-42.46-1.76s31.29-91,14.71-103.41c-4.6-3.45-14.33-4.3-25.62,1.17-16.85,8.16-36.07,24.14-54.57,30.48-17.33,5.94-38.36,2.08-45.88-5.5-15.78-15.92-5.8-47.75-5.8-47.75l62.05-5s-.9.79,2.18,3.29c0,0,36.18-9.86,52.47-.85C272.28,275.85,285.81,389,285.81,389Z" style="fill:#d3766a"></path><path d="M165.1,318.09c14.75-1.27,27.55-9.62,39.91-17.09,12.25-7.28,31.58-22.92,46.15-20.6,4.87.86,9.89,3.94,11.19,9,1.92,7.19.89,14.75,0,22-3.67,24.13-10,47.8-17.06,71.12a290.1,290.1,0,0,1-10,27.51c3.69-9,6.58-18.35,9.42-27.67,5.49-18.69,10.32-37.61,14.18-56.7,1.8-9.52,3.6-19.19,3.46-28.89-.17-4.62-.74-9.95-4.93-12.71-12-8.56-29.06,3.38-39.78,9.68-15.89,9.64-33.63,22.9-52.61,24.37Z" style="fill:#263238"></path><path d="M225.22,255.23,197.52,317s-13.64,2.71-43.28,1.23-39.11-26.57-28.05-56.05l62.05-5a8.94,8.94,0,0,0,1.92,1.49C190.67,258.78,213,255.22,225.22,255.23Z" style="fill:#263238"></path><g style="opacity:0.8"><path d="M271.28,226.78l-9.22-2.91.36-22.87h0a39.61,39.61,0,0,1,.53-4.09c.52-2.85,5.87-8.76,6.47-16.13.69-8.6.39-23,.39-23s-1.17-.86-7.62-1-7.65.71-7.65.71-.76,14.35-.34,23c.35,7.39,5.52,13.47,5.94,16.34.32,2.11.41,3.87.42,4.08h0l-.36,22.88-9.31,2.62ZM255,180.55c-.13-2.87-.12-6.7-.06-10.41,0-1.44.05-2.25.05-2.25h0c.13-5.45.36-10.09.36-10.09a35,35,0,0,0,13.78.23s.07,4.65,0,10.1v.1c0,.67.06,4.86-.27,10.37,0,.38-.05.77-.07,1.16s0,.69-.08,1A20.55,20.55,0,0,1,263,193.06a.69.69,0,0,1-.13.11,2.11,2.11,0,0,1-.23.19l0,0a1.65,1.65,0,0,1-.93.4,1,1,0,0,1-.43-.12,2.65,2.65,0,0,1-.48-.3C258.66,191.82,255.1,186.23,255,180.55Z" style="fill:#ebebeb"></path><path d="M271.28,226.78c0-.05-9.31-2.81-9.27-2.91l.27-22.87c0-.2,0-.13.17-.14l-.14.13a18,18,0,0,1,1-5.51c2.54-4.89,5.8-9.7,6-15.38.26-3.7.33-7.42.37-11.14s0-7.43-.06-11.15l.09.18a12.34,12.34,0,0,0-3.66-.73c-3.72-.18-7.75-.56-11.35.5l.11-.19c-.33,7.42-.65,14.86-.4,22.28,0,5.67,3.1,10.57,5.48,15.54.69,1.51.63,3.92.86,5.55,0-1-.4,22.86-.4,22.9V224l-.1,0L251,226.56l0-.21,20.36.43Zm0,0-20.36-.22h-.72l.69-.2,9.3-2.65c-.28.78.31-23,.22-22.76l0-.12c-.06,0-.06.21,0,.24l0-.11-.28-2.77c-.09-2.83-1.94-5.11-3.08-7.61A25.06,25.06,0,0,1,254,179.86c-.16-3.72-.12-7.44-.05-11.16s.19-7.53.39-11.29a11.39,11.39,0,0,1,4-.74c3.88,0,7.91-.36,11.62,1l.09.05v.12c.09,7.45.12,14.89-.39,22.33a25,25,0,0,1-3.4,10.59c-1.25,2.47-3.12,4.71-3.37,7.53-.14,1-.25,1.93-.32,2.89h-.14c.34-.84-.44,22.87-.33,22.73-.22-.11,9.21,2.91,9.17,2.91Z" style="fill:#263238"></path><path d="M255,180.55c0-3.53-.17-9.64-.08-12.66l.3-10.09v-.16a34.06,34.06,0,0,0,13.86.2l.25-.06V158c0,6.13.21,12.26-.14,18.39-.08,4.62-.78,9.31-3.37,13.24-1,1.55-2.11,3.29-3.82,4.15-1.07.3-1.94-1-2.59-1.66a20.06,20.06,0,0,1-4.41-11.6Zm0,0a20.05,20.05,0,0,0,4.52,11.51c.61.61,1.48,1.84,2.42,1.59,1.64-.86,2.68-2.58,3.68-4.11,2.52-3.93,3.15-8.56,3.18-13.14.24-5.31.05-13,.12-18.36l.26.19a34.47,34.47,0,0,1-13.87-.31l.16-.11L255,167.89c-.11,3,0,9.13-.06,12.66Z" style="fill:#263238"></path></g><path d="M262.55,193.39a1.65,1.65,0,0,1-.93.4,1,1,0,0,1-.43-.12,2.65,2.65,0,0,1-.48-.3h0l.09-5.55,1.83,0Z" style="fill:#ebebeb"></path><path d="M268.85,178.6c0,.38-.05.77-.07,1.16s0,.69-.08,1A20.55,20.55,0,0,1,263,193.06a.69.69,0,0,1-.13.11,2.11,2.11,0,0,1-.23.19l0,0a1.65,1.65,0,0,1-.93.4,1,1,0,0,1-.43-.12,2.65,2.65,0,0,1-.48-.3c-2-1.55-5.61-7.14-5.74-12.82-.13-2.87-.12-6.7-.06-10.41,0-1.44.05-2.25.05-2.25h0c.13-5.45.36-10.09.36-10.09a35,35,0,0,0,13.78.23s.07,4.65,0,10.1v.1C269.13,168.9,269.18,173.09,268.85,178.6Z" style="fill:#dbdbdb;opacity:0.7000000000000001"></path><path d="M269.84,157.88a22,22,0,0,1-15.27-.24,85.6,85.6,0,0,0,15.27.24Z" style="fill:#fff"></path><path d="M256,158s-.26,16-.31,19.29c-.1,6.07,3,15,5.94,15.08,3.61.06,5.72-8.08,6-9.66s.4-24.46.4-24.46-.45.08-2,.25c0,0-.33,20.77-.38,23.65,0,1.82-1.8,8.43-3.79,8.4s-2.51-11-2.48-13.2.31-18.8.31-18.8A35.84,35.84,0,0,1,256,158Z" style="fill:#fff;opacity:0.30000000000000004"></path><path d="M141.31,180.1c-.28-2.49-.48-5-.55-7.51a69.88,69.88,0,0,1-.39-10.82c.28-6,1-13.12,6.57-16.55a21.3,21.3,0,0,1,8.53-2.64c3.08-.39,6.38-.46,9.2,1a8.1,8.1,0,0,1,2.8,2.47A19.52,19.52,0,0,1,173.3,149c2.22,1.12,3.65,3.58,4.57,5.79a32.79,32.79,0,0,1,2,8.35,19.8,19.8,0,0,1-.17,7.86,41.84,41.84,0,0,1-2.63,6.53,24.28,24.28,0,0,0-2.51,8.08.08.08,0,1,1-.15,0c.23-4.58,2.83-8.56,4.3-12.8a18,18,0,0,0,.94-7.49,44.29,44.29,0,0,0-1.51-8.64c-.71-2.38-1.87-5.09-3.83-6.79a.94.94,0,0,1,.1.1c2.19,2.29,3.05,5.47,3.63,8.5a35.62,35.62,0,0,1,.64,10.3,33.8,33.8,0,0,1-2.59,9,35.85,35.85,0,0,0-2.79,9,27.29,27.29,0,0,0,1.13,9.78,39.58,39.58,0,0,1,1.63,9.4,13.86,13.86,0,0,1-2.55,8.1c-3.13,4.37-9.81,7.67-14.73,4.15a17.46,17.46,0,0,1-3.2-3.17,43.26,43.26,0,0,1-2.88-3.88A53.78,53.78,0,0,1,147.9,202a102.3,102.3,0,0,1-5.59-19.58c-.33-1.64-.62-3.28-.89-4.94a99.1,99.1,0,0,0,1.69,11.19c1.41,6.65,3.34,13.42,6.67,19.39a43.35,43.35,0,0,0,2.85,4.47c1.14,1.56,2.42,3,3.65,4.46a.09.09,0,0,1-.13.13,35.08,35.08,0,0,1-6-7.68,47.51,47.51,0,0,1-4.25-9.18A91.94,91.94,0,0,1,141.31,180.1Z" style="fill:#263238"></path><path d="M187.57,257.69l-63.51,5.83S128.74,248.71,133,242c0,0,7.82-32.57,14.14-43.86,9.31-16.62,19.44-13.38,24.14-7.41,4.9,6.23,15.4,28.63,16.3,32.35,1.48,6.17-4.08,12.52-4.08,12.52Z" style="fill:#ebebeb"></path><path d="M167.46,231.83a45.68,45.68,0,0,1,7.57.39c1.25.19,2.49.44,3.72.72.62.14,1.24.26,1.86.37a7.11,7.11,0,0,0,1.95.16c.06,0,.07.09,0,.1a12.49,12.49,0,0,1-1.83.2,12,12,0,0,1-1.8-.14c-1.27-.18-2.53-.42-3.8-.61-2.55-.39-5.11-.78-7.68-1C167.34,232.05,167.34,231.83,167.46,231.83Z" style="fill:#263238"></path><path d="M161.64,235.09a50.85,50.85,0,0,1,6.13-1.13c1-.12,2.07-.17,3.11-.2h1.49c.55,0,1.1.09,1.64.09.06,0,.07.1,0,.1-.52,0-1,.13-1.54.19l-1.55.15c-1,.11-2.06.23-3.1.32-2.06.19-4.12.4-6.18.67C161.55,235.3,161.54,235.12,161.64,235.09Z" style="fill:#263238"></path><path d="M156.67,186.87s10.59,38.51,10.59,41.56c0,2.33-1.65,36-1.65,36L119.82,270s8.08-19.52,13.17-28C133,242,140.16,197.09,156.67,186.87Z" style="fill:#37474f"></path><path d="M170.36,189.42s13.48,28.85,14,32.44-1.85,11.61-1.85,11.61L187.82,262l2.47-6.37-5.6-20.19s4-6.69,3.38-12S175.1,193.87,170.36,189.42Z" style="fill:#37474f"></path><path d="M158,190.62c.27,1.21,5.95,9.06,11.46,8.85,1.79-.07,1.83-9.87,1.83-9.87l.16-.72,2.35-10.12L161.92,171l-1.71-1s-.46,2.81-1,6.31c0,.16-.05.33-.08.5s-.07.38-.09.57c-.09.52-.18,1.06-.25,1.59s-.12.8-.17,1.23-.1.84-.16,1.27A67.44,67.44,0,0,0,158,190.62Z" style="fill:#d3766a"></path><path d="M159.21,176.32a20.85,20.85,0,0,0,12.2,12.56l2.35-10.12L161.92,171l-1.71-1S159.75,172.82,159.21,176.32Z" style="fill:#263238"></path><path d="M173.55,145.17a9.47,9.47,0,0,1,6.19,2.59c2.36,2.55,3.45,9.51,3.45,9.51Z" style="fill:#263238"></path><path d="M183.42,157.76c7.7,16.51-1.32,23-4.88,24.65-3.24,1.5-14.44,6.21-23.81-9.42s-4.12-24.44,3.09-28.27S175.72,141.24,183.42,157.76Z" style="fill:#d3766a"></path><path d="M180.75,156.6c-.43.1-.83.13-1.26.2a2.05,2.05,0,0,1-1.32,0,.66.66,0,0,1-.29-.75,1.61,1.61,0,0,1,1.36-.93,2.43,2.43,0,0,1,1.71.25A.71.71,0,0,1,180.75,156.6Z" style="fill:#263238"></path><path d="M168.91,160.79a10.76,10.76,0,0,0,1.07-.68c.41-.27.77-.44,1-.91a.66.66,0,0,0-.28-.75,1.65,1.65,0,0,0-1.64.21,2.41,2.41,0,0,0-1.11,1.32A.7.7,0,0,0,168.91,160.79Z" style="fill:#263238"></path><path d="M173.23,164s-.07.1,0,.14c.51,1.15.89,2.56,0,3.37,0,0,0,.08,0,.06C174.42,166.88,173.9,165,173.23,164Z" style="fill:#263238"></path><path d="M171.7,163.21c-1.93.61-.57,4.43,1.22,3.87S173.32,162.7,171.7,163.21Z" style="fill:#263238"></path><path d="M171,163.68c-.25.34-.44.84-.83,1a1.51,1.51,0,0,1-1.39-.34s-.06,0-.05.07c.25.73.8,1.38,1.63,1.21s1-1,1-1.79C171.32,163.71,171.13,163.55,171,163.68Z" style="fill:#263238"></path><path d="M179.74,161.63s.11,0,.13.07c.38,1.2,1,2.5,2.23,2.51,0,0,.06.06,0,.07C180.75,164.57,179.91,162.82,179.74,161.63Z" style="fill:#263238"></path><path d="M180.35,160c1.86-.82,3.37,2.94,1.65,3.71S178.8,160.7,180.35,160Z" style="fill:#263238"></path><path d="M181.24,160c.38.08.82.32,1.18.2s.56-.67.67-1.16c0-.05,0,0,.08,0,.31.72.37,1.56-.27,2s-1.29-.06-1.75-.7C181.07,160.16,181.09,159.91,181.24,160Z" style="fill:#263238"></path><path d="M176.2,173.87c.37.2.77.51,1.22.42a3.33,3.33,0,0,0,1.21-.66s.09,0,.07,0a1.67,1.67,0,0,1-1.35,1.09,1.34,1.34,0,0,1-1.25-.8C176.06,173.89,176.15,173.84,176.2,173.87Z" style="fill:#263238"></path><path d="M179.7,167.87a27,27,0,0,1,1.14,2.53c0,.08-.16.18-.44.3,0,0,0,0,0,0a4.21,4.21,0,0,1-4.38-.16.09.09,0,0,1,.09-.16,6.4,6.4,0,0,0,4-.2c0-.26-1.56-2.85-1.43-2.91a7.72,7.72,0,0,1,2.05-.22c-1.67-3.58-3.91-6.86-5.52-10.44-.06-.13.12-.24.2-.13a64.55,64.55,0,0,1,6.43,11C182,167.94,180.09,167.9,179.7,167.87Z" style="fill:#263238"></path><path d="M179.79,170.58a4.79,4.79,0,0,1-1.31,2,2.14,2.14,0,0,1-1.2.5c-1,.08-1.27-.73-1.35-1.48a4.9,4.9,0,0,1,0-1.21A6.15,6.15,0,0,0,179.79,170.58Z" style="fill:#263238"></path><path d="M178.48,172.6a2.14,2.14,0,0,1-1.2.5c-1,.08-1.27-.73-1.35-1.48A2.19,2.19,0,0,1,178.48,172.6Z" style="fill:#ff9abb"></path><path d="M155.45,174.77c1.91-.68,5.09-3.5,6.84-7,1-1.9,1.43-5.78.57-9.93-1.5-7.25,1.92-13.52,10.69-12.72,0,0-2-6.84-7.22-7.46s-7.64,5.32-7.64,5.32-9.59,3.07-11.49,12.17S155.45,174.77,155.45,174.77Z" style="fill:#263238"></path><path d="M159.67,172s-5.68-4-7.62-1.77,3.7,8.94,6.93,9a3.08,3.08,0,0,0,3.31-3Z" style="fill:#d3766a"></path><path d="M153.71,172.07s0,.08,0,.08c2.29.08,4,1.55,5.45,3.2a1.7,1.7,0,0,0-2.55.43c0,.06,0,.12.09.09a1.91,1.91,0,0,1,2.19-.09,9,9,0,0,1,1.51,1.24c.16.15.45-.07.31-.25,0,0,0,0,0,0C159.82,174.17,156.54,171.33,153.71,172.07Z" style="fill:#263238"></path><path d="M161.29,178.58a1,1,0,1,1-1-1A1,1,0,0,1,161.29,178.58Z" style="fill:#ebebeb"></path><rect x="159.72" y="178.99" width="0.36" height="7.49" style="fill:#ebebeb"></rect><rect x="160.44" y="178.99" width="0.36" height="4.32" style="fill:#ebebeb"></rect><path d="M165.84,146.63c-5.25,6.42,3.27,14.68-3.46,22.92a7.27,7.27,0,0,1-2.76,2.07,7.63,7.63,0,0,0,2.36-2.37,14.11,14.11,0,0,0,2.06-9.53c-.52-4.21-2.1-9.92,1.8-13.09Z" style="fill:#263238"></path><path d="M158,190.62c1.61,4.22,8.79,14.69,10.41,17.85s6.81,12,7.35,11.64-4.64-26.51-4.64-26.51Z" style="fill:#d3766a"></path><path d="M156.67,186.87l-4.81,19L160,208.1l-2.18,6,6.29,10.65L167,236.15s.7-6.67.42-8.88C166.49,220.2,156.67,186.87,156.67,186.87Z" style="fill:#263238"></path><path d="M171.21,191.24s12.8,27.36,13.2,30.62-1.85,11.61-1.85,11.61,2.85-6.88,2.85-11.61c0-.69-2.22-11.1-2.22-11.1l-4.6-5.55,1.73-3.27Z" style="fill:#263238"></path><path d="M152.18,205.16C166,226.7,180.6,241.1,183.1,241.87c6.66,2,34.8,4.37,49.46,1.52,3.7-.72-8.53-27.35-12.56-27.25-8.52.21-27,1.78-30.78.64-3.46-1.05-14.93-11.14-26.39-17.67C151.81,192.83,145.74,195.15,152.18,205.16Z" style="fill:#d3766a"></path><path d="M219.09,216.44s8.73-8,14.68-13c3.32-2.77,9.44-7,12.81-7.94,5-1.38,27-3.94,27.75,1.38.66,4.81-18.49,4.6-18.49,4.6s19.35-1.5,19.08,4.44S253,208.76,253,208.76s19.92-1.09,18.67,5c-.94,4.59-20.67,2.88-20.67,2.88s17.12-.83,16.36,3.94c-.84,5.27-19.16,4.83-19.16,4.83-4,11.8-8.84,16-15.81,18C231.12,243.83,219.09,216.44,219.09,216.44Z" style="fill:#d3766a"></path><path d="M249.11,201.59c2.27-.26,4.56-.54,6.84-.6s4.57,0,6.84.13a38.46,38.46,0,0,1,8.81,1.45c-5.2-1.08-13.37-1-15.66-.95s-4.55,0-6.83,0A0,0,0,1,1,249.11,201.59Z" style="fill:#263238"></path><path d="M249.16,209.83c2.91-.21,5.79-.52,8.71-.59s5.67.1,8.57.23c.22,0,.14.12-.08.12-2.91,0-5.59.21-8.5.24s-5.81-.06-8.7.07C249.12,209.9,249.12,209.83,249.16,209.83Z" style="fill:#263238"></path><path d="M247.94,216.91a65,65,0,0,1,13.38.12c.22,0,.1.15-.12.15-4.45-.12-7.94-.25-13.24-.11C247.87,217.07,247.84,216.92,247.94,216.91Z" style="fill:#263238"></path><path d="M240.46,198.59a21.4,21.4,0,0,1,5.53-3.12,83.48,83.48,0,0,1,10.42-1.7c5.5-.35,11.56-1.15,16.65,1.41a12.6,12.6,0,0,0-4-1,62.5,62.5,0,0,0-12.53.32c-3.48.34-7,.8-10.39,1.42a27.64,27.64,0,0,0-5.64,2.66Z" style="fill:#263238"></path><path d="M217.88,214.71l1.87,32.86s-28.57-.06-38.91-5.37c-2.73-1.4-22.75-25.53-28.65-35.58s-2.33-15.71,9.27-9.26c12,6.66,25.62,17.85,28,18.68S217.88,214.71,217.88,214.71Z" style="fill:#37474f"></path><path d="M211.69,244.76c-.44-3.57-.69-7.14-.94-10.71s-.49-7.15-.65-10.72c-.08-2-.18-4-.2-6.05,0-.05.09-.06.09,0,.44,3.56.71,7.14,1,10.7s.5,7.15.7,10.72c.11,2,.18,4,.2,6.05C211.87,244.85,211.71,244.86,211.69,244.76Z" style="fill:#263238"></path><path d="M162.93,198.15a215.17,215.17,0,0,1,24.49,16.68,215.58,215.58,0,0,1-24.49-16.68Z" style="fill:#263238"></path><path d="M155.84,212c5.12,6.2,10.48,13.09,15.56,19.27a114.24,114.24,0,0,0,8.1,9.28,8.72,8.72,0,0,0,2.47,1.66,61.79,61.79,0,0,0,8.74,3c-4-.89-8.42-1.5-11.7-4.14a90,90,0,0,1-8.38-9.19c-5.11-6.33-10.25-13.14-14.79-19.9Z" style="fill:#263238"></path><path d="M155.88,214.16a32.25,32.25,0,0,1,3.53,2.73,5.93,5.93,0,0,1-3.53-2.73Z" style="fill:#263238"></path></g><g id="freepik--Table--inject-323"><rect x="217.6" y="298.69" width="97.92" height="12.64" style="fill:#37474f"></rect><rect x="315.52" y="298.69" width="75.48" height="12.64" transform="translate(706.52 610.02) rotate(180)" style="fill:#455a64"></rect><rect x="239.11" y="295.37" width="74.14" height="3.32" style="fill:#c7c7c7"></rect><polygon points="313.25 295.37 313.25 298.69 262.85 298.69 265.39 295.37 313.25 295.37" style="fill:#a6a6a6"></polygon><polygon points="273.04 298.69 337.93 298.69 347.32 252.91 282.43 252.91 273.04 298.69" style="fill:#a6a6a6"></polygon><polygon points="276.07 298.69 340.96 298.69 350.35 252.91 285.46 252.91 276.07 298.69" style="fill:#c7c7c7"></polygon><path d="M319.06,274.1a4.57,4.57,0,0,1-3.23,4.62c-1.85.38-3.41-1.06-3.48-3.22a4.58,4.58,0,0,1,3.24-4.62C317.44,270.5,319,271.94,319.06,274.1Z" style="fill:#fff"></path></g><g id="freepik--character-2--inject-323"><path d="M340.17,411,387,405.22s-4.61-98.74-4.21-100.94c.5-2.83,11.69-125.92,11.69-125.92H350.34c-9.64,21-15.11,117.53-16,126C332.23,323.66,340.17,411,340.17,411Z" style="fill:#f7a9a0"></path><path d="M313.57,459.38c.92.66,12.26.6,24.5.43,5.27-.08,54.67-34.63,56.59-37.29s-6.76-13.67-7.31-14.68l-3-42.16-47.73,2.77,3.94,47.17s-7,18.46-10.36,22-10.18,8-13.27,9.18S310.92,457.49,313.57,459.38Z" style="fill:#f7a9a0"></path><path d="M394.65,422.52c-1.91,2.66-51.32,37.21-56.58,37.29-12.24.17-23.58.23-24.5-.43-2.65-1.89.16-11.38,3.36-12.54,2.36-.86,7-3.73,10.45-6.59h0c-4.26,5.2-7,16.51,25.87-4.93,22.28-14.55,30.89-23.31,34.11-27.44C388.11,409.12,396.53,419.92,394.65,422.52Z" style="fill:#263238"></path><path d="M394.92,421.53a55.7,55.7,0,0,1-.55,12c-.56,2.16-2.81,7-2.81,9.93v16.51h-5.48V443.78c0-3.76-.77-12.66-8.95-8.2Z" style="fill:#263238"></path><path d="M350.34,178.34s2.58,32.29,7.9,40.39c0,0,1-.57,9,4.2L402.94,399,444,397.06s-4.79-53.77-14.9-90.71c-1.82-6.63-9.7-40.23-12.62-77.83,0,0,1.19-12,.72-18.07-1.15-14.71-9.09-32.09-9.09-32.09Z" style="fill:#f7a9a0"></path><path d="M451,477.33c-2.26.52-28-4.19-35.76-14.42-3.69-4.84-17.58-91.75-17.58-91.75l43.27-1s6.4,38.21,7.13,43.81,15.16,36.61,15.66,42.76C464.34,464.24,454.69,476.49,451,477.33Z" style="fill:#f7a9a0"></path><path d="M451,477.33c-2.28.53-27.53-4.54-35.77-14.42-2.24-2.69-6.26-25.13-9.93-47.73.28-.48,12.09,31.79,13.73,34.28s22.19,11.41,25.13,10.63,12.51-6.75,13.4-8-7.62-31.57-8.15-33.47c3.77,10.51,13.88,33,14.29,38.13C464.34,464.24,454.7,476.5,451,477.33Z" style="fill:#263238"></path><path d="M440.73,353.54H333c-.93-56.09,3.3-104.92,9.49-144.15,3.21-20.35,7.8-31,7.8-31l57.78,0c12.45,23.37,11.05,50.7,11.05,50.7S438.4,323.62,440.73,353.54Z" style="fill:#263238"></path><path d="M357.28,101c3.31-5.06,17.73-8,25.43-2.59,10.61,7.49,3.68,28.56-10.84,27S354.73,104.87,357.28,101Z" style="fill:#263238"></path><path d="M386,116.94a26,26,0,0,0,2-12.42A9.67,9.67,0,0,0,380.83,96a23.16,23.16,0,0,0-6.1-1,27.17,27.17,0,0,0-6.24.37A21.41,21.41,0,0,0,357.28,101a18.54,18.54,0,0,1,10.86-7.19,25.29,25.29,0,0,1,6.65-.76,24.56,24.56,0,0,1,6.69,1,12.12,12.12,0,0,1,5.81,3.85,11.44,11.44,0,0,1,2.34,6.51A21.7,21.7,0,0,1,386,116.94Z" style="fill:#263238"></path><path d="M338,221.43c-3.3-2.72-7.31-18.86-4.26-25.07,2.62-5.33,21-5.45,24-3.53s10.62,22.15,8.51,24.65S339.11,222.36,338,221.43Z" style="fill:#f7a9a0"></path><path d="M408.11,178.34l-57.77,0,.31-14.31s-5.43-7.29-5-12.6c.46-6.14,5.49-18.09,8.35-24.86,7-16.52,16.43-9.76,20.5-7.29,9,5.45,24.34,39,24.34,39Z" style="fill:#9C4F06"></path><path d="M408.11,178.34l-57.77,0,.31-14.31s-5.43-7.29-5-12.6c.46-6.14,5.49-18.09,8.35-24.86,7-16.52,16.43-9.76,20.5-7.29,9,5.45,24.34,39,24.34,39Z" style="fill:#fff;opacity:0.7000000000000001"></path><path d="M350.34,178.36l.31-14.31s-5.43-7.29-5-12.6c.46-6.14,5.49-18.09,8.35-24.86a34.15,34.15,0,0,1,1.5-3.13,124.73,124.73,0,0,0-2.41,12.28c-.16,3.23,1.08,12.61,1.08,12.61s8.85-12.7,11.2-20.27a75.3,75.3,0,0,0,2.46-12,23.31,23.31,0,0,1,6.67,3.19c9,5.45,24.34,39,24.34,39l9.32,20.07Z" style="fill:#37474f"></path><path d="M365.46,160.6a39.73,39.73,0,0,0-7,1.09c-1.14.31-2.27.68-3.39,1.08-.56.19-1.12.37-1.69.54a6.23,6.23,0,0,1-1.8.34c-.05,0-.06.1,0,.1a9.75,9.75,0,0,0,1.71,0,10.21,10.21,0,0,0,1.65-.31c1.17-.3,2.32-.66,3.48-1,2.33-.63,4.67-1.26,7-1.67C365.59,160.82,365.57,160.59,365.46,160.6Z" style="fill:#263238"></path><path d="M371.09,163.41a41.38,41.38,0,0,0-5.76-.61,25.44,25.44,0,0,0-2.89.09c-.46,0-.92.07-1.38.13s-1,.19-1.52.24c-.05,0-.06.11,0,.1.48,0,1,0,1.44.06h1.44l2.89,0c1.93,0,3.84,0,5.77.12C371.18,163.61,371.19,163.42,371.09,163.41Z" style="fill:#263238"></path><path d="M370.18,118c-2.3,1.27-3.47,7.46,0,20.89,3.36,13,17.26,1.39,14.88-6.65S372.49,116.73,370.18,118Z" style="fill:#9C4F06"></path><path d="M370.18,118c-2.3,1.27-3.47,7.46,0,20.89,3.36,13,17.26,1.39,14.88-6.65S372.49,116.73,370.18,118Z" style="fill:#fff;opacity:0.7000000000000001"></path><path d="M373.41,118.75c14.33,8,46.65,50.56,40.66,64.78S383,161.79,383.36,161.17s-7.63-20.37-10.75-27.27S365.78,114.49,373.41,118.75Z" style="fill:#9C4F06"></path><path d="M373.41,118.75c14.33,8,46.65,50.56,40.66,64.78S383,161.79,383.36,161.17s-7.63-20.37-10.75-27.27S365.78,114.49,373.41,118.75Z" style="fill:#fff;opacity:0.7000000000000001"></path><path d="M372.8,138.8c.75.91,1.48,1.82,2.19,2.77l.37.54-.59-1.47a53.27,53.27,0,0,1-2-5.21.08.08,0,0,1,.14-.05,52.74,52.74,0,0,1,2.5,5.26c.79,1.72,1.58,3.45,2.33,5.18s.3,1.76-.45,0c-.31-.73-.89-1.42-1.27-2.12l-.38-.49c-.35-.45-.68-.92-1-1.4-.66-1-1.28-2-1.89-3A0,0,0,0,1,372.8,138.8Z" style="fill:#263238"></path><path d="M368.11,211.69l-25.54,9.13s-10.26-27-13.16-38.27c-1.82-7.09.12-26.68-2.49-34l-4.67-13.08,7.5-2.68s2.06,5.79,4.67,13.08,16.52,21.22,19.61,27.86C359,184.34,368.11,211.69,368.11,211.69Z" style="fill:#455a64"></path><rect x="338.64" y="189.62" width="21.6" height="20.23" transform="translate(-46.83 129.24) rotate(-19.66)" style="fill:#9C4F06"></rect><rect x="338.64" y="189.62" width="21.6" height="20.23" transform="translate(-46.83 129.24) rotate(-19.66)" style="fill:#fff;opacity:0.4"></rect><path d="M343.47,159.36a26.7,26.7,0,0,1-5.9,7.17,26.77,26.77,0,0,1-9.12-1.81c0-1.78-.05-3.56-.11-5.27,0-.12,0-.24,0-.35s0-.24,0-.35c-.17-4.13-.54-7.8-1.39-10.18l-4.67-13.08,7.5-2.68s2.06,5.79,4.67,13.08c.85,2.38,2.9,5.45,5.38,8.75l.21.28.21.28C341.26,156.57,342.36,158,343.47,159.36Z" style="fill:#9C4F06"></path><polygon points="322.25 135.49 323.39 138.67 330.67 135.39 329.75 132.81 322.25 135.49" style="opacity:0.1"></polygon><path d="M343.73,159.67a27.49,27.49,0,0,1-6,7.22,27.59,27.59,0,0,1-9.24-1.76c0-.12,0-.23,0-.35v-.06c0-1.78-.05-3.56-.11-5.27,0-.12,0-.24,0-.35a23.11,23.11,0,0,0,7.05,1.3,23,23,0,0,0,4.63-5.48l.21.28c1,1.37,2.14,2.76,3.25,4.16a.08.08,0,0,1,0,0Z" style="fill:#263238"></path><path d="M343.73,159.67l-.22-.27a27.55,27.55,0,0,1-5.93,7.17,27.76,27.76,0,0,1-9.13-1.79c0,.12,0,.23,0,.35v.35a27.75,27.75,0,0,0,9.25,1.74h.1l.09-.06A27.79,27.79,0,0,0,344,160C343.87,159.86,343.8,159.76,343.73,159.67Zm-8.24,1.05.09-.07a22.93,22.93,0,0,0,4.64-5.45l-.21-.28-.21-.28a23.1,23.1,0,0,1-4.54,5.43,23.11,23.11,0,0,1-6.95-1.32c0,.11,0,.23,0,.35s0,.23,0,.35a23.25,23.25,0,0,0,7,1.27Z" style="fill:#ebebeb"></path><g style="opacity:0.4"><path d="M323.78,135s2.06,5.78,4.67,13.08,4,25.67,5.86,32.77c2.9,11.31,12.61,36.74,12.61,36.74l-3.46,1.24s-9.72-25.44-12.61-36.75c-1.82-7.09-.49-26.45-3.1-33.75s-4.67-13.08-4.67-13.08Z" style="fill:#fff"></path><path d="M328.65,133.21s2.07,5.78,4.67,13.07,14.48,22,17.57,28.59c4.92,10.59,13.53,36.42,13.53,36.42l1.77-.63s-8.61-25.83-13.54-36.42c-3.08-6.64-16.38-20.77-19-28.07L329,133.09Z" style="fill:#fff"></path></g><rect x="319.73" y="124.77" width="9.95" height="11.55" transform="translate(-24.99 116.88) rotate(-19.66)" style="fill:#9C4F06"></rect><rect x="320.72" y="127.06" width="0.25" height="9.73" transform="translate(-25.68 115.63) rotate(-19.66)" style="opacity:0.1"></rect><rect x="321.49" y="126.78" width="0.25" height="9.73" transform="translate(-25.55 115.96) rotate(-19.67)" style="opacity:0.1"></rect><rect x="322.26" y="126.5" width="0.25" height="9.73" transform="translate(-25.4 116.12) rotate(-19.66)" style="opacity:0.1"></rect><rect x="323.04" y="126.23" width="0.25" height="9.73" transform="translate(-25.27 116.37) rotate(-19.66)" style="opacity:0.1"></rect><rect x="323.81" y="125.95" width="0.25" height="9.73" transform="translate(-25.13 116.56) rotate(-19.65)" style="opacity:0.1"></rect><rect x="324.58" y="125.68" width="0.25" height="9.73" transform="translate(-25 116.98) rotate(-19.68)" style="opacity:0.1"></rect><rect x="325.36" y="125.4" width="0.25" height="9.73" transform="translate(-24.86 117.18) rotate(-19.67)" style="opacity:0.1"></rect><rect x="326.13" y="125.12" width="0.25" height="9.73" transform="translate(-24.72 117.34) rotate(-19.66)" style="opacity:0.1"></rect><rect x="326.9" y="124.85" width="0.25" height="9.73" transform="translate(-24.58 117.53) rotate(-19.65)" style="opacity:0.1"></rect><rect x="327.67" y="124.57" width="0.25" height="9.73" transform="translate(-24.44 117.83) rotate(-19.66)" style="opacity:0.1"></rect><rect x="328.45" y="124.3" width="0.25" height="9.73" transform="translate(-24.31 118.21) rotate(-19.68)" style="opacity:0.1"></rect><path d="M412.42,184.3c-6.52,9-38.47,10.32-59.42,7.82-4-.48,2.35-36.15,6.58-35.37C382.41,161,419.55,174.46,412.42,184.3Z" style="fill:#f7a9a0"></path><path d="M318.71,165.5c.46,2.26,4,1.46,4,1.46a7.1,7.1,0,0,0-1.82,4.47c0,2.92,4.61,4.18,4.61,4.18a8.74,8.74,0,0,0-1.17,5c.3,2.79,4.75,4.72,4.75,4.72a7.68,7.68,0,0,0,1.75,5.06c3.28,3.68,10.64,1.86,15.42,1.64a100.17,100.17,0,0,1,16.1.88l-.25-35.64s-22.69-6.57-28.12-4.88C329.36,153.83,317.55,159.74,318.71,165.5Z" style="fill:#f7a9a0"></path><path d="M322.71,166.84c4.5-2.68,9.63-4.27,14.6-5.76a.09.09,0,0,1,.05.17c-5,1.42-9.66,4.2-14.55,5.81A.12.12,0,0,1,322.71,166.84Z" style="fill:#263238"></path><path d="M325.49,175.2a13.24,13.24,0,0,1,3.4-1.09c1.22-.3,2.46-.58,3.69-.84,2.48-.52,5-1,7.47-1.38.11,0,.17.15.05.17-2.47.53-4.93,1.09-7.37,1.72-1.22.31-2.44.63-3.66,1a16,16,0,0,1-3.49.78A.18.18,0,0,1,325.49,175.2Z" style="fill:#263238"></path><path d="M329.13,185.32a9.71,9.71,0,0,1,3.12-.81l3.39-.66c2.27-.46,4.53-.91,6.77-1.44a.09.09,0,0,1,0,.17c-2.28.55-4.55,1.14-6.83,1.67l-3.37.76a8.9,8.9,0,0,1-3.11.43A.07.07,0,0,1,329.13,185.32Z" style="fill:#263238"></path><path d="M414.37,181.68c-2.73,15.19-50.21,12.15-50.21,12.15l1.3-37.09S417.09,166.48,414.37,181.68Z" style="fill:#9C4F06"></path><path d="M414.37,181.68c-2.73,15.19-50.21,12.15-50.21,12.15l1.3-37.09S417.09,166.48,414.37,181.68Z" style="fill:#fff;opacity:0.7000000000000001"></path><path d="M373.73,191.28c.34-4.95,1-25.28.88-29.69,0-.31-.2-.38-.23-.07-1.37,14.8-.74,24.85-.84,29.73C373.54,191.37,373.72,191.4,373.73,191.28Z" style="fill:#263238"></path><path d="M368.78,201.6c-3.22-1.24-2.83,3.26-2.83,3.26s-2.12-6.34-5.93-6.33-3,5.44-3,5.83c-.11-.34-2.21-6.12-6-5.71-4,.42-2.38,5.75-2.28,6.09-.2-.28-3-4-5.85-3-4.88,1.66,2.26,12.88,1.42,17,0,0-6.1,2.69-6.31,2.71a7.54,7.54,0,0,1,4.79,1.26c2.32,1.89,4.18,3.75,6,3.91a3.78,3.78,0,0,0,3.93-2.21s1.73,3.22,4.76,3c1.55-.12,2.74-2.7,2.74-2.7s1.5,2.52,4.17,2.15c2.14-.29,3-2.84,3-2.84s2.56,1.76,4.65.75C376.22,222.73,375.67,204.25,368.78,201.6Z" style="fill:#f7a9a0"></path><path d="M367.55,223.61a.05.05,0,0,0,.1,0,32.11,32.11,0,0,0-1.7-19c-.08-.19-.43-.14-.37.09A65.73,65.73,0,0,1,367.55,223.61Z" style="fill:#263238"></path><path d="M360.22,224.77c0,.07.12.08.13,0a30.05,30.05,0,0,0-3.14-20.62c-.13-.22-.46-.28-.33,0C359,208.5,360.55,218.8,360.22,224.77Z" style="fill:#263238"></path><path d="M348.31,204.39c3.34,6.17,4.36,12.79,4.44,19.74,0,.09.13.08.15,0,.89-3.41.38-7.83-.31-11.24a18.55,18.55,0,0,0-4.06-8.62C348.44,204.18,348.24,204.26,348.31,204.39Z" style="fill:#263238"></path><path d="M367.41,223.92h-.06l0,0h0s0,0,0,0a4,4,0,0,1-3.15,2.71,3.34,3.34,0,0,1-1.87-.24,7.74,7.74,0,0,1-2.08-1.79,4.6,4.6,0,0,1-3.87,2.45,3.56,3.56,0,0,1-1.93-.83,10.44,10.44,0,0,1-1.68-1.91c-.05-.09-.15-.07-.17,0a3.55,3.55,0,0,1-3.15,2,6.05,6.05,0,0,1-3.59-1.41,29.11,29.11,0,0,0-3.47-2.8,7.47,7.47,0,0,0-1.71-.69,5.93,5.93,0,0,0-1.76-.16c-.13,0-.25.08-.09.08a4.39,4.39,0,0,1,2.49.59,10,10,0,0,1,1.84,1.53,20.15,20.15,0,0,0,3.44,3.08,4.19,4.19,0,0,0,3.77.5,3.87,3.87,0,0,0,2.29-2.61,10.46,10.46,0,0,0,1.53,2.4,3.29,3.29,0,0,0,2.13,1.08,4.37,4.37,0,0,0,4-2.88,5.77,5.77,0,0,0,1.76,2.09,3.3,3.3,0,0,0,2.3.38c1.73-.36,2.66-1.86,3.14-3.45l0,0a2.7,2.7,0,0,0,3.43.86A5.42,5.42,0,0,1,367.41,223.92Z" style="fill:#263238"></path><path d="M365.81,116.25c.22,1.22-2.14,11-7.29,13-1.67.63-4.31-6.34-4.31-6.34l-6.57-9,9-13.38S365.7,115.74,365.81,116.25Z" style="fill:#f7a9a0"></path><path d="M347.65,113.93l6.25,8.56a21.49,21.49,0,0,0,6.38-15.84c-1.93-3.26-3.62-6.09-3.62-6.09Z" style="fill:#263238"></path><path d="M329.87,99.72c.43,18.22,11.39,20,15.32,19.92,3.57-.09,15.7-.84,17.15-19S355.19,76.91,347,76.68,329.44,81.5,329.87,99.72Z" style="fill:#f7a9a0"></path><path d="M332.63,98.18a12,12,0,0,0,1.18-.45,2,2,0,0,0,1.1-.7.64.64,0,0,0-.13-.78,1.59,1.59,0,0,0-1.62-.11,2.36,2.36,0,0,0-1.33,1.07A.69.69,0,0,0,332.63,98.18Z" style="fill:#263238"></path><path d="M345.2,96.74a10.63,10.63,0,0,1-1.26-.06,1.94,1.94,0,0,1-1.27-.3.64.64,0,0,1-.13-.78A1.63,1.63,0,0,1,344,95a2.35,2.35,0,0,1,1.6.59A.69.69,0,0,1,345.2,96.74Z" style="fill:#263238"></path><path d="M343.12,100.64s.1,0,.11.09c.13,1.24.5,2.63,1.67,2.88,0,0,0,.07,0,.07C343.51,103.68,343.05,101.83,343.12,100.64Z" style="fill:#263238"></path><path d="M344,99.2c2-.43,2.68,3.51.86,3.91S342.4,99.56,344,99.2Z" style="fill:#263238"></path><path d="M344.85,99.27c.38.16.79.49,1.21.45s.78-.51,1-1c0,0,.07,0,.08,0a1.48,1.48,0,0,1-.79,1.84c-.72.23-1.38-.34-1.7-1.06C344.61,99.43,344.69,99.2,344.85,99.27Z" style="fill:#263238"></path><path d="M335.61,101.07s-.08.08-.07.13c.27,1.21.37,2.65-.65,3.26,0,0,0,.08,0,.07C336.22,104.08,336.06,102.18,335.61,101.07Z" style="fill:#263238"></path><path d="M334.28,100c-2,.22-1.4,4.18.45,4S336,99.82,334.28,100Z" style="fill:#263238"></path><path d="M333.49,100.39c-.28.26-.53.69-.9.77s-.82-.29-1.15-.66c0,0-.07,0-.06,0,.09.76.46,1.51,1.21,1.55s1.07-.69,1.14-1.47C333.75,100.49,333.61,100.29,333.49,100.39Z" style="fill:#263238"></path><path d="M344,110.88c-.22.35-.42.81-.85.94a3.17,3.17,0,0,1-1.37,0,0,0,0,0,0,0,.07,1.69,1.69,0,0,0,1.68.31,1.32,1.32,0,0,0,.71-1.29C344.15,110.83,344.05,110.83,344,110.88Z" style="fill:#263238"></path><path d="M338.16,107.32s0,1.87.2,2.74c0,.08.23.08.52,0h0a4.16,4.16,0,0,0,3.72-2.2.09.09,0,0,0-.15-.1,6.21,6.21,0,0,1-3.56,1.71c-.1-.23,0-3.21-.13-3.2a7.52,7.52,0,0,0-1.88.78c-.23-3.89.16-7.79-.13-11.66a.12.12,0,0,0-.23,0,62.29,62.29,0,0,0-.4,12.57C336.17,108.48,337.84,107.53,338.16,107.32Z" style="fill:#263238"></path><path d="M362.35,101.93a7.56,7.56,0,0,1-5-5.52,19.7,19.7,0,0,1-8.82-5.31c.17.35,1.42,2.93,2.09,4.23-11.79-.59-16.55-8.91-16.55-8.91a20,20,0,0,0-4,8s-1-7.05,2-12.27A11.49,11.49,0,0,1,341.84,76a16.42,16.42,0,0,1,16.54,2.73C367,85.87,362.35,101.93,362.35,101.93Z" style="fill:#263238"></path><path d="M341.61,94.61A21.67,21.67,0,0,0,347.8,96s0,0,0,0a18.19,18.19,0,0,1-9.14-4,16.88,16.88,0,0,1-3-3.13,11.9,11.9,0,0,1-2.12-4.18.09.09,0,0,0-.18,0,14,14,0,0,0,1.53,4.41A12.85,12.85,0,0,0,338,92.59a14.66,14.66,0,0,0,3.6,2" style="fill:#263238"></path><path d="M358.46,100.76s3-6.28,5.76-5.31,1.2,9.6-1.6,11.22a3.08,3.08,0,0,1-4.34-1Z" style="fill:#f7a9a0"></path><path d="M363.71,97.91s.06.06,0,.08c-2,1.2-2.72,3.33-3.15,5.48a1.7,1.7,0,0,1,2.43-.88c.06,0,0,.12,0,.12a1.9,1.9,0,0,0-2,1,9.61,9.61,0,0,0-.7,1.83c-.07.2-.42.16-.39-.07v0C359.44,102.76,360.88,98.67,363.71,97.91Z" style="fill:#263238"></path><path d="M362.15,106.31a1.1,1.1,0,0,1-.66,1.42,1.12,1.12,0,0,1-1.43-.66,1.13,1.13,0,0,1,.67-1.43A1.11,1.11,0,0,1,362.15,106.31Z" style="fill:#fff"></path><path d="M353.06,121.35l4.76,7.39,7.73-13.1,3.72,3.76s-6.64,18-6.85,17.26l-4.62-6.27L354,136.11,352,124Z" style="fill:#9C4F06"></path><path d="M353.06,121.35l4.76,7.39,7.73-13.1,3.72,3.76s-6.64,18-6.85,17.26l-4.62-6.27L354,136.11,352,124Z" style="fill:#fff;opacity:0.7000000000000001"></path><path d="M352.66,130.17c-.25-2-.56-4-.72-6.06,0-.07.1-.13.14,0,.76,1.85,1.68,9.55,2,11.37l0,0c.16-.25,3.6-5.08,3.66-5,.92,1,4.31,5.52,4.57,6,1-2.86,5.64-14.19,7-17,0-.08.16,0,.13,0-.84,3-6.73,17.89-6.85,17.88a80.36,80.36,0,0,1-4.86-6.64c-.54,1-3.93,6.37-4,6.08A64,64,0,0,1,352.66,130.17Z" style="fill:#263238"></path></g><g id="freepik--speech-bubble--inject-323"><polygon points="181.44 88.24 181.44 124.02 191.72 124.02 191.72 132.7 200.4 124.02 246.59 124.02 246.59 88.24 181.44 88.24" style="fill:#fff"></polygon><path d="M181.44,88.24l.29,35.78-.29-.29,10.28,0h.34V124l.05,8.68-.67-.28,8.65-8.7.13-.13c.12,0,46.22-.09,46.37,0l-.48.48.06-35.78.42.43c-16.24-.06-48.91-.3-65.15-.43Zm0,0c16.23-.13,48.92-.37,65.15-.43H247v.43l.06,35.78v.49h-.49c.11-.17-47.32.21-45.89-.18L192,133l-.66.67v-.94l0-8.68.34.35-10.28-.05h-.29V124l.29-35.78Z" style="fill:#263238"></path><path d="M225.61,106.13a2.91,2.91,0,1,0,2.91-2.91A2.91,2.91,0,0,0,225.61,106.13Z" style="fill:#263238"></path><path d="M211.11,106.13a2.91,2.91,0,1,0,2.91-2.91A2.91,2.91,0,0,0,211.11,106.13Z" style="fill:#263238"></path><path d="M196.61,106.13a2.91,2.91,0,1,0,2.9-2.91A2.9,2.9,0,0,0,196.61,106.13Z" style="fill:#263238"></path></g></svg>
