<svg xmlns="http://www.w3.org/2000/svg" viewBox="0 0 500 500"><g id="freepik--background-simple--inject-1637"><path d="M365.87,327.92c-31.22,19.14-79.85,6.6-110.72-15.13-34.16-24-55.88-24.06-93-33.48-95.93-24.35-93.94-127-19.78-162.38,32.47-15.49,75.73-28,113.08-26.39,53.08,2.26,52.77,29.62,73.79,74.16,14.93,31.64,46.29,43.06,62.34,72.54C412.06,274.83,396.14,309.37,365.87,327.92Z" style="fill:#7D4700"></path><path d="M365.87,327.92c-31.22,19.14-79.85,6.6-110.72-15.13-34.16-24-55.88-24.06-93-33.48-95.93-24.35-93.94-127-19.78-162.38,32.47-15.49,75.73-28,113.08-26.39,53.08,2.26,52.77,29.62,73.79,74.16,14.93,31.64,46.29,43.06,62.34,72.54C412.06,274.83,396.14,309.37,365.87,327.92Z" style="fill:#fff;opacity:0.9"></path></g><g id="freepik--Shadow--inject-1637"><ellipse id="freepik--path--inject-1637" cx="250" cy="416.24" rx="193.89" ry="11.32" style="fill:#f5f5f5"></ellipse></g><g id="freepik--Table--inject-1637"><rect x="220.67" y="217.84" width="58.67" height="6.54" rx="1.16" style="fill:#7D4700"></rect><polygon points="260.49 227.68 239.51 227.68 225.33 223.67 274.67 223.67 260.49 227.68" style="fill:#7D4700"></polygon><path d="M243.4,409.17h13.2A16.57,16.57,0,0,1,264,410.9l4.57,2.29a1.61,1.61,0,0,1-.72,3.05H232.17a1.61,1.61,0,0,1-.72-3.05L236,410.9A16.57,16.57,0,0,1,243.4,409.17Z" style="fill:#7D4700"></path><rect x="155.81" y="314.45" width="188.39" height="5" transform="translate(566.95 66.95) rotate(90)" style="fill:#7D4700"></rect></g><g id="freepik--character-1--inject-1637"><polygon points="193.34 408.01 185.31 407.89 183 389.27 191.03 389.39 193.34 408.01" style="fill:#ff8b7b"></polygon><polygon points="158.85 403.36 150.57 401.96 149.95 383.84 158.23 385.24 158.85 403.36" style="fill:#ff8b7b"></polygon><path d="M149.54,400.35l9.3-3.05a.69.69,0,0,1,.82.3l3.73,6.29a1.18,1.18,0,0,1-.68,1.72c-3,.93-5.24,1.47-9,2.71-2.32.76-9.23,3.29-12.43,4.34s-4.66-2-3.44-2.69c5.45-3.21,9.3-6.44,10.62-8.75A2,2,0,0,1,149.54,400.35Z" style="fill:#263238"></path><path d="M185.15,407l8.77.14a.69.69,0,0,1,.67.55l1.47,7.16a1.16,1.16,0,0,1-1.17,1.41c-3.16-.1-7.73-.36-11.7-.42-4.65-.07-8.67.12-14.12,0-3.29-.05-4.15-3.39-2.77-3.67,6.3-1.28,11.43-1.35,16.91-4.61A3.74,3.74,0,0,1,185.15,407Z" style="fill:#263238"></path><path d="M184,168.86c-.61,1.35-1.17,2.54-1.81,3.76s-1.25,2.42-1.89,3.62q-2,3.58-4.15,7a100,100,0,0,1-9.92,13.31,14.31,14.31,0,0,1-1,1.1,11.38,11.38,0,0,1-1.53,1.22,9.47,9.47,0,0,1-4.23,1.54,9.74,9.74,0,0,1-4.15-.51,12.7,12.7,0,0,1-2.93-1.48,19.69,19.69,0,0,1-3.81-3.47,36,36,0,0,1-2.71-3.59,59,59,0,0,1-4.09-7.36,68.4,68.4,0,0,1-3.08-7.66l5.46-2.56a109.24,109.24,0,0,0,9,12,28.65,28.65,0,0,0,2.41,2.4,11.72,11.72,0,0,0,2.22,1.57,1.35,1.35,0,0,0,.63.19c.09,0,0-.09-.27-.1a1.65,1.65,0,0,0-.59.11s0,0,0,0a2.31,2.31,0,0,1,.25-.37c1.46-2,2.84-4,4.2-6.09s2.64-4.26,3.89-6.44,2.48-4.41,3.68-6.64,2.37-4.55,3.45-6.66Z" style="fill:#ff8b7b"></path><path d="M187.36,163.8c2.16,7.36-13.08,27.43-13.08,27.43l-15.36-9.88a97.81,97.81,0,0,1,10.65-18C175.86,155.28,185,155.72,187.36,163.8Z" style="fill:#263238"></path><path d="M178,172.44c-3.16,1.35-7.81,9-10.23,14.6l6.52,4.19a122.8,122.8,0,0,0,9.8-15.36C182,173.61,179.66,171.73,178,172.44Z" style="opacity:0.2"></path><path d="M144.89,175.61l-4.15-9.72-6,6.93a9.56,9.56,0,0,0,4.63,5.13Z" style="fill:#ff8b7b"></path><polygon points="133.06 163.25 131.33 170.08 134.79 172.82 140.74 165.89 133.06 163.25" style="fill:#ff8b7b"></polygon><path d="M143.5,159.46l1.5-9.2-13.19-2.15-1.51,9.2a6.72,6.72,0,0,0,4.79,7.51l-1.86,11.35-1-.17a4.5,4.5,0,0,0-2,.14l-1.31.41a.43.43,0,0,0,.05.84l9.47,1.55a.43.43,0,0,0,.32-.78l-1.11-.8a4.53,4.53,0,0,0-1.88-.79l-1-.16,1.86-11.35A6.71,6.71,0,0,0,143.5,159.46Z" style="fill:#7D4700;opacity:0.2"></path><path d="M142.45,156.6l-.43,2.62a5.19,5.19,0,1,1-10.24-1.68l.26-1.62a1,1,0,0,0,.22.05c1.64.27,1.81-.75,3.44-.48s1.47,1.29,3.11,1.55,1.79-.75,3.43-.48Z" style="fill:#7D4700;opacity:0.6000000000000001"></path><polygon points="183 389.27 184.19 398.87 192.22 399 191.03 389.4 183 389.27" style="opacity:0.2"></polygon><polygon points="158.24 385.25 149.95 383.85 150.27 393.19 158.56 394.59 158.24 385.25" style="opacity:0.2"></polygon><path d="M223.14,160.54c-8.65,30.49-6.91,62.85-7.69,69.4-6.27-.45-29.92-2.22-42.81-3.18-4.11-45.87,5.62-69.16,5.62-69.16s2.75-.53,6.5-.92c1.17-.12,2.44-.22,3.76-.29.73,0,1.47-.07,2.22-.08a160.25,160.25,0,0,1,18.2,1.35c1.14.14,2.3.32,3.43.5s2.06.37,3,.56C219.76,159.59,223.14,160.54,223.14,160.54Z" style="fill:#263238"></path><path d="M214,173.62c-.77,2.95.11,16.41,3.19,19.73.42-4.31,1-8.81,1.72-13.41Z" style="opacity:0.2"></path><path d="M207.79,146.25c-1.75,4.92-2.66,7.2,1.15,11.41-3.42,2.93-7.85,6.27-14.83,6s-5.4-5-3.37-7.35c6.64-1.08,5.89-5.77,6-10.57Z" style="fill:#ff8b7b"></path><path d="M184.78,165.17a25.24,25.24,0,0,0,7.79-1.66,7.09,7.09,0,0,1-1.5-7.69,29.69,29.69,0,0,0-4.37.18S180.67,159.28,184.78,165.17Z" style="fill:#fff"></path><path d="M199.35,145.86c.1.31.22.62.35.93,1,2.32,3.71,4.17,6.59,5.1a20,20,0,0,1,1.5-5.64Z" style="opacity:0.2"></path><path d="M209.36,120.1c-3.11-1-5.78,4.36-5.91,7.3s6.53,7.68,6.53,7.68S220.38,123.76,209.36,120.1Z" style="fill:#263238"></path><path d="M191.28,131c1.08,7.89,1.3,12.57,5.61,16.34,6.48,5.67,16,1.31,17.3-6.74,1.17-7.25-.78-18.94-8.78-21.52A10.86,10.86,0,0,0,191.28,131Z" style="fill:#ff8b7b"></path><path d="M187.57,123.17c3.2-.73,7.16,0,8.32,4.35,1.49,5.65-2.95,9.65-2.95,9.65S177,125.56,187.57,123.17Z" style="fill:#263238"></path><path d="M190.63,125.44c5.29,2.16,25.83,1.23,23.41-5.15-3.23-8.52-18.1-4.51-20.76-8.4-.56,2,.44,2.78.44,2.78S176.05,119.5,190.63,125.44Z" style="fill:#263238"></path><path d="M187.29,138.07a7.55,7.55,0,0,0,4.93,3c2.63.4,3.61-2,2.61-4.34-.9-2.08-3.36-4.78-5.86-4.12S185.86,136.08,187.29,138.07Z" style="fill:#ff8b7b"></path><path d="M181.21,397l13.59.21s-7.85-53.69-6.63-78.67c.37-7.6-.84-18.23,1.16-29.62,2.54-14.36,3.76-20.08,7-38.22,2.34-12.94,4.41-21.81,4.41-21.81l-28.14-2.1s-9.19,64.71-8.92,89.2C164,341.43,181.21,397,181.21,397Z" style="fill:#7D4700"></path><path d="M189.33,288.89a96.26,96.26,0,0,0-1.18,18c-2.34,6.61-4.38,12.87-5.8,18.44-2.49,9.75-6.43,24.53-10.27,38.74-4.17-16.64-8.23-35.87-8.36-48.13Z" style="opacity:0.2"></path><path d="M187.82,227.89s-20.35,48.78-27.17,71.29c-7.48,24.64-13.59,91.24-13.59,91.24l14.52,2.27s9.12-48.32,17.37-72c9.4-27,35.29-69.71,36.5-90.7Z" style="fill:#7D4700"></path><polygon points="145.27 390.46 163.55 393.6 165.4 386.53 145.52 384.33 145.27 390.46" style="fill:#263238"></polygon><polygon points="179.5 397.26 195.69 397.51 195.77 392.28 177.68 391.72 179.5 397.26" style="fill:#263238"></polygon><path d="M203.25,132.34c.05.65.43,1.15.85,1.11s.72-.58.68-1.22-.43-1.14-.86-1.11S203.2,131.7,203.25,132.34Z" style="fill:#263238"></path><path d="M212.17,131.8c.05.65.43,1.14.85,1.11s.72-.58.68-1.22-.43-1.15-.85-1.12S212.12,131.15,212.17,131.8Z" style="fill:#263238"></path><path d="M208.47,132.29a23.31,23.31,0,0,0,3.5,5.3,3.72,3.72,0,0,1-3,.8Z" style="fill:#ff5652"></path><path d="M208.12,140.63a5.32,5.32,0,0,1-4-1.47.19.19,0,1,1,.28-.26,5.15,5.15,0,0,0,4.46,1.27.19.19,0,0,1,.22.15.19.19,0,0,1-.16.22A6.32,6.32,0,0,1,208.12,140.63Z" style="fill:#263238"></path><path d="M201.49,129.63a.55.55,0,0,1-.18-.06.39.39,0,0,1-.12-.53,3.81,3.81,0,0,1,3-1.8.39.39,0,1,1,0,.77h0a3,3,0,0,0-2.34,1.44A.41.41,0,0,1,201.49,129.63Z" style="fill:#263238"></path><path d="M214.61,128.78a.38.38,0,0,1-.3-.19A3.06,3.06,0,0,0,212,127a.38.38,0,0,1-.36-.4.39.39,0,0,1,.4-.36,3.81,3.81,0,0,1,2.89,1.94.37.37,0,0,1-.14.51A.43.43,0,0,1,214.61,128.78Z" style="fill:#263238"></path><path d="M147.45,402.51a9.44,9.44,0,0,0,1.91-.93.21.21,0,0,0,.09-.19.2.2,0,0,0-.15-.16c-.33-.08-3.29-.78-4-.07a.59.59,0,0,0-.14.61,1.15,1.15,0,0,0,.69.83A2.39,2.39,0,0,0,147.45,402.51Zm1.3-1c-1.21.68-2.22,1-2.75.75a.76.76,0,0,1-.46-.58.23.23,0,0,1,0-.25C146,401.05,147.56,401.25,148.75,401.5Z" style="fill:#7D4700"></path><path d="M149.32,401.6l.09-.06a.2.2,0,0,0,0-.2c0-.09-.94-2.23-2.06-2.66a1,1,0,0,0-.85,0h0a.63.63,0,0,0-.42.66c.12.9,2.19,2.07,3.12,2.24ZM146.76,399a.69.69,0,0,1,.47,0c.72.28,1.39,1.48,1.68,2.1-1-.34-2.36-1.28-2.43-1.82,0-.05,0-.16.2-.27h0Z" style="fill:#7D4700"></path><path d="M184.34,408.06a.2.2,0,0,0,.13-.16.17.17,0,0,0-.1-.19c-.36-.2-3.56-1.88-4.54-1.36a.62.62,0,0,0-.32.51h0a1.06,1.06,0,0,0,.34.93c.87.79,3.17.51,4.47.27Zm-4.26-1.4c.61-.2,2.34.49,3.61,1.12-1.78.27-3.1.17-3.59-.27a.69.69,0,0,1-.21-.62.2.2,0,0,1,.12-.2Z" style="fill:#7D4700"></path><path d="M184.34,408.06l0,0a.17.17,0,0,0,.08-.17c0-.09-.19-2.26-1.19-3.11a1.37,1.37,0,0,0-1.05-.34h0c-.53,0-.68.3-.72.52-.16.9,1.73,2.67,2.69,3.12A.23.23,0,0,0,184.34,408.06Zm-2.28-3.24.2,0h0a1,1,0,0,1,.77.26,4.45,4.45,0,0,1,1,2.49c-1-.61-2.26-2-2.17-2.54A.24.24,0,0,1,182.06,404.82Zm.18-.22Z" style="fill:#7D4700"></path><path d="M225.2,165.54c2.41,4.86,4.52,9.67,6.52,14.65s3.77,10,5.3,15.27c.36,1.32.73,2.64,1,4l.47,2,.06.26.06.36.12.75a12.62,12.62,0,0,1,.14,1.52,14.73,14.73,0,0,1-1,5.91,16.66,16.66,0,0,1-2.8,4.63,25.71,25.71,0,0,1-7.26,5.82,34.89,34.89,0,0,1-3.91,1.87,34.31,34.31,0,0,1-4.12,1.39l-2.29-5.58c3.87-2.63,7.91-6,9.77-9.23a8.33,8.33,0,0,0,.88-2.24,4.34,4.34,0,0,0,0-1.8,2.13,2.13,0,0,0-.1-.42l-.17-.55-.54-1.75c-.37-1.16-.79-2.33-1.2-3.5-.84-2.35-1.73-4.71-2.7-7.05s-1.93-4.71-2.94-7c-2-4.68-4.14-9.42-6.24-14Z" style="fill:#ff8b7b"></path><path d="M223.13,160.54c7.33,2.3,14.53,27.13,14.53,27.13l-16.94,7.41s-5.49-12-8.64-21.4C208.65,163.43,214.26,157.76,223.13,160.54Z" style="fill:#263238"></path><path d="M208.94,156.3s-1.82,4.31-16.37,7.21a93.83,93.83,0,0,0,8.54,4.93s14-2,13.39-10.48C213.51,157.16,208.94,156.3,208.94,156.3Z" style="fill:#fff"></path><path d="M220.36,217.34l-8.12,2.22,3.3,7.62s7.3-1.62,7.21-5.6Z" style="fill:#ff8b7b"></path><polygon points="209.17 224.78 212.51 229.99 215.54 227.18 212.24 219.56 209.17 224.78" style="fill:#ff8b7b"></polygon></g><g id="freepik--character-2--inject-1637"><path d="M265.68,179.62l-.74-9.3-13.33,1.06.73,9.29a6.71,6.71,0,0,0,6.45,6.15l.91,11.47-1,.08a4.47,4.47,0,0,0-1.95.62l-1.17.71a.43.43,0,0,0,.25.8l9.56-.75a.44.44,0,0,0,.13-.84l-1.27-.51a4.36,4.36,0,0,0-2-.31l-1,.08-.91-11.46A6.72,6.72,0,0,0,265.68,179.62Z" style="fill:#7D4700;opacity:0.2"></path><path d="M264,177.09l.21,2.64a5.19,5.19,0,1,1-10.34.82l-.13-1.64h.22c1.66-.13,1.57-1.16,3.23-1.29s1.73.9,3.38.77,1.56-1.16,3.22-1.3Z" style="fill:#7D4700;opacity:0.6000000000000001"></path><path d="M292.17,213.67h0a.5.5,0,0,1-.48-.52c0-.3,1.49-30.18,35.48-46.88a.5.5,0,0,1,.44.89c-33.43,16.44-34.91,45.73-34.92,46A.51.51,0,0,1,292.17,213.67Z" style="fill:#7D4700"></path><path d="M341.38,176.62c.25.38.37.58.54.85l.45.74c.29.5.54,1,.8,1.49.5,1,1,2,1.39,3a55.27,55.27,0,0,1,2.17,6.09,64.48,64.48,0,0,1,2.37,12.54l.08.79c0,.11,0,.29,0,.48l0,.53a11.76,11.76,0,0,1-.12,2.08,17.14,17.14,0,0,1-1,3.73,25.45,25.45,0,0,1-3.46,6,42.45,42.45,0,0,1-9.31,8.81l-2.75-3.23a58,58,0,0,0,6.64-9.19,21.41,21.41,0,0,0,2-4.72,9,9,0,0,0,.32-2.14,4.72,4.72,0,0,0,0-.93l0-.21,0-.28-.13-.7a76.52,76.52,0,0,0-2.72-11c-.57-1.79-1.28-3.52-2-5.21-.36-.85-.75-1.68-1.16-2.48l-.62-1.18-.31-.55-.25-.44Z" style="fill:#803e3c"></path><path d="M332,223.77l3.62,7.65,2.87-6.47s-2.54-5.6-6-5.08Z" style="fill:#7f3e3b"></path><polygon points="341.41 231.42 344.28 226.7 338.53 224.95 335.66 231.42 341.41 231.42" style="fill:#7f3e3b"></polygon><path d="M322,408.22a10.18,10.18,0,0,0,2.21-.3.19.19,0,0,0,.15-.16.2.2,0,0,0-.09-.2c-.28-.19-2.83-1.83-3.8-1.39a.69.69,0,0,0-.4.56,1.13,1.13,0,0,0,.33,1A2.4,2.4,0,0,0,322,408.22Zm1.65-.59c-1.46.3-2.55.25-3-.14a.74.74,0,0,1-.2-.71.28.28,0,0,1,.16-.25C321.13,406.29,322.59,407,323.63,407.63Z" style="fill:#7D4700"></path><path d="M324.15,407.92l.1,0a.21.21,0,0,0,.09-.18c0-.1,0-2.51-.92-3.32a1,1,0,0,0-.84-.26.7.7,0,0,0-.67.55c-.18.95,1.34,2.75,2.14,3.21Zm-1.43-3.39a.63.63,0,0,1,.44.17,4.52,4.52,0,0,1,.77,2.64c-.79-.64-1.74-2-1.63-2.57,0-.09.08-.21.33-.24Z" style="fill:#7D4700"></path><path d="M269.65,405.23a.19.19,0,0,0,.16-.11.2.2,0,0,0,0-.23c-.29-.29-2.88-2.79-4.07-2.68l-.07,0a.63.63,0,0,0-.48.4,1.1,1.1,0,0,0,.06,1c.63,1,3,1.43,4.4,1.57Zm-3.9-2.62c.66-.06,2.22,1.15,3.32,2.16-1.87-.25-3.16-.73-3.52-1.31a.74.74,0,0,1,0-.68.27.27,0,0,1,.19-.17Z" style="fill:#7D4700"></path><path d="M269.65,405.23h0a.2.2,0,0,0,.14-.14c0-.1.49-2.31-.26-3.45a1.41,1.41,0,0,0-.95-.65c-.54-.11-.77.11-.88.31-.42.87.94,3.17,1.76,3.89A.17.17,0,0,0,269.65,405.23Zm-1.34-3.88a.66.66,0,0,1,.23,0,1,1,0,0,1,.7.47,4.63,4.63,0,0,1,.26,2.79c-.79-.89-1.65-2.64-1.4-3.16A.22.22,0,0,1,268.31,401.35Z" style="fill:#7D4700"></path><path d="M323.54,147.33c-1,5-3.16,15.81.32,19.13,0,0-1.36,5-10.6,5-10.15,0-4.85-5-4.85-5,5.54-1.32,5.4-5.44,4.44-9.3Z" style="fill:#7f3e3b"></path><path d="M306.62,135.61a.58.58,0,0,0,.18,0A.41.41,0,0,0,307,135a4,4,0,0,0-2.87-2.2.4.4,0,0,0-.44.35.39.39,0,0,0,.35.44h0a3.16,3.16,0,0,1,2.26,1.77A.38.38,0,0,0,306.62,135.61Z" style="fill:#263238"></path><path d="M303.59,140a17.9,17.9,0,0,1-2.92,4,2.93,2.93,0,0,0,2.34.74Z" style="fill:#630f0f"></path><path d="M304.33,138.87c-.08.67-.5,1.17-.94,1.12s-.73-.64-.64-1.31.5-1.17.94-1.12S304.42,138.2,304.33,138.87Z" style="fill:#263238"></path><path d="M303.88,137.62l-1.55-.66S303,138.32,303.88,137.62Z" style="fill:#263238"></path><polygon points="278.71 407.66 270.55 405.78 274.38 386.75 282.54 388.64 278.71 407.66" style="fill:#7f3e3b"></polygon><polygon points="333.89 407.72 325.51 407.72 326.17 388.33 334.54 388.33 333.89 407.72" style="fill:#7f3e3b"></polygon><path d="M324.85,406.75h9.41a.67.67,0,0,1,.67.58l1.07,7.44a1.35,1.35,0,0,1-1.35,1.49c-3.28-.05-4.86-.25-9-.25-2.54,0-6.26.27-9.78.27s-3.7-3.48-2.24-3.79c6.57-1.42,7.6-3.36,9.82-5.22A2.17,2.17,0,0,1,324.85,406.75Z" style="fill:#263238"></path><path d="M270.44,404.27l9,2.75a.66.66,0,0,1,.47.74l-1.15,7.44a1.35,1.35,0,0,1-1.72,1c-3.12-1-4.58-1.66-8.53-2.87-2.44-.75-7.55-2-10.91-3.06s-2.53-4.41-1-4.28c6.69.57,9.73-.54,12.39-1.67A2.19,2.19,0,0,1,270.44,404.27Z" style="fill:#263238"></path><polygon points="274.38 386.76 272.33 396.95 280.57 398.45 282.54 388.64 274.38 386.76" style="opacity:0.2"></polygon><polygon points="334.55 388.33 326.17 388.33 325.83 398.33 334.21 398.33 334.55 388.33" style="opacity:0.2"></polygon><path d="M338.3,168.36c3.48.77,7.2,13.28,7.2,13.28l-9.84,10.47s-8.16-11.76-6.5-16.08C330.89,171.52,334.19,167.46,338.3,168.36Z" style="fill:#7D4700"></path><path d="M338.3,168.36c3.48.77,7.2,13.28,7.2,13.28l-9.84,10.47s-8.16-11.76-6.5-16.08C330.89,171.52,334.19,167.46,338.3,168.36Z" style="opacity:0.30000000000000004"></path><path d="M332.79,176.33c-1.76-1.61-3-1.13-3.76.15-.8,3.72,3.94,11.51,5.85,14.46C335.76,187.42,336.77,180,332.79,176.33Z" style="opacity:0.4"></path><path d="M294.25,168.61s-4,1.4,4,50.55h34c-.57-13.84-.58-22.38,6-50.8a100,100,0,0,0-14.44-1.9,107.54,107.54,0,0,0-15.45,0C301.78,167.07,294.25,168.61,294.25,168.61Z" style="fill:#7D4700"></path><path d="M294.25,168.61s-4,1.4,4,50.55h34c-.57-13.84-.58-22.38,6-50.8a100,100,0,0,0-14.44-1.9,107.54,107.54,0,0,0-15.45,0C301.78,167.07,294.25,168.61,294.25,168.61Z" style="opacity:0.30000000000000004"></path><path d="M294,187.47c.22,2.39.51,5.08.89,8.12,2.79-2.51,5.06-9.65,4.23-13.81A24.59,24.59,0,0,0,294,187.47Z" style="opacity:0.4"></path><path d="M297.58,180c-1.62,4.09-3.37,8-5.33,11.88q-1.46,2.91-3.05,5.79c-1.1,1.9-2.21,3.8-3.47,5.67-.6.94-1.32,1.86-2,2.79l-1.11,1.38a10.73,10.73,0,0,1-1.6,1.64,7.4,7.4,0,0,1-2.68,1.47,6.93,6.93,0,0,1-3.31.18,9,9,0,0,1-4.42-2.36,21.93,21.93,0,0,1-4.31-6c-.53-1-1-2-1.42-3.08s-.8-2.06-1.14-3.19l3.87-1.73c1.09,1.65,2.31,3.35,3.54,4.88a19.07,19.07,0,0,0,3.81,3.78c.6.41,1.16.56,1.19.48s-.1-.07-.17-.08-.06,0,0-.14.19-.26.52-.72l.82-1.15c.52-.83,1.05-1.63,1.55-2.51,2-3.43,3.89-7.13,5.66-10.87s3.46-7.59,5.05-11.35Z" style="fill:#803e3c"></path><path d="M294.25,168.61c-4.16,1-9.28,12.44-9.28,12.44l8.64,12.7s11.5-14.49,10.13-18.91C302.32,170.23,299.3,167.37,294.25,168.61Z" style="fill:#7D4700"></path><path d="M294.25,168.61c-4.16,1-9.28,12.44-9.28,12.44l8.64,12.7s11.5-14.49,10.13-18.91C302.32,170.23,299.3,167.37,294.25,168.61Z" style="opacity:0.30000000000000004"></path><path d="M264.68,198.28l-6.87-4,5.45-4.72s4.91,3.91,5.13,7.39Z" style="fill:#7f3e3b"></path><polygon points="254.75 192.76 257.53 187.71 263.26 189.59 257.81 194.3 254.75 192.76" style="fill:#7f3e3b"></polygon><path d="M327.16,139.36c-1.52,8.17-2,11.67-6.67,15.38-7.05,5.58-16.75,1.92-17.7-6.54-.85-7.62,1.78-19.7,10.25-22A11.33,11.33,0,0,1,327.16,139.36Z" style="fill:#7f3e3b"></path><path d="M307.58,141.85c.81,1.93-.86,11.21-9,16,7.11,3.17,27.17,5.74,35.36-.11s1.55-33.76-8.75-32.84C320.78,119.06,299.11,119.58,307.58,141.85Z" style="fill:#263238"></path><path d="M305.67,140.21a8.31,8.31,0,0,0-.83,4.56c.23,2,1.74,2,2.85.57s2.07-4,1.28-5.59S306.53,138.53,305.67,140.21Z" style="fill:#7f3e3b"></path><path d="M307.24,219.16s4.86,57.49,9.9,89.89c4.08,26.17,7.29,87.34,7.29,87.34h11.42s4.07-59.34,2-85.22c-5.24-65.5,6.43-70.84-5.58-92Z" style="fill:#263238"></path><path d="M318.74,238.58c-3,4.31-7,9.28-8.31,14.59,1,9.7,2.11,20.43,3.35,30.75C317,275.32,322.44,258.13,318.74,238.58Z" style="opacity:0.4"></path><path d="M298.26,219.16s-9.44,64.5-12.76,89.84C282.05,335.35,272,394.42,272,394.42l11.2,1.72s19.09-56.12,22.63-82c3.87-28.2,22.59-95,22.59-95Z" style="fill:#263238"></path><polygon points="270.31 394.47 284.66 396.91 286.28 391.5 270.94 388.87 270.31 394.47" style="fill:#7D4700"></polygon><polygon points="322.87 396.62 337.42 396.62 338.18 391.52 322.78 391 322.87 396.62" style="fill:#7D4700"></polygon><path d="M332.78,217.16l1.54,3.05c.12.24-.16.48-.56.48H298.09c-.31,0-.56-.15-.58-.35l-.31-3c0-.21.24-.39.58-.39h34.45A.61.61,0,0,1,332.78,217.16Z" style="fill:#fff"></path><path d="M328.16,221h.92c.18,0,.32-.1.31-.21l-.43-4c0-.12-.18-.21-.36-.21h-.92c-.19,0-.33.09-.31.21l.43,4C327.81,220.92,328,221,328.16,221Z" style="fill:#263238"></path><path d="M305.79,221h.93c.18,0,.32-.1.31-.21l-.44-4c0-.12-.17-.21-.35-.21h-.93c-.18,0-.32.09-.31.21l.44,4C305.45,220.92,305.61,221,305.79,221Z" style="fill:#263238"></path><rect x="288.16" y="213.09" width="29.92" height="19.33" rx="3.66" transform="translate(35.11 -41.2) rotate(8.25)" style="fill:#7D4700"></rect><path d="M300.17,221.88a.28.28,0,0,1-.17-.07l-8-7.21a.25.25,0,0,1,.33-.37l7.91,7.12,14.9-4.09a.23.23,0,0,1,.3.17.25.25,0,0,1-.17.31l-15,4.13Z" style="fill:#fff"></path><path d="M317,217.5a.51.51,0,0,1-.31-.11.5.5,0,0,1-.08-.7c.16-.2,15.64-19.77,10.26-49.89a.51.51,0,0,1,.41-.58.5.5,0,0,1,.58.41c5.45,30.58-10.31,50.49-10.47,50.68A.48.48,0,0,1,317,217.5Z" style="fill:#7D4700"></path></g></svg>
